  0
SECTION
  2
BLOCKS
  0
ENDSEC
  0
SECTION
  2
ENTITIES
  0
LINE
  8
0
 10
20
 20
10
 11
-20
 21
10
  0
LINE
  8
0
 10
-20
 20
10
 11
-20
 21
-10
  0
LINE
  8
0
 10
-20
 20
-10
 11
20
 21
-10
  0
LINE
  8
0
 10
20
 20
-10
 11
20
 21
10
  0
LINE
  8
0
 10
-8.03139
 20
7.15099
 11
-8.06265
 21
7.15393
  0
LINE
  8
0
 10
-8.06265
 20
7.15393
 11
-8.09369
 21
7.15884
  0
LINE
  8
0
 10
-8.09369
 20
7.15884
 11
-8.12434
 21
7.1657
  0
LINE
  8
0
 10
-8.12434
 20
7.1657
 11
-8.1545
 21
7.17447
  0
LINE
  8
0
 10
-8.1545
 20
7.17447
 11
-8.18405
 21
7.1851
  0
LINE
  8
0
 10
-8.18405
 20
7.1851
 11
-8.21288
 21
7.19759
  0
LINE
  8
0
 10
-8.21288
 20
7.19759
 11
-8.24088
 21
7.21184
  0
LINE
  8
0
 10
-8.24088
 20
7.21184
 11
-8.2679
 21
7.22783
  0
LINE
  8
0
 10
-8.2679
 20
7.22783
 11
-8.29388
 21
7.24548
  0
LINE
  8
0
 10
-8.29388
 20
7.24548
 11
-8.31871
 21
7.26474
  0
LINE
  8
0
 10
-8.31871
 20
7.26474
 11
-8.34227
 21
7.28551
  0
LINE
  8
0
 10
-8.34227
 20
7.28551
 11
-8.36447
 21
7.30772
  0
LINE
  8
0
 10
-8.36447
 20
7.30772
 11
-8.38525
 21
7.33128
  0
LINE
  8
0
 10
-8.38525
 20
7.33128
 11
-8.4045
 21
7.35609
  0
LINE
  8
0
 10
-8.4045
 20
7.35609
 11
-8.42215
 21
7.38208
  0
LINE
  8
0
 10
-8.42215
 20
7.38208
 11
-8.43814
 21
7.40912
  0
LINE
  8
0
 10
-8.43814
 20
7.40912
 11
-8.45241
 21
7.4371
  0
LINE
  8
0
 10
-8.45241
 20
7.4371
 11
-8.46487
 21
7.46593
  0
LINE
  8
0
 10
-8.46487
 20
7.46593
 11
-8.47552
 21
7.49548
  0
LINE
  8
0
 10
-8.47552
 20
7.49548
 11
-8.48428
 21
7.52565
  0
LINE
  8
0
 10
-8.48428
 20
7.52565
 11
-8.49113
 21
7.5563
  0
LINE
  8
0
 10
-8.49113
 20
7.5563
 11
-8.49605
 21
7.58733
  0
LINE
  8
0
 10
-8.49605
 20
7.58733
 11
-8.49901
 21
7.61859
  0
LINE
  8
0
 10
-8.49901
 20
7.61859
 11
-8.5
 21
7.64999
  0
LINE
  8
0
 10
-8.5
 20
7.64999
 11
-8.49901
 21
7.68138
  0
LINE
  8
0
 10
-8.49901
 20
7.68138
 11
-8.49605
 21
7.71266
  0
LINE
  8
0
 10
-8.49605
 20
7.71266
 11
-8.49113
 21
7.74368
  0
LINE
  8
0
 10
-8.49113
 20
7.74368
 11
-8.48428
 21
7.77434
  0
LINE
  8
0
 10
-8.48428
 20
7.77434
 11
-8.47552
 21
7.8045
  0
LINE
  8
0
 10
-8.47552
 20
7.8045
 11
-8.46487
 21
7.83406
  0
LINE
  8
0
 10
-8.46487
 20
7.83406
 11
-8.45241
 21
7.86288
  0
LINE
  8
0
 10
-8.45241
 20
7.86288
 11
-8.43814
 21
7.89087
  0
LINE
  8
0
 10
-8.43814
 20
7.89087
 11
-8.42215
 21
7.91791
  0
LINE
  8
0
 10
-8.42215
 20
7.91791
 11
-8.4045
 21
7.94388
  0
LINE
  8
0
 10
-8.4045
 20
7.94388
 11
-8.38525
 21
7.9687
  0
LINE
  8
0
 10
-8.38525
 20
7.9687
 11
-8.36447
 21
7.99226
  0
LINE
  8
0
 10
-8.36447
 20
7.99226
 11
-8.34227
 21
8.01448
  0
LINE
  8
0
 10
-8.34227
 20
8.01448
 11
-8.31871
 21
8.03525
  0
LINE
  8
0
 10
-8.31871
 20
8.03525
 11
-8.29388
 21
8.0545
  0
LINE
  8
0
 10
-8.29388
 20
8.0545
 11
-8.2679
 21
8.07216
  0
LINE
  8
0
 10
-8.2679
 20
8.07216
 11
-8.24088
 21
8.08815
  0
LINE
  8
0
 10
-8.24088
 20
8.08815
 11
-8.21288
 21
8.1024
  0
LINE
  8
0
 10
-8.21288
 20
8.1024
 11
-8.18405
 21
8.11488
  0
LINE
  8
0
 10
-8.18405
 20
8.11488
 11
-8.1545
 21
8.12552
  0
LINE
  8
0
 10
-8.1545
 20
8.12552
 11
-8.12434
 21
8.13428
  0
LINE
  8
0
 10
-8.12434
 20
8.13428
 11
-8.09369
 21
8.14113
  0
LINE
  8
0
 10
-8.09369
 20
8.14113
 11
-8.06265
 21
8.14606
  0
LINE
  8
0
 10
-8.06265
 20
8.14606
 11
-8.03139
 21
8.149
  0
LINE
  8
0
 10
-8.03139
 20
8.149
 11
-8
 21
8.14999
  0
LINE
  8
0
 10
-8
 20
8.14999
 11
-7.96861
 21
8.149
  0
LINE
  8
0
 10
-7.96861
 20
8.149
 11
-7.93735
 21
8.14606
  0
LINE
  8
0
 10
-7.93735
 20
8.14606
 11
-7.90631
 21
8.14113
  0
LINE
  8
0
 10
-7.90631
 20
8.14113
 11
-7.87566
 21
8.13428
  0
LINE
  8
0
 10
-7.87566
 20
8.13428
 11
-7.8455
 21
8.12552
  0
LINE
  8
0
 10
-7.8455
 20
8.12552
 11
-7.81595
 21
8.11488
  0
LINE
  8
0
 10
-7.81595
 20
8.11488
 11
-7.78712
 21
8.1024
  0
LINE
  8
0
 10
-7.78712
 20
8.1024
 11
-7.75912
 21
8.08815
  0
LINE
  8
0
 10
-7.75912
 20
8.08815
 11
-7.7321
 21
8.07216
  0
LINE
  8
0
 10
-7.7321
 20
8.07216
 11
-7.70612
 21
8.0545
  0
LINE
  8
0
 10
-7.70612
 20
8.0545
 11
-7.68129
 21
8.03525
  0
LINE
  8
0
 10
-7.68129
 20
8.03525
 11
-7.65773
 21
8.01448
  0
LINE
  8
0
 10
-7.65773
 20
8.01448
 11
-7.63553
 21
7.99226
  0
LINE
  8
0
 10
-7.63553
 20
7.99226
 11
-7.61475
 21
7.9687
  0
LINE
  8
0
 10
-7.61475
 20
7.9687
 11
-7.5955
 21
7.94388
  0
LINE
  8
0
 10
-7.5955
 20
7.94388
 11
-7.57785
 21
7.91791
  0
LINE
  8
0
 10
-7.57785
 20
7.91791
 11
-7.56186
 21
7.89087
  0
LINE
  8
0
 10
-7.56186
 20
7.89087
 11
-7.54759
 21
7.86288
  0
LINE
  8
0
 10
-7.54759
 20
7.86288
 11
-7.53513
 21
7.83406
  0
LINE
  8
0
 10
-7.53513
 20
7.83406
 11
-7.52448
 21
7.8045
  0
LINE
  8
0
 10
-7.52448
 20
7.8045
 11
-7.51572
 21
7.77434
  0
LINE
  8
0
 10
-7.51572
 20
7.77434
 11
-7.50887
 21
7.74368
  0
LINE
  8
0
 10
-7.50887
 20
7.74368
 11
-7.50395
 21
7.71266
  0
LINE
  8
0
 10
-7.50395
 20
7.71266
 11
-7.50099
 21
7.68138
  0
LINE
  8
0
 10
-7.50099
 20
7.68138
 11
-7.5
 21
7.64999
  0
LINE
  8
0
 10
-7.5
 20
7.64999
 11
-7.50099
 21
7.61859
  0
LINE
  8
0
 10
-7.50099
 20
7.61859
 11
-7.50395
 21
7.58733
  0
LINE
  8
0
 10
-7.50395
 20
7.58733
 11
-7.50887
 21
7.5563
  0
LINE
  8
0
 10
-7.50887
 20
7.5563
 11
-7.51572
 21
7.52565
  0
LINE
  8
0
 10
-7.51572
 20
7.52565
 11
-7.52448
 21
7.49548
  0
LINE
  8
0
 10
-7.52448
 20
7.49548
 11
-7.53513
 21
7.46593
  0
LINE
  8
0
 10
-7.53513
 20
7.46593
 11
-7.54759
 21
7.4371
  0
LINE
  8
0
 10
-7.54759
 20
7.4371
 11
-7.56186
 21
7.40912
  0
LINE
  8
0
 10
-7.56186
 20
7.40912
 11
-7.57785
 21
7.38208
  0
LINE
  8
0
 10
-7.57785
 20
7.38208
 11
-7.5955
 21
7.35609
  0
LINE
  8
0
 10
-7.5955
 20
7.35609
 11
-7.61475
 21
7.33128
  0
LINE
  8
0
 10
-7.61475
 20
7.33128
 11
-7.63553
 21
7.30772
  0
LINE
  8
0
 10
-7.63553
 20
7.30772
 11
-7.65773
 21
7.28551
  0
LINE
  8
0
 10
-7.65773
 20
7.28551
 11
-7.68129
 21
7.26474
  0
LINE
  8
0
 10
-7.68129
 20
7.26474
 11
-7.70612
 21
7.24548
  0
LINE
  8
0
 10
-7.70612
 20
7.24548
 11
-7.7321
 21
7.22783
  0
LINE
  8
0
 10
-7.7321
 20
7.22783
 11
-7.75912
 21
7.21184
  0
LINE
  8
0
 10
-7.75912
 20
7.21184
 11
-7.78712
 21
7.19759
  0
LINE
  8
0
 10
-7.78712
 20
7.19759
 11
-7.81595
 21
7.1851
  0
LINE
  8
0
 10
-7.81595
 20
7.1851
 11
-7.8455
 21
7.17447
  0
LINE
  8
0
 10
-7.8455
 20
7.17447
 11
-7.87566
 21
7.1657
  0
LINE
  8
0
 10
-7.87566
 20
7.1657
 11
-7.90631
 21
7.15884
  0
LINE
  8
0
 10
-7.90631
 20
7.15884
 11
-7.93735
 21
7.15393
  0
LINE
  8
0
 10
-7.93735
 20
7.15393
 11
-7.96861
 21
7.15099
  0
LINE
  8
0
 10
-7.96861
 20
7.15099
 11
-8
 21
7.14999
  0
LINE
  8
0
 10
-8
 20
7.14999
 11
-8.03139
 21
7.15099
  0
LINE
  8
0
 10
-5.49141
 20
7.15099
 11
-5.52267
 21
7.15393
  0
LINE
  8
0
 10
-5.52267
 20
7.15393
 11
-5.5537
 21
7.15884
  0
LINE
  8
0
 10
-5.5537
 20
7.15884
 11
-5.58435
 21
7.1657
  0
LINE
  8
0
 10
-5.58435
 20
7.1657
 11
-5.61452
 21
7.17447
  0
LINE
  8
0
 10
-5.61452
 20
7.17447
 11
-5.64407
 21
7.1851
  0
LINE
  8
0
 10
-5.64407
 20
7.1851
 11
-5.6729
 21
7.19759
  0
LINE
  8
0
 10
-5.6729
 20
7.19759
 11
-5.70088
 21
7.21184
  0
LINE
  8
0
 10
-5.70088
 20
7.21184
 11
-5.72792
 21
7.22783
  0
LINE
  8
0
 10
-5.72792
 20
7.22783
 11
-5.75391
 21
7.24548
  0
LINE
  8
0
 10
-5.75391
 20
7.24548
 11
-5.77872
 21
7.26474
  0
LINE
  8
0
 10
-5.77872
 20
7.26474
 11
-5.80228
 21
7.28551
  0
LINE
  8
0
 10
-5.80228
 20
7.28551
 11
-5.82449
 21
7.30772
  0
LINE
  8
0
 10
-5.82449
 20
7.30772
 11
-5.84526
 21
7.33128
  0
LINE
  8
0
 10
-5.84526
 20
7.33128
 11
-5.86452
 21
7.35609
  0
LINE
  8
0
 10
-5.86452
 20
7.35609
 11
-5.88217
 21
7.38208
  0
LINE
  8
0
 10
-5.88217
 20
7.38208
 11
-5.89816
 21
7.40912
  0
LINE
  8
0
 10
-5.89816
 20
7.40912
 11
-5.91241
 21
7.4371
  0
LINE
  8
0
 10
-5.91241
 20
7.4371
 11
-5.9249
 21
7.46593
  0
LINE
  8
0
 10
-5.9249
 20
7.46593
 11
-5.93553
 21
7.49548
  0
LINE
  8
0
 10
-5.93553
 20
7.49548
 11
-5.94431
 21
7.52565
  0
LINE
  8
0
 10
-5.94431
 20
7.52565
 11
-5.95116
 21
7.5563
  0
LINE
  8
0
 10
-5.95116
 20
7.5563
 11
-5.95607
 21
7.58733
  0
LINE
  8
0
 10
-5.95607
 20
7.58733
 11
-5.95901
 21
7.61859
  0
LINE
  8
0
 10
-5.95901
 20
7.61859
 11
-5.96001
 21
7.64999
  0
LINE
  8
0
 10
-5.96001
 20
7.64999
 11
-5.95901
 21
7.68138
  0
LINE
  8
0
 10
-5.95901
 20
7.68138
 11
-5.95607
 21
7.71266
  0
LINE
  8
0
 10
-5.95607
 20
7.71266
 11
-5.95116
 21
7.74368
  0
LINE
  8
0
 10
-5.95116
 20
7.74368
 11
-5.94431
 21
7.77434
  0
LINE
  8
0
 10
-5.94431
 20
7.77434
 11
-5.93553
 21
7.8045
  0
LINE
  8
0
 10
-5.93553
 20
7.8045
 11
-5.9249
 21
7.83406
  0
LINE
  8
0
 10
-5.9249
 20
7.83406
 11
-5.91241
 21
7.86288
  0
LINE
  8
0
 10
-5.91241
 20
7.86288
 11
-5.89816
 21
7.89087
  0
LINE
  8
0
 10
-5.89816
 20
7.89087
 11
-5.88217
 21
7.91791
  0
LINE
  8
0
 10
-5.88217
 20
7.91791
 11
-5.86452
 21
7.94388
  0
LINE
  8
0
 10
-5.86452
 20
7.94388
 11
-5.84526
 21
7.9687
  0
LINE
  8
0
 10
-5.84526
 20
7.9687
 11
-5.82449
 21
7.99226
  0
LINE
  8
0
 10
-5.82449
 20
7.99226
 11
-5.80228
 21
8.01448
  0
LINE
  8
0
 10
-5.80228
 20
8.01448
 11
-5.77872
 21
8.03525
  0
LINE
  8
0
 10
-5.77872
 20
8.03525
 11
-5.75391
 21
8.0545
  0
LINE
  8
0
 10
-5.75391
 20
8.0545
 11
-5.72792
 21
8.07216
  0
LINE
  8
0
 10
-5.72792
 20
8.07216
 11
-5.70088
 21
8.08815
  0
LINE
  8
0
 10
-5.70088
 20
8.08815
 11
-5.6729
 21
8.1024
  0
LINE
  8
0
 10
-5.6729
 20
8.1024
 11
-5.64407
 21
8.11488
  0
LINE
  8
0
 10
-5.64407
 20
8.11488
 11
-5.61452
 21
8.12552
  0
LINE
  8
0
 10
-5.61452
 20
8.12552
 11
-5.58435
 21
8.13428
  0
LINE
  8
0
 10
-5.58435
 20
8.13428
 11
-5.5537
 21
8.14113
  0
LINE
  8
0
 10
-5.5537
 20
8.14113
 11
-5.52267
 21
8.14606
  0
LINE
  8
0
 10
-5.52267
 20
8.14606
 11
-5.49141
 21
8.149
  0
LINE
  8
0
 10
-5.49141
 20
8.149
 11
-5.46001
 21
8.14999
  0
LINE
  8
0
 10
-5.46001
 20
8.14999
 11
-5.42862
 21
8.149
  0
LINE
  8
0
 10
-5.42862
 20
8.149
 11
-5.39734
 21
8.14606
  0
LINE
  8
0
 10
-5.39734
 20
8.14606
 11
-5.36632
 21
8.14113
  0
LINE
  8
0
 10
-5.36632
 20
8.14113
 11
-5.33566
 21
8.13428
  0
LINE
  8
0
 10
-5.33566
 20
8.13428
 11
-5.3055
 21
8.12552
  0
LINE
  8
0
 10
-5.3055
 20
8.12552
 11
-5.27594
 21
8.11488
  0
LINE
  8
0
 10
-5.27594
 20
8.11488
 11
-5.24712
 21
8.1024
  0
LINE
  8
0
 10
-5.24712
 20
8.1024
 11
-5.21913
 21
8.08815
  0
LINE
  8
0
 10
-5.21913
 20
8.08815
 11
-5.19209
 21
8.07216
  0
LINE
  8
0
 10
-5.19209
 20
8.07216
 11
-5.16612
 21
8.0545
  0
LINE
  8
0
 10
-5.16612
 20
8.0545
 11
-5.1413
 21
8.03525
  0
LINE
  8
0
 10
-5.1413
 20
8.03525
 11
-5.11774
 21
8.01448
  0
LINE
  8
0
 10
-5.11774
 20
8.01448
 11
-5.09552
 21
7.99226
  0
LINE
  8
0
 10
-5.09552
 20
7.99226
 11
-5.07475
 21
7.9687
  0
LINE
  8
0
 10
-5.07475
 20
7.9687
 11
-5.0555
 21
7.94388
  0
LINE
  8
0
 10
-5.0555
 20
7.94388
 11
-5.03784
 21
7.91791
  0
LINE
  8
0
 10
-5.03784
 20
7.91791
 11
-5.02185
 21
7.89087
  0
LINE
  8
0
 10
-5.02185
 20
7.89087
 11
-5.0076
 21
7.86288
  0
LINE
  8
0
 10
-5.0076
 20
7.86288
 11
-4.99512
 21
7.83406
  0
LINE
  8
0
 10
-4.99512
 20
7.83406
 11
-4.98448
 21
7.8045
  0
LINE
  8
0
 10
-4.98448
 20
7.8045
 11
-4.97572
 21
7.77434
  0
LINE
  8
0
 10
-4.97572
 20
7.77434
 11
-4.96886
 21
7.74368
  0
LINE
  8
0
 10
-4.96886
 20
7.74368
 11
-4.96394
 21
7.71266
  0
LINE
  8
0
 10
-4.96394
 20
7.71266
 11
-4.961
 21
7.68138
  0
LINE
  8
0
 10
-4.961
 20
7.68138
 11
-4.96001
 21
7.64999
  0
LINE
  8
0
 10
-4.96001
 20
7.64999
 11
-4.961
 21
7.61859
  0
LINE
  8
0
 10
-4.961
 20
7.61859
 11
-4.96394
 21
7.58733
  0
LINE
  8
0
 10
-4.96394
 20
7.58733
 11
-4.96886
 21
7.5563
  0
LINE
  8
0
 10
-4.96886
 20
7.5563
 11
-4.97572
 21
7.52565
  0
LINE
  8
0
 10
-4.97572
 20
7.52565
 11
-4.98448
 21
7.49548
  0
LINE
  8
0
 10
-4.98448
 20
7.49548
 11
-4.99512
 21
7.46593
  0
LINE
  8
0
 10
-4.99512
 20
7.46593
 11
-5.0076
 21
7.4371
  0
LINE
  8
0
 10
-5.0076
 20
7.4371
 11
-5.02185
 21
7.40912
  0
LINE
  8
0
 10
-5.02185
 20
7.40912
 11
-5.03784
 21
7.38208
  0
LINE
  8
0
 10
-5.03784
 20
7.38208
 11
-5.0555
 21
7.35609
  0
LINE
  8
0
 10
-5.0555
 20
7.35609
 11
-5.07475
 21
7.33128
  0
LINE
  8
0
 10
-5.07475
 20
7.33128
 11
-5.09552
 21
7.30772
  0
LINE
  8
0
 10
-5.09552
 20
7.30772
 11
-5.11774
 21
7.28551
  0
LINE
  8
0
 10
-5.11774
 20
7.28551
 11
-5.1413
 21
7.26474
  0
LINE
  8
0
 10
-5.1413
 20
7.26474
 11
-5.16612
 21
7.24548
  0
LINE
  8
0
 10
-5.16612
 20
7.24548
 11
-5.19209
 21
7.22783
  0
LINE
  8
0
 10
-5.19209
 20
7.22783
 11
-5.21913
 21
7.21184
  0
LINE
  8
0
 10
-5.21913
 20
7.21184
 11
-5.24712
 21
7.19759
  0
LINE
  8
0
 10
-5.24712
 20
7.19759
 11
-5.27594
 21
7.1851
  0
LINE
  8
0
 10
-5.27594
 20
7.1851
 11
-5.3055
 21
7.17447
  0
LINE
  8
0
 10
-5.3055
 20
7.17447
 11
-5.33566
 21
7.1657
  0
LINE
  8
0
 10
-5.33566
 20
7.1657
 11
-5.36632
 21
7.15884
  0
LINE
  8
0
 10
-5.36632
 20
7.15884
 11
-5.39734
 21
7.15393
  0
LINE
  8
0
 10
-5.39734
 20
7.15393
 11
-5.42862
 21
7.15099
  0
LINE
  8
0
 10
-5.42862
 20
7.15099
 11
-5.46001
 21
7.14999
  0
LINE
  8
0
 10
-5.46001
 20
7.14999
 11
-5.49141
 21
7.15099
  0
LINE
  8
0
 10
-2.9514
 20
7.15099
 11
-2.98268
 21
7.15393
  0
LINE
  8
0
 10
-2.98268
 20
7.15393
 11
-3.0137
 21
7.15884
  0
LINE
  8
0
 10
-3.0137
 20
7.15884
 11
-3.04436
 21
7.1657
  0
LINE
  8
0
 10
-3.04436
 20
7.1657
 11
-3.07451
 21
7.17447
  0
LINE
  8
0
 10
-3.07451
 20
7.17447
 11
-3.10406
 21
7.1851
  0
LINE
  8
0
 10
-3.10406
 20
7.1851
 11
-3.1329
 21
7.19759
  0
LINE
  8
0
 10
-3.1329
 20
7.19759
 11
-3.16089
 21
7.21184
  0
LINE
  8
0
 10
-3.16089
 20
7.21184
 11
-3.18793
 21
7.22783
  0
LINE
  8
0
 10
-3.18793
 20
7.22783
 11
-3.2139
 21
7.24548
  0
LINE
  8
0
 10
-3.2139
 20
7.24548
 11
-3.23872
 21
7.26474
  0
LINE
  8
0
 10
-3.23872
 20
7.26474
 11
-3.26228
 21
7.28551
  0
LINE
  8
0
 10
-3.26228
 20
7.28551
 11
-3.28448
 21
7.30772
  0
LINE
  8
0
 10
-3.28448
 20
7.30772
 11
-3.30527
 21
7.33128
  0
LINE
  8
0
 10
-3.30527
 20
7.33128
 11
-3.32451
 21
7.35609
  0
LINE
  8
0
 10
-3.32451
 20
7.35609
 11
-3.34218
 21
7.38208
  0
LINE
  8
0
 10
-3.34218
 20
7.38208
 11
-3.35815
 21
7.40912
  0
LINE
  8
0
 10
-3.35815
 20
7.40912
 11
-3.37242
 21
7.4371
  0
LINE
  8
0
 10
-3.37242
 20
7.4371
 11
-3.3849
 21
7.46593
  0
LINE
  8
0
 10
-3.3849
 20
7.46593
 11
-3.39554
 21
7.49548
  0
LINE
  8
0
 10
-3.39554
 20
7.49548
 11
-3.4043
 21
7.52565
  0
LINE
  8
0
 10
-3.4043
 20
7.52565
 11
-3.41115
 21
7.5563
  0
LINE
  8
0
 10
-3.41115
 20
7.5563
 11
-3.41606
 21
7.58733
  0
LINE
  8
0
 10
-3.41606
 20
7.58733
 11
-3.41902
 21
7.61859
  0
LINE
  8
0
 10
-3.41902
 20
7.61859
 11
-3.42001
 21
7.64999
  0
LINE
  8
0
 10
-3.42001
 20
7.64999
 11
-3.41902
 21
7.68138
  0
LINE
  8
0
 10
-3.41902
 20
7.68138
 11
-3.41606
 21
7.71266
  0
LINE
  8
0
 10
-3.41606
 20
7.71266
 11
-3.41115
 21
7.74368
  0
LINE
  8
0
 10
-3.41115
 20
7.74368
 11
-3.4043
 21
7.77434
  0
LINE
  8
0
 10
-3.4043
 20
7.77434
 11
-3.39554
 21
7.8045
  0
LINE
  8
0
 10
-3.39554
 20
7.8045
 11
-3.3849
 21
7.83406
  0
LINE
  8
0
 10
-3.3849
 20
7.83406
 11
-3.37242
 21
7.86288
  0
LINE
  8
0
 10
-3.37242
 20
7.86288
 11
-3.35815
 21
7.89087
  0
LINE
  8
0
 10
-3.35815
 20
7.89087
 11
-3.34218
 21
7.91791
  0
LINE
  8
0
 10
-3.34218
 20
7.91791
 11
-3.32451
 21
7.94388
  0
LINE
  8
0
 10
-3.32451
 20
7.94388
 11
-3.30527
 21
7.9687
  0
LINE
  8
0
 10
-3.30527
 20
7.9687
 11
-3.28448
 21
7.99226
  0
LINE
  8
0
 10
-3.28448
 20
7.99226
 11
-3.26228
 21
8.01448
  0
LINE
  8
0
 10
-3.26228
 20
8.01448
 11
-3.23872
 21
8.03525
  0
LINE
  8
0
 10
-3.23872
 20
8.03525
 11
-3.2139
 21
8.0545
  0
LINE
  8
0
 10
-3.2139
 20
8.0545
 11
-3.18793
 21
8.07216
  0
LINE
  8
0
 10
-3.18793
 20
8.07216
 11
-3.16089
 21
8.08815
  0
LINE
  8
0
 10
-3.16089
 20
8.08815
 11
-3.1329
 21
8.1024
  0
LINE
  8
0
 10
-3.1329
 20
8.1024
 11
-3.10406
 21
8.11488
  0
LINE
  8
0
 10
-3.10406
 20
8.11488
 11
-3.07451
 21
8.12552
  0
LINE
  8
0
 10
-3.07451
 20
8.12552
 11
-3.04436
 21
8.13428
  0
LINE
  8
0
 10
-3.04436
 20
8.13428
 11
-3.0137
 21
8.14113
  0
LINE
  8
0
 10
-3.0137
 20
8.14113
 11
-2.98268
 21
8.14606
  0
LINE
  8
0
 10
-2.98268
 20
8.14606
 11
-2.9514
 21
8.149
  0
LINE
  8
0
 10
-2.9514
 20
8.149
 11
-2.92001
 21
8.14999
  0
LINE
  8
0
 10
-2.92001
 20
8.14999
 11
-2.88861
 21
8.149
  0
LINE
  8
0
 10
-2.88861
 20
8.149
 11
-2.85735
 21
8.14606
  0
LINE
  8
0
 10
-2.85735
 20
8.14606
 11
-2.82632
 21
8.14113
  0
LINE
  8
0
 10
-2.82632
 20
8.14113
 11
-2.79567
 21
8.13428
  0
LINE
  8
0
 10
-2.79567
 20
8.13428
 11
-2.7655
 21
8.12552
  0
LINE
  8
0
 10
-2.7655
 20
8.12552
 11
-2.73595
 21
8.11488
  0
LINE
  8
0
 10
-2.73595
 20
8.11488
 11
-2.70712
 21
8.1024
  0
LINE
  8
0
 10
-2.70712
 20
8.1024
 11
-2.67914
 21
8.08815
  0
LINE
  8
0
 10
-2.67914
 20
8.08815
 11
-2.6521
 21
8.07216
  0
LINE
  8
0
 10
-2.6521
 20
8.07216
 11
-2.62611
 21
8.0545
  0
LINE
  8
0
 10
-2.62611
 20
8.0545
 11
-2.6013
 21
8.03525
  0
LINE
  8
0
 10
-2.6013
 20
8.03525
 11
-2.57773
 21
8.01448
  0
LINE
  8
0
 10
-2.57773
 20
8.01448
 11
-2.55553
 21
7.99226
  0
LINE
  8
0
 10
-2.55553
 20
7.99226
 11
-2.53474
 21
7.9687
  0
LINE
  8
0
 10
-2.53474
 20
7.9687
 11
-2.5155
 21
7.94388
  0
LINE
  8
0
 10
-2.5155
 20
7.94388
 11
-2.49785
 21
7.91791
  0
LINE
  8
0
 10
-2.49785
 20
7.91791
 11
-2.48186
 21
7.89087
  0
LINE
  8
0
 10
-2.48186
 20
7.89087
 11
-2.46759
 21
7.86288
  0
LINE
  8
0
 10
-2.46759
 20
7.86288
 11
-2.45512
 21
7.83406
  0
LINE
  8
0
 10
-2.45512
 20
7.83406
 11
-2.44447
 21
7.8045
  0
LINE
  8
0
 10
-2.44447
 20
7.8045
 11
-2.43571
 21
7.77434
  0
LINE
  8
0
 10
-2.43571
 20
7.77434
 11
-2.42886
 21
7.74368
  0
LINE
  8
0
 10
-2.42886
 20
7.74368
 11
-2.42395
 21
7.71266
  0
LINE
  8
0
 10
-2.42395
 20
7.71266
 11
-2.42099
 21
7.68138
  0
LINE
  8
0
 10
-2.42099
 20
7.68138
 11
-2.42001
 21
7.64999
  0
LINE
  8
0
 10
-2.42001
 20
7.64999
 11
-2.42099
 21
7.61859
  0
LINE
  8
0
 10
-2.42099
 20
7.61859
 11
-2.42395
 21
7.58733
  0
LINE
  8
0
 10
-2.42395
 20
7.58733
 11
-2.42886
 21
7.5563
  0
LINE
  8
0
 10
-2.42886
 20
7.5563
 11
-2.43571
 21
7.52565
  0
LINE
  8
0
 10
-2.43571
 20
7.52565
 11
-2.44447
 21
7.49548
  0
LINE
  8
0
 10
-2.44447
 20
7.49548
 11
-2.45512
 21
7.46593
  0
LINE
  8
0
 10
-2.45512
 20
7.46593
 11
-2.46759
 21
7.4371
  0
LINE
  8
0
 10
-2.46759
 20
7.4371
 11
-2.48186
 21
7.40912
  0
LINE
  8
0
 10
-2.48186
 20
7.40912
 11
-2.49785
 21
7.38208
  0
LINE
  8
0
 10
-2.49785
 20
7.38208
 11
-2.5155
 21
7.35609
  0
LINE
  8
0
 10
-2.5155
 20
7.35609
 11
-2.53474
 21
7.33128
  0
LINE
  8
0
 10
-2.53474
 20
7.33128
 11
-2.55553
 21
7.30772
  0
LINE
  8
0
 10
-2.55553
 20
7.30772
 11
-2.57773
 21
7.28551
  0
LINE
  8
0
 10
-2.57773
 20
7.28551
 11
-2.6013
 21
7.26474
  0
LINE
  8
0
 10
-2.6013
 20
7.26474
 11
-2.62611
 21
7.24548
  0
LINE
  8
0
 10
-2.62611
 20
7.24548
 11
-2.6521
 21
7.22783
  0
LINE
  8
0
 10
-2.6521
 20
7.22783
 11
-2.67914
 21
7.21184
  0
LINE
  8
0
 10
-2.67914
 20
7.21184
 11
-2.70712
 21
7.19759
  0
LINE
  8
0
 10
-2.70712
 20
7.19759
 11
-2.73595
 21
7.1851
  0
LINE
  8
0
 10
-2.73595
 20
7.1851
 11
-2.7655
 21
7.17447
  0
LINE
  8
0
 10
-2.7655
 20
7.17447
 11
-2.79567
 21
7.1657
  0
LINE
  8
0
 10
-2.79567
 20
7.1657
 11
-2.82632
 21
7.15884
  0
LINE
  8
0
 10
-2.82632
 20
7.15884
 11
-2.85735
 21
7.15393
  0
LINE
  8
0
 10
-2.85735
 20
7.15393
 11
-2.88861
 21
7.15099
  0
LINE
  8
0
 10
-2.88861
 20
7.15099
 11
-2.92001
 21
7.14999
  0
LINE
  8
0
 10
-2.92001
 20
7.14999
 11
-2.9514
 21
7.15099
  0
LINE
  8
0
 10
-0.411407
 20
7.15099
 11
-0.442673
 21
7.15393
  0
LINE
  8
0
 10
-0.442673
 20
7.15393
 11
-0.473694
 21
7.15884
  0
LINE
  8
0
 10
-0.473694
 20
7.15884
 11
-0.504349
 21
7.1657
  0
LINE
  8
0
 10
-0.504349
 20
7.1657
 11
-0.534515
 21
7.17447
  0
LINE
  8
0
 10
-0.534515
 20
7.17447
 11
-0.564072
 21
7.1851
  0
LINE
  8
0
 10
-0.564072
 20
7.1851
 11
-0.592896
 21
7.19759
  0
LINE
  8
0
 10
-0.592896
 20
7.19759
 11
-0.62088
 21
7.21184
  0
LINE
  8
0
 10
-0.62088
 20
7.21184
 11
-0.647919
 21
7.22783
  0
LINE
  8
0
 10
-0.647919
 20
7.22783
 11
-0.673904
 21
7.24548
  0
LINE
  8
0
 10
-0.673904
 20
7.24548
 11
-0.698715
 21
7.26474
  0
LINE
  8
0
 10
-0.698715
 20
7.26474
 11
-0.722275
 21
7.28551
  0
LINE
  8
0
 10
-0.722275
 20
7.28551
 11
-0.744492
 21
7.30772
  0
LINE
  8
0
 10
-0.744492
 20
7.30772
 11
-0.765259
 21
7.33128
  0
LINE
  8
0
 10
-0.765259
 20
7.33128
 11
-0.784515
 21
7.35609
  0
LINE
  8
0
 10
-0.784515
 20
7.35609
 11
-0.80217
 21
7.38208
  0
LINE
  8
0
 10
-0.80217
 20
7.38208
 11
-0.818161
 21
7.40912
  0
LINE
  8
0
 10
-0.818161
 20
7.40912
 11
-0.832428
 21
7.4371
  0
LINE
  8
0
 10
-0.832428
 20
7.4371
 11
-0.844894
 21
7.46593
  0
LINE
  8
0
 10
-0.844894
 20
7.46593
 11
-0.85553
 21
7.49548
  0
LINE
  8
0
 10
-0.85553
 20
7.49548
 11
-0.864304
 21
7.52565
  0
LINE
  8
0
 10
-0.864304
 20
7.52565
 11
-0.871155
 21
7.5563
  0
LINE
  8
0
 10
-0.871155
 20
7.5563
 11
-0.876068
 21
7.58733
  0
LINE
  8
0
 10
-0.876068
 20
7.58733
 11
-0.879028
 21
7.61859
  0
LINE
  8
0
 10
-0.879028
 20
7.61859
 11
-0.880005
 21
7.64999
  0
LINE
  8
0
 10
-0.880005
 20
7.64999
 11
-0.879028
 21
7.68138
  0
LINE
  8
0
 10
-0.879028
 20
7.68138
 11
-0.876068
 21
7.71266
  0
LINE
  8
0
 10
-0.876068
 20
7.71266
 11
-0.871155
 21
7.74368
  0
LINE
  8
0
 10
-0.871155
 20
7.74368
 11
-0.864304
 21
7.77434
  0
LINE
  8
0
 10
-0.864304
 20
7.77434
 11
-0.85553
 21
7.8045
  0
LINE
  8
0
 10
-0.85553
 20
7.8045
 11
-0.844894
 21
7.83406
  0
LINE
  8
0
 10
-0.844894
 20
7.83406
 11
-0.832428
 21
7.86288
  0
LINE
  8
0
 10
-0.832428
 20
7.86288
 11
-0.818161
 21
7.89087
  0
LINE
  8
0
 10
-0.818161
 20
7.89087
 11
-0.80217
 21
7.91791
  0
LINE
  8
0
 10
-0.80217
 20
7.91791
 11
-0.784515
 21
7.94388
  0
LINE
  8
0
 10
-0.784515
 20
7.94388
 11
-0.765259
 21
7.9687
  0
LINE
  8
0
 10
-0.765259
 20
7.9687
 11
-0.744492
 21
7.99226
  0
LINE
  8
0
 10
-0.744492
 20
7.99226
 11
-0.722275
 21
8.01448
  0
LINE
  8
0
 10
-0.722275
 20
8.01448
 11
-0.698715
 21
8.03525
  0
LINE
  8
0
 10
-0.698715
 20
8.03525
 11
-0.673904
 21
8.0545
  0
LINE
  8
0
 10
-0.673904
 20
8.0545
 11
-0.647919
 21
8.07216
  0
LINE
  8
0
 10
-0.647919
 20
8.07216
 11
-0.62088
 21
8.08815
  0
LINE
  8
0
 10
-0.62088
 20
8.08815
 11
-0.592896
 21
8.1024
  0
LINE
  8
0
 10
-0.592896
 20
8.1024
 11
-0.564072
 21
8.11488
  0
LINE
  8
0
 10
-0.564072
 20
8.11488
 11
-0.534515
 21
8.12552
  0
LINE
  8
0
 10
-0.534515
 20
8.12552
 11
-0.504349
 21
8.13428
  0
LINE
  8
0
 10
-0.504349
 20
8.13428
 11
-0.473694
 21
8.14113
  0
LINE
  8
0
 10
-0.473694
 20
8.14113
 11
-0.442673
 21
8.14606
  0
LINE
  8
0
 10
-0.442673
 20
8.14606
 11
-0.411407
 21
8.149
  0
LINE
  8
0
 10
-0.411407
 20
8.149
 11
-0.380005
 21
8.14999
  0
LINE
  8
0
 10
-0.380005
 20
8.14999
 11
-0.348618
 21
8.149
  0
LINE
  8
0
 10
-0.348618
 20
8.149
 11
-0.317337
 21
8.14606
  0
LINE
  8
0
 10
-0.317337
 20
8.14606
 11
-0.286316
 21
8.14113
  0
LINE
  8
0
 10
-0.286316
 20
8.14113
 11
-0.255661
 21
8.13428
  0
LINE
  8
0
 10
-0.255661
 20
8.13428
 11
-0.225494
 21
8.12552
  0
LINE
  8
0
 10
-0.225494
 20
8.12552
 11
-0.195938
 21
8.11488
  0
LINE
  8
0
 10
-0.195938
 20
8.11488
 11
-0.167114
 21
8.1024
  0
LINE
  8
0
 10
-0.167114
 20
8.1024
 11
-0.13913
 21
8.08815
  0
LINE
  8
0
 10
-0.13913
 20
8.08815
 11
-0.112091
 21
8.07216
  0
LINE
  8
0
 10
-0.112091
 20
8.07216
 11
-0.0861206
 21
8.0545
  0
LINE
  8
0
 10
-0.0861206
 20
8.0545
 11
-0.0612946
 21
8.03525
  0
LINE
  8
0
 10
-0.0612946
 20
8.03525
 11
-0.037735
 21
8.01448
  0
LINE
  8
0
 10
-0.037735
 20
8.01448
 11
-0.0155182
 21
7.99226
  0
LINE
  8
0
 10
-0.0155182
 20
7.99226
 11
0.00524902
 21
7.9687
  0
LINE
  8
0
 10
0.00524902
 20
7.9687
 11
0.0245056
 21
7.94388
  0
LINE
  8
0
 10
0.0245056
 20
7.94388
 11
0.04216
 21
7.91791
  0
LINE
  8
0
 10
0.04216
 20
7.91791
 11
0.0581512
 21
7.89087
  0
LINE
  8
0
 10
0.0581512
 20
7.89087
 11
0.072403
 21
7.86288
  0
LINE
  8
0
 10
0.072403
 20
7.86288
 11
0.0848846
 21
7.83406
  0
LINE
  8
0
 10
0.0848846
 20
7.83406
 11
0.09552
 21
7.8045
  0
LINE
  8
0
 10
0.09552
 20
7.8045
 11
0.104279
 21
7.77434
  0
LINE
  8
0
 10
0.104279
 20
7.77434
 11
0.11113
 21
7.74368
  0
LINE
  8
0
 10
0.11113
 20
7.74368
 11
0.116043
 21
7.71266
  0
LINE
  8
0
 10
0.116043
 20
7.71266
 11
0.119003
 21
7.68138
  0
LINE
  8
0
 10
0.119003
 20
7.68138
 11
0.119995
 21
7.64999
  0
LINE
  8
0
 10
0.119995
 20
7.64999
 11
0.119003
 21
7.61859
  0
LINE
  8
0
 10
0.119003
 20
7.61859
 11
0.116043
 21
7.58733
  0
LINE
  8
0
 10
0.116043
 20
7.58733
 11
0.11113
 21
7.5563
  0
LINE
  8
0
 10
0.11113
 20
7.5563
 11
0.104279
 21
7.52565
  0
LINE
  8
0
 10
0.104279
 20
7.52565
 11
0.09552
 21
7.49548
  0
LINE
  8
0
 10
0.09552
 20
7.49548
 11
0.0848846
 21
7.46593
  0
LINE
  8
0
 10
0.0848846
 20
7.46593
 11
0.072403
 21
7.4371
  0
LINE
  8
0
 10
0.072403
 20
7.4371
 11
0.0581512
 21
7.40912
  0
LINE
  8
0
 10
0.0581512
 20
7.40912
 11
0.04216
 21
7.38208
  0
LINE
  8
0
 10
0.04216
 20
7.38208
 11
0.0245056
 21
7.35609
  0
LINE
  8
0
 10
0.0245056
 20
7.35609
 11
0.00524902
 21
7.33128
  0
LINE
  8
0
 10
0.00524902
 20
7.33128
 11
-0.0155182
 21
7.30772
  0
LINE
  8
0
 10
-0.0155182
 20
7.30772
 11
-0.037735
 21
7.28551
  0
LINE
  8
0
 10
-0.037735
 20
7.28551
 11
-0.0612946
 21
7.26474
  0
LINE
  8
0
 10
-0.0612946
 20
7.26474
 11
-0.0861206
 21
7.24548
  0
LINE
  8
0
 10
-0.0861206
 20
7.24548
 11
-0.112091
 21
7.22783
  0
LINE
  8
0
 10
-0.112091
 20
7.22783
 11
-0.13913
 21
7.21184
  0
LINE
  8
0
 10
-0.13913
 20
7.21184
 11
-0.167114
 21
7.19759
  0
LINE
  8
0
 10
-0.167114
 20
7.19759
 11
-0.195938
 21
7.1851
  0
LINE
  8
0
 10
-0.195938
 20
7.1851
 11
-0.225494
 21
7.17447
  0
LINE
  8
0
 10
-0.225494
 20
7.17447
 11
-0.255661
 21
7.1657
  0
LINE
  8
0
 10
-0.255661
 20
7.1657
 11
-0.286316
 21
7.15884
  0
LINE
  8
0
 10
-0.286316
 20
7.15884
 11
-0.317337
 21
7.15393
  0
LINE
  8
0
 10
-0.317337
 20
7.15393
 11
-0.348618
 21
7.15099
  0
LINE
  8
0
 10
-0.348618
 20
7.15099
 11
-0.380005
 21
7.14999
  0
LINE
  8
0
 10
-0.380005
 20
7.14999
 11
-0.411407
 21
7.15099
  0
LINE
  8
0
 10
2.1286
 20
7.15099
 11
2.09732
 21
7.15393
  0
LINE
  8
0
 10
2.09732
 20
7.15393
 11
2.0663
 21
7.15884
  0
LINE
  8
0
 10
2.0663
 20
7.15884
 11
2.03564
 21
7.1657
  0
LINE
  8
0
 10
2.03564
 20
7.1657
 11
2.00548
 21
7.17447
  0
LINE
  8
0
 10
2.00548
 20
7.17447
 11
1.97594
 21
7.1851
  0
LINE
  8
0
 10
1.97594
 20
7.1851
 11
1.9471
 21
7.19759
  0
LINE
  8
0
 10
1.9471
 20
7.19759
 11
1.91911
 21
7.21184
  0
LINE
  8
0
 10
1.91911
 20
7.21184
 11
1.89207
 21
7.22783
  0
LINE
  8
0
 10
1.89207
 20
7.22783
 11
1.8661
 21
7.24548
  0
LINE
  8
0
 10
1.8661
 20
7.24548
 11
1.84128
 21
7.26474
  0
LINE
  8
0
 10
1.84128
 20
7.26474
 11
1.81772
 21
7.28551
  0
LINE
  8
0
 10
1.81772
 20
7.28551
 11
1.7955
 21
7.30772
  0
LINE
  8
0
 10
1.7955
 20
7.30772
 11
1.77473
 21
7.33128
  0
LINE
  8
0
 10
1.77473
 20
7.33128
 11
1.75548
 21
7.35609
  0
LINE
  8
0
 10
1.75548
 20
7.35609
 11
1.73782
 21
7.38208
  0
LINE
  8
0
 10
1.73782
 20
7.38208
 11
1.72183
 21
7.40912
  0
LINE
  8
0
 10
1.72183
 20
7.40912
 11
1.70758
 21
7.4371
  0
LINE
  8
0
 10
1.70758
 20
7.4371
 11
1.6951
 21
7.46593
  0
LINE
  8
0
 10
1.6951
 20
7.46593
 11
1.68446
 21
7.49548
  0
LINE
  8
0
 10
1.68446
 20
7.49548
 11
1.6757
 21
7.52565
  0
LINE
  8
0
 10
1.6757
 20
7.52565
 11
1.66885
 21
7.5563
  0
LINE
  8
0
 10
1.66885
 20
7.5563
 11
1.66394
 21
7.58733
  0
LINE
  8
0
 10
1.66394
 20
7.58733
 11
1.66098
 21
7.61859
  0
LINE
  8
0
 10
1.66098
 20
7.61859
 11
1.65999
 21
7.64999
  0
LINE
  8
0
 10
1.65999
 20
7.64999
 11
1.66098
 21
7.68138
  0
LINE
  8
0
 10
1.66098
 20
7.68138
 11
1.66394
 21
7.71266
  0
LINE
  8
0
 10
1.66394
 20
7.71266
 11
1.66885
 21
7.74368
  0
LINE
  8
0
 10
1.66885
 20
7.74368
 11
1.6757
 21
7.77434
  0
LINE
  8
0
 10
1.6757
 20
7.77434
 11
1.68446
 21
7.8045
  0
LINE
  8
0
 10
1.68446
 20
7.8045
 11
1.6951
 21
7.83406
  0
LINE
  8
0
 10
1.6951
 20
7.83406
 11
1.70758
 21
7.86288
  0
LINE
  8
0
 10
1.70758
 20
7.86288
 11
1.72183
 21
7.89087
  0
LINE
  8
0
 10
1.72183
 20
7.89087
 11
1.73782
 21
7.91791
  0
LINE
  8
0
 10
1.73782
 20
7.91791
 11
1.75548
 21
7.94388
  0
LINE
  8
0
 10
1.75548
 20
7.94388
 11
1.77473
 21
7.9687
  0
LINE
  8
0
 10
1.77473
 20
7.9687
 11
1.7955
 21
7.99226
  0
LINE
  8
0
 10
1.7955
 20
7.99226
 11
1.81772
 21
8.01448
  0
LINE
  8
0
 10
1.81772
 20
8.01448
 11
1.84128
 21
8.03525
  0
LINE
  8
0
 10
1.84128
 20
8.03525
 11
1.8661
 21
8.0545
  0
LINE
  8
0
 10
1.8661
 20
8.0545
 11
1.89207
 21
8.07216
  0
LINE
  8
0
 10
1.89207
 20
8.07216
 11
1.91911
 21
8.08815
  0
LINE
  8
0
 10
1.91911
 20
8.08815
 11
1.9471
 21
8.1024
  0
LINE
  8
0
 10
1.9471
 20
8.1024
 11
1.97594
 21
8.11488
  0
LINE
  8
0
 10
1.97594
 20
8.11488
 11
2.00548
 21
8.12552
  0
LINE
  8
0
 10
2.00548
 20
8.12552
 11
2.03564
 21
8.13428
  0
LINE
  8
0
 10
2.03564
 20
8.13428
 11
2.0663
 21
8.14113
  0
LINE
  8
0
 10
2.0663
 20
8.14113
 11
2.09732
 21
8.14606
  0
LINE
  8
0
 10
2.09732
 20
8.14606
 11
2.1286
 21
8.149
  0
LINE
  8
0
 10
2.1286
 20
8.149
 11
2.15999
 21
8.14999
  0
LINE
  8
0
 10
2.15999
 20
8.14999
 11
2.19139
 21
8.149
  0
LINE
  8
0
 10
2.19139
 20
8.149
 11
2.22266
 21
8.14606
  0
LINE
  8
0
 10
2.22266
 20
8.14606
 11
2.25368
 21
8.14113
  0
LINE
  8
0
 10
2.25368
 20
8.14113
 11
2.28433
 21
8.13428
  0
LINE
  8
0
 10
2.28433
 20
8.13428
 11
2.3145
 21
8.12552
  0
LINE
  8
0
 10
2.3145
 20
8.12552
 11
2.34406
 21
8.11488
  0
LINE
  8
0
 10
2.34406
 20
8.11488
 11
2.37288
 21
8.1024
  0
LINE
  8
0
 10
2.37288
 20
8.1024
 11
2.40086
 21
8.08815
  0
LINE
  8
0
 10
2.40086
 20
8.08815
 11
2.4279
 21
8.07216
  0
LINE
  8
0
 10
2.4279
 20
8.07216
 11
2.45389
 21
8.0545
  0
LINE
  8
0
 10
2.45389
 20
8.0545
 11
2.4787
 21
8.03525
  0
LINE
  8
0
 10
2.4787
 20
8.03525
 11
2.50226
 21
8.01448
  0
LINE
  8
0
 10
2.50226
 20
8.01448
 11
2.52448
 21
7.99226
  0
LINE
  8
0
 10
2.52448
 20
7.99226
 11
2.54524
 21
7.9687
  0
LINE
  8
0
 10
2.54524
 20
7.9687
 11
2.5645
 21
7.94388
  0
LINE
  8
0
 10
2.5645
 20
7.94388
 11
2.58215
 21
7.91791
  0
LINE
  8
0
 10
2.58215
 20
7.91791
 11
2.59814
 21
7.89087
  0
LINE
  8
0
 10
2.59814
 20
7.89087
 11
2.61241
 21
7.86288
  0
LINE
  8
0
 10
2.61241
 20
7.86288
 11
2.62488
 21
7.83406
  0
LINE
  8
0
 10
2.62488
 20
7.83406
 11
2.63551
 21
7.8045
  0
LINE
  8
0
 10
2.63551
 20
7.8045
 11
2.64429
 21
7.77434
  0
LINE
  8
0
 10
2.64429
 20
7.77434
 11
2.65114
 21
7.74368
  0
LINE
  8
0
 10
2.65114
 20
7.74368
 11
2.65605
 21
7.71266
  0
LINE
  8
0
 10
2.65605
 20
7.71266
 11
2.65901
 21
7.68138
  0
LINE
  8
0
 10
2.65901
 20
7.68138
 11
2.65999
 21
7.64999
  0
LINE
  8
0
 10
2.65999
 20
7.64999
 11
2.65901
 21
7.61859
  0
LINE
  8
0
 10
2.65901
 20
7.61859
 11
2.65605
 21
7.58733
  0
LINE
  8
0
 10
2.65605
 20
7.58733
 11
2.65114
 21
7.5563
  0
LINE
  8
0
 10
2.65114
 20
7.5563
 11
2.64429
 21
7.52565
  0
LINE
  8
0
 10
2.64429
 20
7.52565
 11
2.63551
 21
7.49548
  0
LINE
  8
0
 10
2.63551
 20
7.49548
 11
2.62488
 21
7.46593
  0
LINE
  8
0
 10
2.62488
 20
7.46593
 11
2.61241
 21
7.4371
  0
LINE
  8
0
 10
2.61241
 20
7.4371
 11
2.59814
 21
7.40912
  0
LINE
  8
0
 10
2.59814
 20
7.40912
 11
2.58215
 21
7.38208
  0
LINE
  8
0
 10
2.58215
 20
7.38208
 11
2.5645
 21
7.35609
  0
LINE
  8
0
 10
2.5645
 20
7.35609
 11
2.54524
 21
7.33128
  0
LINE
  8
0
 10
2.54524
 20
7.33128
 11
2.52448
 21
7.30772
  0
LINE
  8
0
 10
2.52448
 20
7.30772
 11
2.50226
 21
7.28551
  0
LINE
  8
0
 10
2.50226
 20
7.28551
 11
2.4787
 21
7.26474
  0
LINE
  8
0
 10
2.4787
 20
7.26474
 11
2.45389
 21
7.24548
  0
LINE
  8
0
 10
2.45389
 20
7.24548
 11
2.4279
 21
7.22783
  0
LINE
  8
0
 10
2.4279
 20
7.22783
 11
2.40086
 21
7.21184
  0
LINE
  8
0
 10
2.40086
 20
7.21184
 11
2.37288
 21
7.19759
  0
LINE
  8
0
 10
2.37288
 20
7.19759
 11
2.34406
 21
7.1851
  0
LINE
  8
0
 10
2.34406
 20
7.1851
 11
2.3145
 21
7.17447
  0
LINE
  8
0
 10
2.3145
 20
7.17447
 11
2.28433
 21
7.1657
  0
LINE
  8
0
 10
2.28433
 20
7.1657
 11
2.25368
 21
7.15884
  0
LINE
  8
0
 10
2.25368
 20
7.15884
 11
2.22266
 21
7.15393
  0
LINE
  8
0
 10
2.22266
 20
7.15393
 11
2.19139
 21
7.15099
  0
LINE
  8
0
 10
2.19139
 20
7.15099
 11
2.15999
 21
7.14999
  0
LINE
  8
0
 10
2.15999
 20
7.14999
 11
2.1286
 21
7.15099
  0
LINE
  8
0
 10
4.66859
 20
7.15099
 11
4.63733
 21
7.15393
  0
LINE
  8
0
 10
4.63733
 20
7.15393
 11
4.60631
 21
7.15884
  0
LINE
  8
0
 10
4.60631
 20
7.15884
 11
4.57565
 21
7.1657
  0
LINE
  8
0
 10
4.57565
 20
7.1657
 11
4.54549
 21
7.17447
  0
LINE
  8
0
 10
4.54549
 20
7.17447
 11
4.51593
 21
7.1851
  0
LINE
  8
0
 10
4.51593
 20
7.1851
 11
4.48711
 21
7.19759
  0
LINE
  8
0
 10
4.48711
 20
7.19759
 11
4.45912
 21
7.21184
  0
LINE
  8
0
 10
4.45912
 20
7.21184
 11
4.43208
 21
7.22783
  0
LINE
  8
0
 10
4.43208
 20
7.22783
 11
4.4061
 21
7.24548
  0
LINE
  8
0
 10
4.4061
 20
7.24548
 11
4.38129
 21
7.26474
  0
LINE
  8
0
 10
4.38129
 20
7.26474
 11
4.35771
 21
7.28551
  0
LINE
  8
0
 10
4.35771
 20
7.28551
 11
4.33551
 21
7.30772
  0
LINE
  8
0
 10
4.33551
 20
7.30772
 11
4.31474
 21
7.33128
  0
LINE
  8
0
 10
4.31474
 20
7.33128
 11
4.29549
 21
7.35609
  0
LINE
  8
0
 10
4.29549
 20
7.35609
 11
4.27783
 21
7.38208
  0
LINE
  8
0
 10
4.27783
 20
7.38208
 11
4.26184
 21
7.40912
  0
LINE
  8
0
 10
4.26184
 20
7.40912
 11
4.24757
 21
7.4371
  0
LINE
  8
0
 10
4.24757
 20
7.4371
 11
4.23511
 21
7.46593
  0
LINE
  8
0
 10
4.23511
 20
7.46593
 11
4.22446
 21
7.49548
  0
LINE
  8
0
 10
4.22446
 20
7.49548
 11
4.2157
 21
7.52565
  0
LINE
  8
0
 10
4.2157
 20
7.52565
 11
4.20885
 21
7.5563
  0
LINE
  8
0
 10
4.20885
 20
7.5563
 11
4.20393
 21
7.58733
  0
LINE
  8
0
 10
4.20393
 20
7.58733
 11
4.20097
 21
7.61859
  0
LINE
  8
0
 10
4.20097
 20
7.61859
 11
4.2
 21
7.64999
  0
LINE
  8
0
 10
4.2
 20
7.64999
 11
4.20097
 21
7.68138
  0
LINE
  8
0
 10
4.20097
 20
7.68138
 11
4.20393
 21
7.71266
  0
LINE
  8
0
 10
4.20393
 20
7.71266
 11
4.20885
 21
7.74368
  0
LINE
  8
0
 10
4.20885
 20
7.74368
 11
4.2157
 21
7.77434
  0
LINE
  8
0
 10
4.2157
 20
7.77434
 11
4.22446
 21
7.8045
  0
LINE
  8
0
 10
4.22446
 20
7.8045
 11
4.23511
 21
7.83406
  0
LINE
  8
0
 10
4.23511
 20
7.83406
 11
4.24757
 21
7.86288
  0
LINE
  8
0
 10
4.24757
 20
7.86288
 11
4.26184
 21
7.89087
  0
LINE
  8
0
 10
4.26184
 20
7.89087
 11
4.27783
 21
7.91791
  0
LINE
  8
0
 10
4.27783
 20
7.91791
 11
4.29549
 21
7.94388
  0
LINE
  8
0
 10
4.29549
 20
7.94388
 11
4.31474
 21
7.9687
  0
LINE
  8
0
 10
4.31474
 20
7.9687
 11
4.33551
 21
7.99226
  0
LINE
  8
0
 10
4.33551
 20
7.99226
 11
4.35771
 21
8.01448
  0
LINE
  8
0
 10
4.35771
 20
8.01448
 11
4.38129
 21
8.03525
  0
LINE
  8
0
 10
4.38129
 20
8.03525
 11
4.4061
 21
8.0545
  0
LINE
  8
0
 10
4.4061
 20
8.0545
 11
4.43208
 21
8.07216
  0
LINE
  8
0
 10
4.43208
 20
8.07216
 11
4.45912
 21
8.08815
  0
LINE
  8
0
 10
4.45912
 20
8.08815
 11
4.48711
 21
8.1024
  0
LINE
  8
0
 10
4.48711
 20
8.1024
 11
4.51593
 21
8.11488
  0
LINE
  8
0
 10
4.51593
 20
8.11488
 11
4.54549
 21
8.12552
  0
LINE
  8
0
 10
4.54549
 20
8.12552
 11
4.57565
 21
8.13428
  0
LINE
  8
0
 10
4.57565
 20
8.13428
 11
4.60631
 21
8.14113
  0
LINE
  8
0
 10
4.60631
 20
8.14113
 11
4.63733
 21
8.14606
  0
LINE
  8
0
 10
4.63733
 20
8.14606
 11
4.66859
 21
8.149
  0
LINE
  8
0
 10
4.66859
 20
8.149
 11
4.7
 21
8.14999
  0
LINE
  8
0
 10
4.7
 20
8.14999
 11
4.73138
 21
8.149
  0
LINE
  8
0
 10
4.73138
 20
8.149
 11
4.76266
 21
8.14606
  0
LINE
  8
0
 10
4.76266
 20
8.14606
 11
4.79369
 21
8.14113
  0
LINE
  8
0
 10
4.79369
 20
8.14113
 11
4.82434
 21
8.13428
  0
LINE
  8
0
 10
4.82434
 20
8.13428
 11
4.85451
 21
8.12552
  0
LINE
  8
0
 10
4.85451
 20
8.12552
 11
4.88405
 21
8.11488
  0
LINE
  8
0
 10
4.88405
 20
8.11488
 11
4.91289
 21
8.1024
  0
LINE
  8
0
 10
4.91289
 20
8.1024
 11
4.94087
 21
8.08815
  0
LINE
  8
0
 10
4.94087
 20
8.08815
 11
4.96791
 21
8.07216
  0
LINE
  8
0
 10
4.96791
 20
8.07216
 11
4.99388
 21
8.0545
  0
LINE
  8
0
 10
4.99388
 20
8.0545
 11
5.01871
 21
8.03525
  0
LINE
  8
0
 10
5.01871
 20
8.03525
 11
5.04227
 21
8.01448
  0
LINE
  8
0
 10
5.04227
 20
8.01448
 11
5.06448
 21
7.99226
  0
LINE
  8
0
 10
5.06448
 20
7.99226
 11
5.08525
 21
7.9687
  0
LINE
  8
0
 10
5.08525
 20
7.9687
 11
5.10451
 21
7.94388
  0
LINE
  8
0
 10
5.10451
 20
7.94388
 11
5.12216
 21
7.91791
  0
LINE
  8
0
 10
5.12216
 20
7.91791
 11
5.13815
 21
7.89087
  0
LINE
  8
0
 10
5.13815
 20
7.89087
 11
5.1524
 21
7.86288
  0
LINE
  8
0
 10
5.1524
 20
7.86288
 11
5.16489
 21
7.83406
  0
LINE
  8
0
 10
5.16489
 20
7.83406
 11
5.17552
 21
7.8045
  0
LINE
  8
0
 10
5.17552
 20
7.8045
 11
5.18428
 21
7.77434
  0
LINE
  8
0
 10
5.18428
 20
7.77434
 11
5.19113
 21
7.74368
  0
LINE
  8
0
 10
5.19113
 20
7.74368
 11
5.19604
 21
7.71266
  0
LINE
  8
0
 10
5.19604
 20
7.71266
 11
5.19901
 21
7.68138
  0
LINE
  8
0
 10
5.19901
 20
7.68138
 11
5.2
 21
7.64999
  0
LINE
  8
0
 10
5.2
 20
7.64999
 11
5.19901
 21
7.61859
  0
LINE
  8
0
 10
5.19901
 20
7.61859
 11
5.19604
 21
7.58733
  0
LINE
  8
0
 10
5.19604
 20
7.58733
 11
5.19113
 21
7.5563
  0
LINE
  8
0
 10
5.19113
 20
7.5563
 11
5.18428
 21
7.52565
  0
LINE
  8
0
 10
5.18428
 20
7.52565
 11
5.17552
 21
7.49548
  0
LINE
  8
0
 10
5.17552
 20
7.49548
 11
5.16489
 21
7.46593
  0
LINE
  8
0
 10
5.16489
 20
7.46593
 11
5.1524
 21
7.4371
  0
LINE
  8
0
 10
5.1524
 20
7.4371
 11
5.13815
 21
7.40912
  0
LINE
  8
0
 10
5.13815
 20
7.40912
 11
5.12216
 21
7.38208
  0
LINE
  8
0
 10
5.12216
 20
7.38208
 11
5.10451
 21
7.35609
  0
LINE
  8
0
 10
5.10451
 20
7.35609
 11
5.08525
 21
7.33128
  0
LINE
  8
0
 10
5.08525
 20
7.33128
 11
5.06448
 21
7.30772
  0
LINE
  8
0
 10
5.06448
 20
7.30772
 11
5.04227
 21
7.28551
  0
LINE
  8
0
 10
5.04227
 20
7.28551
 11
5.01871
 21
7.26474
  0
LINE
  8
0
 10
5.01871
 20
7.26474
 11
4.99388
 21
7.24548
  0
LINE
  8
0
 10
4.99388
 20
7.24548
 11
4.96791
 21
7.22783
  0
LINE
  8
0
 10
4.96791
 20
7.22783
 11
4.94087
 21
7.21184
  0
LINE
  8
0
 10
4.94087
 20
7.21184
 11
4.91289
 21
7.19759
  0
LINE
  8
0
 10
4.91289
 20
7.19759
 11
4.88405
 21
7.1851
  0
LINE
  8
0
 10
4.88405
 20
7.1851
 11
4.85451
 21
7.17447
  0
LINE
  8
0
 10
4.85451
 20
7.17447
 11
4.82434
 21
7.1657
  0
LINE
  8
0
 10
4.82434
 20
7.1657
 11
4.79369
 21
7.15884
  0
LINE
  8
0
 10
4.79369
 20
7.15884
 11
4.76266
 21
7.15393
  0
LINE
  8
0
 10
4.76266
 20
7.15393
 11
4.73138
 21
7.15099
  0
LINE
  8
0
 10
4.73138
 20
7.15099
 11
4.7
 21
7.14999
  0
LINE
  8
0
 10
4.7
 20
7.14999
 11
4.66859
 21
7.15099
  0
LINE
  8
0
 10
7.2086
 20
7.15099
 11
7.17732
 21
7.15393
  0
LINE
  8
0
 10
7.17732
 20
7.15393
 11
7.1463
 21
7.15884
  0
LINE
  8
0
 10
7.1463
 20
7.15884
 11
7.11565
 21
7.1657
  0
LINE
  8
0
 10
7.11565
 20
7.1657
 11
7.08548
 21
7.17447
  0
LINE
  8
0
 10
7.08548
 20
7.17447
 11
7.05592
 21
7.1851
  0
LINE
  8
0
 10
7.05592
 20
7.1851
 11
7.0271
 21
7.19759
  0
LINE
  8
0
 10
7.0271
 20
7.19759
 11
6.99911
 21
7.21184
  0
LINE
  8
0
 10
6.99911
 20
7.21184
 11
6.97208
 21
7.22783
  0
LINE
  8
0
 10
6.97208
 20
7.22783
 11
6.94611
 21
7.24548
  0
LINE
  8
0
 10
6.94611
 20
7.24548
 11
6.92128
 21
7.26474
  0
LINE
  8
0
 10
6.92128
 20
7.26474
 11
6.89772
 21
7.28551
  0
LINE
  8
0
 10
6.89772
 20
7.28551
 11
6.8755
 21
7.30772
  0
LINE
  8
0
 10
6.8755
 20
7.30772
 11
6.85474
 21
7.33128
  0
LINE
  8
0
 10
6.85474
 20
7.33128
 11
6.83548
 21
7.35609
  0
LINE
  8
0
 10
6.83548
 20
7.35609
 11
6.81783
 21
7.38208
  0
LINE
  8
0
 10
6.81783
 20
7.38208
 11
6.80183
 21
7.40912
  0
LINE
  8
0
 10
6.80183
 20
7.40912
 11
6.78758
 21
7.4371
  0
LINE
  8
0
 10
6.78758
 20
7.4371
 11
6.7751
 21
7.46593
  0
LINE
  8
0
 10
6.7751
 20
7.46593
 11
6.76447
 21
7.49548
  0
LINE
  8
0
 10
6.76447
 20
7.49548
 11
6.75571
 21
7.52565
  0
LINE
  8
0
 10
6.75571
 20
7.52565
 11
6.74886
 21
7.5563
  0
LINE
  8
0
 10
6.74886
 20
7.5563
 11
6.74394
 21
7.58733
  0
LINE
  8
0
 10
6.74394
 20
7.58733
 11
6.74098
 21
7.61859
  0
LINE
  8
0
 10
6.74098
 20
7.61859
 11
6.73999
 21
7.64999
  0
LINE
  8
0
 10
6.73999
 20
7.64999
 11
6.74098
 21
7.68138
  0
LINE
  8
0
 10
6.74098
 20
7.68138
 11
6.74394
 21
7.71266
  0
LINE
  8
0
 10
6.74394
 20
7.71266
 11
6.74886
 21
7.74368
  0
LINE
  8
0
 10
6.74886
 20
7.74368
 11
6.75571
 21
7.77434
  0
LINE
  8
0
 10
6.75571
 20
7.77434
 11
6.76447
 21
7.8045
  0
LINE
  8
0
 10
6.76447
 20
7.8045
 11
6.7751
 21
7.83406
  0
LINE
  8
0
 10
6.7751
 20
7.83406
 11
6.78758
 21
7.86288
  0
LINE
  8
0
 10
6.78758
 20
7.86288
 11
6.80183
 21
7.89087
  0
LINE
  8
0
 10
6.80183
 20
7.89087
 11
6.81783
 21
7.91791
  0
LINE
  8
0
 10
6.81783
 20
7.91791
 11
6.83548
 21
7.94388
  0
LINE
  8
0
 10
6.83548
 20
7.94388
 11
6.85474
 21
7.9687
  0
LINE
  8
0
 10
6.85474
 20
7.9687
 11
6.8755
 21
7.99226
  0
LINE
  8
0
 10
6.8755
 20
7.99226
 11
6.89772
 21
8.01448
  0
LINE
  8
0
 10
6.89772
 20
8.01448
 11
6.92128
 21
8.03525
  0
LINE
  8
0
 10
6.92128
 20
8.03525
 11
6.94611
 21
8.0545
  0
LINE
  8
0
 10
6.94611
 20
8.0545
 11
6.97208
 21
8.07216
  0
LINE
  8
0
 10
6.97208
 20
8.07216
 11
6.99911
 21
8.08815
  0
LINE
  8
0
 10
6.99911
 20
8.08815
 11
7.0271
 21
8.1024
  0
LINE
  8
0
 10
7.0271
 20
8.1024
 11
7.05592
 21
8.11488
  0
LINE
  8
0
 10
7.05592
 20
8.11488
 11
7.08548
 21
8.12552
  0
LINE
  8
0
 10
7.08548
 20
8.12552
 11
7.11565
 21
8.13428
  0
LINE
  8
0
 10
7.11565
 20
8.13428
 11
7.1463
 21
8.14113
  0
LINE
  8
0
 10
7.1463
 20
8.14113
 11
7.17732
 21
8.14606
  0
LINE
  8
0
 10
7.17732
 20
8.14606
 11
7.2086
 21
8.149
  0
LINE
  8
0
 10
7.2086
 20
8.149
 11
7.23999
 21
8.14999
  0
LINE
  8
0
 10
7.23999
 20
8.14999
 11
7.27139
 21
8.149
  0
LINE
  8
0
 10
7.27139
 20
8.149
 11
7.30266
 21
8.14606
  0
LINE
  8
0
 10
7.30266
 20
8.14606
 11
7.33368
 21
8.14113
  0
LINE
  8
0
 10
7.33368
 20
8.14113
 11
7.36433
 21
8.13428
  0
LINE
  8
0
 10
7.36433
 20
8.13428
 11
7.3945
 21
8.12552
  0
LINE
  8
0
 10
7.3945
 20
8.12552
 11
7.42406
 21
8.11488
  0
LINE
  8
0
 10
7.42406
 20
8.11488
 11
7.45288
 21
8.1024
  0
LINE
  8
0
 10
7.45288
 20
8.1024
 11
7.48087
 21
8.08815
  0
LINE
  8
0
 10
7.48087
 20
8.08815
 11
7.5079
 21
8.07216
  0
LINE
  8
0
 10
7.5079
 20
8.07216
 11
7.53389
 21
8.0545
  0
LINE
  8
0
 10
7.53389
 20
8.0545
 11
7.5587
 21
8.03525
  0
LINE
  8
0
 10
7.5587
 20
8.03525
 11
7.58226
 21
8.01448
  0
LINE
  8
0
 10
7.58226
 20
8.01448
 11
7.60448
 21
7.99226
  0
LINE
  8
0
 10
7.60448
 20
7.99226
 11
7.62524
 21
7.9687
  0
LINE
  8
0
 10
7.62524
 20
7.9687
 11
7.6445
 21
7.94388
  0
LINE
  8
0
 10
7.6445
 20
7.94388
 11
7.66216
 21
7.91791
  0
LINE
  8
0
 10
7.66216
 20
7.91791
 11
7.67815
 21
7.89087
  0
LINE
  8
0
 10
7.67815
 20
7.89087
 11
7.69241
 21
7.86288
  0
LINE
  8
0
 10
7.69241
 20
7.86288
 11
7.70488
 21
7.83406
  0
LINE
  8
0
 10
7.70488
 20
7.83406
 11
7.71552
 21
7.8045
  0
LINE
  8
0
 10
7.71552
 20
7.8045
 11
7.72429
 21
7.77434
  0
LINE
  8
0
 10
7.72429
 20
7.77434
 11
7.73114
 21
7.74368
  0
LINE
  8
0
 10
7.73114
 20
7.74368
 11
7.73605
 21
7.71266
  0
LINE
  8
0
 10
7.73605
 20
7.71266
 11
7.739
 21
7.68138
  0
LINE
  8
0
 10
7.739
 20
7.68138
 11
7.73999
 21
7.64999
  0
LINE
  8
0
 10
7.73999
 20
7.64999
 11
7.739
 21
7.61859
  0
LINE
  8
0
 10
7.739
 20
7.61859
 11
7.73605
 21
7.58733
  0
LINE
  8
0
 10
7.73605
 20
7.58733
 11
7.73114
 21
7.5563
  0
LINE
  8
0
 10
7.73114
 20
7.5563
 11
7.72429
 21
7.52565
  0
LINE
  8
0
 10
7.72429
 20
7.52565
 11
7.71552
 21
7.49548
  0
LINE
  8
0
 10
7.71552
 20
7.49548
 11
7.70488
 21
7.46593
  0
LINE
  8
0
 10
7.70488
 20
7.46593
 11
7.69241
 21
7.4371
  0
LINE
  8
0
 10
7.69241
 20
7.4371
 11
7.67815
 21
7.40912
  0
LINE
  8
0
 10
7.67815
 20
7.40912
 11
7.66216
 21
7.38208
  0
LINE
  8
0
 10
7.66216
 20
7.38208
 11
7.6445
 21
7.35609
  0
LINE
  8
0
 10
7.6445
 20
7.35609
 11
7.62524
 21
7.33128
  0
LINE
  8
0
 10
7.62524
 20
7.33128
 11
7.60448
 21
7.30772
  0
LINE
  8
0
 10
7.60448
 20
7.30772
 11
7.58226
 21
7.28551
  0
LINE
  8
0
 10
7.58226
 20
7.28551
 11
7.5587
 21
7.26474
  0
LINE
  8
0
 10
7.5587
 20
7.26474
 11
7.53389
 21
7.24548
  0
LINE
  8
0
 10
7.53389
 20
7.24548
 11
7.5079
 21
7.22783
  0
LINE
  8
0
 10
7.5079
 20
7.22783
 11
7.48087
 21
7.21184
  0
LINE
  8
0
 10
7.48087
 20
7.21184
 11
7.45288
 21
7.19759
  0
LINE
  8
0
 10
7.45288
 20
7.19759
 11
7.42406
 21
7.1851
  0
LINE
  8
0
 10
7.42406
 20
7.1851
 11
7.3945
 21
7.17447
  0
LINE
  8
0
 10
7.3945
 20
7.17447
 11
7.36433
 21
7.1657
  0
LINE
  8
0
 10
7.36433
 20
7.1657
 11
7.33368
 21
7.15884
  0
LINE
  8
0
 10
7.33368
 20
7.15884
 11
7.30266
 21
7.15393
  0
LINE
  8
0
 10
7.30266
 20
7.15393
 11
7.27139
 21
7.15099
  0
LINE
  8
0
 10
7.27139
 20
7.15099
 11
7.23999
 21
7.14999
  0
LINE
  8
0
 10
7.23999
 20
7.14999
 11
7.2086
 21
7.15099
  0
LINE
  8
0
 10
12.5919
 20
-6.48717
 11
12.1853
 21
-6.44873
  0
LINE
  8
0
 10
12.1853
 20
-6.44873
 11
11.782
 21
-6.38486
  0
LINE
  8
0
 10
11.782
 20
-6.38486
 11
11.3835
 21
-6.29578
  0
LINE
  8
0
 10
11.3835
 20
-6.29578
 11
10.9914
 21
-6.18185
  0
LINE
  8
0
 10
10.9914
 20
-6.18185
 11
10.6072
 21
-6.04353
  0
LINE
  8
0
 10
10.6072
 20
-6.04353
 11
10.2324
 21
-5.88136
  0
LINE
  8
0
 10
10.2324
 20
-5.88136
 11
9.86859
 21
-5.69598
  0
LINE
  8
0
 10
9.86859
 20
-5.69598
 11
9.51712
 21
-5.48813
  0
LINE
  8
0
 10
9.51712
 20
-5.48813
 11
9.17938
 21
-5.25861
  0
LINE
  8
0
 10
9.17938
 20
-5.25861
 11
8.85674
 21
-5.00833
  0
LINE
  8
0
 10
8.85674
 20
-5.00833
 11
8.55043
 21
-4.73828
  0
LINE
  8
0
 10
8.55043
 20
-4.73828
 11
8.2617
 21
-4.44955
  0
LINE
  8
0
 10
8.2617
 20
-4.44955
 11
7.99165
 21
-4.14325
  0
LINE
  8
0
 10
7.99165
 20
-4.14325
 11
7.74138
 21
-3.8206
  0
LINE
  8
0
 10
7.74138
 20
-3.8206
 11
7.51186
 21
-3.48286
  0
LINE
  8
0
 10
7.51186
 20
-3.48286
 11
7.304
 21
-3.13139
  0
LINE
  8
0
 10
7.304
 20
-3.13139
 11
7.11862
 21
-2.76756
  0
LINE
  8
0
 10
7.11862
 20
-2.76756
 11
6.95645
 21
-2.39281
  0
LINE
  8
0
 10
6.95645
 20
-2.39281
 11
6.81813
 21
-2.00861
  0
LINE
  8
0
 10
6.81813
 20
-2.00861
 11
6.70421
 21
-1.61647
  0
LINE
  8
0
 10
6.70421
 20
-1.61647
 11
6.61513
 21
-1.21797
  0
LINE
  8
0
 10
6.61513
 20
-1.21797
 11
6.55125
 21
-0.814651
  0
LINE
  8
0
 10
6.55125
 20
-0.814651
 11
6.51282
 21
-0.408127
  0
LINE
  8
0
 10
6.51282
 20
-0.408127
 11
6.5
 21
0
  0
LINE
  8
0
 10
6.5
 20
0
 11
6.51282
 21
0.408127
  0
LINE
  8
0
 10
6.51282
 20
0.408127
 11
6.55125
 21
0.814651
  0
LINE
  8
0
 10
6.55125
 20
0.814651
 11
6.61513
 21
1.21797
  0
LINE
  8
0
 10
6.61513
 20
1.21797
 11
6.70421
 21
1.61647
  0
LINE
  8
0
 10
6.70421
 20
1.61647
 11
6.81813
 21
2.00861
  0
LINE
  8
0
 10
6.81813
 20
2.00861
 11
6.95645
 21
2.39281
  0
LINE
  8
0
 10
6.95645
 20
2.39281
 11
7.11862
 21
2.76756
  0
LINE
  8
0
 10
7.11862
 20
2.76756
 11
7.304
 21
3.13139
  0
LINE
  8
0
 10
7.304
 20
3.13139
 11
7.51186
 21
3.48286
  0
LINE
  8
0
 10
7.51186
 20
3.48286
 11
7.74138
 21
3.8206
  0
LINE
  8
0
 10
7.74138
 20
3.8206
 11
7.99165
 21
4.14325
  0
LINE
  8
0
 10
7.99165
 20
4.14325
 11
8.2617
 21
4.44955
  0
LINE
  8
0
 10
8.2617
 20
4.44955
 11
8.55043
 21
4.73828
  0
LINE
  8
0
 10
8.55043
 20
4.73828
 11
8.85674
 21
5.00833
  0
LINE
  8
0
 10
8.85674
 20
5.00833
 11
9.17938
 21
5.25861
  0
LINE
  8
0
 10
9.17938
 20
5.25861
 11
9.51712
 21
5.48813
  0
LINE
  8
0
 10
9.51712
 20
5.48813
 11
9.86859
 21
5.69598
  0
LINE
  8
0
 10
9.86859
 20
5.69598
 11
10.2324
 21
5.88136
  0
LINE
  8
0
 10
10.2324
 20
5.88136
 11
10.6072
 21
6.04353
  0
LINE
  8
0
 10
10.6072
 20
6.04353
 11
10.9914
 21
6.18185
  0
LINE
  8
0
 10
10.9914
 20
6.18185
 11
11.3835
 21
6.29578
  0
LINE
  8
0
 10
11.3835
 20
6.29578
 11
11.782
 21
6.38486
  0
LINE
  8
0
 10
11.782
 20
6.38486
 11
12.1853
 21
6.44873
  0
LINE
  8
0
 10
12.1853
 20
6.44873
 11
12.5919
 21
6.48717
  0
LINE
  8
0
 10
12.5919
 20
6.48717
 11
13
 21
6.5
  0
LINE
  8
0
 10
13
 20
6.5
 11
13.4081
 21
6.48717
  0
LINE
  8
0
 10
13.4081
 20
6.48717
 11
13.8147
 21
6.44873
  0
LINE
  8
0
 10
13.8147
 20
6.44873
 11
14.218
 21
6.38486
  0
LINE
  8
0
 10
14.218
 20
6.38486
 11
14.6165
 21
6.29578
  0
LINE
  8
0
 10
14.6165
 20
6.29578
 11
15.0086
 21
6.18185
  0
LINE
  8
0
 10
15.0086
 20
6.18185
 11
15.3928
 21
6.04353
  0
LINE
  8
0
 10
15.3928
 20
6.04353
 11
15.7676
 21
5.88136
  0
LINE
  8
0
 10
15.7676
 20
5.88136
 11
16.1314
 21
5.69598
  0
LINE
  8
0
 10
16.1314
 20
5.69598
 11
16.4829
 21
5.48813
  0
LINE
  8
0
 10
16.4829
 20
5.48813
 11
16.8206
 21
5.25861
  0
LINE
  8
0
 10
16.8206
 20
5.25861
 11
17.1432
 21
5.00833
  0
LINE
  8
0
 10
17.1432
 20
5.00833
 11
17.4496
 21
4.73828
  0
LINE
  8
0
 10
17.4496
 20
4.73828
 11
17.7383
 21
4.44955
  0
LINE
  8
0
 10
17.7383
 20
4.44955
 11
18.0083
 21
4.14325
  0
LINE
  8
0
 10
18.0083
 20
4.14325
 11
18.2586
 21
3.8206
  0
LINE
  8
0
 10
18.2586
 20
3.8206
 11
18.4881
 21
3.48286
  0
LINE
  8
0
 10
18.4881
 20
3.48286
 11
18.696
 21
3.13139
  0
LINE
  8
0
 10
18.696
 20
3.13139
 11
18.8814
 21
2.76756
  0
LINE
  8
0
 10
18.8814
 20
2.76756
 11
19.0435
 21
2.39281
  0
LINE
  8
0
 10
19.0435
 20
2.39281
 11
19.1819
 21
2.00861
  0
LINE
  8
0
 10
19.1819
 20
2.00861
 11
19.2958
 21
1.61647
  0
LINE
  8
0
 10
19.2958
 20
1.61647
 11
19.3849
 21
1.21797
  0
LINE
  8
0
 10
19.3849
 20
1.21797
 11
19.4487
 21
0.814651
  0
LINE
  8
0
 10
19.4487
 20
0.814651
 11
19.4872
 21
0.408127
  0
LINE
  8
0
 10
19.4872
 20
0.408127
 11
19.5
 21
0
  0
LINE
  8
0
 10
19.5
 20
0
 11
19.4872
 21
-0.408127
  0
LINE
  8
0
 10
19.4872
 20
-0.408127
 11
19.4487
 21
-0.814651
  0
LINE
  8
0
 10
19.4487
 20
-0.814651
 11
19.3849
 21
-1.21797
  0
LINE
  8
0
 10
19.3849
 20
-1.21797
 11
19.2958
 21
-1.61647
  0
LINE
  8
0
 10
19.2958
 20
-1.61647
 11
19.1819
 21
-2.00861
  0
LINE
  8
0
 10
19.1819
 20
-2.00861
 11
19.0435
 21
-2.39281
  0
LINE
  8
0
 10
19.0435
 20
-2.39281
 11
18.8814
 21
-2.76756
  0
LINE
  8
0
 10
18.8814
 20
-2.76756
 11
18.696
 21
-3.13139
  0
LINE
  8
0
 10
18.696
 20
-3.13139
 11
18.4881
 21
-3.48286
  0
LINE
  8
0
 10
18.4881
 20
-3.48286
 11
18.2586
 21
-3.8206
  0
LINE
  8
0
 10
18.2586
 20
-3.8206
 11
18.0083
 21
-4.14325
  0
LINE
  8
0
 10
18.0083
 20
-4.14325
 11
17.7383
 21
-4.44955
  0
LINE
  8
0
 10
17.7383
 20
-4.44955
 11
17.4496
 21
-4.73828
  0
LINE
  8
0
 10
17.4496
 20
-4.73828
 11
17.1432
 21
-5.00833
  0
LINE
  8
0
 10
17.1432
 20
-5.00833
 11
16.8206
 21
-5.25861
  0
LINE
  8
0
 10
16.8206
 20
-5.25861
 11
16.4829
 21
-5.48813
  0
LINE
  8
0
 10
16.4829
 20
-5.48813
 11
16.1314
 21
-5.69598
  0
LINE
  8
0
 10
16.1314
 20
-5.69598
 11
15.7676
 21
-5.88136
  0
LINE
  8
0
 10
15.7676
 20
-5.88136
 11
15.3928
 21
-6.04353
  0
LINE
  8
0
 10
15.3928
 20
-6.04353
 11
15.0086
 21
-6.18185
  0
LINE
  8
0
 10
15.0086
 20
-6.18185
 11
14.6165
 21
-6.29578
  0
LINE
  8
0
 10
14.6165
 20
-6.29578
 11
14.218
 21
-6.38486
  0
LINE
  8
0
 10
14.218
 20
-6.38486
 11
13.8147
 21
-6.44873
  0
LINE
  8
0
 10
13.8147
 20
-6.44873
 11
13.4081
 21
-6.48717
  0
LINE
  8
0
 10
13.4081
 20
-6.48717
 11
13
 21
-6.5
  0
LINE
  8
0
 10
13
 20
-6.5
 11
12.5919
 21
-6.48717
  0
LINE
  8
0
 10
-6.18837
 20
-2.99408
 11
-6.37599
 21
-2.97633
  0
LINE
  8
0
 10
-6.37599
 20
-2.97633
 11
-6.56213
 21
-2.94685
  0
LINE
  8
0
 10
-6.56213
 20
-2.94685
 11
-6.74606
 21
-2.90575
  0
LINE
  8
0
 10
-6.74606
 20
-2.90575
 11
-6.92705
 21
-2.85316
  0
LINE
  8
0
 10
-6.92705
 20
-2.85316
 11
-7.10437
 21
-2.78932
  0
LINE
  8
0
 10
-7.10437
 20
-2.78932
 11
-7.27733
 21
-2.71448
  0
LINE
  8
0
 10
-7.27733
 20
-2.71448
 11
-7.44525
 21
-2.62891
  0
LINE
  8
0
 10
-7.44525
 20
-2.62891
 11
-7.60747
 21
-2.53297
  0
LINE
  8
0
 10
-7.60747
 20
-2.53297
 11
-7.76335
 21
-2.42705
  0
LINE
  8
0
 10
-7.76335
 20
-2.42705
 11
-7.91226
 21
-2.31154
  0
LINE
  8
0
 10
-7.91226
 20
-2.31154
 11
-8.05363
 21
-2.1869
  0
LINE
  8
0
 10
-8.05363
 20
-2.1869
 11
-8.1869
 21
-2.05363
  0
LINE
  8
0
 10
-8.1869
 20
-2.05363
 11
-8.31154
 21
-1.91226
  0
LINE
  8
0
 10
-8.31154
 20
-1.91226
 11
-8.42705
 21
-1.76335
  0
LINE
  8
0
 10
-8.42705
 20
-1.76335
 11
-8.53297
 21
-1.60747
  0
LINE
  8
0
 10
-8.53297
 20
-1.60747
 11
-8.62891
 21
-1.44525
  0
LINE
  8
0
 10
-8.62891
 20
-1.44525
 11
-8.71448
 21
-1.27733
  0
LINE
  8
0
 10
-8.71448
 20
-1.27733
 11
-8.78932
 21
-1.10437
  0
LINE
  8
0
 10
-8.78932
 20
-1.10437
 11
-8.85316
 21
-0.927048
  0
LINE
  8
0
 10
-8.85316
 20
-0.927048
 11
-8.90575
 21
-0.746063
  0
LINE
  8
0
 10
-8.90575
 20
-0.746063
 11
-8.94685
 21
-0.562134
  0
LINE
  8
0
 10
-8.94685
 20
-0.562134
 11
-8.97633
 21
-0.375992
  0
LINE
  8
0
 10
-8.97633
 20
-0.375992
 11
-8.99408
 21
-0.18837
  0
LINE
  8
0
 10
-8.99408
 20
-0.18837
 11
-9
 21
0
  0
LINE
  8
0
 10
-9
 20
0
 11
-8.99408
 21
0.18837
  0
LINE
  8
0
 10
-8.99408
 20
0.18837
 11
-8.97633
 21
0.375992
  0
LINE
  8
0
 10
-8.97633
 20
0.375992
 11
-8.94685
 21
0.562134
  0
LINE
  8
0
 10
-8.94685
 20
0.562134
 11
-8.90575
 21
0.746063
  0
LINE
  8
0
 10
-8.90575
 20
0.746063
 11
-8.85316
 21
0.927048
  0
LINE
  8
0
 10
-8.85316
 20
0.927048
 11
-8.78932
 21
1.10437
  0
LINE
  8
0
 10
-8.78932
 20
1.10437
 11
-8.71448
 21
1.27733
  0
LINE
  8
0
 10
-8.71448
 20
1.27733
 11
-8.62891
 21
1.44525
  0
LINE
  8
0
 10
-8.62891
 20
1.44525
 11
-8.53297
 21
1.60747
  0
LINE
  8
0
 10
-8.53297
 20
1.60747
 11
-8.42705
 21
1.76335
  0
LINE
  8
0
 10
-8.42705
 20
1.76335
 11
-8.31154
 21
1.91226
  0
LINE
  8
0
 10
-8.31154
 20
1.91226
 11
-8.1869
 21
2.05363
  0
LINE
  8
0
 10
-8.1869
 20
2.05363
 11
-8.05363
 21
2.1869
  0
LINE
  8
0
 10
-8.05363
 20
2.1869
 11
-7.91226
 21
2.31154
  0
LINE
  8
0
 10
-7.91226
 20
2.31154
 11
-7.76335
 21
2.42705
  0
LINE
  8
0
 10
-7.76335
 20
2.42705
 11
-7.60747
 21
2.53297
  0
LINE
  8
0
 10
-7.60747
 20
2.53297
 11
-7.44525
 21
2.62891
  0
LINE
  8
0
 10
-7.44525
 20
2.62891
 11
-7.27733
 21
2.71448
  0
LINE
  8
0
 10
-7.27733
 20
2.71448
 11
-7.10437
 21
2.78932
  0
LINE
  8
0
 10
-7.10437
 20
2.78932
 11
-6.92705
 21
2.85316
  0
LINE
  8
0
 10
-6.92705
 20
2.85316
 11
-6.74606
 21
2.90575
  0
LINE
  8
0
 10
-6.74606
 20
2.90575
 11
-6.56213
 21
2.94685
  0
LINE
  8
0
 10
-6.56213
 20
2.94685
 11
-6.37599
 21
2.97633
  0
LINE
  8
0
 10
-6.37599
 20
2.97633
 11
-6.18837
 21
2.99408
  0
LINE
  8
0
 10
-6.18837
 20
2.99408
 11
-6
 21
3
  0
LINE
  8
0
 10
-6
 20
3
 11
-5.81161
 21
2.99408
  0
LINE
  8
0
 10
-5.81161
 20
2.99408
 11
-5.62399
 21
2.97633
  0
LINE
  8
0
 10
-5.62399
 20
2.97633
 11
-5.43785
 21
2.94685
  0
LINE
  8
0
 10
-5.43785
 20
2.94685
 11
-5.25392
 21
2.90575
  0
LINE
  8
0
 10
-5.25392
 20
2.90575
 11
-5.07294
 21
2.85316
  0
LINE
  8
0
 10
-5.07294
 20
2.85316
 11
-4.89561
 21
2.78932
  0
LINE
  8
0
 10
-4.89561
 20
2.78932
 11
-4.72266
 21
2.71448
  0
LINE
  8
0
 10
-4.72266
 20
2.71448
 11
-4.55473
 21
2.62891
  0
LINE
  8
0
 10
-4.55473
 20
2.62891
 11
-4.39252
 21
2.53297
  0
LINE
  8
0
 10
-4.39252
 20
2.53297
 11
-4.23663
 21
2.42705
  0
LINE
  8
0
 10
-4.23663
 20
2.42705
 11
-4.08772
 21
2.31154
  0
LINE
  8
0
 10
-4.08772
 20
2.31154
 11
-3.94635
 21
2.1869
  0
LINE
  8
0
 10
-3.94635
 20
2.1869
 11
-3.81308
 21
2.05363
  0
LINE
  8
0
 10
-3.81308
 20
2.05363
 11
-3.68845
 21
1.91226
  0
LINE
  8
0
 10
-3.68845
 20
1.91226
 11
-3.57294
 21
1.76335
  0
LINE
  8
0
 10
-3.57294
 20
1.76335
 11
-3.46701
 21
1.60747
  0
LINE
  8
0
 10
-3.46701
 20
1.60747
 11
-3.37108
 21
1.44525
  0
LINE
  8
0
 10
-3.37108
 20
1.44525
 11
-3.28551
 21
1.27733
  0
LINE
  8
0
 10
-3.28551
 20
1.27733
 11
-3.21066
 21
1.10437
  0
LINE
  8
0
 10
-3.21066
 20
1.10437
 11
-3.14682
 21
0.927048
  0
LINE
  8
0
 10
-3.14682
 20
0.927048
 11
-3.09424
 21
0.746063
  0
LINE
  8
0
 10
-3.09424
 20
0.746063
 11
-3.05313
 21
0.562134
  0
LINE
  8
0
 10
-3.05313
 20
0.562134
 11
-3.02365
 21
0.375992
  0
LINE
  8
0
 10
-3.02365
 20
0.375992
 11
-3.00591
 21
0.18837
  0
LINE
  8
0
 10
-3.00591
 20
0.18837
 11
-3
 21
0
  0
LINE
  8
0
 10
-3
 20
0
 11
-3.00591
 21
-0.18837
  0
LINE
  8
0
 10
-3.00591
 20
-0.18837
 11
-3.02365
 21
-0.375992
  0
LINE
  8
0
 10
-3.02365
 20
-0.375992
 11
-3.05313
 21
-0.562134
  0
LINE
  8
0
 10
-3.05313
 20
-0.562134
 11
-3.09424
 21
-0.746063
  0
LINE
  8
0
 10
-3.09424
 20
-0.746063
 11
-3.14682
 21
-0.927048
  0
LINE
  8
0
 10
-3.14682
 20
-0.927048
 11
-3.21066
 21
-1.10437
  0
LINE
  8
0
 10
-3.21066
 20
-1.10437
 11
-3.28551
 21
-1.27733
  0
LINE
  8
0
 10
-3.28551
 20
-1.27733
 11
-3.37108
 21
-1.44525
  0
LINE
  8
0
 10
-3.37108
 20
-1.44525
 11
-3.46701
 21
-1.60747
  0
LINE
  8
0
 10
-3.46701
 20
-1.60747
 11
-3.57294
 21
-1.76335
  0
LINE
  8
0
 10
-3.57294
 20
-1.76335
 11
-3.68845
 21
-1.91226
  0
LINE
  8
0
 10
-3.68845
 20
-1.91226
 11
-3.81308
 21
-2.05363
  0
LINE
  8
0
 10
-3.81308
 20
-2.05363
 11
-3.94635
 21
-2.1869
  0
LINE
  8
0
 10
-3.94635
 20
-2.1869
 11
-4.08772
 21
-2.31154
  0
LINE
  8
0
 10
-4.08772
 20
-2.31154
 11
-4.23663
 21
-2.42705
  0
LINE
  8
0
 10
-4.23663
 20
-2.42705
 11
-4.39252
 21
-2.53297
  0
LINE
  8
0
 10
-4.39252
 20
-2.53297
 11
-4.55473
 21
-2.62891
  0
LINE
  8
0
 10
-4.55473
 20
-2.62891
 11
-4.72266
 21
-2.71448
  0
LINE
  8
0
 10
-4.72266
 20
-2.71448
 11
-4.89561
 21
-2.78932
  0
LINE
  8
0
 10
-4.89561
 20
-2.78932
 11
-5.07294
 21
-2.85316
  0
LINE
  8
0
 10
-5.07294
 20
-2.85316
 11
-5.25392
 21
-2.90575
  0
LINE
  8
0
 10
-5.25392
 20
-2.90575
 11
-5.43785
 21
-2.94685
  0
LINE
  8
0
 10
-5.43785
 20
-2.94685
 11
-5.62399
 21
-2.97633
  0
LINE
  8
0
 10
-5.62399
 20
-2.97633
 11
-5.81161
 21
-2.99408
  0
LINE
  8
0
 10
-5.81161
 20
-2.99408
 11
-6
 21
-3
  0
LINE
  8
0
 10
-6
 20
-3
 11
-6.18837
 21
-2.99408
  0
LINE
  8
0
 10
-0.12558
 20
-1.99605
 11
-0.250656
 21
-1.98422
  0
LINE
  8
0
 10
-0.250656
 20
-1.98422
 11
-0.374756
 21
-1.96457
  0
LINE
  8
0
 10
-0.374756
 20
-1.96457
 11
-0.497375
 21
-1.93716
  0
LINE
  8
0
 10
-0.497375
 20
-1.93716
 11
-0.618027
 21
-1.9021
  0
LINE
  8
0
 10
-0.618027
 20
-1.9021
 11
-0.736237
 21
-1.85954
  0
LINE
  8
0
 10
-0.736237
 20
-1.85954
 11
-0.851547
 21
-1.80965
  0
LINE
  8
0
 10
-0.851547
 20
-1.80965
 11
-0.963501
 21
-1.75261
  0
LINE
  8
0
 10
-0.963501
 20
-1.75261
 11
-1.07164
 21
-1.68864
  0
LINE
  8
0
 10
-1.07164
 20
-1.68864
 11
-1.17557
 21
-1.61803
  0
LINE
  8
0
 10
-1.17557
 20
-1.61803
 11
-1.27484
 21
-1.54102
  0
LINE
  8
0
 10
-1.27484
 20
-1.54102
 11
-1.36908
 21
-1.45793
  0
LINE
  8
0
 10
-1.36908
 20
-1.45793
 11
-1.45793
 21
-1.36908
  0
LINE
  8
0
 10
-1.45793
 20
-1.36908
 11
-1.54102
 21
-1.27484
  0
LINE
  8
0
 10
-1.54102
 20
-1.27484
 11
-1.61803
 21
-1.17557
  0
LINE
  8
0
 10
-1.61803
 20
-1.17557
 11
-1.68864
 21
-1.07164
  0
LINE
  8
0
 10
-1.68864
 20
-1.07164
 11
-1.75261
 21
-0.963501
  0
LINE
  8
0
 10
-1.75261
 20
-0.963501
 11
-1.80965
 21
-0.851547
  0
LINE
  8
0
 10
-1.80965
 20
-0.851547
 11
-1.85954
 21
-0.736237
  0
LINE
  8
0
 10
-1.85954
 20
-0.736237
 11
-1.9021
 21
-0.618027
  0
LINE
  8
0
 10
-1.9021
 20
-0.618027
 11
-1.93716
 21
-0.497375
  0
LINE
  8
0
 10
-1.93716
 20
-0.497375
 11
-1.96457
 21
-0.374756
  0
LINE
  8
0
 10
-1.96457
 20
-0.374756
 11
-1.98422
 21
-0.250656
  0
LINE
  8
0
 10
-1.98422
 20
-0.250656
 11
-1.99605
 21
-0.12558
  0
LINE
  8
0
 10
-1.99605
 20
-0.12558
 11
-2
 21
0
  0
LINE
  8
0
 10
-2
 20
0
 11
-1.99605
 21
0.12558
  0
LINE
  8
0
 10
-1.99605
 20
0.12558
 11
-1.98422
 21
0.250656
  0
LINE
  8
0
 10
-1.98422
 20
0.250656
 11
-1.96457
 21
0.374756
  0
LINE
  8
0
 10
-1.96457
 20
0.374756
 11
-1.93716
 21
0.497375
  0
LINE
  8
0
 10
-1.93716
 20
0.497375
 11
-1.9021
 21
0.618027
  0
LINE
  8
0
 10
-1.9021
 20
0.618027
 11
-1.85954
 21
0.736237
  0
LINE
  8
0
 10
-1.85954
 20
0.736237
 11
-1.80965
 21
0.851547
  0
LINE
  8
0
 10
-1.80965
 20
0.851547
 11
-1.75261
 21
0.963501
  0
LINE
  8
0
 10
-1.75261
 20
0.963501
 11
-1.68864
 21
1.07164
  0
LINE
  8
0
 10
-1.68864
 20
1.07164
 11
-1.61803
 21
1.17557
  0
LINE
  8
0
 10
-1.61803
 20
1.17557
 11
-1.54102
 21
1.27484
  0
LINE
  8
0
 10
-1.54102
 20
1.27484
 11
-1.45793
 21
1.36908
  0
LINE
  8
0
 10
-1.45793
 20
1.36908
 11
-1.36908
 21
1.45793
  0
LINE
  8
0
 10
-1.36908
 20
1.45793
 11
-1.27484
 21
1.54102
  0
LINE
  8
0
 10
-1.27484
 20
1.54102
 11
-1.17557
 21
1.61803
  0
LINE
  8
0
 10
-1.17557
 20
1.61803
 11
-1.07164
 21
1.68864
  0
LINE
  8
0
 10
-1.07164
 20
1.68864
 11
-0.963501
 21
1.75261
  0
LINE
  8
0
 10
-0.963501
 20
1.75261
 11
-0.851547
 21
1.80965
  0
LINE
  8
0
 10
-0.851547
 20
1.80965
 11
-0.736237
 21
1.85954
  0
LINE
  8
0
 10
-0.736237
 20
1.85954
 11
-0.618027
 21
1.9021
  0
LINE
  8
0
 10
-0.618027
 20
1.9021
 11
-0.497375
 21
1.93716
  0
LINE
  8
0
 10
-0.497375
 20
1.93716
 11
-0.374756
 21
1.96457
  0
LINE
  8
0
 10
-0.374756
 20
1.96457
 11
-0.250656
 21
1.98422
  0
LINE
  8
0
 10
-0.250656
 20
1.98422
 11
-0.12558
 21
1.99605
  0
LINE
  8
0
 10
-0.12558
 20
1.99605
 11
0
 21
2
  0
LINE
  8
0
 10
0
 20
2
 11
0.12558
 21
1.99605
  0
LINE
  8
0
 10
0.12558
 20
1.99605
 11
0.250656
 21
1.98422
  0
LINE
  8
0
 10
0.250656
 20
1.98422
 11
0.374756
 21
1.96457
  0
LINE
  8
0
 10
0.374756
 20
1.96457
 11
0.497375
 21
1.93716
  0
LINE
  8
0
 10
0.497375
 20
1.93716
 11
0.618027
 21
1.9021
  0
LINE
  8
0
 10
0.618027
 20
1.9021
 11
0.736237
 21
1.85954
  0
LINE
  8
0
 10
0.736237
 20
1.85954
 11
0.851547
 21
1.80965
  0
LINE
  8
0
 10
0.851547
 20
1.80965
 11
0.963501
 21
1.75261
  0
LINE
  8
0
 10
0.963501
 20
1.75261
 11
1.07164
 21
1.68864
  0
LINE
  8
0
 10
1.07164
 20
1.68864
 11
1.17557
 21
1.61803
  0
LINE
  8
0
 10
1.17557
 20
1.61803
 11
1.27484
 21
1.54102
  0
LINE
  8
0
 10
1.27484
 20
1.54102
 11
1.36908
 21
1.45793
  0
LINE
  8
0
 10
1.36908
 20
1.45793
 11
1.45793
 21
1.36908
  0
LINE
  8
0
 10
1.45793
 20
1.36908
 11
1.54102
 21
1.27484
  0
LINE
  8
0
 10
1.54102
 20
1.27484
 11
1.61803
 21
1.17557
  0
LINE
  8
0
 10
1.61803
 20
1.17557
 11
1.68864
 21
1.07164
  0
LINE
  8
0
 10
1.68864
 20
1.07164
 11
1.75261
 21
0.963501
  0
LINE
  8
0
 10
1.75261
 20
0.963501
 11
1.80965
 21
0.851547
  0
LINE
  8
0
 10
1.80965
 20
0.851547
 11
1.85954
 21
0.736237
  0
LINE
  8
0
 10
1.85954
 20
0.736237
 11
1.9021
 21
0.618027
  0
LINE
  8
0
 10
1.9021
 20
0.618027
 11
1.93716
 21
0.497375
  0
LINE
  8
0
 10
1.93716
 20
0.497375
 11
1.96457
 21
0.374756
  0
LINE
  8
0
 10
1.96457
 20
0.374756
 11
1.98422
 21
0.250656
  0
LINE
  8
0
 10
1.98422
 20
0.250656
 11
1.99605
 21
0.12558
  0
LINE
  8
0
 10
1.99605
 20
0.12558
 11
2
 21
0
  0
LINE
  8
0
 10
2
 20
0
 11
1.99605
 21
-0.12558
  0
LINE
  8
0
 10
1.99605
 20
-0.12558
 11
1.98422
 21
-0.250656
  0
LINE
  8
0
 10
1.98422
 20
-0.250656
 11
1.96457
 21
-0.374756
  0
LINE
  8
0
 10
1.96457
 20
-0.374756
 11
1.93716
 21
-0.497375
  0
LINE
  8
0
 10
1.93716
 20
-0.497375
 11
1.9021
 21
-0.618027
  0
LINE
  8
0
 10
1.9021
 20
-0.618027
 11
1.85954
 21
-0.736237
  0
LINE
  8
0
 10
1.85954
 20
-0.736237
 11
1.80965
 21
-0.851547
  0
LINE
  8
0
 10
1.80965
 20
-0.851547
 11
1.75261
 21
-0.963501
  0
LINE
  8
0
 10
1.75261
 20
-0.963501
 11
1.68864
 21
-1.07164
  0
LINE
  8
0
 10
1.68864
 20
-1.07164
 11
1.61803
 21
-1.17557
  0
LINE
  8
0
 10
1.61803
 20
-1.17557
 11
1.54102
 21
-1.27484
  0
LINE
  8
0
 10
1.54102
 20
-1.27484
 11
1.45793
 21
-1.36908
  0
LINE
  8
0
 10
1.45793
 20
-1.36908
 11
1.36908
 21
-1.45793
  0
LINE
  8
0
 10
1.36908
 20
-1.45793
 11
1.27484
 21
-1.54102
  0
LINE
  8
0
 10
1.27484
 20
-1.54102
 11
1.17557
 21
-1.61803
  0
LINE
  8
0
 10
1.17557
 20
-1.61803
 11
1.07164
 21
-1.68864
  0
LINE
  8
0
 10
1.07164
 20
-1.68864
 11
0.963501
 21
-1.75261
  0
LINE
  8
0
 10
0.963501
 20
-1.75261
 11
0.851547
 21
-1.80965
  0
LINE
  8
0
 10
0.851547
 20
-1.80965
 11
0.736237
 21
-1.85954
  0
LINE
  8
0
 10
0.736237
 20
-1.85954
 11
0.618027
 21
-1.9021
  0
LINE
  8
0
 10
0.618027
 20
-1.9021
 11
0.497375
 21
-1.93716
  0
LINE
  8
0
 10
0.497375
 20
-1.93716
 11
0.374756
 21
-1.96457
  0
LINE
  8
0
 10
0.374756
 20
-1.96457
 11
0.250656
 21
-1.98422
  0
LINE
  8
0
 10
0.250656
 20
-1.98422
 11
0.12558
 21
-1.99605
  0
LINE
  8
0
 10
0.12558
 20
-1.99605
 11
0
 21
-2
  0
LINE
  8
0
 10
0
 20
-2
 11
-0.12558
 21
-1.99605
  0
LINE
  8
0
 10
3.90581
 20
-1.49704
 11
3.812
 21
-1.48816
  0
LINE
  8
0
 10
3.812
 20
-1.48816
 11
3.71892
 21
-1.47342
  0
LINE
  8
0
 10
3.71892
 20
-1.47342
 11
3.62695
 21
-1.45287
  0
LINE
  8
0
 10
3.62695
 20
-1.45287
 11
3.53647
 21
-1.42657
  0
LINE
  8
0
 10
3.53647
 20
-1.42657
 11
3.4478
 21
-1.39465
  0
LINE
  8
0
 10
3.4478
 20
-1.39465
 11
3.36133
 21
-1.35724
  0
LINE
  8
0
 10
3.36133
 20
-1.35724
 11
3.27736
 21
-1.31445
  0
LINE
  8
0
 10
3.27736
 20
-1.31445
 11
3.19626
 21
-1.26648
  0
LINE
  8
0
 10
3.19626
 20
-1.26648
 11
3.11832
 21
-1.21352
  0
LINE
  8
0
 10
3.11832
 20
-1.21352
 11
3.04385
 21
-1.15576
  0
LINE
  8
0
 10
3.04385
 20
-1.15576
 11
2.97318
 21
-1.09344
  0
LINE
  8
0
 10
2.97318
 20
-1.09344
 11
2.90654
 21
-1.02681
  0
LINE
  8
0
 10
2.90654
 20
-1.02681
 11
2.84422
 21
-0.956131
  0
LINE
  8
0
 10
2.84422
 20
-0.956131
 11
2.78647
 21
-0.881668
  0
LINE
  8
0
 10
2.78647
 20
-0.881668
 11
2.73351
 21
-0.803726
  0
LINE
  8
0
 10
2.73351
 20
-0.803726
 11
2.68553
 21
-0.722626
  0
LINE
  8
0
 10
2.68553
 20
-0.722626
 11
2.64275
 21
-0.638657
  0
LINE
  8
0
 10
2.64275
 20
-0.638657
 11
2.60533
 21
-0.552185
  0
LINE
  8
0
 10
2.60533
 20
-0.552185
 11
2.57341
 21
-0.463516
  0
LINE
  8
0
 10
2.57341
 20
-0.463516
 11
2.54712
 21
-0.373032
  0
LINE
  8
0
 10
2.54712
 20
-0.373032
 11
2.52657
 21
-0.281067
  0
LINE
  8
0
 10
2.52657
 20
-0.281067
 11
2.51183
 21
-0.187988
  0
LINE
  8
0
 10
2.51183
 20
-0.187988
 11
2.50294
 21
-0.0941772
  0
LINE
  8
0
 10
2.50294
 20
-0.0941772
 11
2.5
 21
0
  0
LINE
  8
0
 10
2.5
 20
0
 11
2.50294
 21
0.0941772
  0
LINE
  8
0
 10
2.50294
 20
0.0941772
 11
2.51183
 21
0.187988
  0
LINE
  8
0
 10
2.51183
 20
0.187988
 11
2.52657
 21
0.281067
  0
LINE
  8
0
 10
2.52657
 20
0.281067
 11
2.54712
 21
0.373032
  0
LINE
  8
0
 10
2.54712
 20
0.373032
 11
2.57341
 21
0.463516
  0
LINE
  8
0
 10
2.57341
 20
0.463516
 11
2.60533
 21
0.552185
  0
LINE
  8
0
 10
2.60533
 20
0.552185
 11
2.64275
 21
0.638657
  0
LINE
  8
0
 10
2.64275
 20
0.638657
 11
2.68553
 21
0.722626
  0
LINE
  8
0
 10
2.68553
 20
0.722626
 11
2.73351
 21
0.803726
  0
LINE
  8
0
 10
2.73351
 20
0.803726
 11
2.78647
 21
0.881668
  0
LINE
  8
0
 10
2.78647
 20
0.881668
 11
2.84422
 21
0.956131
  0
LINE
  8
0
 10
2.84422
 20
0.956131
 11
2.90654
 21
1.02681
  0
LINE
  8
0
 10
2.90654
 20
1.02681
 11
2.97318
 21
1.09344
  0
LINE
  8
0
 10
2.97318
 20
1.09344
 11
3.04385
 21
1.15576
  0
LINE
  8
0
 10
3.04385
 20
1.15576
 11
3.11832
 21
1.21352
  0
LINE
  8
0
 10
3.11832
 20
1.21352
 11
3.19626
 21
1.26648
  0
LINE
  8
0
 10
3.19626
 20
1.26648
 11
3.27736
 21
1.31445
  0
LINE
  8
0
 10
3.27736
 20
1.31445
 11
3.36133
 21
1.35724
  0
LINE
  8
0
 10
3.36133
 20
1.35724
 11
3.4478
 21
1.39465
  0
LINE
  8
0
 10
3.4478
 20
1.39465
 11
3.53647
 21
1.42657
  0
LINE
  8
0
 10
3.53647
 20
1.42657
 11
3.62695
 21
1.45287
  0
LINE
  8
0
 10
3.62695
 20
1.45287
 11
3.71892
 21
1.47342
  0
LINE
  8
0
 10
3.71892
 20
1.47342
 11
3.812
 21
1.48816
  0
LINE
  8
0
 10
3.812
 20
1.48816
 11
3.90581
 21
1.49704
  0
LINE
  8
0
 10
3.90581
 20
1.49704
 11
4
 21
1.5
  0
LINE
  8
0
 10
4
 20
1.5
 11
4.09418
 21
1.49704
  0
LINE
  8
0
 10
4.09418
 20
1.49704
 11
4.18799
 21
1.48816
  0
LINE
  8
0
 10
4.18799
 20
1.48816
 11
4.28107
 21
1.47342
  0
LINE
  8
0
 10
4.28107
 20
1.47342
 11
4.37303
 21
1.45287
  0
LINE
  8
0
 10
4.37303
 20
1.45287
 11
4.46352
 21
1.42657
  0
LINE
  8
0
 10
4.46352
 20
1.42657
 11
4.55219
 21
1.39465
  0
LINE
  8
0
 10
4.55219
 20
1.39465
 11
4.63866
 21
1.35724
  0
LINE
  8
0
 10
4.63866
 20
1.35724
 11
4.72263
 21
1.31445
  0
LINE
  8
0
 10
4.72263
 20
1.31445
 11
4.80373
 21
1.26648
  0
LINE
  8
0
 10
4.80373
 20
1.26648
 11
4.88167
 21
1.21352
  0
LINE
  8
0
 10
4.88167
 20
1.21352
 11
4.95613
 21
1.15576
  0
LINE
  8
0
 10
4.95613
 20
1.15576
 11
5.02681
 21
1.09344
  0
LINE
  8
0
 10
5.02681
 20
1.09344
 11
5.09344
 21
1.02681
  0
LINE
  8
0
 10
5.09344
 20
1.02681
 11
5.15576
 21
0.956131
  0
LINE
  8
0
 10
5.15576
 20
0.956131
 11
5.21352
 21
0.881668
  0
LINE
  8
0
 10
5.21352
 20
0.881668
 11
5.26648
 21
0.803726
  0
LINE
  8
0
 10
5.26648
 20
0.803726
 11
5.31445
 21
0.722626
  0
LINE
  8
0
 10
5.31445
 20
0.722626
 11
5.35724
 21
0.638657
  0
LINE
  8
0
 10
5.35724
 20
0.638657
 11
5.39465
 21
0.552185
  0
LINE
  8
0
 10
5.39465
 20
0.552185
 11
5.42657
 21
0.463516
  0
LINE
  8
0
 10
5.42657
 20
0.463516
 11
5.45287
 21
0.373032
  0
LINE
  8
0
 10
5.45287
 20
0.373032
 11
5.47342
 21
0.281067
  0
LINE
  8
0
 10
5.47342
 20
0.281067
 11
5.48816
 21
0.187988
  0
LINE
  8
0
 10
5.48816
 20
0.187988
 11
5.49704
 21
0.0941772
  0
LINE
  8
0
 10
5.49704
 20
0.0941772
 11
5.5
 21
0
  0
LINE
  8
0
 10
5.5
 20
0
 11
5.49704
 21
-0.0941772
  0
LINE
  8
0
 10
5.49704
 20
-0.0941772
 11
5.48816
 21
-0.187988
  0
LINE
  8
0
 10
5.48816
 20
-0.187988
 11
5.47342
 21
-0.281067
  0
LINE
  8
0
 10
5.47342
 20
-0.281067
 11
5.45287
 21
-0.373032
  0
LINE
  8
0
 10
5.45287
 20
-0.373032
 11
5.42657
 21
-0.463516
  0
LINE
  8
0
 10
5.42657
 20
-0.463516
 11
5.39465
 21
-0.552185
  0
LINE
  8
0
 10
5.39465
 20
-0.552185
 11
5.35724
 21
-0.638657
  0
LINE
  8
0
 10
5.35724
 20
-0.638657
 11
5.31445
 21
-0.722626
  0
LINE
  8
0
 10
5.31445
 20
-0.722626
 11
5.26648
 21
-0.803726
  0
LINE
  8
0
 10
5.26648
 20
-0.803726
 11
5.21352
 21
-0.881668
  0
LINE
  8
0
 10
5.21352
 20
-0.881668
 11
5.15576
 21
-0.956131
  0
LINE
  8
0
 10
5.15576
 20
-0.956131
 11
5.09344
 21
-1.02681
  0
LINE
  8
0
 10
5.09344
 20
-1.02681
 11
5.02681
 21
-1.09344
  0
LINE
  8
0
 10
5.02681
 20
-1.09344
 11
4.95613
 21
-1.15576
  0
LINE
  8
0
 10
4.95613
 20
-1.15576
 11
4.88167
 21
-1.21352
  0
LINE
  8
0
 10
4.88167
 20
-1.21352
 11
4.80373
 21
-1.26648
  0
LINE
  8
0
 10
4.80373
 20
-1.26648
 11
4.72263
 21
-1.31445
  0
LINE
  8
0
 10
4.72263
 20
-1.31445
 11
4.63866
 21
-1.35724
  0
LINE
  8
0
 10
4.63866
 20
-1.35724
 11
4.55219
 21
-1.39465
  0
LINE
  8
0
 10
4.55219
 20
-1.39465
 11
4.46352
 21
-1.42657
  0
LINE
  8
0
 10
4.46352
 20
-1.42657
 11
4.37303
 21
-1.45287
  0
LINE
  8
0
 10
4.37303
 20
-1.45287
 11
4.28107
 21
-1.47342
  0
LINE
  8
0
 10
4.28107
 20
-1.47342
 11
4.18799
 21
-1.48816
  0
LINE
  8
0
 10
4.18799
 20
-1.48816
 11
4.09418
 21
-1.49704
  0
LINE
  8
0
 10
4.09418
 20
-1.49704
 11
4
 21
-1.5
  0
LINE
  8
0
 10
4
 20
-1.5
 11
3.90581
 21
-1.49704
  0
LINE
  8
0
 10
-8.03139
 20
-8.149
 11
-8.06265
 21
-8.14606
  0
LINE
  8
0
 10
-8.06265
 20
-8.14606
 11
-8.09369
 21
-8.14113
  0
LINE
  8
0
 10
-8.09369
 20
-8.14113
 11
-8.12434
 21
-8.13428
  0
LINE
  8
0
 10
-8.12434
 20
-8.13428
 11
-8.1545
 21
-8.12552
  0
LINE
  8
0
 10
-8.1545
 20
-8.12552
 11
-8.18405
 21
-8.11488
  0
LINE
  8
0
 10
-8.18405
 20
-8.11488
 11
-8.21288
 21
-8.1024
  0
LINE
  8
0
 10
-8.21288
 20
-8.1024
 11
-8.24088
 21
-8.08815
  0
LINE
  8
0
 10
-8.24088
 20
-8.08815
 11
-8.2679
 21
-8.07216
  0
LINE
  8
0
 10
-8.2679
 20
-8.07216
 11
-8.29388
 21
-8.0545
  0
LINE
  8
0
 10
-8.29388
 20
-8.0545
 11
-8.31871
 21
-8.03525
  0
LINE
  8
0
 10
-8.31871
 20
-8.03525
 11
-8.34227
 21
-8.01448
  0
LINE
  8
0
 10
-8.34227
 20
-8.01448
 11
-8.36447
 21
-7.99226
  0
LINE
  8
0
 10
-8.36447
 20
-7.99226
 11
-8.38525
 21
-7.9687
  0
LINE
  8
0
 10
-8.38525
 20
-7.9687
 11
-8.4045
 21
-7.94388
  0
LINE
  8
0
 10
-8.4045
 20
-7.94388
 11
-8.42215
 21
-7.91791
  0
LINE
  8
0
 10
-8.42215
 20
-7.91791
 11
-8.43814
 21
-7.89087
  0
LINE
  8
0
 10
-8.43814
 20
-7.89087
 11
-8.45241
 21
-7.86288
  0
LINE
  8
0
 10
-8.45241
 20
-7.86288
 11
-8.46487
 21
-7.83406
  0
LINE
  8
0
 10
-8.46487
 20
-7.83406
 11
-8.47552
 21
-7.8045
  0
LINE
  8
0
 10
-8.47552
 20
-7.8045
 11
-8.48428
 21
-7.77434
  0
LINE
  8
0
 10
-8.48428
 20
-7.77434
 11
-8.49113
 21
-7.74368
  0
LINE
  8
0
 10
-8.49113
 20
-7.74368
 11
-8.49605
 21
-7.71266
  0
LINE
  8
0
 10
-8.49605
 20
-7.71266
 11
-8.49901
 21
-7.68138
  0
LINE
  8
0
 10
-8.49901
 20
-7.68138
 11
-8.5
 21
-7.64999
  0
LINE
  8
0
 10
-8.5
 20
-7.64999
 11
-8.49901
 21
-7.61859
  0
LINE
  8
0
 10
-8.49901
 20
-7.61859
 11
-8.49605
 21
-7.58733
  0
LINE
  8
0
 10
-8.49605
 20
-7.58733
 11
-8.49113
 21
-7.5563
  0
LINE
  8
0
 10
-8.49113
 20
-7.5563
 11
-8.48428
 21
-7.52565
  0
LINE
  8
0
 10
-8.48428
 20
-7.52565
 11
-8.47552
 21
-7.49548
  0
LINE
  8
0
 10
-8.47552
 20
-7.49548
 11
-8.46487
 21
-7.46593
  0
LINE
  8
0
 10
-8.46487
 20
-7.46593
 11
-8.45241
 21
-7.4371
  0
LINE
  8
0
 10
-8.45241
 20
-7.4371
 11
-8.43814
 21
-7.40912
  0
LINE
  8
0
 10
-8.43814
 20
-7.40912
 11
-8.42215
 21
-7.38208
  0
LINE
  8
0
 10
-8.42215
 20
-7.38208
 11
-8.4045
 21
-7.35609
  0
LINE
  8
0
 10
-8.4045
 20
-7.35609
 11
-8.38525
 21
-7.33128
  0
LINE
  8
0
 10
-8.38525
 20
-7.33128
 11
-8.36447
 21
-7.30772
  0
LINE
  8
0
 10
-8.36447
 20
-7.30772
 11
-8.34227
 21
-7.28551
  0
LINE
  8
0
 10
-8.34227
 20
-7.28551
 11
-8.31871
 21
-7.26474
  0
LINE
  8
0
 10
-8.31871
 20
-7.26474
 11
-8.29388
 21
-7.24548
  0
LINE
  8
0
 10
-8.29388
 20
-7.24548
 11
-8.2679
 21
-7.22783
  0
LINE
  8
0
 10
-8.2679
 20
-7.22783
 11
-8.24088
 21
-7.21184
  0
LINE
  8
0
 10
-8.24088
 20
-7.21184
 11
-8.21288
 21
-7.19759
  0
LINE
  8
0
 10
-8.21288
 20
-7.19759
 11
-8.18405
 21
-7.1851
  0
LINE
  8
0
 10
-8.18405
 20
-7.1851
 11
-8.1545
 21
-7.17447
  0
LINE
  8
0
 10
-8.1545
 20
-7.17447
 11
-8.12434
 21
-7.1657
  0
LINE
  8
0
 10
-8.12434
 20
-7.1657
 11
-8.09369
 21
-7.15884
  0
LINE
  8
0
 10
-8.09369
 20
-7.15884
 11
-8.06265
 21
-7.15393
  0
LINE
  8
0
 10
-8.06265
 20
-7.15393
 11
-8.03139
 21
-7.15099
  0
LINE
  8
0
 10
-8.03139
 20
-7.15099
 11
-8
 21
-7.14999
  0
LINE
  8
0
 10
-8
 20
-7.14999
 11
-7.96861
 21
-7.15099
  0
LINE
  8
0
 10
-7.96861
 20
-7.15099
 11
-7.93735
 21
-7.15393
  0
LINE
  8
0
 10
-7.93735
 20
-7.15393
 11
-7.90631
 21
-7.15884
  0
LINE
  8
0
 10
-7.90631
 20
-7.15884
 11
-7.87566
 21
-7.1657
  0
LINE
  8
0
 10
-7.87566
 20
-7.1657
 11
-7.8455
 21
-7.17447
  0
LINE
  8
0
 10
-7.8455
 20
-7.17447
 11
-7.81595
 21
-7.1851
  0
LINE
  8
0
 10
-7.81595
 20
-7.1851
 11
-7.78712
 21
-7.19759
  0
LINE
  8
0
 10
-7.78712
 20
-7.19759
 11
-7.75912
 21
-7.21184
  0
LINE
  8
0
 10
-7.75912
 20
-7.21184
 11
-7.7321
 21
-7.22783
  0
LINE
  8
0
 10
-7.7321
 20
-7.22783
 11
-7.70612
 21
-7.24548
  0
LINE
  8
0
 10
-7.70612
 20
-7.24548
 11
-7.68129
 21
-7.26474
  0
LINE
  8
0
 10
-7.68129
 20
-7.26474
 11
-7.65773
 21
-7.28551
  0
LINE
  8
0
 10
-7.65773
 20
-7.28551
 11
-7.63553
 21
-7.30772
  0
LINE
  8
0
 10
-7.63553
 20
-7.30772
 11
-7.61475
 21
-7.33128
  0
LINE
  8
0
 10
-7.61475
 20
-7.33128
 11
-7.5955
 21
-7.35609
  0
LINE
  8
0
 10
-7.5955
 20
-7.35609
 11
-7.57785
 21
-7.38208
  0
LINE
  8
0
 10
-7.57785
 20
-7.38208
 11
-7.56186
 21
-7.40912
  0
LINE
  8
0
 10
-7.56186
 20
-7.40912
 11
-7.54759
 21
-7.4371
  0
LINE
  8
0
 10
-7.54759
 20
-7.4371
 11
-7.53513
 21
-7.46593
  0
LINE
  8
0
 10
-7.53513
 20
-7.46593
 11
-7.52448
 21
-7.49548
  0
LINE
  8
0
 10
-7.52448
 20
-7.49548
 11
-7.51572
 21
-7.52565
  0
LINE
  8
0
 10
-7.51572
 20
-7.52565
 11
-7.50887
 21
-7.5563
  0
LINE
  8
0
 10
-7.50887
 20
-7.5563
 11
-7.50395
 21
-7.58733
  0
LINE
  8
0
 10
-7.50395
 20
-7.58733
 11
-7.50099
 21
-7.61859
  0
LINE
  8
0
 10
-7.50099
 20
-7.61859
 11
-7.5
 21
-7.64999
  0
LINE
  8
0
 10
-7.5
 20
-7.64999
 11
-7.50099
 21
-7.68138
  0
LINE
  8
0
 10
-7.50099
 20
-7.68138
 11
-7.50395
 21
-7.71266
  0
LINE
  8
0
 10
-7.50395
 20
-7.71266
 11
-7.50887
 21
-7.74368
  0
LINE
  8
0
 10
-7.50887
 20
-7.74368
 11
-7.51572
 21
-7.77434
  0
LINE
  8
0
 10
-7.51572
 20
-7.77434
 11
-7.52448
 21
-7.8045
  0
LINE
  8
0
 10
-7.52448
 20
-7.8045
 11
-7.53513
 21
-7.83406
  0
LINE
  8
0
 10
-7.53513
 20
-7.83406
 11
-7.54759
 21
-7.86288
  0
LINE
  8
0
 10
-7.54759
 20
-7.86288
 11
-7.56186
 21
-7.89087
  0
LINE
  8
0
 10
-7.56186
 20
-7.89087
 11
-7.57785
 21
-7.91791
  0
LINE
  8
0
 10
-7.57785
 20
-7.91791
 11
-7.5955
 21
-7.94388
  0
LINE
  8
0
 10
-7.5955
 20
-7.94388
 11
-7.61475
 21
-7.9687
  0
LINE
  8
0
 10
-7.61475
 20
-7.9687
 11
-7.63553
 21
-7.99226
  0
LINE
  8
0
 10
-7.63553
 20
-7.99226
 11
-7.65773
 21
-8.01448
  0
LINE
  8
0
 10
-7.65773
 20
-8.01448
 11
-7.68129
 21
-8.03525
  0
LINE
  8
0
 10
-7.68129
 20
-8.03525
 11
-7.70612
 21
-8.0545
  0
LINE
  8
0
 10
-7.70612
 20
-8.0545
 11
-7.7321
 21
-8.07216
  0
LINE
  8
0
 10
-7.7321
 20
-8.07216
 11
-7.75912
 21
-8.08815
  0
LINE
  8
0
 10
-7.75912
 20
-8.08815
 11
-7.78712
 21
-8.1024
  0
LINE
  8
0
 10
-7.78712
 20
-8.1024
 11
-7.81595
 21
-8.11488
  0
LINE
  8
0
 10
-7.81595
 20
-8.11488
 11
-7.8455
 21
-8.12552
  0
LINE
  8
0
 10
-7.8455
 20
-8.12552
 11
-7.87566
 21
-8.13428
  0
LINE
  8
0
 10
-7.87566
 20
-8.13428
 11
-7.90631
 21
-8.14113
  0
LINE
  8
0
 10
-7.90631
 20
-8.14113
 11
-7.93735
 21
-8.14606
  0
LINE
  8
0
 10
-7.93735
 20
-8.14606
 11
-7.96861
 21
-8.149
  0
LINE
  8
0
 10
-7.96861
 20
-8.149
 11
-8
 21
-8.14999
  0
LINE
  8
0
 10
-8
 20
-8.14999
 11
-8.03139
 21
-8.149
  0
LINE
  8
0
 10
-5.49141
 20
-8.149
 11
-5.52267
 21
-8.14606
  0
LINE
  8
0
 10
-5.52267
 20
-8.14606
 11
-5.5537
 21
-8.14113
  0
LINE
  8
0
 10
-5.5537
 20
-8.14113
 11
-5.58435
 21
-8.13428
  0
LINE
  8
0
 10
-5.58435
 20
-8.13428
 11
-5.61452
 21
-8.12552
  0
LINE
  8
0
 10
-5.61452
 20
-8.12552
 11
-5.64407
 21
-8.11488
  0
LINE
  8
0
 10
-5.64407
 20
-8.11488
 11
-5.6729
 21
-8.1024
  0
LINE
  8
0
 10
-5.6729
 20
-8.1024
 11
-5.70088
 21
-8.08815
  0
LINE
  8
0
 10
-5.70088
 20
-8.08815
 11
-5.72792
 21
-8.07216
  0
LINE
  8
0
 10
-5.72792
 20
-8.07216
 11
-5.75391
 21
-8.0545
  0
LINE
  8
0
 10
-5.75391
 20
-8.0545
 11
-5.77872
 21
-8.03525
  0
LINE
  8
0
 10
-5.77872
 20
-8.03525
 11
-5.80228
 21
-8.01448
  0
LINE
  8
0
 10
-5.80228
 20
-8.01448
 11
-5.82449
 21
-7.99226
  0
LINE
  8
0
 10
-5.82449
 20
-7.99226
 11
-5.84526
 21
-7.9687
  0
LINE
  8
0
 10
-5.84526
 20
-7.9687
 11
-5.86452
 21
-7.94388
  0
LINE
  8
0
 10
-5.86452
 20
-7.94388
 11
-5.88217
 21
-7.91791
  0
LINE
  8
0
 10
-5.88217
 20
-7.91791
 11
-5.89816
 21
-7.89087
  0
LINE
  8
0
 10
-5.89816
 20
-7.89087
 11
-5.91241
 21
-7.86288
  0
LINE
  8
0
 10
-5.91241
 20
-7.86288
 11
-5.9249
 21
-7.83406
  0
LINE
  8
0
 10
-5.9249
 20
-7.83406
 11
-5.93553
 21
-7.8045
  0
LINE
  8
0
 10
-5.93553
 20
-7.8045
 11
-5.94431
 21
-7.77434
  0
LINE
  8
0
 10
-5.94431
 20
-7.77434
 11
-5.95116
 21
-7.74368
  0
LINE
  8
0
 10
-5.95116
 20
-7.74368
 11
-5.95607
 21
-7.71266
  0
LINE
  8
0
 10
-5.95607
 20
-7.71266
 11
-5.95901
 21
-7.68138
  0
LINE
  8
0
 10
-5.95901
 20
-7.68138
 11
-5.96001
 21
-7.64999
  0
LINE
  8
0
 10
-5.96001
 20
-7.64999
 11
-5.95901
 21
-7.61859
  0
LINE
  8
0
 10
-5.95901
 20
-7.61859
 11
-5.95607
 21
-7.58733
  0
LINE
  8
0
 10
-5.95607
 20
-7.58733
 11
-5.95116
 21
-7.5563
  0
LINE
  8
0
 10
-5.95116
 20
-7.5563
 11
-5.94431
 21
-7.52565
  0
LINE
  8
0
 10
-5.94431
 20
-7.52565
 11
-5.93553
 21
-7.49548
  0
LINE
  8
0
 10
-5.93553
 20
-7.49548
 11
-5.9249
 21
-7.46593
  0
LINE
  8
0
 10
-5.9249
 20
-7.46593
 11
-5.91241
 21
-7.4371
  0
LINE
  8
0
 10
-5.91241
 20
-7.4371
 11
-5.89816
 21
-7.40912
  0
LINE
  8
0
 10
-5.89816
 20
-7.40912
 11
-5.88217
 21
-7.38208
  0
LINE
  8
0
 10
-5.88217
 20
-7.38208
 11
-5.86452
 21
-7.35609
  0
LINE
  8
0
 10
-5.86452
 20
-7.35609
 11
-5.84526
 21
-7.33128
  0
LINE
  8
0
 10
-5.84526
 20
-7.33128
 11
-5.82449
 21
-7.30772
  0
LINE
  8
0
 10
-5.82449
 20
-7.30772
 11
-5.80228
 21
-7.28551
  0
LINE
  8
0
 10
-5.80228
 20
-7.28551
 11
-5.77872
 21
-7.26474
  0
LINE
  8
0
 10
-5.77872
 20
-7.26474
 11
-5.75391
 21
-7.24548
  0
LINE
  8
0
 10
-5.75391
 20
-7.24548
 11
-5.72792
 21
-7.22783
  0
LINE
  8
0
 10
-5.72792
 20
-7.22783
 11
-5.70088
 21
-7.21184
  0
LINE
  8
0
 10
-5.70088
 20
-7.21184
 11
-5.6729
 21
-7.19759
  0
LINE
  8
0
 10
-5.6729
 20
-7.19759
 11
-5.64407
 21
-7.1851
  0
LINE
  8
0
 10
-5.64407
 20
-7.1851
 11
-5.61452
 21
-7.17447
  0
LINE
  8
0
 10
-5.61452
 20
-7.17447
 11
-5.58435
 21
-7.1657
  0
LINE
  8
0
 10
-5.58435
 20
-7.1657
 11
-5.5537
 21
-7.15884
  0
LINE
  8
0
 10
-5.5537
 20
-7.15884
 11
-5.52267
 21
-7.15393
  0
LINE
  8
0
 10
-5.52267
 20
-7.15393
 11
-5.49141
 21
-7.15099
  0
LINE
  8
0
 10
-5.49141
 20
-7.15099
 11
-5.46001
 21
-7.14999
  0
LINE
  8
0
 10
-5.46001
 20
-7.14999
 11
-5.42862
 21
-7.15099
  0
LINE
  8
0
 10
-5.42862
 20
-7.15099
 11
-5.39734
 21
-7.15393
  0
LINE
  8
0
 10
-5.39734
 20
-7.15393
 11
-5.36632
 21
-7.15884
  0
LINE
  8
0
 10
-5.36632
 20
-7.15884
 11
-5.33566
 21
-7.1657
  0
LINE
  8
0
 10
-5.33566
 20
-7.1657
 11
-5.3055
 21
-7.17447
  0
LINE
  8
0
 10
-5.3055
 20
-7.17447
 11
-5.27594
 21
-7.1851
  0
LINE
  8
0
 10
-5.27594
 20
-7.1851
 11
-5.24712
 21
-7.19759
  0
LINE
  8
0
 10
-5.24712
 20
-7.19759
 11
-5.21913
 21
-7.21184
  0
LINE
  8
0
 10
-5.21913
 20
-7.21184
 11
-5.19209
 21
-7.22783
  0
LINE
  8
0
 10
-5.19209
 20
-7.22783
 11
-5.16612
 21
-7.24548
  0
LINE
  8
0
 10
-5.16612
 20
-7.24548
 11
-5.1413
 21
-7.26474
  0
LINE
  8
0
 10
-5.1413
 20
-7.26474
 11
-5.11774
 21
-7.28551
  0
LINE
  8
0
 10
-5.11774
 20
-7.28551
 11
-5.09552
 21
-7.30772
  0
LINE
  8
0
 10
-5.09552
 20
-7.30772
 11
-5.07475
 21
-7.33128
  0
LINE
  8
0
 10
-5.07475
 20
-7.33128
 11
-5.0555
 21
-7.35609
  0
LINE
  8
0
 10
-5.0555
 20
-7.35609
 11
-5.03784
 21
-7.38208
  0
LINE
  8
0
 10
-5.03784
 20
-7.38208
 11
-5.02185
 21
-7.40912
  0
LINE
  8
0
 10
-5.02185
 20
-7.40912
 11
-5.0076
 21
-7.4371
  0
LINE
  8
0
 10
-5.0076
 20
-7.4371
 11
-4.99512
 21
-7.46593
  0
LINE
  8
0
 10
-4.99512
 20
-7.46593
 11
-4.98448
 21
-7.49548
  0
LINE
  8
0
 10
-4.98448
 20
-7.49548
 11
-4.97572
 21
-7.52565
  0
LINE
  8
0
 10
-4.97572
 20
-7.52565
 11
-4.96886
 21
-7.5563
  0
LINE
  8
0
 10
-4.96886
 20
-7.5563
 11
-4.96394
 21
-7.58733
  0
LINE
  8
0
 10
-4.96394
 20
-7.58733
 11
-4.961
 21
-7.61859
  0
LINE
  8
0
 10
-4.961
 20
-7.61859
 11
-4.96001
 21
-7.64999
  0
LINE
  8
0
 10
-4.96001
 20
-7.64999
 11
-4.961
 21
-7.68138
  0
LINE
  8
0
 10
-4.961
 20
-7.68138
 11
-4.96394
 21
-7.71266
  0
LINE
  8
0
 10
-4.96394
 20
-7.71266
 11
-4.96886
 21
-7.74368
  0
LINE
  8
0
 10
-4.96886
 20
-7.74368
 11
-4.97572
 21
-7.77434
  0
LINE
  8
0
 10
-4.97572
 20
-7.77434
 11
-4.98448
 21
-7.8045
  0
LINE
  8
0
 10
-4.98448
 20
-7.8045
 11
-4.99512
 21
-7.83406
  0
LINE
  8
0
 10
-4.99512
 20
-7.83406
 11
-5.0076
 21
-7.86288
  0
LINE
  8
0
 10
-5.0076
 20
-7.86288
 11
-5.02185
 21
-7.89087
  0
LINE
  8
0
 10
-5.02185
 20
-7.89087
 11
-5.03784
 21
-7.91791
  0
LINE
  8
0
 10
-5.03784
 20
-7.91791
 11
-5.0555
 21
-7.94388
  0
LINE
  8
0
 10
-5.0555
 20
-7.94388
 11
-5.07475
 21
-7.9687
  0
LINE
  8
0
 10
-5.07475
 20
-7.9687
 11
-5.09552
 21
-7.99226
  0
LINE
  8
0
 10
-5.09552
 20
-7.99226
 11
-5.11774
 21
-8.01448
  0
LINE
  8
0
 10
-5.11774
 20
-8.01448
 11
-5.1413
 21
-8.03525
  0
LINE
  8
0
 10
-5.1413
 20
-8.03525
 11
-5.16612
 21
-8.0545
  0
LINE
  8
0
 10
-5.16612
 20
-8.0545
 11
-5.19209
 21
-8.07216
  0
LINE
  8
0
 10
-5.19209
 20
-8.07216
 11
-5.21913
 21
-8.08815
  0
LINE
  8
0
 10
-5.21913
 20
-8.08815
 11
-5.24712
 21
-8.1024
  0
LINE
  8
0
 10
-5.24712
 20
-8.1024
 11
-5.27594
 21
-8.11488
  0
LINE
  8
0
 10
-5.27594
 20
-8.11488
 11
-5.3055
 21
-8.12552
  0
LINE
  8
0
 10
-5.3055
 20
-8.12552
 11
-5.33566
 21
-8.13428
  0
LINE
  8
0
 10
-5.33566
 20
-8.13428
 11
-5.36632
 21
-8.14113
  0
LINE
  8
0
 10
-5.36632
 20
-8.14113
 11
-5.39734
 21
-8.14606
  0
LINE
  8
0
 10
-5.39734
 20
-8.14606
 11
-5.42862
 21
-8.149
  0
LINE
  8
0
 10
-5.42862
 20
-8.149
 11
-5.46001
 21
-8.14999
  0
LINE
  8
0
 10
-5.46001
 20
-8.14999
 11
-5.49141
 21
-8.149
  0
LINE
  8
0
 10
-2.9514
 20
-8.149
 11
-2.98268
 21
-8.14606
  0
LINE
  8
0
 10
-2.98268
 20
-8.14606
 11
-3.0137
 21
-8.14113
  0
LINE
  8
0
 10
-3.0137
 20
-8.14113
 11
-3.04436
 21
-8.13428
  0
LINE
  8
0
 10
-3.04436
 20
-8.13428
 11
-3.07451
 21
-8.12552
  0
LINE
  8
0
 10
-3.07451
 20
-8.12552
 11
-3.10406
 21
-8.11488
  0
LINE
  8
0
 10
-3.10406
 20
-8.11488
 11
-3.1329
 21
-8.1024
  0
LINE
  8
0
 10
-3.1329
 20
-8.1024
 11
-3.16089
 21
-8.08815
  0
LINE
  8
0
 10
-3.16089
 20
-8.08815
 11
-3.18793
 21
-8.07216
  0
LINE
  8
0
 10
-3.18793
 20
-8.07216
 11
-3.2139
 21
-8.0545
  0
LINE
  8
0
 10
-3.2139
 20
-8.0545
 11
-3.23872
 21
-8.03525
  0
LINE
  8
0
 10
-3.23872
 20
-8.03525
 11
-3.26228
 21
-8.01448
  0
LINE
  8
0
 10
-3.26228
 20
-8.01448
 11
-3.28448
 21
-7.99226
  0
LINE
  8
0
 10
-3.28448
 20
-7.99226
 11
-3.30527
 21
-7.9687
  0
LINE
  8
0
 10
-3.30527
 20
-7.9687
 11
-3.32451
 21
-7.94388
  0
LINE
  8
0
 10
-3.32451
 20
-7.94388
 11
-3.34218
 21
-7.91791
  0
LINE
  8
0
 10
-3.34218
 20
-7.91791
 11
-3.35815
 21
-7.89087
  0
LINE
  8
0
 10
-3.35815
 20
-7.89087
 11
-3.37242
 21
-7.86288
  0
LINE
  8
0
 10
-3.37242
 20
-7.86288
 11
-3.3849
 21
-7.83406
  0
LINE
  8
0
 10
-3.3849
 20
-7.83406
 11
-3.39554
 21
-7.8045
  0
LINE
  8
0
 10
-3.39554
 20
-7.8045
 11
-3.4043
 21
-7.77434
  0
LINE
  8
0
 10
-3.4043
 20
-7.77434
 11
-3.41115
 21
-7.74368
  0
LINE
  8
0
 10
-3.41115
 20
-7.74368
 11
-3.41606
 21
-7.71266
  0
LINE
  8
0
 10
-3.41606
 20
-7.71266
 11
-3.41902
 21
-7.68138
  0
LINE
  8
0
 10
-3.41902
 20
-7.68138
 11
-3.42001
 21
-7.64999
  0
LINE
  8
0
 10
-3.42001
 20
-7.64999
 11
-3.41902
 21
-7.61859
  0
LINE
  8
0
 10
-3.41902
 20
-7.61859
 11
-3.41606
 21
-7.58733
  0
LINE
  8
0
 10
-3.41606
 20
-7.58733
 11
-3.41115
 21
-7.5563
  0
LINE
  8
0
 10
-3.41115
 20
-7.5563
 11
-3.4043
 21
-7.52565
  0
LINE
  8
0
 10
-3.4043
 20
-7.52565
 11
-3.39554
 21
-7.49548
  0
LINE
  8
0
 10
-3.39554
 20
-7.49548
 11
-3.3849
 21
-7.46593
  0
LINE
  8
0
 10
-3.3849
 20
-7.46593
 11
-3.37242
 21
-7.4371
  0
LINE
  8
0
 10
-3.37242
 20
-7.4371
 11
-3.35815
 21
-7.40912
  0
LINE
  8
0
 10
-3.35815
 20
-7.40912
 11
-3.34218
 21
-7.38208
  0
LINE
  8
0
 10
-3.34218
 20
-7.38208
 11
-3.32451
 21
-7.35609
  0
LINE
  8
0
 10
-3.32451
 20
-7.35609
 11
-3.30527
 21
-7.33128
  0
LINE
  8
0
 10
-3.30527
 20
-7.33128
 11
-3.28448
 21
-7.30772
  0
LINE
  8
0
 10
-3.28448
 20
-7.30772
 11
-3.26228
 21
-7.28551
  0
LINE
  8
0
 10
-3.26228
 20
-7.28551
 11
-3.23872
 21
-7.26474
  0
LINE
  8
0
 10
-3.23872
 20
-7.26474
 11
-3.2139
 21
-7.24548
  0
LINE
  8
0
 10
-3.2139
 20
-7.24548
 11
-3.18793
 21
-7.22783
  0
LINE
  8
0
 10
-3.18793
 20
-7.22783
 11
-3.16089
 21
-7.21184
  0
LINE
  8
0
 10
-3.16089
 20
-7.21184
 11
-3.1329
 21
-7.19759
  0
LINE
  8
0
 10
-3.1329
 20
-7.19759
 11
-3.10406
 21
-7.1851
  0
LINE
  8
0
 10
-3.10406
 20
-7.1851
 11
-3.07451
 21
-7.17447
  0
LINE
  8
0
 10
-3.07451
 20
-7.17447
 11
-3.04436
 21
-7.1657
  0
LINE
  8
0
 10
-3.04436
 20
-7.1657
 11
-3.0137
 21
-7.15884
  0
LINE
  8
0
 10
-3.0137
 20
-7.15884
 11
-2.98268
 21
-7.15393
  0
LINE
  8
0
 10
-2.98268
 20
-7.15393
 11
-2.9514
 21
-7.15099
  0
LINE
  8
0
 10
-2.9514
 20
-7.15099
 11
-2.92001
 21
-7.14999
  0
LINE
  8
0
 10
-2.92001
 20
-7.14999
 11
-2.88861
 21
-7.15099
  0
LINE
  8
0
 10
-2.88861
 20
-7.15099
 11
-2.85735
 21
-7.15393
  0
LINE
  8
0
 10
-2.85735
 20
-7.15393
 11
-2.82632
 21
-7.15884
  0
LINE
  8
0
 10
-2.82632
 20
-7.15884
 11
-2.79567
 21
-7.1657
  0
LINE
  8
0
 10
-2.79567
 20
-7.1657
 11
-2.7655
 21
-7.17447
  0
LINE
  8
0
 10
-2.7655
 20
-7.17447
 11
-2.73595
 21
-7.1851
  0
LINE
  8
0
 10
-2.73595
 20
-7.1851
 11
-2.70712
 21
-7.19759
  0
LINE
  8
0
 10
-2.70712
 20
-7.19759
 11
-2.67914
 21
-7.21184
  0
LINE
  8
0
 10
-2.67914
 20
-7.21184
 11
-2.6521
 21
-7.22783
  0
LINE
  8
0
 10
-2.6521
 20
-7.22783
 11
-2.62611
 21
-7.24548
  0
LINE
  8
0
 10
-2.62611
 20
-7.24548
 11
-2.6013
 21
-7.26474
  0
LINE
  8
0
 10
-2.6013
 20
-7.26474
 11
-2.57773
 21
-7.28551
  0
LINE
  8
0
 10
-2.57773
 20
-7.28551
 11
-2.55553
 21
-7.30772
  0
LINE
  8
0
 10
-2.55553
 20
-7.30772
 11
-2.53474
 21
-7.33128
  0
LINE
  8
0
 10
-2.53474
 20
-7.33128
 11
-2.5155
 21
-7.35609
  0
LINE
  8
0
 10
-2.5155
 20
-7.35609
 11
-2.49785
 21
-7.38208
  0
LINE
  8
0
 10
-2.49785
 20
-7.38208
 11
-2.48186
 21
-7.40912
  0
LINE
  8
0
 10
-2.48186
 20
-7.40912
 11
-2.46759
 21
-7.4371
  0
LINE
  8
0
 10
-2.46759
 20
-7.4371
 11
-2.45512
 21
-7.46593
  0
LINE
  8
0
 10
-2.45512
 20
-7.46593
 11
-2.44447
 21
-7.49548
  0
LINE
  8
0
 10
-2.44447
 20
-7.49548
 11
-2.43571
 21
-7.52565
  0
LINE
  8
0
 10
-2.43571
 20
-7.52565
 11
-2.42886
 21
-7.5563
  0
LINE
  8
0
 10
-2.42886
 20
-7.5563
 11
-2.42395
 21
-7.58733
  0
LINE
  8
0
 10
-2.42395
 20
-7.58733
 11
-2.42099
 21
-7.61859
  0
LINE
  8
0
 10
-2.42099
 20
-7.61859
 11
-2.42001
 21
-7.64999
  0
LINE
  8
0
 10
-2.42001
 20
-7.64999
 11
-2.42099
 21
-7.68138
  0
LINE
  8
0
 10
-2.42099
 20
-7.68138
 11
-2.42395
 21
-7.71266
  0
LINE
  8
0
 10
-2.42395
 20
-7.71266
 11
-2.42886
 21
-7.74368
  0
LINE
  8
0
 10
-2.42886
 20
-7.74368
 11
-2.43571
 21
-7.77434
  0
LINE
  8
0
 10
-2.43571
 20
-7.77434
 11
-2.44447
 21
-7.8045
  0
LINE
  8
0
 10
-2.44447
 20
-7.8045
 11
-2.45512
 21
-7.83406
  0
LINE
  8
0
 10
-2.45512
 20
-7.83406
 11
-2.46759
 21
-7.86288
  0
LINE
  8
0
 10
-2.46759
 20
-7.86288
 11
-2.48186
 21
-7.89087
  0
LINE
  8
0
 10
-2.48186
 20
-7.89087
 11
-2.49785
 21
-7.91791
  0
LINE
  8
0
 10
-2.49785
 20
-7.91791
 11
-2.5155
 21
-7.94388
  0
LINE
  8
0
 10
-2.5155
 20
-7.94388
 11
-2.53474
 21
-7.9687
  0
LINE
  8
0
 10
-2.53474
 20
-7.9687
 11
-2.55553
 21
-7.99226
  0
LINE
  8
0
 10
-2.55553
 20
-7.99226
 11
-2.57773
 21
-8.01448
  0
LINE
  8
0
 10
-2.57773
 20
-8.01448
 11
-2.6013
 21
-8.03525
  0
LINE
  8
0
 10
-2.6013
 20
-8.03525
 11
-2.62611
 21
-8.0545
  0
LINE
  8
0
 10
-2.62611
 20
-8.0545
 11
-2.6521
 21
-8.07216
  0
LINE
  8
0
 10
-2.6521
 20
-8.07216
 11
-2.67914
 21
-8.08815
  0
LINE
  8
0
 10
-2.67914
 20
-8.08815
 11
-2.70712
 21
-8.1024
  0
LINE
  8
0
 10
-2.70712
 20
-8.1024
 11
-2.73595
 21
-8.11488
  0
LINE
  8
0
 10
-2.73595
 20
-8.11488
 11
-2.7655
 21
-8.12552
  0
LINE
  8
0
 10
-2.7655
 20
-8.12552
 11
-2.79567
 21
-8.13428
  0
LINE
  8
0
 10
-2.79567
 20
-8.13428
 11
-2.82632
 21
-8.14113
  0
LINE
  8
0
 10
-2.82632
 20
-8.14113
 11
-2.85735
 21
-8.14606
  0
LINE
  8
0
 10
-2.85735
 20
-8.14606
 11
-2.88861
 21
-8.149
  0
LINE
  8
0
 10
-2.88861
 20
-8.149
 11
-2.92001
 21
-8.14999
  0
LINE
  8
0
 10
-2.92001
 20
-8.14999
 11
-2.9514
 21
-8.149
  0
LINE
  8
0
 10
-0.411407
 20
-8.149
 11
-0.442673
 21
-8.14606
  0
LINE
  8
0
 10
-0.442673
 20
-8.14606
 11
-0.473694
 21
-8.14113
  0
LINE
  8
0
 10
-0.473694
 20
-8.14113
 11
-0.504349
 21
-8.13428
  0
LINE
  8
0
 10
-0.504349
 20
-8.13428
 11
-0.534515
 21
-8.12552
  0
LINE
  8
0
 10
-0.534515
 20
-8.12552
 11
-0.564072
 21
-8.11488
  0
LINE
  8
0
 10
-0.564072
 20
-8.11488
 11
-0.592896
 21
-8.1024
  0
LINE
  8
0
 10
-0.592896
 20
-8.1024
 11
-0.62088
 21
-8.08815
  0
LINE
  8
0
 10
-0.62088
 20
-8.08815
 11
-0.647919
 21
-8.07216
  0
LINE
  8
0
 10
-0.647919
 20
-8.07216
 11
-0.673904
 21
-8.0545
  0
LINE
  8
0
 10
-0.673904
 20
-8.0545
 11
-0.698715
 21
-8.03525
  0
LINE
  8
0
 10
-0.698715
 20
-8.03525
 11
-0.722275
 21
-8.01448
  0
LINE
  8
0
 10
-0.722275
 20
-8.01448
 11
-0.744492
 21
-7.99226
  0
LINE
  8
0
 10
-0.744492
 20
-7.99226
 11
-0.765259
 21
-7.9687
  0
LINE
  8
0
 10
-0.765259
 20
-7.9687
 11
-0.784515
 21
-7.94388
  0
LINE
  8
0
 10
-0.784515
 20
-7.94388
 11
-0.80217
 21
-7.91791
  0
LINE
  8
0
 10
-0.80217
 20
-7.91791
 11
-0.818161
 21
-7.89087
  0
LINE
  8
0
 10
-0.818161
 20
-7.89087
 11
-0.832428
 21
-7.86288
  0
LINE
  8
0
 10
-0.832428
 20
-7.86288
 11
-0.844894
 21
-7.83406
  0
LINE
  8
0
 10
-0.844894
 20
-7.83406
 11
-0.85553
 21
-7.8045
  0
LINE
  8
0
 10
-0.85553
 20
-7.8045
 11
-0.864304
 21
-7.77434
  0
LINE
  8
0
 10
-0.864304
 20
-7.77434
 11
-0.871155
 21
-7.74368
  0
LINE
  8
0
 10
-0.871155
 20
-7.74368
 11
-0.876068
 21
-7.71266
  0
LINE
  8
0
 10
-0.876068
 20
-7.71266
 11
-0.879028
 21
-7.68138
  0
LINE
  8
0
 10
-0.879028
 20
-7.68138
 11
-0.880005
 21
-7.64999
  0
LINE
  8
0
 10
-0.880005
 20
-7.64999
 11
-0.879028
 21
-7.61859
  0
LINE
  8
0
 10
-0.879028
 20
-7.61859
 11
-0.876068
 21
-7.58733
  0
LINE
  8
0
 10
-0.876068
 20
-7.58733
 11
-0.871155
 21
-7.5563
  0
LINE
  8
0
 10
-0.871155
 20
-7.5563
 11
-0.864304
 21
-7.52565
  0
LINE
  8
0
 10
-0.864304
 20
-7.52565
 11
-0.85553
 21
-7.49548
  0
LINE
  8
0
 10
-0.85553
 20
-7.49548
 11
-0.844894
 21
-7.46593
  0
LINE
  8
0
 10
-0.844894
 20
-7.46593
 11
-0.832428
 21
-7.4371
  0
LINE
  8
0
 10
-0.832428
 20
-7.4371
 11
-0.818161
 21
-7.40912
  0
LINE
  8
0
 10
-0.818161
 20
-7.40912
 11
-0.80217
 21
-7.38208
  0
LINE
  8
0
 10
-0.80217
 20
-7.38208
 11
-0.784515
 21
-7.35609
  0
LINE
  8
0
 10
-0.784515
 20
-7.35609
 11
-0.765259
 21
-7.33128
  0
LINE
  8
0
 10
-0.765259
 20
-7.33128
 11
-0.744492
 21
-7.30772
  0
LINE
  8
0
 10
-0.744492
 20
-7.30772
 11
-0.722275
 21
-7.28551
  0
LINE
  8
0
 10
-0.722275
 20
-7.28551
 11
-0.698715
 21
-7.26474
  0
LINE
  8
0
 10
-0.698715
 20
-7.26474
 11
-0.673904
 21
-7.24548
  0
LINE
  8
0
 10
-0.673904
 20
-7.24548
 11
-0.647919
 21
-7.22783
  0
LINE
  8
0
 10
-0.647919
 20
-7.22783
 11
-0.62088
 21
-7.21184
  0
LINE
  8
0
 10
-0.62088
 20
-7.21184
 11
-0.592896
 21
-7.19759
  0
LINE
  8
0
 10
-0.592896
 20
-7.19759
 11
-0.564072
 21
-7.1851
  0
LINE
  8
0
 10
-0.564072
 20
-7.1851
 11
-0.534515
 21
-7.17447
  0
LINE
  8
0
 10
-0.534515
 20
-7.17447
 11
-0.504349
 21
-7.1657
  0
LINE
  8
0
 10
-0.504349
 20
-7.1657
 11
-0.473694
 21
-7.15884
  0
LINE
  8
0
 10
-0.473694
 20
-7.15884
 11
-0.442673
 21
-7.15393
  0
LINE
  8
0
 10
-0.442673
 20
-7.15393
 11
-0.411407
 21
-7.15099
  0
LINE
  8
0
 10
-0.411407
 20
-7.15099
 11
-0.380005
 21
-7.14999
  0
LINE
  8
0
 10
-0.380005
 20
-7.14999
 11
-0.348618
 21
-7.15099
  0
LINE
  8
0
 10
-0.348618
 20
-7.15099
 11
-0.317337
 21
-7.15393
  0
LINE
  8
0
 10
-0.317337
 20
-7.15393
 11
-0.286316
 21
-7.15884
  0
LINE
  8
0
 10
-0.286316
 20
-7.15884
 11
-0.255661
 21
-7.1657
  0
LINE
  8
0
 10
-0.255661
 20
-7.1657
 11
-0.225494
 21
-7.17447
  0
LINE
  8
0
 10
-0.225494
 20
-7.17447
 11
-0.195938
 21
-7.1851
  0
LINE
  8
0
 10
-0.195938
 20
-7.1851
 11
-0.167114
 21
-7.19759
  0
LINE
  8
0
 10
-0.167114
 20
-7.19759
 11
-0.13913
 21
-7.21184
  0
LINE
  8
0
 10
-0.13913
 20
-7.21184
 11
-0.112091
 21
-7.22783
  0
LINE
  8
0
 10
-0.112091
 20
-7.22783
 11
-0.0861206
 21
-7.24548
  0
LINE
  8
0
 10
-0.0861206
 20
-7.24548
 11
-0.0612946
 21
-7.26474
  0
LINE
  8
0
 10
-0.0612946
 20
-7.26474
 11
-0.037735
 21
-7.28551
  0
LINE
  8
0
 10
-0.037735
 20
-7.28551
 11
-0.0155182
 21
-7.30772
  0
LINE
  8
0
 10
-0.0155182
 20
-7.30772
 11
0.00524902
 21
-7.33128
  0
LINE
  8
0
 10
0.00524902
 20
-7.33128
 11
0.0245056
 21
-7.35609
  0
LINE
  8
0
 10
0.0245056
 20
-7.35609
 11
0.04216
 21
-7.38208
  0
LINE
  8
0
 10
0.04216
 20
-7.38208
 11
0.0581512
 21
-7.40912
  0
LINE
  8
0
 10
0.0581512
 20
-7.40912
 11
0.072403
 21
-7.4371
  0
LINE
  8
0
 10
0.072403
 20
-7.4371
 11
0.0848846
 21
-7.46593
  0
LINE
  8
0
 10
0.0848846
 20
-7.46593
 11
0.09552
 21
-7.49548
  0
LINE
  8
0
 10
0.09552
 20
-7.49548
 11
0.104279
 21
-7.52565
  0
LINE
  8
0
 10
0.104279
 20
-7.52565
 11
0.11113
 21
-7.5563
  0
LINE
  8
0
 10
0.11113
 20
-7.5563
 11
0.116043
 21
-7.58733
  0
LINE
  8
0
 10
0.116043
 20
-7.58733
 11
0.119003
 21
-7.61859
  0
LINE
  8
0
 10
0.119003
 20
-7.61859
 11
0.119995
 21
-7.64999
  0
LINE
  8
0
 10
0.119995
 20
-7.64999
 11
0.119003
 21
-7.68138
  0
LINE
  8
0
 10
0.119003
 20
-7.68138
 11
0.116043
 21
-7.71266
  0
LINE
  8
0
 10
0.116043
 20
-7.71266
 11
0.11113
 21
-7.74368
  0
LINE
  8
0
 10
0.11113
 20
-7.74368
 11
0.104279
 21
-7.77434
  0
LINE
  8
0
 10
0.104279
 20
-7.77434
 11
0.09552
 21
-7.8045
  0
LINE
  8
0
 10
0.09552
 20
-7.8045
 11
0.0848846
 21
-7.83406
  0
LINE
  8
0
 10
0.0848846
 20
-7.83406
 11
0.072403
 21
-7.86288
  0
LINE
  8
0
 10
0.072403
 20
-7.86288
 11
0.0581512
 21
-7.89087
  0
LINE
  8
0
 10
0.0581512
 20
-7.89087
 11
0.04216
 21
-7.91791
  0
LINE
  8
0
 10
0.04216
 20
-7.91791
 11
0.0245056
 21
-7.94388
  0
LINE
  8
0
 10
0.0245056
 20
-7.94388
 11
0.00524902
 21
-7.9687
  0
LINE
  8
0
 10
0.00524902
 20
-7.9687
 11
-0.0155182
 21
-7.99226
  0
LINE
  8
0
 10
-0.0155182
 20
-7.99226
 11
-0.037735
 21
-8.01448
  0
LINE
  8
0
 10
-0.037735
 20
-8.01448
 11
-0.0612946
 21
-8.03525
  0
LINE
  8
0
 10
-0.0612946
 20
-8.03525
 11
-0.0861206
 21
-8.0545
  0
LINE
  8
0
 10
-0.0861206
 20
-8.0545
 11
-0.112091
 21
-8.07216
  0
LINE
  8
0
 10
-0.112091
 20
-8.07216
 11
-0.13913
 21
-8.08815
  0
LINE
  8
0
 10
-0.13913
 20
-8.08815
 11
-0.167114
 21
-8.1024
  0
LINE
  8
0
 10
-0.167114
 20
-8.1024
 11
-0.195938
 21
-8.11488
  0
LINE
  8
0
 10
-0.195938
 20
-8.11488
 11
-0.225494
 21
-8.12552
  0
LINE
  8
0
 10
-0.225494
 20
-8.12552
 11
-0.255661
 21
-8.13428
  0
LINE
  8
0
 10
-0.255661
 20
-8.13428
 11
-0.286316
 21
-8.14113
  0
LINE
  8
0
 10
-0.286316
 20
-8.14113
 11
-0.317337
 21
-8.14606
  0
LINE
  8
0
 10
-0.317337
 20
-8.14606
 11
-0.348618
 21
-8.149
  0
LINE
  8
0
 10
-0.348618
 20
-8.149
 11
-0.380005
 21
-8.14999
  0
LINE
  8
0
 10
-0.380005
 20
-8.14999
 11
-0.411407
 21
-8.149
  0
LINE
  8
0
 10
2.1286
 20
-8.149
 11
2.09732
 21
-8.14606
  0
LINE
  8
0
 10
2.09732
 20
-8.14606
 11
2.0663
 21
-8.14113
  0
LINE
  8
0
 10
2.0663
 20
-8.14113
 11
2.03564
 21
-8.13428
  0
LINE
  8
0
 10
2.03564
 20
-8.13428
 11
2.00548
 21
-8.12552
  0
LINE
  8
0
 10
2.00548
 20
-8.12552
 11
1.97594
 21
-8.11488
  0
LINE
  8
0
 10
1.97594
 20
-8.11488
 11
1.9471
 21
-8.1024
  0
LINE
  8
0
 10
1.9471
 20
-8.1024
 11
1.91911
 21
-8.08815
  0
LINE
  8
0
 10
1.91911
 20
-8.08815
 11
1.89207
 21
-8.07216
  0
LINE
  8
0
 10
1.89207
 20
-8.07216
 11
1.8661
 21
-8.0545
  0
LINE
  8
0
 10
1.8661
 20
-8.0545
 11
1.84128
 21
-8.03525
  0
LINE
  8
0
 10
1.84128
 20
-8.03525
 11
1.81772
 21
-8.01448
  0
LINE
  8
0
 10
1.81772
 20
-8.01448
 11
1.7955
 21
-7.99226
  0
LINE
  8
0
 10
1.7955
 20
-7.99226
 11
1.77473
 21
-7.9687
  0
LINE
  8
0
 10
1.77473
 20
-7.9687
 11
1.75548
 21
-7.94388
  0
LINE
  8
0
 10
1.75548
 20
-7.94388
 11
1.73782
 21
-7.91791
  0
LINE
  8
0
 10
1.73782
 20
-7.91791
 11
1.72183
 21
-7.89087
  0
LINE
  8
0
 10
1.72183
 20
-7.89087
 11
1.70758
 21
-7.86288
  0
LINE
  8
0
 10
1.70758
 20
-7.86288
 11
1.6951
 21
-7.83406
  0
LINE
  8
0
 10
1.6951
 20
-7.83406
 11
1.68446
 21
-7.8045
  0
LINE
  8
0
 10
1.68446
 20
-7.8045
 11
1.6757
 21
-7.77434
  0
LINE
  8
0
 10
1.6757
 20
-7.77434
 11
1.66885
 21
-7.74368
  0
LINE
  8
0
 10
1.66885
 20
-7.74368
 11
1.66394
 21
-7.71266
  0
LINE
  8
0
 10
1.66394
 20
-7.71266
 11
1.66098
 21
-7.68138
  0
LINE
  8
0
 10
1.66098
 20
-7.68138
 11
1.65999
 21
-7.64999
  0
LINE
  8
0
 10
1.65999
 20
-7.64999
 11
1.66098
 21
-7.61859
  0
LINE
  8
0
 10
1.66098
 20
-7.61859
 11
1.66394
 21
-7.58733
  0
LINE
  8
0
 10
1.66394
 20
-7.58733
 11
1.66885
 21
-7.5563
  0
LINE
  8
0
 10
1.66885
 20
-7.5563
 11
1.6757
 21
-7.52565
  0
LINE
  8
0
 10
1.6757
 20
-7.52565
 11
1.68446
 21
-7.49548
  0
LINE
  8
0
 10
1.68446
 20
-7.49548
 11
1.6951
 21
-7.46593
  0
LINE
  8
0
 10
1.6951
 20
-7.46593
 11
1.70758
 21
-7.4371
  0
LINE
  8
0
 10
1.70758
 20
-7.4371
 11
1.72183
 21
-7.40912
  0
LINE
  8
0
 10
1.72183
 20
-7.40912
 11
1.73782
 21
-7.38208
  0
LINE
  8
0
 10
1.73782
 20
-7.38208
 11
1.75548
 21
-7.35609
  0
LINE
  8
0
 10
1.75548
 20
-7.35609
 11
1.77473
 21
-7.33128
  0
LINE
  8
0
 10
1.77473
 20
-7.33128
 11
1.7955
 21
-7.30772
  0
LINE
  8
0
 10
1.7955
 20
-7.30772
 11
1.81772
 21
-7.28551
  0
LINE
  8
0
 10
1.81772
 20
-7.28551
 11
1.84128
 21
-7.26474
  0
LINE
  8
0
 10
1.84128
 20
-7.26474
 11
1.8661
 21
-7.24548
  0
LINE
  8
0
 10
1.8661
 20
-7.24548
 11
1.89207
 21
-7.22783
  0
LINE
  8
0
 10
1.89207
 20
-7.22783
 11
1.91911
 21
-7.21184
  0
LINE
  8
0
 10
1.91911
 20
-7.21184
 11
1.9471
 21
-7.19759
  0
LINE
  8
0
 10
1.9471
 20
-7.19759
 11
1.97594
 21
-7.1851
  0
LINE
  8
0
 10
1.97594
 20
-7.1851
 11
2.00548
 21
-7.17447
  0
LINE
  8
0
 10
2.00548
 20
-7.17447
 11
2.03564
 21
-7.1657
  0
LINE
  8
0
 10
2.03564
 20
-7.1657
 11
2.0663
 21
-7.15884
  0
LINE
  8
0
 10
2.0663
 20
-7.15884
 11
2.09732
 21
-7.15393
  0
LINE
  8
0
 10
2.09732
 20
-7.15393
 11
2.1286
 21
-7.15099
  0
LINE
  8
0
 10
2.1286
 20
-7.15099
 11
2.15999
 21
-7.14999
  0
LINE
  8
0
 10
2.15999
 20
-7.14999
 11
2.19139
 21
-7.15099
  0
LINE
  8
0
 10
2.19139
 20
-7.15099
 11
2.22266
 21
-7.15393
  0
LINE
  8
0
 10
2.22266
 20
-7.15393
 11
2.25368
 21
-7.15884
  0
LINE
  8
0
 10
2.25368
 20
-7.15884
 11
2.28433
 21
-7.1657
  0
LINE
  8
0
 10
2.28433
 20
-7.1657
 11
2.3145
 21
-7.17447
  0
LINE
  8
0
 10
2.3145
 20
-7.17447
 11
2.34406
 21
-7.1851
  0
LINE
  8
0
 10
2.34406
 20
-7.1851
 11
2.37288
 21
-7.19759
  0
LINE
  8
0
 10
2.37288
 20
-7.19759
 11
2.40086
 21
-7.21184
  0
LINE
  8
0
 10
2.40086
 20
-7.21184
 11
2.4279
 21
-7.22783
  0
LINE
  8
0
 10
2.4279
 20
-7.22783
 11
2.45389
 21
-7.24548
  0
LINE
  8
0
 10
2.45389
 20
-7.24548
 11
2.4787
 21
-7.26474
  0
LINE
  8
0
 10
2.4787
 20
-7.26474
 11
2.50226
 21
-7.28551
  0
LINE
  8
0
 10
2.50226
 20
-7.28551
 11
2.52448
 21
-7.30772
  0
LINE
  8
0
 10
2.52448
 20
-7.30772
 11
2.54524
 21
-7.33128
  0
LINE
  8
0
 10
2.54524
 20
-7.33128
 11
2.5645
 21
-7.35609
  0
LINE
  8
0
 10
2.5645
 20
-7.35609
 11
2.58215
 21
-7.38208
  0
LINE
  8
0
 10
2.58215
 20
-7.38208
 11
2.59814
 21
-7.40912
  0
LINE
  8
0
 10
2.59814
 20
-7.40912
 11
2.61241
 21
-7.4371
  0
LINE
  8
0
 10
2.61241
 20
-7.4371
 11
2.62488
 21
-7.46593
  0
LINE
  8
0
 10
2.62488
 20
-7.46593
 11
2.63551
 21
-7.49548
  0
LINE
  8
0
 10
2.63551
 20
-7.49548
 11
2.64429
 21
-7.52565
  0
LINE
  8
0
 10
2.64429
 20
-7.52565
 11
2.65114
 21
-7.5563
  0
LINE
  8
0
 10
2.65114
 20
-7.5563
 11
2.65605
 21
-7.58733
  0
LINE
  8
0
 10
2.65605
 20
-7.58733
 11
2.65901
 21
-7.61859
  0
LINE
  8
0
 10
2.65901
 20
-7.61859
 11
2.65999
 21
-7.64999
  0
LINE
  8
0
 10
2.65999
 20
-7.64999
 11
2.65901
 21
-7.68138
  0
LINE
  8
0
 10
2.65901
 20
-7.68138
 11
2.65605
 21
-7.71266
  0
LINE
  8
0
 10
2.65605
 20
-7.71266
 11
2.65114
 21
-7.74368
  0
LINE
  8
0
 10
2.65114
 20
-7.74368
 11
2.64429
 21
-7.77434
  0
LINE
  8
0
 10
2.64429
 20
-7.77434
 11
2.63551
 21
-7.8045
  0
LINE
  8
0
 10
2.63551
 20
-7.8045
 11
2.62488
 21
-7.83406
  0
LINE
  8
0
 10
2.62488
 20
-7.83406
 11
2.61241
 21
-7.86288
  0
LINE
  8
0
 10
2.61241
 20
-7.86288
 11
2.59814
 21
-7.89087
  0
LINE
  8
0
 10
2.59814
 20
-7.89087
 11
2.58215
 21
-7.91791
  0
LINE
  8
0
 10
2.58215
 20
-7.91791
 11
2.5645
 21
-7.94388
  0
LINE
  8
0
 10
2.5645
 20
-7.94388
 11
2.54524
 21
-7.9687
  0
LINE
  8
0
 10
2.54524
 20
-7.9687
 11
2.52448
 21
-7.99226
  0
LINE
  8
0
 10
2.52448
 20
-7.99226
 11
2.50226
 21
-8.01448
  0
LINE
  8
0
 10
2.50226
 20
-8.01448
 11
2.4787
 21
-8.03525
  0
LINE
  8
0
 10
2.4787
 20
-8.03525
 11
2.45389
 21
-8.0545
  0
LINE
  8
0
 10
2.45389
 20
-8.0545
 11
2.4279
 21
-8.07216
  0
LINE
  8
0
 10
2.4279
 20
-8.07216
 11
2.40086
 21
-8.08815
  0
LINE
  8
0
 10
2.40086
 20
-8.08815
 11
2.37288
 21
-8.1024
  0
LINE
  8
0
 10
2.37288
 20
-8.1024
 11
2.34406
 21
-8.11488
  0
LINE
  8
0
 10
2.34406
 20
-8.11488
 11
2.3145
 21
-8.12552
  0
LINE
  8
0
 10
2.3145
 20
-8.12552
 11
2.28433
 21
-8.13428
  0
LINE
  8
0
 10
2.28433
 20
-8.13428
 11
2.25368
 21
-8.14113
  0
LINE
  8
0
 10
2.25368
 20
-8.14113
 11
2.22266
 21
-8.14606
  0
LINE
  8
0
 10
2.22266
 20
-8.14606
 11
2.19139
 21
-8.149
  0
LINE
  8
0
 10
2.19139
 20
-8.149
 11
2.15999
 21
-8.14999
  0
LINE
  8
0
 10
2.15999
 20
-8.14999
 11
2.1286
 21
-8.149
  0
LINE
  8
0
 10
4.66859
 20
-8.149
 11
4.63733
 21
-8.14606
  0
LINE
  8
0
 10
4.63733
 20
-8.14606
 11
4.60631
 21
-8.14113
  0
LINE
  8
0
 10
4.60631
 20
-8.14113
 11
4.57565
 21
-8.13428
  0
LINE
  8
0
 10
4.57565
 20
-8.13428
 11
4.54549
 21
-8.12552
  0
LINE
  8
0
 10
4.54549
 20
-8.12552
 11
4.51593
 21
-8.11488
  0
LINE
  8
0
 10
4.51593
 20
-8.11488
 11
4.48711
 21
-8.1024
  0
LINE
  8
0
 10
4.48711
 20
-8.1024
 11
4.45912
 21
-8.08815
  0
LINE
  8
0
 10
4.45912
 20
-8.08815
 11
4.43208
 21
-8.07216
  0
LINE
  8
0
 10
4.43208
 20
-8.07216
 11
4.4061
 21
-8.0545
  0
LINE
  8
0
 10
4.4061
 20
-8.0545
 11
4.38129
 21
-8.03525
  0
LINE
  8
0
 10
4.38129
 20
-8.03525
 11
4.35771
 21
-8.01448
  0
LINE
  8
0
 10
4.35771
 20
-8.01448
 11
4.33551
 21
-7.99226
  0
LINE
  8
0
 10
4.33551
 20
-7.99226
 11
4.31474
 21
-7.9687
  0
LINE
  8
0
 10
4.31474
 20
-7.9687
 11
4.29549
 21
-7.94388
  0
LINE
  8
0
 10
4.29549
 20
-7.94388
 11
4.27783
 21
-7.91791
  0
LINE
  8
0
 10
4.27783
 20
-7.91791
 11
4.26184
 21
-7.89087
  0
LINE
  8
0
 10
4.26184
 20
-7.89087
 11
4.24757
 21
-7.86288
  0
LINE
  8
0
 10
4.24757
 20
-7.86288
 11
4.23511
 21
-7.83406
  0
LINE
  8
0
 10
4.23511
 20
-7.83406
 11
4.22446
 21
-7.8045
  0
LINE
  8
0
 10
4.22446
 20
-7.8045
 11
4.2157
 21
-7.77434
  0
LINE
  8
0
 10
4.2157
 20
-7.77434
 11
4.20885
 21
-7.74368
  0
LINE
  8
0
 10
4.20885
 20
-7.74368
 11
4.20393
 21
-7.71266
  0
LINE
  8
0
 10
4.20393
 20
-7.71266
 11
4.20097
 21
-7.68138
  0
LINE
  8
0
 10
4.20097
 20
-7.68138
 11
4.2
 21
-7.64999
  0
LINE
  8
0
 10
4.2
 20
-7.64999
 11
4.20097
 21
-7.61859
  0
LINE
  8
0
 10
4.20097
 20
-7.61859
 11
4.20393
 21
-7.58733
  0
LINE
  8
0
 10
4.20393
 20
-7.58733
 11
4.20885
 21
-7.5563
  0
LINE
  8
0
 10
4.20885
 20
-7.5563
 11
4.2157
 21
-7.52565
  0
LINE
  8
0
 10
4.2157
 20
-7.52565
 11
4.22446
 21
-7.49548
  0
LINE
  8
0
 10
4.22446
 20
-7.49548
 11
4.23511
 21
-7.46593
  0
LINE
  8
0
 10
4.23511
 20
-7.46593
 11
4.24757
 21
-7.4371
  0
LINE
  8
0
 10
4.24757
 20
-7.4371
 11
4.26184
 21
-7.40912
  0
LINE
  8
0
 10
4.26184
 20
-7.40912
 11
4.27783
 21
-7.38208
  0
LINE
  8
0
 10
4.27783
 20
-7.38208
 11
4.29549
 21
-7.35609
  0
LINE
  8
0
 10
4.29549
 20
-7.35609
 11
4.31474
 21
-7.33128
  0
LINE
  8
0
 10
4.31474
 20
-7.33128
 11
4.33551
 21
-7.30772
  0
LINE
  8
0
 10
4.33551
 20
-7.30772
 11
4.35771
 21
-7.28551
  0
LINE
  8
0
 10
4.35771
 20
-7.28551
 11
4.38129
 21
-7.26474
  0
LINE
  8
0
 10
4.38129
 20
-7.26474
 11
4.4061
 21
-7.24548
  0
LINE
  8
0
 10
4.4061
 20
-7.24548
 11
4.43208
 21
-7.22783
  0
LINE
  8
0
 10
4.43208
 20
-7.22783
 11
4.45912
 21
-7.21184
  0
LINE
  8
0
 10
4.45912
 20
-7.21184
 11
4.48711
 21
-7.19759
  0
LINE
  8
0
 10
4.48711
 20
-7.19759
 11
4.51593
 21
-7.1851
  0
LINE
  8
0
 10
4.51593
 20
-7.1851
 11
4.54549
 21
-7.17447
  0
LINE
  8
0
 10
4.54549
 20
-7.17447
 11
4.57565
 21
-7.1657
  0
LINE
  8
0
 10
4.57565
 20
-7.1657
 11
4.60631
 21
-7.15884
  0
LINE
  8
0
 10
4.60631
 20
-7.15884
 11
4.63733
 21
-7.15393
  0
LINE
  8
0
 10
4.63733
 20
-7.15393
 11
4.66859
 21
-7.15099
  0
LINE
  8
0
 10
4.66859
 20
-7.15099
 11
4.7
 21
-7.14999
  0
LINE
  8
0
 10
4.7
 20
-7.14999
 11
4.73138
 21
-7.15099
  0
LINE
  8
0
 10
4.73138
 20
-7.15099
 11
4.76266
 21
-7.15393
  0
LINE
  8
0
 10
4.76266
 20
-7.15393
 11
4.79369
 21
-7.15884
  0
LINE
  8
0
 10
4.79369
 20
-7.15884
 11
4.82434
 21
-7.1657
  0
LINE
  8
0
 10
4.82434
 20
-7.1657
 11
4.85451
 21
-7.17447
  0
LINE
  8
0
 10
4.85451
 20
-7.17447
 11
4.88405
 21
-7.1851
  0
LINE
  8
0
 10
4.88405
 20
-7.1851
 11
4.91289
 21
-7.19759
  0
LINE
  8
0
 10
4.91289
 20
-7.19759
 11
4.94087
 21
-7.21184
  0
LINE
  8
0
 10
4.94087
 20
-7.21184
 11
4.96791
 21
-7.22783
  0
LINE
  8
0
 10
4.96791
 20
-7.22783
 11
4.99388
 21
-7.24548
  0
LINE
  8
0
 10
4.99388
 20
-7.24548
 11
5.01871
 21
-7.26474
  0
LINE
  8
0
 10
5.01871
 20
-7.26474
 11
5.04227
 21
-7.28551
  0
LINE
  8
0
 10
5.04227
 20
-7.28551
 11
5.06448
 21
-7.30772
  0
LINE
  8
0
 10
5.06448
 20
-7.30772
 11
5.08525
 21
-7.33128
  0
LINE
  8
0
 10
5.08525
 20
-7.33128
 11
5.10451
 21
-7.35609
  0
LINE
  8
0
 10
5.10451
 20
-7.35609
 11
5.12216
 21
-7.38208
  0
LINE
  8
0
 10
5.12216
 20
-7.38208
 11
5.13815
 21
-7.40912
  0
LINE
  8
0
 10
5.13815
 20
-7.40912
 11
5.1524
 21
-7.4371
  0
LINE
  8
0
 10
5.1524
 20
-7.4371
 11
5.16489
 21
-7.46593
  0
LINE
  8
0
 10
5.16489
 20
-7.46593
 11
5.17552
 21
-7.49548
  0
LINE
  8
0
 10
5.17552
 20
-7.49548
 11
5.18428
 21
-7.52565
  0
LINE
  8
0
 10
5.18428
 20
-7.52565
 11
5.19113
 21
-7.5563
  0
LINE
  8
0
 10
5.19113
 20
-7.5563
 11
5.19604
 21
-7.58733
  0
LINE
  8
0
 10
5.19604
 20
-7.58733
 11
5.19901
 21
-7.61859
  0
LINE
  8
0
 10
5.19901
 20
-7.61859
 11
5.2
 21
-7.64999
  0
LINE
  8
0
 10
5.2
 20
-7.64999
 11
5.19901
 21
-7.68138
  0
LINE
  8
0
 10
5.19901
 20
-7.68138
 11
5.19604
 21
-7.71266
  0
LINE
  8
0
 10
5.19604
 20
-7.71266
 11
5.19113
 21
-7.74368
  0
LINE
  8
0
 10
5.19113
 20
-7.74368
 11
5.18428
 21
-7.77434
  0
LINE
  8
0
 10
5.18428
 20
-7.77434
 11
5.17552
 21
-7.8045
  0
LINE
  8
0
 10
5.17552
 20
-7.8045
 11
5.16489
 21
-7.83406
  0
LINE
  8
0
 10
5.16489
 20
-7.83406
 11
5.1524
 21
-7.86288
  0
LINE
  8
0
 10
5.1524
 20
-7.86288
 11
5.13815
 21
-7.89087
  0
LINE
  8
0
 10
5.13815
 20
-7.89087
 11
5.12216
 21
-7.91791
  0
LINE
  8
0
 10
5.12216
 20
-7.91791
 11
5.10451
 21
-7.94388
  0
LINE
  8
0
 10
5.10451
 20
-7.94388
 11
5.08525
 21
-7.9687
  0
LINE
  8
0
 10
5.08525
 20
-7.9687
 11
5.06448
 21
-7.99226
  0
LINE
  8
0
 10
5.06448
 20
-7.99226
 11
5.04227
 21
-8.01448
  0
LINE
  8
0
 10
5.04227
 20
-8.01448
 11
5.01871
 21
-8.03525
  0
LINE
  8
0
 10
5.01871
 20
-8.03525
 11
4.99388
 21
-8.0545
  0
LINE
  8
0
 10
4.99388
 20
-8.0545
 11
4.96791
 21
-8.07216
  0
LINE
  8
0
 10
4.96791
 20
-8.07216
 11
4.94087
 21
-8.08815
  0
LINE
  8
0
 10
4.94087
 20
-8.08815
 11
4.91289
 21
-8.1024
  0
LINE
  8
0
 10
4.91289
 20
-8.1024
 11
4.88405
 21
-8.11488
  0
LINE
  8
0
 10
4.88405
 20
-8.11488
 11
4.85451
 21
-8.12552
  0
LINE
  8
0
 10
4.85451
 20
-8.12552
 11
4.82434
 21
-8.13428
  0
LINE
  8
0
 10
4.82434
 20
-8.13428
 11
4.79369
 21
-8.14113
  0
LINE
  8
0
 10
4.79369
 20
-8.14113
 11
4.76266
 21
-8.14606
  0
LINE
  8
0
 10
4.76266
 20
-8.14606
 11
4.73138
 21
-8.149
  0
LINE
  8
0
 10
4.73138
 20
-8.149
 11
4.7
 21
-8.14999
  0
LINE
  8
0
 10
4.7
 20
-8.14999
 11
4.66859
 21
-8.149
  0
LINE
  8
0
 10
7.2086
 20
-8.149
 11
7.17732
 21
-8.14606
  0
LINE
  8
0
 10
7.17732
 20
-8.14606
 11
7.1463
 21
-8.14113
  0
LINE
  8
0
 10
7.1463
 20
-8.14113
 11
7.11565
 21
-8.13428
  0
LINE
  8
0
 10
7.11565
 20
-8.13428
 11
7.08548
 21
-8.12552
  0
LINE
  8
0
 10
7.08548
 20
-8.12552
 11
7.05592
 21
-8.11488
  0
LINE
  8
0
 10
7.05592
 20
-8.11488
 11
7.0271
 21
-8.1024
  0
LINE
  8
0
 10
7.0271
 20
-8.1024
 11
6.99911
 21
-8.08815
  0
LINE
  8
0
 10
6.99911
 20
-8.08815
 11
6.97208
 21
-8.07216
  0
LINE
  8
0
 10
6.97208
 20
-8.07216
 11
6.94611
 21
-8.0545
  0
LINE
  8
0
 10
6.94611
 20
-8.0545
 11
6.92128
 21
-8.03525
  0
LINE
  8
0
 10
6.92128
 20
-8.03525
 11
6.89772
 21
-8.01448
  0
LINE
  8
0
 10
6.89772
 20
-8.01448
 11
6.8755
 21
-7.99226
  0
LINE
  8
0
 10
6.8755
 20
-7.99226
 11
6.85474
 21
-7.9687
  0
LINE
  8
0
 10
6.85474
 20
-7.9687
 11
6.83548
 21
-7.94388
  0
LINE
  8
0
 10
6.83548
 20
-7.94388
 11
6.81783
 21
-7.91791
  0
LINE
  8
0
 10
6.81783
 20
-7.91791
 11
6.80183
 21
-7.89087
  0
LINE
  8
0
 10
6.80183
 20
-7.89087
 11
6.78758
 21
-7.86288
  0
LINE
  8
0
 10
6.78758
 20
-7.86288
 11
6.7751
 21
-7.83406
  0
LINE
  8
0
 10
6.7751
 20
-7.83406
 11
6.76447
 21
-7.8045
  0
LINE
  8
0
 10
6.76447
 20
-7.8045
 11
6.75571
 21
-7.77434
  0
LINE
  8
0
 10
6.75571
 20
-7.77434
 11
6.74886
 21
-7.74368
  0
LINE
  8
0
 10
6.74886
 20
-7.74368
 11
6.74394
 21
-7.71266
  0
LINE
  8
0
 10
6.74394
 20
-7.71266
 11
6.74098
 21
-7.68138
  0
LINE
  8
0
 10
6.74098
 20
-7.68138
 11
6.73999
 21
-7.64999
  0
LINE
  8
0
 10
6.73999
 20
-7.64999
 11
6.74098
 21
-7.61859
  0
LINE
  8
0
 10
6.74098
 20
-7.61859
 11
6.74394
 21
-7.58733
  0
LINE
  8
0
 10
6.74394
 20
-7.58733
 11
6.74886
 21
-7.5563
  0
LINE
  8
0
 10
6.74886
 20
-7.5563
 11
6.75571
 21
-7.52565
  0
LINE
  8
0
 10
6.75571
 20
-7.52565
 11
6.76447
 21
-7.49548
  0
LINE
  8
0
 10
6.76447
 20
-7.49548
 11
6.7751
 21
-7.46593
  0
LINE
  8
0
 10
6.7751
 20
-7.46593
 11
6.78758
 21
-7.4371
  0
LINE
  8
0
 10
6.78758
 20
-7.4371
 11
6.80183
 21
-7.40912
  0
LINE
  8
0
 10
6.80183
 20
-7.40912
 11
6.81783
 21
-7.38208
  0
LINE
  8
0
 10
6.81783
 20
-7.38208
 11
6.83548
 21
-7.35609
  0
LINE
  8
0
 10
6.83548
 20
-7.35609
 11
6.85474
 21
-7.33128
  0
LINE
  8
0
 10
6.85474
 20
-7.33128
 11
6.8755
 21
-7.30772
  0
LINE
  8
0
 10
6.8755
 20
-7.30772
 11
6.89772
 21
-7.28551
  0
LINE
  8
0
 10
6.89772
 20
-7.28551
 11
6.92128
 21
-7.26474
  0
LINE
  8
0
 10
6.92128
 20
-7.26474
 11
6.94611
 21
-7.24548
  0
LINE
  8
0
 10
6.94611
 20
-7.24548
 11
6.97208
 21
-7.22783
  0
LINE
  8
0
 10
6.97208
 20
-7.22783
 11
6.99911
 21
-7.21184
  0
LINE
  8
0
 10
6.99911
 20
-7.21184
 11
7.0271
 21
-7.19759
  0
LINE
  8
0
 10
7.0271
 20
-7.19759
 11
7.05592
 21
-7.1851
  0
LINE
  8
0
 10
7.05592
 20
-7.1851
 11
7.08548
 21
-7.17447
  0
LINE
  8
0
 10
7.08548
 20
-7.17447
 11
7.11565
 21
-7.1657
  0
LINE
  8
0
 10
7.11565
 20
-7.1657
 11
7.1463
 21
-7.15884
  0
LINE
  8
0
 10
7.1463
 20
-7.15884
 11
7.17732
 21
-7.15393
  0
LINE
  8
0
 10
7.17732
 20
-7.15393
 11
7.2086
 21
-7.15099
  0
LINE
  8
0
 10
7.2086
 20
-7.15099
 11
7.23999
 21
-7.14999
  0
LINE
  8
0
 10
7.23999
 20
-7.14999
 11
7.27139
 21
-7.15099
  0
LINE
  8
0
 10
7.27139
 20
-7.15099
 11
7.30266
 21
-7.15393
  0
LINE
  8
0
 10
7.30266
 20
-7.15393
 11
7.33368
 21
-7.15884
  0
LINE
  8
0
 10
7.33368
 20
-7.15884
 11
7.36433
 21
-7.1657
  0
LINE
  8
0
 10
7.36433
 20
-7.1657
 11
7.3945
 21
-7.17447
  0
LINE
  8
0
 10
7.3945
 20
-7.17447
 11
7.42406
 21
-7.1851
  0
LINE
  8
0
 10
7.42406
 20
-7.1851
 11
7.45288
 21
-7.19759
  0
LINE
  8
0
 10
7.45288
 20
-7.19759
 11
7.48087
 21
-7.21184
  0
LINE
  8
0
 10
7.48087
 20
-7.21184
 11
7.5079
 21
-7.22783
  0
LINE
  8
0
 10
7.5079
 20
-7.22783
 11
7.53389
 21
-7.24548
  0
LINE
  8
0
 10
7.53389
 20
-7.24548
 11
7.5587
 21
-7.26474
  0
LINE
  8
0
 10
7.5587
 20
-7.26474
 11
7.58226
 21
-7.28551
  0
LINE
  8
0
 10
7.58226
 20
-7.28551
 11
7.60448
 21
-7.30772
  0
LINE
  8
0
 10
7.60448
 20
-7.30772
 11
7.62524
 21
-7.33128
  0
LINE
  8
0
 10
7.62524
 20
-7.33128
 11
7.6445
 21
-7.35609
  0
LINE
  8
0
 10
7.6445
 20
-7.35609
 11
7.66216
 21
-7.38208
  0
LINE
  8
0
 10
7.66216
 20
-7.38208
 11
7.67815
 21
-7.40912
  0
LINE
  8
0
 10
7.67815
 20
-7.40912
 11
7.69241
 21
-7.4371
  0
LINE
  8
0
 10
7.69241
 20
-7.4371
 11
7.70488
 21
-7.46593
  0
LINE
  8
0
 10
7.70488
 20
-7.46593
 11
7.71552
 21
-7.49548
  0
LINE
  8
0
 10
7.71552
 20
-7.49548
 11
7.72429
 21
-7.52565
  0
LINE
  8
0
 10
7.72429
 20
-7.52565
 11
7.73114
 21
-7.5563
  0
LINE
  8
0
 10
7.73114
 20
-7.5563
 11
7.73605
 21
-7.58733
  0
LINE
  8
0
 10
7.73605
 20
-7.58733
 11
7.739
 21
-7.61859
  0
LINE
  8
0
 10
7.739
 20
-7.61859
 11
7.73999
 21
-7.64999
  0
LINE
  8
0
 10
7.73999
 20
-7.64999
 11
7.739
 21
-7.68138
  0
LINE
  8
0
 10
7.739
 20
-7.68138
 11
7.73605
 21
-7.71266
  0
LINE
  8
0
 10
7.73605
 20
-7.71266
 11
7.73114
 21
-7.74368
  0
LINE
  8
0
 10
7.73114
 20
-7.74368
 11
7.72429
 21
-7.77434
  0
LINE
  8
0
 10
7.72429
 20
-7.77434
 11
7.71552
 21
-7.8045
  0
LINE
  8
0
 10
7.71552
 20
-7.8045
 11
7.70488
 21
-7.83406
  0
LINE
  8
0
 10
7.70488
 20
-7.83406
 11
7.69241
 21
-7.86288
  0
LINE
  8
0
 10
7.69241
 20
-7.86288
 11
7.67815
 21
-7.89087
  0
LINE
  8
0
 10
7.67815
 20
-7.89087
 11
7.66216
 21
-7.91791
  0
LINE
  8
0
 10
7.66216
 20
-7.91791
 11
7.6445
 21
-7.94388
  0
LINE
  8
0
 10
7.6445
 20
-7.94388
 11
7.62524
 21
-7.9687
  0
LINE
  8
0
 10
7.62524
 20
-7.9687
 11
7.60448
 21
-7.99226
  0
LINE
  8
0
 10
7.60448
 20
-7.99226
 11
7.58226
 21
-8.01448
  0
LINE
  8
0
 10
7.58226
 20
-8.01448
 11
7.5587
 21
-8.03525
  0
LINE
  8
0
 10
7.5587
 20
-8.03525
 11
7.53389
 21
-8.0545
  0
LINE
  8
0
 10
7.53389
 20
-8.0545
 11
7.5079
 21
-8.07216
  0
LINE
  8
0
 10
7.5079
 20
-8.07216
 11
7.48087
 21
-8.08815
  0
LINE
  8
0
 10
7.48087
 20
-8.08815
 11
7.45288
 21
-8.1024
  0
LINE
  8
0
 10
7.45288
 20
-8.1024
 11
7.42406
 21
-8.11488
  0
LINE
  8
0
 10
7.42406
 20
-8.11488
 11
7.3945
 21
-8.12552
  0
LINE
  8
0
 10
7.3945
 20
-8.12552
 11
7.36433
 21
-8.13428
  0
LINE
  8
0
 10
7.36433
 20
-8.13428
 11
7.33368
 21
-8.14113
  0
LINE
  8
0
 10
7.33368
 20
-8.14113
 11
7.30266
 21
-8.14606
  0
LINE
  8
0
 10
7.30266
 20
-8.14606
 11
7.27139
 21
-8.149
  0
LINE
  8
0
 10
7.27139
 20
-8.149
 11
7.23999
 21
-8.14999
  0
LINE
  8
0
 10
7.23999
 20
-8.14999
 11
7.2086
 21
-8.149
  0
ENDSEC
  0
SECTION
  2
OBJECTS
  0
DICTIONARY
  0
ENDSEC
  0
EOF
