  0
SECTION
  2
BLOCKS
  0
ENDSEC
  0
SECTION
  2
ENTITIES
  0
LINE
  8
0
 10
2.12564
 20
-101.478
 11
4.25037
 21
-101.411
  0
LINE
  8
0
 10
4.25037
 20
-101.411
 11
6.37323
 21
-101.3
  0
LINE
  8
0
 10
6.37323
 20
-101.3
 11
8.49329
 21
-101.144
  0
LINE
  8
0
 10
8.49329
 20
-101.144
 11
10.6096
 21
-100.944
  0
LINE
  8
0
 10
10.6096
 20
-100.944
 11
12.7213
 21
-100.7
  0
LINE
  8
0
 10
12.7213
 20
-100.7
 11
14.8274
 21
-100.411
  0
LINE
  8
0
 10
14.8274
 20
-100.411
 11
16.927
 21
-100.079
  0
LINE
  8
0
 10
16.927
 20
-100.079
 11
19.0192
 21
-99.7021
  0
LINE
  8
0
 10
19.0192
 20
-99.7021
 11
21.103
 21
-99.282
  0
LINE
  8
0
 10
21.103
 20
-99.282
 11
23.1776
 21
-98.8183
  0
LINE
  8
0
 10
23.1776
 20
-98.8183
 11
25.242
 21
-98.3112
  0
LINE
  8
0
 10
25.242
 20
-98.3112
 11
27.2953
 21
-97.761
  0
LINE
  8
0
 10
27.2953
 20
-97.761
 11
29.3367
 21
-97.1679
  0
LINE
  8
0
 10
29.3367
 20
-97.1679
 11
31.3652
 21
-96.5322
  0
LINE
  8
0
 10
31.3652
 20
-96.5322
 11
33.38
 21
-95.8542
  0
LINE
  8
0
 10
33.38
 20
-95.8542
 11
35.3801
 21
-95.1341
  0
LINE
  8
0
 10
35.3801
 20
-95.1341
 11
37.3646
 21
-94.3723
  0
LINE
  8
0
 10
37.3646
 20
-94.3723
 11
39.3328
 21
-93.5691
  0
LINE
  8
0
 10
39.3328
 20
-93.5691
 11
41.2838
 21
-92.7249
  0
LINE
  8
0
 10
41.2838
 20
-92.7249
 11
43.2166
 21
-91.8399
  0
LINE
  8
0
 10
43.2166
 20
-91.8399
 11
45.1305
 21
-90.9147
  0
LINE
  8
0
 10
45.1305
 20
-90.9147
 11
47.0245
 21
-89.9497
  0
LINE
  8
0
 10
47.0245
 20
-89.9497
 11
48.898
 21
-88.9451
  0
LINE
  8
0
 10
48.898
 20
-88.9451
 11
50.75
 21
-87.9016
  0
LINE
  8
0
 10
50.75
 20
-87.9016
 11
52.5797
 21
-86.8195
  0
LINE
  8
0
 10
52.5797
 20
-86.8195
 11
54.3864
 21
-85.6993
  0
LINE
  8
0
 10
54.3864
 20
-85.6993
 11
56.1692
 21
-84.5415
  0
LINE
  8
0
 10
56.1692
 20
-84.5415
 11
57.9274
 21
-83.3466
  0
LINE
  8
0
 10
57.9274
 20
-83.3466
 11
59.6602
 21
-82.1152
  0
LINE
  8
0
 10
59.6602
 20
-82.1152
 11
61.3668
 21
-80.8478
  0
LINE
  8
0
 10
61.3668
 20
-80.8478
 11
63.0465
 21
-79.5449
  0
LINE
  8
0
 10
63.0465
 20
-79.5449
 11
64.6985
 21
-78.2071
  0
LINE
  8
0
 10
64.6985
 20
-78.2071
 11
66.3222
 21
-76.835
  0
LINE
  8
0
 10
66.3222
 20
-76.835
 11
67.9167
 21
-75.4292
  0
LINE
  8
0
 10
67.9167
 20
-75.4292
 11
69.4815
 21
-73.9903
  0
LINE
  8
0
 10
69.4815
 20
-73.9903
 11
71.0158
 21
-72.519
  0
LINE
  8
0
 10
71.0158
 20
-72.519
 11
72.519
 21
-71.0158
  0
LINE
  8
0
 10
72.519
 20
-71.0158
 11
73.9903
 21
-69.4815
  0
LINE
  8
0
 10
73.9903
 20
-69.4815
 11
75.4292
 21
-67.9167
  0
LINE
  8
0
 10
75.4292
 20
-67.9167
 11
76.835
 21
-66.3222
  0
LINE
  8
0
 10
76.835
 20
-66.3222
 11
78.2071
 21
-64.6985
  0
LINE
  8
0
 10
78.2071
 20
-64.6985
 11
79.5449
 21
-63.0465
  0
LINE
  8
0
 10
79.5449
 20
-63.0465
 11
80.8478
 21
-61.3668
  0
LINE
  8
0
 10
80.8478
 20
-61.3668
 11
82.1152
 21
-59.6602
  0
LINE
  8
0
 10
82.1152
 20
-59.6602
 11
83.3466
 21
-57.9274
  0
LINE
  8
0
 10
83.3466
 20
-57.9274
 11
84.5415
 21
-56.1692
  0
LINE
  8
0
 10
84.5415
 20
-56.1692
 11
85.6993
 21
-54.3864
  0
LINE
  8
0
 10
85.6993
 20
-54.3864
 11
86.8195
 21
-52.5797
  0
LINE
  8
0
 10
86.8195
 20
-52.5797
 11
87.9016
 21
-50.75
  0
LINE
  8
0
 10
87.9016
 20
-50.75
 11
88.9451
 21
-48.898
  0
LINE
  8
0
 10
88.9451
 20
-48.898
 11
89.9497
 21
-47.0245
  0
LINE
  8
0
 10
89.9497
 20
-47.0245
 11
90.9147
 21
-45.1305
  0
LINE
  8
0
 10
90.9147
 20
-45.1305
 11
91.8399
 21
-43.2166
  0
LINE
  8
0
 10
91.8399
 20
-43.2166
 11
92.7249
 21
-41.2838
  0
LINE
  8
0
 10
92.7249
 20
-41.2838
 11
93.5691
 21
-39.3328
  0
LINE
  8
0
 10
93.5691
 20
-39.3328
 11
94.3723
 21
-37.3646
  0
LINE
  8
0
 10
94.3723
 20
-37.3646
 11
95.1341
 21
-35.3801
  0
LINE
  8
0
 10
95.1341
 20
-35.3801
 11
95.8542
 21
-33.38
  0
LINE
  8
0
 10
95.8542
 20
-33.38
 11
96.5322
 21
-31.3652
  0
LINE
  8
0
 10
96.5322
 20
-31.3652
 11
97.1679
 21
-29.3367
  0
LINE
  8
0
 10
97.1679
 20
-29.3367
 11
97.761
 21
-27.2953
  0
LINE
  8
0
 10
97.761
 20
-27.2953
 11
98.3112
 21
-25.242
  0
LINE
  8
0
 10
98.3112
 20
-25.242
 11
98.8183
 21
-23.1776
  0
LINE
  8
0
 10
98.8183
 20
-23.1776
 11
99.282
 21
-21.103
  0
LINE
  8
0
 10
99.282
 20
-21.103
 11
99.7021
 21
-19.0192
  0
LINE
  8
0
 10
99.7021
 20
-19.0192
 11
100.079
 21
-16.927
  0
LINE
  8
0
 10
100.079
 20
-16.927
 11
100.411
 21
-14.8274
  0
LINE
  8
0
 10
100.411
 20
-14.8274
 11
100.7
 21
-12.7213
  0
LINE
  8
0
 10
100.7
 20
-12.7213
 11
100.944
 21
-10.6096
  0
LINE
  8
0
 10
100.944
 20
-10.6096
 11
101.144
 21
-8.49329
  0
LINE
  8
0
 10
101.144
 20
-8.49329
 11
101.3
 21
-6.37323
  0
LINE
  8
0
 10
101.3
 20
-6.37323
 11
101.411
 21
-4.25037
  0
LINE
  8
0
 10
101.411
 20
-4.25037
 11
101.478
 21
-2.12564
  0
LINE
  8
0
 10
101.478
 20
-2.12564
 11
101.5
 21
0
  0
LINE
  8
0
 10
101.5
 20
0
 11
101.478
 21
2.12564
  0
LINE
  8
0
 10
101.478
 20
2.12564
 11
101.411
 21
4.25037
  0
LINE
  8
0
 10
101.411
 20
4.25037
 11
101.3
 21
6.37323
  0
LINE
  8
0
 10
101.3
 20
6.37323
 11
101.144
 21
8.49329
  0
LINE
  8
0
 10
101.144
 20
8.49329
 11
100.944
 21
10.6096
  0
LINE
  8
0
 10
100.944
 20
10.6096
 11
100.7
 21
12.7213
  0
LINE
  8
0
 10
100.7
 20
12.7213
 11
100.411
 21
14.8274
  0
LINE
  8
0
 10
100.411
 20
14.8274
 11
100.079
 21
16.927
  0
LINE
  8
0
 10
100.079
 20
16.927
 11
99.7021
 21
19.0192
  0
LINE
  8
0
 10
99.7021
 20
19.0192
 11
99.282
 21
21.103
  0
LINE
  8
0
 10
99.282
 20
21.103
 11
98.8183
 21
23.1776
  0
LINE
  8
0
 10
98.8183
 20
23.1776
 11
98.3112
 21
25.242
  0
LINE
  8
0
 10
98.3112
 20
25.242
 11
97.761
 21
27.2953
  0
LINE
  8
0
 10
97.761
 20
27.2953
 11
97.1679
 21
29.3367
  0
LINE
  8
0
 10
97.1679
 20
29.3367
 11
96.5322
 21
31.3652
  0
LINE
  8
0
 10
96.5322
 20
31.3652
 11
95.8542
 21
33.38
  0
LINE
  8
0
 10
95.8542
 20
33.38
 11
95.1341
 21
35.3801
  0
LINE
  8
0
 10
95.1341
 20
35.3801
 11
94.3723
 21
37.3646
  0
LINE
  8
0
 10
94.3723
 20
37.3646
 11
93.5691
 21
39.3328
  0
LINE
  8
0
 10
93.5691
 20
39.3328
 11
92.7249
 21
41.2838
  0
LINE
  8
0
 10
92.7249
 20
41.2838
 11
91.8399
 21
43.2166
  0
LINE
  8
0
 10
91.8399
 20
43.2166
 11
90.9147
 21
45.1305
  0
LINE
  8
0
 10
90.9147
 20
45.1305
 11
89.9497
 21
47.0245
  0
LINE
  8
0
 10
89.9497
 20
47.0245
 11
88.9451
 21
48.898
  0
LINE
  8
0
 10
88.9451
 20
48.898
 11
87.9016
 21
50.75
  0
LINE
  8
0
 10
87.9016
 20
50.75
 11
86.8195
 21
52.5797
  0
LINE
  8
0
 10
86.8195
 20
52.5797
 11
85.6993
 21
54.3864
  0
LINE
  8
0
 10
85.6993
 20
54.3864
 11
84.5415
 21
56.1692
  0
LINE
  8
0
 10
84.5415
 20
56.1692
 11
83.3466
 21
57.9274
  0
LINE
  8
0
 10
83.3466
 20
57.9274
 11
82.1152
 21
59.6602
  0
LINE
  8
0
 10
82.1152
 20
59.6602
 11
80.8478
 21
61.3668
  0
LINE
  8
0
 10
80.8478
 20
61.3668
 11
79.5449
 21
63.0465
  0
LINE
  8
0
 10
79.5449
 20
63.0465
 11
78.2071
 21
64.6985
  0
LINE
  8
0
 10
78.2071
 20
64.6985
 11
76.835
 21
66.3222
  0
LINE
  8
0
 10
76.835
 20
66.3222
 11
75.4292
 21
67.9167
  0
LINE
  8
0
 10
75.4292
 20
67.9167
 11
73.9903
 21
69.4815
  0
LINE
  8
0
 10
73.9903
 20
69.4815
 11
72.519
 21
71.0158
  0
LINE
  8
0
 10
72.519
 20
71.0158
 11
71.0158
 21
72.519
  0
LINE
  8
0
 10
71.0158
 20
72.519
 11
69.4815
 21
73.9903
  0
LINE
  8
0
 10
69.4815
 20
73.9903
 11
67.9167
 21
75.4292
  0
LINE
  8
0
 10
67.9167
 20
75.4292
 11
66.3222
 21
76.835
  0
LINE
  8
0
 10
66.3222
 20
76.835
 11
64.6985
 21
78.2071
  0
LINE
  8
0
 10
64.6985
 20
78.2071
 11
63.0465
 21
79.5449
  0
LINE
  8
0
 10
63.0465
 20
79.5449
 11
61.3668
 21
80.8478
  0
LINE
  8
0
 10
61.3668
 20
80.8478
 11
59.6602
 21
82.1152
  0
LINE
  8
0
 10
59.6602
 20
82.1152
 11
57.9274
 21
83.3466
  0
LINE
  8
0
 10
57.9274
 20
83.3466
 11
56.1692
 21
84.5415
  0
LINE
  8
0
 10
56.1692
 20
84.5415
 11
54.3864
 21
85.6993
  0
LINE
  8
0
 10
54.3864
 20
85.6993
 11
52.5797
 21
86.8195
  0
LINE
  8
0
 10
52.5797
 20
86.8195
 11
50.75
 21
87.9016
  0
LINE
  8
0
 10
50.75
 20
87.9016
 11
48.898
 21
88.9451
  0
LINE
  8
0
 10
48.898
 20
88.9451
 11
47.0245
 21
89.9497
  0
LINE
  8
0
 10
47.0245
 20
89.9497
 11
45.1305
 21
90.9147
  0
LINE
  8
0
 10
45.1305
 20
90.9147
 11
43.2166
 21
91.8399
  0
LINE
  8
0
 10
43.2166
 20
91.8399
 11
41.2838
 21
92.7249
  0
LINE
  8
0
 10
41.2838
 20
92.7249
 11
39.3328
 21
93.5691
  0
LINE
  8
0
 10
39.3328
 20
93.5691
 11
37.3646
 21
94.3723
  0
LINE
  8
0
 10
37.3646
 20
94.3723
 11
35.3801
 21
95.1341
  0
LINE
  8
0
 10
35.3801
 20
95.1341
 11
33.38
 21
95.8542
  0
LINE
  8
0
 10
33.38
 20
95.8542
 11
31.3652
 21
96.5322
  0
LINE
  8
0
 10
31.3652
 20
96.5322
 11
29.3367
 21
97.1679
  0
LINE
  8
0
 10
29.3367
 20
97.1679
 11
27.2953
 21
97.761
  0
LINE
  8
0
 10
27.2953
 20
97.761
 11
25.242
 21
98.3112
  0
LINE
  8
0
 10
25.242
 20
98.3112
 11
23.1776
 21
98.8183
  0
LINE
  8
0
 10
23.1776
 20
98.8183
 11
21.103
 21
99.282
  0
LINE
  8
0
 10
21.103
 20
99.282
 11
19.0192
 21
99.7021
  0
LINE
  8
0
 10
19.0192
 20
99.7021
 11
16.927
 21
100.079
  0
LINE
  8
0
 10
16.927
 20
100.079
 11
14.8274
 21
100.411
  0
LINE
  8
0
 10
14.8274
 20
100.411
 11
12.7213
 21
100.7
  0
LINE
  8
0
 10
12.7213
 20
100.7
 11
10.6096
 21
100.944
  0
LINE
  8
0
 10
10.6096
 20
100.944
 11
8.49329
 21
101.144
  0
LINE
  8
0
 10
8.49329
 20
101.144
 11
6.37323
 21
101.3
  0
LINE
  8
0
 10
6.37323
 20
101.3
 11
4.25037
 21
101.411
  0
LINE
  8
0
 10
4.25037
 20
101.411
 11
2.12564
 21
101.478
  0
LINE
  8
0
 10
2.12564
 20
101.478
 11
0
 21
101.5
  0
LINE
  8
0
 10
0
 20
101.5
 11
-2.12564
 21
101.478
  0
LINE
  8
0
 10
-2.12564
 20
101.478
 11
-4.25037
 21
101.411
  0
LINE
  8
0
 10
-4.25037
 20
101.411
 11
-6.37323
 21
101.3
  0
LINE
  8
0
 10
-6.37323
 20
101.3
 11
-8.49329
 21
101.144
  0
LINE
  8
0
 10
-8.49329
 20
101.144
 11
-10.6096
 21
100.944
  0
LINE
  8
0
 10
-10.6096
 20
100.944
 11
-12.7213
 21
100.7
  0
LINE
  8
0
 10
-12.7213
 20
100.7
 11
-14.8274
 21
100.411
  0
LINE
  8
0
 10
-14.8274
 20
100.411
 11
-16.927
 21
100.079
  0
LINE
  8
0
 10
-16.927
 20
100.079
 11
-19.0192
 21
99.7021
  0
LINE
  8
0
 10
-19.0192
 20
99.7021
 11
-21.103
 21
99.282
  0
LINE
  8
0
 10
-21.103
 20
99.282
 11
-23.1776
 21
98.8183
  0
LINE
  8
0
 10
-23.1776
 20
98.8183
 11
-25.242
 21
98.3112
  0
LINE
  8
0
 10
-25.242
 20
98.3112
 11
-27.2953
 21
97.761
  0
LINE
  8
0
 10
-27.2953
 20
97.761
 11
-29.3367
 21
97.1679
  0
LINE
  8
0
 10
-29.3367
 20
97.1679
 11
-31.3652
 21
96.5322
  0
LINE
  8
0
 10
-31.3652
 20
96.5322
 11
-33.38
 21
95.8542
  0
LINE
  8
0
 10
-33.38
 20
95.8542
 11
-35.3801
 21
95.1341
  0
LINE
  8
0
 10
-35.3801
 20
95.1341
 11
-37.3646
 21
94.3723
  0
LINE
  8
0
 10
-37.3646
 20
94.3723
 11
-39.3328
 21
93.5691
  0
LINE
  8
0
 10
-39.3328
 20
93.5691
 11
-41.2838
 21
92.7249
  0
LINE
  8
0
 10
-41.2838
 20
92.7249
 11
-43.2166
 21
91.8399
  0
LINE
  8
0
 10
-43.2166
 20
91.8399
 11
-45.1305
 21
90.9147
  0
LINE
  8
0
 10
-45.1305
 20
90.9147
 11
-47.0245
 21
89.9497
  0
LINE
  8
0
 10
-47.0245
 20
89.9497
 11
-48.898
 21
88.9451
  0
LINE
  8
0
 10
-48.898
 20
88.9451
 11
-50.75
 21
87.9016
  0
LINE
  8
0
 10
-50.75
 20
87.9016
 11
-52.5797
 21
86.8195
  0
LINE
  8
0
 10
-52.5797
 20
86.8195
 11
-54.3864
 21
85.6993
  0
LINE
  8
0
 10
-54.3864
 20
85.6993
 11
-56.1692
 21
84.5415
  0
LINE
  8
0
 10
-56.1692
 20
84.5415
 11
-57.9274
 21
83.3466
  0
LINE
  8
0
 10
-57.9274
 20
83.3466
 11
-59.6602
 21
82.1152
  0
LINE
  8
0
 10
-59.6602
 20
82.1152
 11
-61.3668
 21
80.8478
  0
LINE
  8
0
 10
-61.3668
 20
80.8478
 11
-63.0465
 21
79.5449
  0
LINE
  8
0
 10
-63.0465
 20
79.5449
 11
-64.6985
 21
78.2071
  0
LINE
  8
0
 10
-64.6985
 20
78.2071
 11
-66.3222
 21
76.835
  0
LINE
  8
0
 10
-66.3222
 20
76.835
 11
-67.9167
 21
75.4292
  0
LINE
  8
0
 10
-67.9167
 20
75.4292
 11
-69.4815
 21
73.9903
  0
LINE
  8
0
 10
-69.4815
 20
73.9903
 11
-71.0158
 21
72.519
  0
LINE
  8
0
 10
-71.0158
 20
72.519
 11
-72.519
 21
71.0158
  0
LINE
  8
0
 10
-72.519
 20
71.0158
 11
-73.9903
 21
69.4815
  0
LINE
  8
0
 10
-73.9903
 20
69.4815
 11
-75.4292
 21
67.9167
  0
LINE
  8
0
 10
-75.4292
 20
67.9167
 11
-76.835
 21
66.3222
  0
LINE
  8
0
 10
-76.835
 20
66.3222
 11
-78.2071
 21
64.6985
  0
LINE
  8
0
 10
-78.2071
 20
64.6985
 11
-79.5449
 21
63.0465
  0
LINE
  8
0
 10
-79.5449
 20
63.0465
 11
-80.8478
 21
61.3668
  0
LINE
  8
0
 10
-80.8478
 20
61.3668
 11
-82.1152
 21
59.6602
  0
LINE
  8
0
 10
-82.1152
 20
59.6602
 11
-83.3466
 21
57.9274
  0
LINE
  8
0
 10
-83.3466
 20
57.9274
 11
-84.5415
 21
56.1692
  0
LINE
  8
0
 10
-84.5415
 20
56.1692
 11
-85.6993
 21
54.3864
  0
LINE
  8
0
 10
-85.6993
 20
54.3864
 11
-86.8195
 21
52.5797
  0
LINE
  8
0
 10
-86.8195
 20
52.5797
 11
-87.9016
 21
50.75
  0
LINE
  8
0
 10
-87.9016
 20
50.75
 11
-88.9451
 21
48.898
  0
LINE
  8
0
 10
-88.9451
 20
48.898
 11
-89.9497
 21
47.0245
  0
LINE
  8
0
 10
-89.9497
 20
47.0245
 11
-90.9147
 21
45.1305
  0
LINE
  8
0
 10
-90.9147
 20
45.1305
 11
-91.8399
 21
43.2166
  0
LINE
  8
0
 10
-91.8399
 20
43.2166
 11
-92.7249
 21
41.2838
  0
LINE
  8
0
 10
-92.7249
 20
41.2838
 11
-93.5691
 21
39.3328
  0
LINE
  8
0
 10
-93.5691
 20
39.3328
 11
-94.3723
 21
37.3646
  0
LINE
  8
0
 10
-94.3723
 20
37.3646
 11
-95.1341
 21
35.3801
  0
LINE
  8
0
 10
-95.1341
 20
35.3801
 11
-95.8542
 21
33.38
  0
LINE
  8
0
 10
-95.8542
 20
33.38
 11
-96.5322
 21
31.3652
  0
LINE
  8
0
 10
-96.5322
 20
31.3652
 11
-97.1679
 21
29.3367
  0
LINE
  8
0
 10
-97.1679
 20
29.3367
 11
-97.761
 21
27.2953
  0
LINE
  8
0
 10
-97.761
 20
27.2953
 11
-98.3112
 21
25.242
  0
LINE
  8
0
 10
-98.3112
 20
25.242
 11
-98.8183
 21
23.1776
  0
LINE
  8
0
 10
-98.8183
 20
23.1776
 11
-99.282
 21
21.103
  0
LINE
  8
0
 10
-99.282
 20
21.103
 11
-99.7021
 21
19.0192
  0
LINE
  8
0
 10
-99.7021
 20
19.0192
 11
-100.079
 21
16.927
  0
LINE
  8
0
 10
-100.079
 20
16.927
 11
-100.411
 21
14.8274
  0
LINE
  8
0
 10
-100.411
 20
14.8274
 11
-100.7
 21
12.7213
  0
LINE
  8
0
 10
-100.7
 20
12.7213
 11
-100.944
 21
10.6096
  0
LINE
  8
0
 10
-100.944
 20
10.6096
 11
-101.144
 21
8.49329
  0
LINE
  8
0
 10
-101.144
 20
8.49329
 11
-101.3
 21
6.37323
  0
LINE
  8
0
 10
-101.3
 20
6.37323
 11
-101.411
 21
4.25037
  0
LINE
  8
0
 10
-101.411
 20
4.25037
 11
-101.478
 21
2.12564
  0
LINE
  8
0
 10
-101.478
 20
2.12564
 11
-101.5
 21
0
  0
LINE
  8
0
 10
-101.5
 20
0
 11
-101.478
 21
-2.12564
  0
LINE
  8
0
 10
-101.478
 20
-2.12564
 11
-101.411
 21
-4.25037
  0
LINE
  8
0
 10
-101.411
 20
-4.25037
 11
-101.3
 21
-6.37323
  0
LINE
  8
0
 10
-101.3
 20
-6.37323
 11
-101.144
 21
-8.49329
  0
LINE
  8
0
 10
-101.144
 20
-8.49329
 11
-100.944
 21
-10.6096
  0
LINE
  8
0
 10
-100.944
 20
-10.6096
 11
-100.7
 21
-12.7213
  0
LINE
  8
0
 10
-100.7
 20
-12.7213
 11
-100.411
 21
-14.8274
  0
LINE
  8
0
 10
-100.411
 20
-14.8274
 11
-100.079
 21
-16.927
  0
LINE
  8
0
 10
-100.079
 20
-16.927
 11
-99.7021
 21
-19.0192
  0
LINE
  8
0
 10
-99.7021
 20
-19.0192
 11
-99.282
 21
-21.103
  0
LINE
  8
0
 10
-99.282
 20
-21.103
 11
-98.8183
 21
-23.1776
  0
LINE
  8
0
 10
-98.8183
 20
-23.1776
 11
-98.3112
 21
-25.242
  0
LINE
  8
0
 10
-98.3112
 20
-25.242
 11
-97.761
 21
-27.2953
  0
LINE
  8
0
 10
-97.761
 20
-27.2953
 11
-97.1679
 21
-29.3367
  0
LINE
  8
0
 10
-97.1679
 20
-29.3367
 11
-96.5322
 21
-31.3652
  0
LINE
  8
0
 10
-96.5322
 20
-31.3652
 11
-95.8542
 21
-33.38
  0
LINE
  8
0
 10
-95.8542
 20
-33.38
 11
-95.1341
 21
-35.3801
  0
LINE
  8
0
 10
-95.1341
 20
-35.3801
 11
-94.3723
 21
-37.3646
  0
LINE
  8
0
 10
-94.3723
 20
-37.3646
 11
-93.5691
 21
-39.3328
  0
LINE
  8
0
 10
-93.5691
 20
-39.3328
 11
-92.7249
 21
-41.2838
  0
LINE
  8
0
 10
-92.7249
 20
-41.2838
 11
-91.8399
 21
-43.2166
  0
LINE
  8
0
 10
-91.8399
 20
-43.2166
 11
-90.9147
 21
-45.1305
  0
LINE
  8
0
 10
-90.9147
 20
-45.1305
 11
-89.9497
 21
-47.0245
  0
LINE
  8
0
 10
-89.9497
 20
-47.0245
 11
-88.9451
 21
-48.898
  0
LINE
  8
0
 10
-88.9451
 20
-48.898
 11
-87.9016
 21
-50.75
  0
LINE
  8
0
 10
-87.9016
 20
-50.75
 11
-86.8195
 21
-52.5797
  0
LINE
  8
0
 10
-86.8195
 20
-52.5797
 11
-85.6993
 21
-54.3864
  0
LINE
  8
0
 10
-85.6993
 20
-54.3864
 11
-84.5415
 21
-56.1692
  0
LINE
  8
0
 10
-84.5415
 20
-56.1692
 11
-83.3466
 21
-57.9274
  0
LINE
  8
0
 10
-83.3466
 20
-57.9274
 11
-82.1152
 21
-59.6602
  0
LINE
  8
0
 10
-82.1152
 20
-59.6602
 11
-80.8478
 21
-61.3668
  0
LINE
  8
0
 10
-80.8478
 20
-61.3668
 11
-79.5449
 21
-63.0465
  0
LINE
  8
0
 10
-79.5449
 20
-63.0465
 11
-78.2071
 21
-64.6985
  0
LINE
  8
0
 10
-78.2071
 20
-64.6985
 11
-76.835
 21
-66.3222
  0
LINE
  8
0
 10
-76.835
 20
-66.3222
 11
-75.4292
 21
-67.9167
  0
LINE
  8
0
 10
-75.4292
 20
-67.9167
 11
-73.9903
 21
-69.4815
  0
LINE
  8
0
 10
-73.9903
 20
-69.4815
 11
-72.519
 21
-71.0158
  0
LINE
  8
0
 10
-72.519
 20
-71.0158
 11
-71.0158
 21
-72.519
  0
LINE
  8
0
 10
-71.0158
 20
-72.519
 11
-69.4815
 21
-73.9903
  0
LINE
  8
0
 10
-69.4815
 20
-73.9903
 11
-67.9167
 21
-75.4292
  0
LINE
  8
0
 10
-67.9167
 20
-75.4292
 11
-66.3222
 21
-76.835
  0
LINE
  8
0
 10
-66.3222
 20
-76.835
 11
-64.6985
 21
-78.2071
  0
LINE
  8
0
 10
-64.6985
 20
-78.2071
 11
-63.0465
 21
-79.5449
  0
LINE
  8
0
 10
-63.0465
 20
-79.5449
 11
-61.3668
 21
-80.8478
  0
LINE
  8
0
 10
-61.3668
 20
-80.8478
 11
-59.6602
 21
-82.1152
  0
LINE
  8
0
 10
-59.6602
 20
-82.1152
 11
-57.9274
 21
-83.3466
  0
LINE
  8
0
 10
-57.9274
 20
-83.3466
 11
-56.1692
 21
-84.5415
  0
LINE
  8
0
 10
-56.1692
 20
-84.5415
 11
-54.3864
 21
-85.6993
  0
LINE
  8
0
 10
-54.3864
 20
-85.6993
 11
-52.5797
 21
-86.8195
  0
LINE
  8
0
 10
-52.5797
 20
-86.8195
 11
-50.75
 21
-87.9016
  0
LINE
  8
0
 10
-50.75
 20
-87.9016
 11
-48.898
 21
-88.9451
  0
LINE
  8
0
 10
-48.898
 20
-88.9451
 11
-47.0245
 21
-89.9497
  0
LINE
  8
0
 10
-47.0245
 20
-89.9497
 11
-45.1305
 21
-90.9147
  0
LINE
  8
0
 10
-45.1305
 20
-90.9147
 11
-43.2166
 21
-91.8399
  0
LINE
  8
0
 10
-43.2166
 20
-91.8399
 11
-41.2838
 21
-92.7249
  0
LINE
  8
0
 10
-41.2838
 20
-92.7249
 11
-39.3328
 21
-93.5691
  0
LINE
  8
0
 10
-39.3328
 20
-93.5691
 11
-37.3646
 21
-94.3723
  0
LINE
  8
0
 10
-37.3646
 20
-94.3723
 11
-35.3801
 21
-95.1341
  0
LINE
  8
0
 10
-35.3801
 20
-95.1341
 11
-33.38
 21
-95.8542
  0
LINE
  8
0
 10
-33.38
 20
-95.8542
 11
-31.3652
 21
-96.5322
  0
LINE
  8
0
 10
-31.3652
 20
-96.5322
 11
-29.3367
 21
-97.1679
  0
LINE
  8
0
 10
-29.3367
 20
-97.1679
 11
-27.2953
 21
-97.761
  0
LINE
  8
0
 10
-27.2953
 20
-97.761
 11
-25.242
 21
-98.3112
  0
LINE
  8
0
 10
-25.242
 20
-98.3112
 11
-23.1776
 21
-98.8183
  0
LINE
  8
0
 10
-23.1776
 20
-98.8183
 11
-21.103
 21
-99.282
  0
LINE
  8
0
 10
-21.103
 20
-99.282
 11
-19.0192
 21
-99.7021
  0
LINE
  8
0
 10
-19.0192
 20
-99.7021
 11
-16.927
 21
-100.079
  0
LINE
  8
0
 10
-16.927
 20
-100.079
 11
-14.8274
 21
-100.411
  0
LINE
  8
0
 10
-14.8274
 20
-100.411
 11
-12.7213
 21
-100.7
  0
LINE
  8
0
 10
-12.7213
 20
-100.7
 11
-10.6096
 21
-100.944
  0
LINE
  8
0
 10
-10.6096
 20
-100.944
 11
-8.49329
 21
-101.144
  0
LINE
  8
0
 10
-8.49329
 20
-101.144
 11
-6.37323
 21
-101.3
  0
LINE
  8
0
 10
-6.37323
 20
-101.3
 11
-4.25037
 21
-101.411
  0
LINE
  8
0
 10
-4.25037
 20
-101.411
 11
-2.12564
 21
-101.478
  0
LINE
  8
0
 10
-2.12564
 20
-101.478
 11
0
 21
-101.5
  0
LINE
  8
0
 10
0
 20
-101.5
 11
2.12564
 21
-101.478
  0
LINE
  8
0
 10
-0.0523529
 20
89.0005
 11
-0.104675
 21
89.0022
  0
LINE
  8
0
 10
-0.104675
 20
89.0022
 11
-0.156967
 21
89.0049
  0
LINE
  8
0
 10
-0.156967
 20
89.0049
 11
-0.209183
 21
89.0088
  0
LINE
  8
0
 10
-0.209183
 20
89.0088
 11
-0.261307
 21
89.0137
  0
LINE
  8
0
 10
-0.261307
 20
89.0137
 11
-0.313324
 21
89.0197
  0
LINE
  8
0
 10
-0.313324
 20
89.0197
 11
-0.365204
 21
89.0268
  0
LINE
  8
0
 10
-0.365204
 20
89.0268
 11
-0.416916
 21
89.035
  0
LINE
  8
0
 10
-0.416916
 20
89.035
 11
-0.468445
 21
89.0443
  0
LINE
  8
0
 10
-0.468445
 20
89.0443
 11
-0.519775
 21
89.0546
  0
LINE
  8
0
 10
-0.519775
 20
89.0546
 11
-0.570877
 21
89.066
  0
LINE
  8
0
 10
-0.570877
 20
89.066
 11
-0.621719
 21
89.0785
  0
LINE
  8
0
 10
-0.621719
 20
89.0785
 11
-0.672287
 21
89.0921
  0
LINE
  8
0
 10
-0.672287
 20
89.0921
 11
-0.722565
 21
89.1067
  0
LINE
  8
0
 10
-0.722565
 20
89.1067
 11
-0.772537
 21
89.1223
  0
LINE
  8
0
 10
-0.772537
 20
89.1223
 11
-0.822159
 21
89.1391
  0
LINE
  8
0
 10
-0.822159
 20
89.1391
 11
-0.871429
 21
89.1568
  0
LINE
  8
0
 10
-0.871429
 20
89.1568
 11
-0.920303
 21
89.1756
  0
LINE
  8
0
 10
-0.920303
 20
89.1756
 11
-0.968781
 21
89.1953
  0
LINE
  8
0
 10
-0.968781
 20
89.1953
 11
-1.01683
 21
89.2161
  0
LINE
  8
0
 10
-1.01683
 20
89.2161
 11
-1.06444
 21
89.2379
  0
LINE
  8
0
 10
-1.06444
 20
89.2379
 11
-1.11159
 21
89.2607
  0
LINE
  8
0
 10
-1.11159
 20
89.2607
 11
-1.15823
 21
89.2845
  0
LINE
  8
0
 10
-1.15823
 20
89.2845
 11
-1.20438
 21
89.3092
  0
LINE
  8
0
 10
-1.20438
 20
89.3092
 11
-1.25
 21
89.3349
  0
LINE
  8
0
 10
-1.25
 20
89.3349
 11
-1.29506
 21
89.3616
  0
LINE
  8
0
 10
-1.29506
 20
89.3616
 11
-1.33955
 21
89.3892
  0
LINE
  8
0
 10
-1.33955
 20
89.3892
 11
-1.38347
 21
89.4177
  0
LINE
  8
0
 10
-1.38347
 20
89.4177
 11
-1.42677
 21
89.4471
  0
LINE
  8
0
 10
-1.42677
 20
89.4471
 11
-1.46945
 21
89.4774
  0
LINE
  8
0
 10
-1.46945
 20
89.4774
 11
-1.51149
 21
89.5087
  0
LINE
  8
0
 10
-1.51149
 20
89.5087
 11
-1.55286
 21
89.5408
  0
LINE
  8
0
 10
-1.55286
 20
89.5408
 11
-1.59355
 21
89.5737
  0
LINE
  8
0
 10
-1.59355
 20
89.5737
 11
-1.63354
 21
89.6075
  0
LINE
  8
0
 10
-1.63354
 20
89.6075
 11
-1.67282
 21
89.6421
  0
LINE
  8
0
 10
-1.67282
 20
89.6421
 11
-1.71136
 21
89.6776
  0
LINE
  8
0
 10
-1.71136
 20
89.6776
 11
-1.74915
 21
89.7138
  0
LINE
  8
0
 10
-1.74915
 20
89.7138
 11
-1.78618
 21
89.7508
  0
LINE
  8
0
 10
-1.78618
 20
89.7508
 11
-1.82242
 21
89.7886
  0
LINE
  8
0
 10
-1.82242
 20
89.7886
 11
-1.85785
 21
89.8272
  0
LINE
  8
0
 10
-1.85785
 20
89.8272
 11
-1.89249
 21
89.8664
  0
LINE
  8
0
 10
-1.89249
 20
89.8664
 11
-1.92627
 21
89.9064
  0
LINE
  8
0
 10
-1.92627
 20
89.9064
 11
-1.95923
 21
89.9471
  0
LINE
  8
0
 10
-1.95923
 20
89.9471
 11
-1.99132
 21
89.9885
  0
LINE
  8
0
 10
-1.99132
 20
89.9885
 11
-2.02254
 21
90.0305
  0
LINE
  8
0
 10
-2.02254
 20
90.0305
 11
-2.05287
 21
90.0732
  0
LINE
  8
0
 10
-2.05287
 20
90.0732
 11
-2.08229
 21
90.1165
  0
LINE
  8
0
 10
-2.08229
 20
90.1165
 11
-2.11081
 21
90.1604
  0
LINE
  8
0
 10
-2.11081
 20
90.1604
 11
-2.1384
 21
90.2049
  0
LINE
  8
0
 10
-2.1384
 20
90.2049
 11
-2.16505
 21
90.25
  0
LINE
  8
0
 10
-2.16505
 20
90.25
 11
-2.19077
 21
90.2956
  0
LINE
  8
0
 10
-2.19077
 20
90.2956
 11
-2.2155
 21
90.3418
  0
LINE
  8
0
 10
-2.2155
 20
90.3418
 11
-2.23927
 21
90.3884
  0
LINE
  8
0
 10
-2.23927
 20
90.3884
 11
-2.26205
 21
90.4355
  0
LINE
  8
0
 10
-2.26205
 20
90.4355
 11
-2.28386
 21
90.4832
  0
LINE
  8
0
 10
-2.28386
 20
90.4832
 11
-2.30466
 21
90.5312
  0
LINE
  8
0
 10
-2.30466
 20
90.5312
 11
-2.32443
 21
90.5797
  0
LINE
  8
0
 10
-2.32443
 20
90.5797
 11
-2.3432
 21
90.6286
  0
LINE
  8
0
 10
-2.3432
 20
90.6286
 11
-2.36093
 21
90.6778
  0
LINE
  8
0
 10
-2.36093
 20
90.6778
 11
-2.37764
 21
90.7274
  0
LINE
  8
0
 10
-2.37764
 20
90.7274
 11
-2.3933
 21
90.7774
  0
LINE
  8
0
 10
-2.3933
 20
90.7774
 11
-2.4079
 21
90.8277
  0
LINE
  8
0
 10
-2.4079
 20
90.8277
 11
-2.42145
 21
90.8783
  0
LINE
  8
0
 10
-2.42145
 20
90.8783
 11
-2.43394
 21
90.9291
  0
LINE
  8
0
 10
-2.43394
 20
90.9291
 11
-2.44536
 21
90.9802
  0
LINE
  8
0
 10
-2.44536
 20
90.9802
 11
-2.4557
 21
91.0315
  0
LINE
  8
0
 10
-2.4557
 20
91.0315
 11
-2.46498
 21
91.0831
  0
LINE
  8
0
 10
-2.46498
 20
91.0831
 11
-2.47318
 21
91.1348
  0
LINE
  8
0
 10
-2.47318
 20
91.1348
 11
-2.48029
 21
91.1867
  0
LINE
  8
0
 10
-2.48029
 20
91.1867
 11
-2.4863
 21
91.2387
  0
LINE
  8
0
 10
-2.4863
 20
91.2387
 11
-2.49123
 21
91.2908
  0
LINE
  8
0
 10
-2.49123
 20
91.2908
 11
-2.49506
 21
91.343
  0
LINE
  8
0
 10
-2.49506
 20
91.343
 11
-2.4978
 21
91.3953
  0
LINE
  8
0
 10
-2.4978
 20
91.3953
 11
-2.49945
 21
91.4476
  0
LINE
  8
0
 10
-2.49945
 20
91.4476
 11
-2.5
 21
91.5
  0
LINE
  8
0
 10
-2.5
 20
91.5
 11
-2.49945
 21
91.5524
  0
LINE
  8
0
 10
-2.49945
 20
91.5524
 11
-2.4978
 21
91.6047
  0
LINE
  8
0
 10
-2.4978
 20
91.6047
 11
-2.49506
 21
91.657
  0
LINE
  8
0
 10
-2.49506
 20
91.657
 11
-2.49123
 21
91.7092
  0
LINE
  8
0
 10
-2.49123
 20
91.7092
 11
-2.4863
 21
91.7613
  0
LINE
  8
0
 10
-2.4863
 20
91.7613
 11
-2.48029
 21
91.8133
  0
LINE
  8
0
 10
-2.48029
 20
91.8133
 11
-2.47318
 21
91.8652
  0
LINE
  8
0
 10
-2.47318
 20
91.8652
 11
-2.46498
 21
91.9169
  0
LINE
  8
0
 10
-2.46498
 20
91.9169
 11
-2.4557
 21
91.9684
  0
LINE
  8
0
 10
-2.4557
 20
91.9684
 11
-2.44536
 21
92.0198
  0
LINE
  8
0
 10
-2.44536
 20
92.0198
 11
-2.43394
 21
92.0709
  0
LINE
  8
0
 10
-2.43394
 20
92.0709
 11
-2.42145
 21
92.1217
  0
LINE
  8
0
 10
-2.42145
 20
92.1217
 11
-2.4079
 21
92.1723
  0
LINE
  8
0
 10
-2.4079
 20
92.1723
 11
-2.3933
 21
92.2226
  0
LINE
  8
0
 10
-2.3933
 20
92.2226
 11
-2.37764
 21
92.2725
  0
LINE
  8
0
 10
-2.37764
 20
92.2725
 11
-2.36093
 21
92.3222
  0
LINE
  8
0
 10
-2.36093
 20
92.3222
 11
-2.3432
 21
92.3714
  0
LINE
  8
0
 10
-2.3432
 20
92.3714
 11
-2.32443
 21
92.4203
  0
LINE
  8
0
 10
-2.32443
 20
92.4203
 11
-2.30466
 21
92.4688
  0
LINE
  8
0
 10
-2.30466
 20
92.4688
 11
-2.28386
 21
92.5168
  0
LINE
  8
0
 10
-2.28386
 20
92.5168
 11
-2.26205
 21
92.5644
  0
LINE
  8
0
 10
-2.26205
 20
92.5644
 11
-2.23927
 21
92.6116
  0
LINE
  8
0
 10
-2.23927
 20
92.6116
 11
-2.2155
 21
92.6582
  0
LINE
  8
0
 10
-2.2155
 20
92.6582
 11
-2.19077
 21
92.7044
  0
LINE
  8
0
 10
-2.19077
 20
92.7044
 11
-2.16505
 21
92.75
  0
LINE
  8
0
 10
-2.16505
 20
92.75
 11
-2.1384
 21
92.7951
  0
LINE
  8
0
 10
-2.1384
 20
92.7951
 11
-2.11081
 21
92.8396
  0
LINE
  8
0
 10
-2.11081
 20
92.8396
 11
-2.08229
 21
92.8835
  0
LINE
  8
0
 10
-2.08229
 20
92.8835
 11
-2.05287
 21
92.9268
  0
LINE
  8
0
 10
-2.05287
 20
92.9268
 11
-2.02254
 21
92.9695
  0
LINE
  8
0
 10
-2.02254
 20
92.9695
 11
-1.99132
 21
93.0115
  0
LINE
  8
0
 10
-1.99132
 20
93.0115
 11
-1.95923
 21
93.0529
  0
LINE
  8
0
 10
-1.95923
 20
93.0529
 11
-1.92627
 21
93.0936
  0
LINE
  8
0
 10
-1.92627
 20
93.0936
 11
-1.89249
 21
93.1335
  0
LINE
  8
0
 10
-1.89249
 20
93.1335
 11
-1.85785
 21
93.1728
  0
LINE
  8
0
 10
-1.85785
 20
93.1728
 11
-1.82242
 21
93.2114
  0
LINE
  8
0
 10
-1.82242
 20
93.2114
 11
-1.78618
 21
93.2491
  0
LINE
  8
0
 10
-1.78618
 20
93.2491
 11
-1.74915
 21
93.2862
  0
LINE
  8
0
 10
-1.74915
 20
93.2862
 11
-1.71136
 21
93.3224
  0
LINE
  8
0
 10
-1.71136
 20
93.3224
 11
-1.67282
 21
93.3578
  0
LINE
  8
0
 10
-1.67282
 20
93.3578
 11
-1.63354
 21
93.3925
  0
LINE
  8
0
 10
-1.63354
 20
93.3925
 11
-1.59355
 21
93.4263
  0
LINE
  8
0
 10
-1.59355
 20
93.4263
 11
-1.55286
 21
93.4592
  0
LINE
  8
0
 10
-1.55286
 20
93.4592
 11
-1.51149
 21
93.4913
  0
LINE
  8
0
 10
-1.51149
 20
93.4913
 11
-1.46945
 21
93.5225
  0
LINE
  8
0
 10
-1.46945
 20
93.5225
 11
-1.42677
 21
93.5529
  0
LINE
  8
0
 10
-1.42677
 20
93.5529
 11
-1.38347
 21
93.5823
  0
LINE
  8
0
 10
-1.38347
 20
93.5823
 11
-1.33955
 21
93.6108
  0
LINE
  8
0
 10
-1.33955
 20
93.6108
 11
-1.29506
 21
93.6384
  0
LINE
  8
0
 10
-1.29506
 20
93.6384
 11
-1.25
 21
93.6651
  0
LINE
  8
0
 10
-1.25
 20
93.6651
 11
-1.20438
 21
93.6908
  0
LINE
  8
0
 10
-1.20438
 20
93.6908
 11
-1.15823
 21
93.7155
  0
LINE
  8
0
 10
-1.15823
 20
93.7155
 11
-1.11159
 21
93.7393
  0
LINE
  8
0
 10
-1.11159
 20
93.7393
 11
-1.06444
 21
93.7621
  0
LINE
  8
0
 10
-1.06444
 20
93.7621
 11
-1.01683
 21
93.7839
  0
LINE
  8
0
 10
-1.01683
 20
93.7839
 11
-0.968781
 21
93.8047
  0
LINE
  8
0
 10
-0.968781
 20
93.8047
 11
-0.920303
 21
93.8244
  0
LINE
  8
0
 10
-0.920303
 20
93.8244
 11
-0.871429
 21
93.8432
  0
LINE
  8
0
 10
-0.871429
 20
93.8432
 11
-0.822159
 21
93.8609
  0
LINE
  8
0
 10
-0.822159
 20
93.8609
 11
-0.772537
 21
93.8776
  0
LINE
  8
0
 10
-0.772537
 20
93.8776
 11
-0.722565
 21
93.8933
  0
LINE
  8
0
 10
-0.722565
 20
93.8933
 11
-0.672287
 21
93.9079
  0
LINE
  8
0
 10
-0.672287
 20
93.9079
 11
-0.621719
 21
93.9214
  0
LINE
  8
0
 10
-0.621719
 20
93.9214
 11
-0.570877
 21
93.9339
  0
LINE
  8
0
 10
-0.570877
 20
93.9339
 11
-0.519775
 21
93.9454
  0
LINE
  8
0
 10
-0.519775
 20
93.9454
 11
-0.468445
 21
93.9557
  0
LINE
  8
0
 10
-0.468445
 20
93.9557
 11
-0.416916
 21
93.965
  0
LINE
  8
0
 10
-0.416916
 20
93.965
 11
-0.365204
 21
93.9732
  0
LINE
  8
0
 10
-0.365204
 20
93.9732
 11
-0.313324
 21
93.9803
  0
LINE
  8
0
 10
-0.313324
 20
93.9803
 11
-0.261307
 21
93.9863
  0
LINE
  8
0
 10
-0.261307
 20
93.9863
 11
-0.209183
 21
93.9912
  0
LINE
  8
0
 10
-0.209183
 20
93.9912
 11
-0.156967
 21
93.9951
  0
LINE
  8
0
 10
-0.156967
 20
93.9951
 11
-0.104675
 21
93.9978
  0
LINE
  8
0
 10
-0.104675
 20
93.9978
 11
-0.0523529
 21
93.9995
  0
LINE
  8
0
 10
-0.0523529
 20
93.9995
 11
0
 21
94
  0
LINE
  8
0
 10
0
 20
94
 11
0.0523529
 21
93.9995
  0
LINE
  8
0
 10
0.0523529
 20
93.9995
 11
0.104675
 21
93.9978
  0
LINE
  8
0
 10
0.104675
 20
93.9978
 11
0.156967
 21
93.9951
  0
LINE
  8
0
 10
0.156967
 20
93.9951
 11
0.209183
 21
93.9912
  0
LINE
  8
0
 10
0.209183
 20
93.9912
 11
0.261307
 21
93.9863
  0
LINE
  8
0
 10
0.261307
 20
93.9863
 11
0.313324
 21
93.9803
  0
LINE
  8
0
 10
0.313324
 20
93.9803
 11
0.365204
 21
93.9732
  0
LINE
  8
0
 10
0.365204
 20
93.9732
 11
0.416916
 21
93.965
  0
LINE
  8
0
 10
0.416916
 20
93.965
 11
0.468445
 21
93.9557
  0
LINE
  8
0
 10
0.468445
 20
93.9557
 11
0.519775
 21
93.9454
  0
LINE
  8
0
 10
0.519775
 20
93.9454
 11
0.570877
 21
93.9339
  0
LINE
  8
0
 10
0.570877
 20
93.9339
 11
0.621719
 21
93.9214
  0
LINE
  8
0
 10
0.621719
 20
93.9214
 11
0.672287
 21
93.9079
  0
LINE
  8
0
 10
0.672287
 20
93.9079
 11
0.722565
 21
93.8933
  0
LINE
  8
0
 10
0.722565
 20
93.8933
 11
0.772537
 21
93.8776
  0
LINE
  8
0
 10
0.772537
 20
93.8776
 11
0.822159
 21
93.8609
  0
LINE
  8
0
 10
0.822159
 20
93.8609
 11
0.871429
 21
93.8432
  0
LINE
  8
0
 10
0.871429
 20
93.8432
 11
0.920303
 21
93.8244
  0
LINE
  8
0
 10
0.920303
 20
93.8244
 11
0.968781
 21
93.8047
  0
LINE
  8
0
 10
0.968781
 20
93.8047
 11
1.01683
 21
93.7839
  0
LINE
  8
0
 10
1.01683
 20
93.7839
 11
1.06444
 21
93.7621
  0
LINE
  8
0
 10
1.06444
 20
93.7621
 11
1.11159
 21
93.7393
  0
LINE
  8
0
 10
1.11159
 20
93.7393
 11
1.15823
 21
93.7155
  0
LINE
  8
0
 10
1.15823
 20
93.7155
 11
1.20438
 21
93.6908
  0
LINE
  8
0
 10
1.20438
 20
93.6908
 11
1.25
 21
93.6651
  0
LINE
  8
0
 10
1.25
 20
93.6651
 11
1.29506
 21
93.6384
  0
LINE
  8
0
 10
1.29506
 20
93.6384
 11
1.33955
 21
93.6108
  0
LINE
  8
0
 10
1.33955
 20
93.6108
 11
1.38347
 21
93.5823
  0
LINE
  8
0
 10
1.38347
 20
93.5823
 11
1.42677
 21
93.5529
  0
LINE
  8
0
 10
1.42677
 20
93.5529
 11
1.46945
 21
93.5225
  0
LINE
  8
0
 10
1.46945
 20
93.5225
 11
1.51149
 21
93.4913
  0
LINE
  8
0
 10
1.51149
 20
93.4913
 11
1.55286
 21
93.4592
  0
LINE
  8
0
 10
1.55286
 20
93.4592
 11
1.59355
 21
93.4263
  0
LINE
  8
0
 10
1.59355
 20
93.4263
 11
1.63354
 21
93.3925
  0
LINE
  8
0
 10
1.63354
 20
93.3925
 11
1.67282
 21
93.3578
  0
LINE
  8
0
 10
1.67282
 20
93.3578
 11
1.71136
 21
93.3224
  0
LINE
  8
0
 10
1.71136
 20
93.3224
 11
1.74915
 21
93.2862
  0
LINE
  8
0
 10
1.74915
 20
93.2862
 11
1.78618
 21
93.2491
  0
LINE
  8
0
 10
1.78618
 20
93.2491
 11
1.82242
 21
93.2114
  0
LINE
  8
0
 10
1.82242
 20
93.2114
 11
1.85785
 21
93.1728
  0
LINE
  8
0
 10
1.85785
 20
93.1728
 11
1.89249
 21
93.1335
  0
LINE
  8
0
 10
1.89249
 20
93.1335
 11
1.92627
 21
93.0936
  0
LINE
  8
0
 10
1.92627
 20
93.0936
 11
1.95923
 21
93.0529
  0
LINE
  8
0
 10
1.95923
 20
93.0529
 11
1.99132
 21
93.0115
  0
LINE
  8
0
 10
1.99132
 20
93.0115
 11
2.02254
 21
92.9695
  0
LINE
  8
0
 10
2.02254
 20
92.9695
 11
2.05287
 21
92.9268
  0
LINE
  8
0
 10
2.05287
 20
92.9268
 11
2.08229
 21
92.8835
  0
LINE
  8
0
 10
2.08229
 20
92.8835
 11
2.11081
 21
92.8396
  0
LINE
  8
0
 10
2.11081
 20
92.8396
 11
2.1384
 21
92.7951
  0
LINE
  8
0
 10
2.1384
 20
92.7951
 11
2.16505
 21
92.75
  0
LINE
  8
0
 10
2.16505
 20
92.75
 11
2.19077
 21
92.7044
  0
LINE
  8
0
 10
2.19077
 20
92.7044
 11
2.2155
 21
92.6582
  0
LINE
  8
0
 10
2.2155
 20
92.6582
 11
2.23927
 21
92.6116
  0
LINE
  8
0
 10
2.23927
 20
92.6116
 11
2.26205
 21
92.5644
  0
LINE
  8
0
 10
2.26205
 20
92.5644
 11
2.28386
 21
92.5168
  0
LINE
  8
0
 10
2.28386
 20
92.5168
 11
2.30466
 21
92.4688
  0
LINE
  8
0
 10
2.30466
 20
92.4688
 11
2.32443
 21
92.4203
  0
LINE
  8
0
 10
2.32443
 20
92.4203
 11
2.3432
 21
92.3714
  0
LINE
  8
0
 10
2.3432
 20
92.3714
 11
2.36093
 21
92.3222
  0
LINE
  8
0
 10
2.36093
 20
92.3222
 11
2.37764
 21
92.2725
  0
LINE
  8
0
 10
2.37764
 20
92.2725
 11
2.3933
 21
92.2226
  0
LINE
  8
0
 10
2.3933
 20
92.2226
 11
2.4079
 21
92.1723
  0
LINE
  8
0
 10
2.4079
 20
92.1723
 11
2.42145
 21
92.1217
  0
LINE
  8
0
 10
2.42145
 20
92.1217
 11
2.43394
 21
92.0709
  0
LINE
  8
0
 10
2.43394
 20
92.0709
 11
2.44536
 21
92.0198
  0
LINE
  8
0
 10
2.44536
 20
92.0198
 11
2.4557
 21
91.9684
  0
LINE
  8
0
 10
2.4557
 20
91.9684
 11
2.46498
 21
91.9169
  0
LINE
  8
0
 10
2.46498
 20
91.9169
 11
2.47318
 21
91.8652
  0
LINE
  8
0
 10
2.47318
 20
91.8652
 11
2.48029
 21
91.8133
  0
LINE
  8
0
 10
2.48029
 20
91.8133
 11
2.4863
 21
91.7613
  0
LINE
  8
0
 10
2.4863
 20
91.7613
 11
2.49123
 21
91.7092
  0
LINE
  8
0
 10
2.49123
 20
91.7092
 11
2.49506
 21
91.657
  0
LINE
  8
0
 10
2.49506
 20
91.657
 11
2.4978
 21
91.6047
  0
LINE
  8
0
 10
2.4978
 20
91.6047
 11
2.49945
 21
91.5524
  0
LINE
  8
0
 10
2.49945
 20
91.5524
 11
2.5
 21
91.5
  0
LINE
  8
0
 10
2.5
 20
91.5
 11
2.49945
 21
91.4476
  0
LINE
  8
0
 10
2.49945
 20
91.4476
 11
2.4978
 21
91.3953
  0
LINE
  8
0
 10
2.4978
 20
91.3953
 11
2.49506
 21
91.343
  0
LINE
  8
0
 10
2.49506
 20
91.343
 11
2.49123
 21
91.2908
  0
LINE
  8
0
 10
2.49123
 20
91.2908
 11
2.4863
 21
91.2387
  0
LINE
  8
0
 10
2.4863
 20
91.2387
 11
2.48029
 21
91.1867
  0
LINE
  8
0
 10
2.48029
 20
91.1867
 11
2.47318
 21
91.1348
  0
LINE
  8
0
 10
2.47318
 20
91.1348
 11
2.46498
 21
91.0831
  0
LINE
  8
0
 10
2.46498
 20
91.0831
 11
2.4557
 21
91.0315
  0
LINE
  8
0
 10
2.4557
 20
91.0315
 11
2.44536
 21
90.9802
  0
LINE
  8
0
 10
2.44536
 20
90.9802
 11
2.43394
 21
90.9291
  0
LINE
  8
0
 10
2.43394
 20
90.9291
 11
2.42145
 21
90.8783
  0
LINE
  8
0
 10
2.42145
 20
90.8783
 11
2.4079
 21
90.8277
  0
LINE
  8
0
 10
2.4079
 20
90.8277
 11
2.3933
 21
90.7774
  0
LINE
  8
0
 10
2.3933
 20
90.7774
 11
2.37764
 21
90.7274
  0
LINE
  8
0
 10
2.37764
 20
90.7274
 11
2.36093
 21
90.6778
  0
LINE
  8
0
 10
2.36093
 20
90.6778
 11
2.3432
 21
90.6286
  0
LINE
  8
0
 10
2.3432
 20
90.6286
 11
2.32443
 21
90.5797
  0
LINE
  8
0
 10
2.32443
 20
90.5797
 11
2.30466
 21
90.5312
  0
LINE
  8
0
 10
2.30466
 20
90.5312
 11
2.28386
 21
90.4832
  0
LINE
  8
0
 10
2.28386
 20
90.4832
 11
2.26205
 21
90.4355
  0
LINE
  8
0
 10
2.26205
 20
90.4355
 11
2.23927
 21
90.3884
  0
LINE
  8
0
 10
2.23927
 20
90.3884
 11
2.2155
 21
90.3418
  0
LINE
  8
0
 10
2.2155
 20
90.3418
 11
2.19077
 21
90.2956
  0
LINE
  8
0
 10
2.19077
 20
90.2956
 11
2.16505
 21
90.25
  0
LINE
  8
0
 10
2.16505
 20
90.25
 11
2.1384
 21
90.2049
  0
LINE
  8
0
 10
2.1384
 20
90.2049
 11
2.11081
 21
90.1604
  0
LINE
  8
0
 10
2.11081
 20
90.1604
 11
2.08229
 21
90.1165
  0
LINE
  8
0
 10
2.08229
 20
90.1165
 11
2.05287
 21
90.0732
  0
LINE
  8
0
 10
2.05287
 20
90.0732
 11
2.02254
 21
90.0305
  0
LINE
  8
0
 10
2.02254
 20
90.0305
 11
1.99132
 21
89.9885
  0
LINE
  8
0
 10
1.99132
 20
89.9885
 11
1.95923
 21
89.9471
  0
LINE
  8
0
 10
1.95923
 20
89.9471
 11
1.92627
 21
89.9064
  0
LINE
  8
0
 10
1.92627
 20
89.9064
 11
1.89249
 21
89.8664
  0
LINE
  8
0
 10
1.89249
 20
89.8664
 11
1.85785
 21
89.8272
  0
LINE
  8
0
 10
1.85785
 20
89.8272
 11
1.82242
 21
89.7886
  0
LINE
  8
0
 10
1.82242
 20
89.7886
 11
1.78618
 21
89.7508
  0
LINE
  8
0
 10
1.78618
 20
89.7508
 11
1.74915
 21
89.7138
  0
LINE
  8
0
 10
1.74915
 20
89.7138
 11
1.71136
 21
89.6776
  0
LINE
  8
0
 10
1.71136
 20
89.6776
 11
1.67282
 21
89.6421
  0
LINE
  8
0
 10
1.67282
 20
89.6421
 11
1.63354
 21
89.6075
  0
LINE
  8
0
 10
1.63354
 20
89.6075
 11
1.59355
 21
89.5737
  0
LINE
  8
0
 10
1.59355
 20
89.5737
 11
1.55286
 21
89.5408
  0
LINE
  8
0
 10
1.55286
 20
89.5408
 11
1.51149
 21
89.5087
  0
LINE
  8
0
 10
1.51149
 20
89.5087
 11
1.46945
 21
89.4774
  0
LINE
  8
0
 10
1.46945
 20
89.4774
 11
1.42677
 21
89.4471
  0
LINE
  8
0
 10
1.42677
 20
89.4471
 11
1.38347
 21
89.4177
  0
LINE
  8
0
 10
1.38347
 20
89.4177
 11
1.33955
 21
89.3892
  0
LINE
  8
0
 10
1.33955
 20
89.3892
 11
1.29506
 21
89.3616
  0
LINE
  8
0
 10
1.29506
 20
89.3616
 11
1.25
 21
89.3349
  0
LINE
  8
0
 10
1.25
 20
89.3349
 11
1.20438
 21
89.3092
  0
LINE
  8
0
 10
1.20438
 20
89.3092
 11
1.15823
 21
89.2845
  0
LINE
  8
0
 10
1.15823
 20
89.2845
 11
1.11159
 21
89.2607
  0
LINE
  8
0
 10
1.11159
 20
89.2607
 11
1.06444
 21
89.2379
  0
LINE
  8
0
 10
1.06444
 20
89.2379
 11
1.01683
 21
89.2161
  0
LINE
  8
0
 10
1.01683
 20
89.2161
 11
0.968781
 21
89.1953
  0
LINE
  8
0
 10
0.968781
 20
89.1953
 11
0.920303
 21
89.1756
  0
LINE
  8
0
 10
0.920303
 20
89.1756
 11
0.871429
 21
89.1568
  0
LINE
  8
0
 10
0.871429
 20
89.1568
 11
0.822159
 21
89.1391
  0
LINE
  8
0
 10
0.822159
 20
89.1391
 11
0.772537
 21
89.1223
  0
LINE
  8
0
 10
0.772537
 20
89.1223
 11
0.722565
 21
89.1067
  0
LINE
  8
0
 10
0.722565
 20
89.1067
 11
0.672287
 21
89.0921
  0
LINE
  8
0
 10
0.672287
 20
89.0921
 11
0.621719
 21
89.0785
  0
LINE
  8
0
 10
0.621719
 20
89.0785
 11
0.570877
 21
89.066
  0
LINE
  8
0
 10
0.570877
 20
89.066
 11
0.519775
 21
89.0546
  0
LINE
  8
0
 10
0.519775
 20
89.0546
 11
0.468445
 21
89.0443
  0
LINE
  8
0
 10
0.468445
 20
89.0443
 11
0.416916
 21
89.035
  0
LINE
  8
0
 10
0.416916
 20
89.035
 11
0.365204
 21
89.0268
  0
LINE
  8
0
 10
0.365204
 20
89.0268
 11
0.313324
 21
89.0197
  0
LINE
  8
0
 10
0.313324
 20
89.0197
 11
0.261307
 21
89.0137
  0
LINE
  8
0
 10
0.261307
 20
89.0137
 11
0.209183
 21
89.0088
  0
LINE
  8
0
 10
0.209183
 20
89.0088
 11
0.156967
 21
89.0049
  0
LINE
  8
0
 10
0.156967
 20
89.0049
 11
0.104675
 21
89.0022
  0
LINE
  8
0
 10
0.104675
 20
89.0022
 11
0.0523529
 21
89.0005
  0
LINE
  8
0
 10
0.0523529
 20
89.0005
 11
0
 21
89
  0
LINE
  8
0
 10
0
 20
89
 11
-0.0523529
 21
89.0005
  0
LINE
  8
0
 10
64.6741
 20
62.2004
 11
64.6217
 21
62.2015
  0
LINE
  8
0
 10
64.6217
 20
62.2015
 11
64.5694
 21
62.2037
  0
LINE
  8
0
 10
64.5694
 20
62.2037
 11
64.5172
 21
62.207
  0
LINE
  8
0
 10
64.5172
 20
62.207
 11
64.465
 21
62.2114
  0
LINE
  8
0
 10
64.465
 20
62.2114
 11
64.4129
 21
62.2168
  0
LINE
  8
0
 10
64.4129
 20
62.2168
 11
64.361
 21
62.2234
  0
LINE
  8
0
 10
64.361
 20
62.2234
 11
64.3092
 21
62.231
  0
LINE
  8
0
 10
64.3092
 20
62.231
 11
64.2576
 21
62.2398
  0
LINE
  8
0
 10
64.2576
 20
62.2398
 11
64.2061
 21
62.2496
  0
LINE
  8
0
 10
64.2061
 20
62.2496
 11
64.1549
 21
62.2605
  0
LINE
  8
0
 10
64.1549
 20
62.2605
 11
64.1039
 21
62.2724
  0
LINE
  8
0
 10
64.1039
 20
62.2724
 11
64.0532
 21
62.2854
  0
LINE
  8
0
 10
64.0532
 20
62.2854
 11
64.0028
 21
62.2995
  0
LINE
  8
0
 10
64.0028
 20
62.2995
 11
63.9527
 21
62.3147
  0
LINE
  8
0
 10
63.9527
 20
62.3147
 11
63.9029
 21
62.3308
  0
LINE
  8
0
 10
63.9029
 20
62.3308
 11
63.8534
 21
62.3481
  0
LINE
  8
0
 10
63.8534
 20
62.3481
 11
63.8043
 21
62.3663
  0
LINE
  8
0
 10
63.8043
 20
62.3663
 11
63.7557
 21
62.3856
  0
LINE
  8
0
 10
63.7557
 20
62.3856
 11
63.7074
 21
62.4059
  0
LINE
  8
0
 10
63.7074
 20
62.4059
 11
63.6596
 21
62.4272
  0
LINE
  8
0
 10
63.6596
 20
62.4272
 11
63.6122
 21
62.4495
  0
LINE
  8
0
 10
63.6122
 20
62.4495
 11
63.5653
 21
62.4727
  0
LINE
  8
0
 10
63.5653
 20
62.4727
 11
63.5189
 21
62.497
  0
LINE
  8
0
 10
63.5189
 20
62.497
 11
63.473
 21
62.5222
  0
LINE
  8
0
 10
63.473
 20
62.5222
 11
63.4277
 21
62.5484
  0
LINE
  8
0
 10
63.4277
 20
62.5484
 11
63.3829
 21
62.5755
  0
LINE
  8
0
 10
63.3829
 20
62.5755
 11
63.3387
 21
62.6036
  0
LINE
  8
0
 10
63.3387
 20
62.6036
 11
63.2951
 21
62.6326
  0
LINE
  8
0
 10
63.2951
 20
62.6326
 11
63.2521
 21
62.6624
  0
LINE
  8
0
 10
63.2521
 20
62.6624
 11
63.2097
 21
62.6932
  0
LINE
  8
0
 10
63.2097
 20
62.6932
 11
63.168
 21
62.7249
  0
LINE
  8
0
 10
63.168
 20
62.7249
 11
63.127
 21
62.7574
  0
LINE
  8
0
 10
63.127
 20
62.7574
 11
63.0866
 21
62.7908
  0
LINE
  8
0
 10
63.0866
 20
62.7908
 11
63.047
 21
62.825
  0
LINE
  8
0
 10
63.047
 20
62.825
 11
63.0081
 21
62.86
  0
LINE
  8
0
 10
63.0081
 20
62.86
 11
62.9699
 21
62.8959
  0
LINE
  8
0
 10
62.9699
 20
62.8959
 11
62.9325
 21
62.9325
  0
LINE
  8
0
 10
62.9325
 20
62.9325
 11
62.8959
 21
62.9699
  0
LINE
  8
0
 10
62.8959
 20
62.9699
 11
62.86
 21
63.0081
  0
LINE
  8
0
 10
62.86
 20
63.0081
 11
62.825
 21
63.047
  0
LINE
  8
0
 10
62.825
 20
63.047
 11
62.7908
 21
63.0866
  0
LINE
  8
0
 10
62.7908
 20
63.0866
 11
62.7574
 21
63.127
  0
LINE
  8
0
 10
62.7574
 20
63.127
 11
62.7249
 21
63.168
  0
LINE
  8
0
 10
62.7249
 20
63.168
 11
62.6932
 21
63.2097
  0
LINE
  8
0
 10
62.6932
 20
63.2097
 11
62.6624
 21
63.2521
  0
LINE
  8
0
 10
62.6624
 20
63.2521
 11
62.6326
 21
63.2951
  0
LINE
  8
0
 10
62.6326
 20
63.2951
 11
62.6036
 21
63.3387
  0
LINE
  8
0
 10
62.6036
 20
63.3387
 11
62.5755
 21
63.3829
  0
LINE
  8
0
 10
62.5755
 20
63.3829
 11
62.5484
 21
63.4277
  0
LINE
  8
0
 10
62.5484
 20
63.4277
 11
62.5222
 21
63.473
  0
LINE
  8
0
 10
62.5222
 20
63.473
 11
62.497
 21
63.5189
  0
LINE
  8
0
 10
62.497
 20
63.5189
 11
62.4727
 21
63.5653
  0
LINE
  8
0
 10
62.4727
 20
63.5653
 11
62.4495
 21
63.6122
  0
LINE
  8
0
 10
62.4495
 20
63.6122
 11
62.4272
 21
63.6596
  0
LINE
  8
0
 10
62.4272
 20
63.6596
 11
62.4059
 21
63.7074
  0
LINE
  8
0
 10
62.4059
 20
63.7074
 11
62.3856
 21
63.7557
  0
LINE
  8
0
 10
62.3856
 20
63.7557
 11
62.3663
 21
63.8043
  0
LINE
  8
0
 10
62.3663
 20
63.8043
 11
62.3481
 21
63.8534
  0
LINE
  8
0
 10
62.3481
 20
63.8534
 11
62.3308
 21
63.9029
  0
LINE
  8
0
 10
62.3308
 20
63.9029
 11
62.3147
 21
63.9527
  0
LINE
  8
0
 10
62.3147
 20
63.9527
 11
62.2995
 21
64.0028
  0
LINE
  8
0
 10
62.2995
 20
64.0028
 11
62.2854
 21
64.0532
  0
LINE
  8
0
 10
62.2854
 20
64.0532
 11
62.2724
 21
64.1039
  0
LINE
  8
0
 10
62.2724
 20
64.1039
 11
62.2605
 21
64.1549
  0
LINE
  8
0
 10
62.2605
 20
64.1549
 11
62.2496
 21
64.2061
  0
LINE
  8
0
 10
62.2496
 20
64.2061
 11
62.2398
 21
64.2576
  0
LINE
  8
0
 10
62.2398
 20
64.2576
 11
62.231
 21
64.3092
  0
LINE
  8
0
 10
62.231
 20
64.3092
 11
62.2234
 21
64.361
  0
LINE
  8
0
 10
62.2234
 20
64.361
 11
62.2168
 21
64.4129
  0
LINE
  8
0
 10
62.2168
 20
64.4129
 11
62.2114
 21
64.465
  0
LINE
  8
0
 10
62.2114
 20
64.465
 11
62.207
 21
64.5172
  0
LINE
  8
0
 10
62.207
 20
64.5172
 11
62.2037
 21
64.5694
  0
LINE
  8
0
 10
62.2037
 20
64.5694
 11
62.2015
 21
64.6217
  0
LINE
  8
0
 10
62.2015
 20
64.6217
 11
62.2004
 21
64.6741
  0
LINE
  8
0
 10
62.2004
 20
64.6741
 11
62.2004
 21
64.7264
  0
LINE
  8
0
 10
62.2004
 20
64.7264
 11
62.2015
 21
64.7788
  0
LINE
  8
0
 10
62.2015
 20
64.7788
 11
62.2037
 21
64.8311
  0
LINE
  8
0
 10
62.2037
 20
64.8311
 11
62.207
 21
64.8834
  0
LINE
  8
0
 10
62.207
 20
64.8834
 11
62.2114
 21
64.9355
  0
LINE
  8
0
 10
62.2114
 20
64.9355
 11
62.2168
 21
64.9876
  0
LINE
  8
0
 10
62.2168
 20
64.9876
 11
62.2234
 21
65.0396
  0
LINE
  8
0
 10
62.2234
 20
65.0396
 11
62.231
 21
65.0914
  0
LINE
  8
0
 10
62.231
 20
65.0914
 11
62.2398
 21
65.143
  0
LINE
  8
0
 10
62.2398
 20
65.143
 11
62.2496
 21
65.1944
  0
LINE
  8
0
 10
62.2496
 20
65.1944
 11
62.2605
 21
65.2456
  0
LINE
  8
0
 10
62.2605
 20
65.2456
 11
62.2724
 21
65.2966
  0
LINE
  8
0
 10
62.2724
 20
65.2966
 11
62.2854
 21
65.3473
  0
LINE
  8
0
 10
62.2854
 20
65.3473
 11
62.2995
 21
65.3977
  0
LINE
  8
0
 10
62.2995
 20
65.3977
 11
62.3147
 21
65.4479
  0
LINE
  8
0
 10
62.3147
 20
65.4479
 11
62.3308
 21
65.4977
  0
LINE
  8
0
 10
62.3308
 20
65.4977
 11
62.3481
 21
65.5471
  0
LINE
  8
0
 10
62.3481
 20
65.5471
 11
62.3663
 21
65.5962
  0
LINE
  8
0
 10
62.3663
 20
65.5962
 11
62.3856
 21
65.6449
  0
LINE
  8
0
 10
62.3856
 20
65.6449
 11
62.4059
 21
65.6931
  0
LINE
  8
0
 10
62.4059
 20
65.6931
 11
62.4272
 21
65.741
  0
LINE
  8
0
 10
62.4272
 20
65.741
 11
62.4495
 21
65.7883
  0
LINE
  8
0
 10
62.4495
 20
65.7883
 11
62.4727
 21
65.8352
  0
LINE
  8
0
 10
62.4727
 20
65.8352
 11
62.497
 21
65.8816
  0
LINE
  8
0
 10
62.497
 20
65.8816
 11
62.5222
 21
65.9275
  0
LINE
  8
0
 10
62.5222
 20
65.9275
 11
62.5484
 21
65.9729
  0
LINE
  8
0
 10
62.5484
 20
65.9729
 11
62.5755
 21
66.0177
  0
LINE
  8
0
 10
62.5755
 20
66.0177
 11
62.6036
 21
66.0619
  0
LINE
  8
0
 10
62.6036
 20
66.0619
 11
62.6326
 21
66.1055
  0
LINE
  8
0
 10
62.6326
 20
66.1055
 11
62.6624
 21
66.1485
  0
LINE
  8
0
 10
62.6624
 20
66.1485
 11
62.6932
 21
66.1908
  0
LINE
  8
0
 10
62.6932
 20
66.1908
 11
62.7249
 21
66.2325
  0
LINE
  8
0
 10
62.7249
 20
66.2325
 11
62.7574
 21
66.2736
  0
LINE
  8
0
 10
62.7574
 20
66.2736
 11
62.7908
 21
66.3139
  0
LINE
  8
0
 10
62.7908
 20
66.3139
 11
62.825
 21
66.3535
  0
LINE
  8
0
 10
62.825
 20
66.3535
 11
62.86
 21
66.3925
  0
LINE
  8
0
 10
62.86
 20
66.3925
 11
62.8959
 21
66.4306
  0
LINE
  8
0
 10
62.8959
 20
66.4306
 11
62.9325
 21
66.468
  0
LINE
  8
0
 10
62.9325
 20
66.468
 11
62.9699
 21
66.5047
  0
LINE
  8
0
 10
62.9699
 20
66.5047
 11
63.0081
 21
66.5405
  0
LINE
  8
0
 10
63.0081
 20
66.5405
 11
63.047
 21
66.5755
  0
LINE
  8
0
 10
63.047
 20
66.5755
 11
63.0866
 21
66.6098
  0
LINE
  8
0
 10
63.0866
 20
66.6098
 11
63.127
 21
66.6431
  0
LINE
  8
0
 10
63.127
 20
66.6431
 11
63.168
 21
66.6756
  0
LINE
  8
0
 10
63.168
 20
66.6756
 11
63.2097
 21
66.7073
  0
LINE
  8
0
 10
63.2097
 20
66.7073
 11
63.2521
 21
66.7381
  0
LINE
  8
0
 10
63.2521
 20
66.7381
 11
63.2951
 21
66.768
  0
LINE
  8
0
 10
63.2951
 20
66.768
 11
63.3387
 21
66.7969
  0
LINE
  8
0
 10
63.3387
 20
66.7969
 11
63.3829
 21
66.825
  0
LINE
  8
0
 10
63.3829
 20
66.825
 11
63.4277
 21
66.8521
  0
LINE
  8
0
 10
63.4277
 20
66.8521
 11
63.473
 21
66.8783
  0
LINE
  8
0
 10
63.473
 20
66.8783
 11
63.5189
 21
66.9035
  0
LINE
  8
0
 10
63.5189
 20
66.9035
 11
63.5653
 21
66.9278
  0
LINE
  8
0
 10
63.5653
 20
66.9278
 11
63.6122
 21
66.9511
  0
LINE
  8
0
 10
63.6122
 20
66.9511
 11
63.6596
 21
66.9734
  0
LINE
  8
0
 10
63.6596
 20
66.9734
 11
63.7074
 21
66.9946
  0
LINE
  8
0
 10
63.7074
 20
66.9946
 11
63.7557
 21
67.0149
  0
LINE
  8
0
 10
63.7557
 20
67.0149
 11
63.8043
 21
67.0342
  0
LINE
  8
0
 10
63.8043
 20
67.0342
 11
63.8534
 21
67.0525
  0
LINE
  8
0
 10
63.8534
 20
67.0525
 11
63.9029
 21
67.0697
  0
LINE
  8
0
 10
63.9029
 20
67.0697
 11
63.9527
 21
67.0859
  0
LINE
  8
0
 10
63.9527
 20
67.0859
 11
64.0028
 21
67.101
  0
LINE
  8
0
 10
64.0028
 20
67.101
 11
64.0532
 21
67.1151
  0
LINE
  8
0
 10
64.0532
 20
67.1151
 11
64.1039
 21
67.1281
  0
LINE
  8
0
 10
64.1039
 20
67.1281
 11
64.1549
 21
67.1401
  0
LINE
  8
0
 10
64.1549
 20
67.1401
 11
64.2061
 21
67.1509
  0
LINE
  8
0
 10
64.2061
 20
67.1509
 11
64.2576
 21
67.1608
  0
LINE
  8
0
 10
64.2576
 20
67.1608
 11
64.3092
 21
67.1695
  0
LINE
  8
0
 10
64.3092
 20
67.1695
 11
64.361
 21
67.1771
  0
LINE
  8
0
 10
64.361
 20
67.1771
 11
64.4129
 21
67.1837
  0
LINE
  8
0
 10
64.4129
 20
67.1837
 11
64.465
 21
67.1892
  0
LINE
  8
0
 10
64.465
 20
67.1892
 11
64.5172
 21
67.1935
  0
LINE
  8
0
 10
64.5172
 20
67.1935
 11
64.5694
 21
67.1968
  0
LINE
  8
0
 10
64.5694
 20
67.1968
 11
64.6217
 21
67.199
  0
LINE
  8
0
 10
64.6217
 20
67.199
 11
64.6741
 21
67.2001
  0
LINE
  8
0
 10
64.6741
 20
67.2001
 11
64.7264
 21
67.2001
  0
LINE
  8
0
 10
64.7264
 20
67.2001
 11
64.7788
 21
67.199
  0
LINE
  8
0
 10
64.7788
 20
67.199
 11
64.8311
 21
67.1968
  0
LINE
  8
0
 10
64.8311
 20
67.1968
 11
64.8834
 21
67.1935
  0
LINE
  8
0
 10
64.8834
 20
67.1935
 11
64.9355
 21
67.1892
  0
LINE
  8
0
 10
64.9355
 20
67.1892
 11
64.9876
 21
67.1837
  0
LINE
  8
0
 10
64.9876
 20
67.1837
 11
65.0396
 21
67.1771
  0
LINE
  8
0
 10
65.0396
 20
67.1771
 11
65.0914
 21
67.1695
  0
LINE
  8
0
 10
65.0914
 20
67.1695
 11
65.143
 21
67.1608
  0
LINE
  8
0
 10
65.143
 20
67.1608
 11
65.1944
 21
67.1509
  0
LINE
  8
0
 10
65.1944
 20
67.1509
 11
65.2456
 21
67.1401
  0
LINE
  8
0
 10
65.2456
 20
67.1401
 11
65.2966
 21
67.1281
  0
LINE
  8
0
 10
65.2966
 20
67.1281
 11
65.3473
 21
67.1151
  0
LINE
  8
0
 10
65.3473
 20
67.1151
 11
65.3977
 21
67.101
  0
LINE
  8
0
 10
65.3977
 20
67.101
 11
65.4479
 21
67.0859
  0
LINE
  8
0
 10
65.4479
 20
67.0859
 11
65.4977
 21
67.0697
  0
LINE
  8
0
 10
65.4977
 20
67.0697
 11
65.5471
 21
67.0525
  0
LINE
  8
0
 10
65.5471
 20
67.0525
 11
65.5962
 21
67.0342
  0
LINE
  8
0
 10
65.5962
 20
67.0342
 11
65.6449
 21
67.0149
  0
LINE
  8
0
 10
65.6449
 20
67.0149
 11
65.6931
 21
66.9946
  0
LINE
  8
0
 10
65.6931
 20
66.9946
 11
65.741
 21
66.9734
  0
LINE
  8
0
 10
65.741
 20
66.9734
 11
65.7883
 21
66.9511
  0
LINE
  8
0
 10
65.7883
 20
66.9511
 11
65.8352
 21
66.9278
  0
LINE
  8
0
 10
65.8352
 20
66.9278
 11
65.8816
 21
66.9035
  0
LINE
  8
0
 10
65.8816
 20
66.9035
 11
65.9275
 21
66.8783
  0
LINE
  8
0
 10
65.9275
 20
66.8783
 11
65.9729
 21
66.8521
  0
LINE
  8
0
 10
65.9729
 20
66.8521
 11
66.0177
 21
66.825
  0
LINE
  8
0
 10
66.0177
 20
66.825
 11
66.0619
 21
66.7969
  0
LINE
  8
0
 10
66.0619
 20
66.7969
 11
66.1055
 21
66.768
  0
LINE
  8
0
 10
66.1055
 20
66.768
 11
66.1485
 21
66.7381
  0
LINE
  8
0
 10
66.1485
 20
66.7381
 11
66.1908
 21
66.7073
  0
LINE
  8
0
 10
66.1908
 20
66.7073
 11
66.2325
 21
66.6756
  0
LINE
  8
0
 10
66.2325
 20
66.6756
 11
66.2736
 21
66.6431
  0
LINE
  8
0
 10
66.2736
 20
66.6431
 11
66.3139
 21
66.6098
  0
LINE
  8
0
 10
66.3139
 20
66.6098
 11
66.3535
 21
66.5755
  0
LINE
  8
0
 10
66.3535
 20
66.5755
 11
66.3925
 21
66.5405
  0
LINE
  8
0
 10
66.3925
 20
66.5405
 11
66.4306
 21
66.5047
  0
LINE
  8
0
 10
66.4306
 20
66.5047
 11
66.468
 21
66.468
  0
LINE
  8
0
 10
66.468
 20
66.468
 11
66.5047
 21
66.4306
  0
LINE
  8
0
 10
66.5047
 20
66.4306
 11
66.5405
 21
66.3925
  0
LINE
  8
0
 10
66.5405
 20
66.3925
 11
66.5755
 21
66.3535
  0
LINE
  8
0
 10
66.5755
 20
66.3535
 11
66.6098
 21
66.3139
  0
LINE
  8
0
 10
66.6098
 20
66.3139
 11
66.6431
 21
66.2736
  0
LINE
  8
0
 10
66.6431
 20
66.2736
 11
66.6756
 21
66.2325
  0
LINE
  8
0
 10
66.6756
 20
66.2325
 11
66.7073
 21
66.1908
  0
LINE
  8
0
 10
66.7073
 20
66.1908
 11
66.7381
 21
66.1485
  0
LINE
  8
0
 10
66.7381
 20
66.1485
 11
66.768
 21
66.1055
  0
LINE
  8
0
 10
66.768
 20
66.1055
 11
66.7969
 21
66.0619
  0
LINE
  8
0
 10
66.7969
 20
66.0619
 11
66.825
 21
66.0177
  0
LINE
  8
0
 10
66.825
 20
66.0177
 11
66.8521
 21
65.9729
  0
LINE
  8
0
 10
66.8521
 20
65.9729
 11
66.8783
 21
65.9275
  0
LINE
  8
0
 10
66.8783
 20
65.9275
 11
66.9035
 21
65.8816
  0
LINE
  8
0
 10
66.9035
 20
65.8816
 11
66.9278
 21
65.8352
  0
LINE
  8
0
 10
66.9278
 20
65.8352
 11
66.9511
 21
65.7883
  0
LINE
  8
0
 10
66.9511
 20
65.7883
 11
66.9734
 21
65.741
  0
LINE
  8
0
 10
66.9734
 20
65.741
 11
66.9946
 21
65.6931
  0
LINE
  8
0
 10
66.9946
 20
65.6931
 11
67.0149
 21
65.6449
  0
LINE
  8
0
 10
67.0149
 20
65.6449
 11
67.0342
 21
65.5962
  0
LINE
  8
0
 10
67.0342
 20
65.5962
 11
67.0525
 21
65.5471
  0
LINE
  8
0
 10
67.0525
 20
65.5471
 11
67.0697
 21
65.4977
  0
LINE
  8
0
 10
67.0697
 20
65.4977
 11
67.0859
 21
65.4479
  0
LINE
  8
0
 10
67.0859
 20
65.4479
 11
67.101
 21
65.3977
  0
LINE
  8
0
 10
67.101
 20
65.3977
 11
67.1151
 21
65.3473
  0
LINE
  8
0
 10
67.1151
 20
65.3473
 11
67.1281
 21
65.2966
  0
LINE
  8
0
 10
67.1281
 20
65.2966
 11
67.1401
 21
65.2456
  0
LINE
  8
0
 10
67.1401
 20
65.2456
 11
67.1509
 21
65.1944
  0
LINE
  8
0
 10
67.1509
 20
65.1944
 11
67.1608
 21
65.143
  0
LINE
  8
0
 10
67.1608
 20
65.143
 11
67.1695
 21
65.0914
  0
LINE
  8
0
 10
67.1695
 20
65.0914
 11
67.1771
 21
65.0396
  0
LINE
  8
0
 10
67.1771
 20
65.0396
 11
67.1837
 21
64.9876
  0
LINE
  8
0
 10
67.1837
 20
64.9876
 11
67.1892
 21
64.9355
  0
LINE
  8
0
 10
67.1892
 20
64.9355
 11
67.1935
 21
64.8834
  0
LINE
  8
0
 10
67.1935
 20
64.8834
 11
67.1968
 21
64.8311
  0
LINE
  8
0
 10
67.1968
 20
64.8311
 11
67.199
 21
64.7788
  0
LINE
  8
0
 10
67.199
 20
64.7788
 11
67.2001
 21
64.7264
  0
LINE
  8
0
 10
67.2001
 20
64.7264
 11
67.2001
 21
64.6741
  0
LINE
  8
0
 10
67.2001
 20
64.6741
 11
67.199
 21
64.6217
  0
LINE
  8
0
 10
67.199
 20
64.6217
 11
67.1968
 21
64.5694
  0
LINE
  8
0
 10
67.1968
 20
64.5694
 11
67.1935
 21
64.5172
  0
LINE
  8
0
 10
67.1935
 20
64.5172
 11
67.1892
 21
64.465
  0
LINE
  8
0
 10
67.1892
 20
64.465
 11
67.1837
 21
64.4129
  0
LINE
  8
0
 10
67.1837
 20
64.4129
 11
67.1771
 21
64.361
  0
LINE
  8
0
 10
67.1771
 20
64.361
 11
67.1695
 21
64.3092
  0
LINE
  8
0
 10
67.1695
 20
64.3092
 11
67.1608
 21
64.2576
  0
LINE
  8
0
 10
67.1608
 20
64.2576
 11
67.1509
 21
64.2061
  0
LINE
  8
0
 10
67.1509
 20
64.2061
 11
67.1401
 21
64.1549
  0
LINE
  8
0
 10
67.1401
 20
64.1549
 11
67.1281
 21
64.1039
  0
LINE
  8
0
 10
67.1281
 20
64.1039
 11
67.1151
 21
64.0532
  0
LINE
  8
0
 10
67.1151
 20
64.0532
 11
67.101
 21
64.0028
  0
LINE
  8
0
 10
67.101
 20
64.0028
 11
67.0859
 21
63.9527
  0
LINE
  8
0
 10
67.0859
 20
63.9527
 11
67.0697
 21
63.9029
  0
LINE
  8
0
 10
67.0697
 20
63.9029
 11
67.0525
 21
63.8534
  0
LINE
  8
0
 10
67.0525
 20
63.8534
 11
67.0342
 21
63.8043
  0
LINE
  8
0
 10
67.0342
 20
63.8043
 11
67.0149
 21
63.7557
  0
LINE
  8
0
 10
67.0149
 20
63.7557
 11
66.9946
 21
63.7074
  0
LINE
  8
0
 10
66.9946
 20
63.7074
 11
66.9734
 21
63.6596
  0
LINE
  8
0
 10
66.9734
 20
63.6596
 11
66.9511
 21
63.6122
  0
LINE
  8
0
 10
66.9511
 20
63.6122
 11
66.9278
 21
63.5653
  0
LINE
  8
0
 10
66.9278
 20
63.5653
 11
66.9035
 21
63.5189
  0
LINE
  8
0
 10
66.9035
 20
63.5189
 11
66.8783
 21
63.473
  0
LINE
  8
0
 10
66.8783
 20
63.473
 11
66.8521
 21
63.4277
  0
LINE
  8
0
 10
66.8521
 20
63.4277
 11
66.825
 21
63.3829
  0
LINE
  8
0
 10
66.825
 20
63.3829
 11
66.7969
 21
63.3387
  0
LINE
  8
0
 10
66.7969
 20
63.3387
 11
66.768
 21
63.2951
  0
LINE
  8
0
 10
66.768
 20
63.2951
 11
66.7381
 21
63.2521
  0
LINE
  8
0
 10
66.7381
 20
63.2521
 11
66.7073
 21
63.2097
  0
LINE
  8
0
 10
66.7073
 20
63.2097
 11
66.6756
 21
63.168
  0
LINE
  8
0
 10
66.6756
 20
63.168
 11
66.6431
 21
63.127
  0
LINE
  8
0
 10
66.6431
 20
63.127
 11
66.6098
 21
63.0866
  0
LINE
  8
0
 10
66.6098
 20
63.0866
 11
66.5755
 21
63.047
  0
LINE
  8
0
 10
66.5755
 20
63.047
 11
66.5405
 21
63.0081
  0
LINE
  8
0
 10
66.5405
 20
63.0081
 11
66.5047
 21
62.9699
  0
LINE
  8
0
 10
66.5047
 20
62.9699
 11
66.468
 21
62.9325
  0
LINE
  8
0
 10
66.468
 20
62.9325
 11
66.4306
 21
62.8959
  0
LINE
  8
0
 10
66.4306
 20
62.8959
 11
66.3925
 21
62.86
  0
LINE
  8
0
 10
66.3925
 20
62.86
 11
66.3535
 21
62.825
  0
LINE
  8
0
 10
66.3535
 20
62.825
 11
66.3139
 21
62.7908
  0
LINE
  8
0
 10
66.3139
 20
62.7908
 11
66.2736
 21
62.7574
  0
LINE
  8
0
 10
66.2736
 20
62.7574
 11
66.2325
 21
62.7249
  0
LINE
  8
0
 10
66.2325
 20
62.7249
 11
66.1908
 21
62.6932
  0
LINE
  8
0
 10
66.1908
 20
62.6932
 11
66.1485
 21
62.6624
  0
LINE
  8
0
 10
66.1485
 20
62.6624
 11
66.1055
 21
62.6326
  0
LINE
  8
0
 10
66.1055
 20
62.6326
 11
66.0619
 21
62.6036
  0
LINE
  8
0
 10
66.0619
 20
62.6036
 11
66.0177
 21
62.5755
  0
LINE
  8
0
 10
66.0177
 20
62.5755
 11
65.9729
 21
62.5484
  0
LINE
  8
0
 10
65.9729
 20
62.5484
 11
65.9275
 21
62.5222
  0
LINE
  8
0
 10
65.9275
 20
62.5222
 11
65.8816
 21
62.497
  0
LINE
  8
0
 10
65.8816
 20
62.497
 11
65.8352
 21
62.4727
  0
LINE
  8
0
 10
65.8352
 20
62.4727
 11
65.7883
 21
62.4495
  0
LINE
  8
0
 10
65.7883
 20
62.4495
 11
65.741
 21
62.4272
  0
LINE
  8
0
 10
65.741
 20
62.4272
 11
65.6931
 21
62.4059
  0
LINE
  8
0
 10
65.6931
 20
62.4059
 11
65.6449
 21
62.3856
  0
LINE
  8
0
 10
65.6449
 20
62.3856
 11
65.5962
 21
62.3663
  0
LINE
  8
0
 10
65.5962
 20
62.3663
 11
65.5471
 21
62.3481
  0
LINE
  8
0
 10
65.5471
 20
62.3481
 11
65.4977
 21
62.3308
  0
LINE
  8
0
 10
65.4977
 20
62.3308
 11
65.4479
 21
62.3147
  0
LINE
  8
0
 10
65.4479
 20
62.3147
 11
65.3977
 21
62.2995
  0
LINE
  8
0
 10
65.3977
 20
62.2995
 11
65.3473
 21
62.2854
  0
LINE
  8
0
 10
65.3473
 20
62.2854
 11
65.2966
 21
62.2724
  0
LINE
  8
0
 10
65.2966
 20
62.2724
 11
65.2456
 21
62.2605
  0
LINE
  8
0
 10
65.2456
 20
62.2605
 11
65.1944
 21
62.2496
  0
LINE
  8
0
 10
65.1944
 20
62.2496
 11
65.143
 21
62.2398
  0
LINE
  8
0
 10
65.143
 20
62.2398
 11
65.0914
 21
62.231
  0
LINE
  8
0
 10
65.0914
 20
62.231
 11
65.0396
 21
62.2234
  0
LINE
  8
0
 10
65.0396
 20
62.2234
 11
64.9876
 21
62.2168
  0
LINE
  8
0
 10
64.9876
 20
62.2168
 11
64.9355
 21
62.2114
  0
LINE
  8
0
 10
64.9355
 20
62.2114
 11
64.8834
 21
62.207
  0
LINE
  8
0
 10
64.8834
 20
62.207
 11
64.8311
 21
62.2037
  0
LINE
  8
0
 10
64.8311
 20
62.2037
 11
64.7788
 21
62.2015
  0
LINE
  8
0
 10
64.7788
 20
62.2015
 11
64.7264
 21
62.2004
  0
LINE
  8
0
 10
64.7264
 20
62.2004
 11
64.6741
 21
62.2004
  0
LINE
  8
0
 10
-64.7264
 20
62.2004
 11
-64.7788
 21
62.2015
  0
LINE
  8
0
 10
-64.7788
 20
62.2015
 11
-64.8311
 21
62.2037
  0
LINE
  8
0
 10
-64.8311
 20
62.2037
 11
-64.8834
 21
62.207
  0
LINE
  8
0
 10
-64.8834
 20
62.207
 11
-64.9355
 21
62.2114
  0
LINE
  8
0
 10
-64.9355
 20
62.2114
 11
-64.9876
 21
62.2168
  0
LINE
  8
0
 10
-64.9876
 20
62.2168
 11
-65.0396
 21
62.2234
  0
LINE
  8
0
 10
-65.0396
 20
62.2234
 11
-65.0914
 21
62.231
  0
LINE
  8
0
 10
-65.0914
 20
62.231
 11
-65.143
 21
62.2398
  0
LINE
  8
0
 10
-65.143
 20
62.2398
 11
-65.1944
 21
62.2496
  0
LINE
  8
0
 10
-65.1944
 20
62.2496
 11
-65.2456
 21
62.2605
  0
LINE
  8
0
 10
-65.2456
 20
62.2605
 11
-65.2966
 21
62.2724
  0
LINE
  8
0
 10
-65.2966
 20
62.2724
 11
-65.3473
 21
62.2854
  0
LINE
  8
0
 10
-65.3473
 20
62.2854
 11
-65.3977
 21
62.2995
  0
LINE
  8
0
 10
-65.3977
 20
62.2995
 11
-65.4479
 21
62.3147
  0
LINE
  8
0
 10
-65.4479
 20
62.3147
 11
-65.4977
 21
62.3308
  0
LINE
  8
0
 10
-65.4977
 20
62.3308
 11
-65.5471
 21
62.3481
  0
LINE
  8
0
 10
-65.5471
 20
62.3481
 11
-65.5962
 21
62.3663
  0
LINE
  8
0
 10
-65.5962
 20
62.3663
 11
-65.6449
 21
62.3856
  0
LINE
  8
0
 10
-65.6449
 20
62.3856
 11
-65.6931
 21
62.4059
  0
LINE
  8
0
 10
-65.6931
 20
62.4059
 11
-65.741
 21
62.4272
  0
LINE
  8
0
 10
-65.741
 20
62.4272
 11
-65.7883
 21
62.4495
  0
LINE
  8
0
 10
-65.7883
 20
62.4495
 11
-65.8352
 21
62.4727
  0
LINE
  8
0
 10
-65.8352
 20
62.4727
 11
-65.8816
 21
62.497
  0
LINE
  8
0
 10
-65.8816
 20
62.497
 11
-65.9275
 21
62.5222
  0
LINE
  8
0
 10
-65.9275
 20
62.5222
 11
-65.9729
 21
62.5484
  0
LINE
  8
0
 10
-65.9729
 20
62.5484
 11
-66.0177
 21
62.5755
  0
LINE
  8
0
 10
-66.0177
 20
62.5755
 11
-66.0619
 21
62.6036
  0
LINE
  8
0
 10
-66.0619
 20
62.6036
 11
-66.1055
 21
62.6326
  0
LINE
  8
0
 10
-66.1055
 20
62.6326
 11
-66.1485
 21
62.6624
  0
LINE
  8
0
 10
-66.1485
 20
62.6624
 11
-66.1908
 21
62.6932
  0
LINE
  8
0
 10
-66.1908
 20
62.6932
 11
-66.2325
 21
62.7249
  0
LINE
  8
0
 10
-66.2325
 20
62.7249
 11
-66.2736
 21
62.7574
  0
LINE
  8
0
 10
-66.2736
 20
62.7574
 11
-66.3139
 21
62.7908
  0
LINE
  8
0
 10
-66.3139
 20
62.7908
 11
-66.3535
 21
62.825
  0
LINE
  8
0
 10
-66.3535
 20
62.825
 11
-66.3925
 21
62.86
  0
LINE
  8
0
 10
-66.3925
 20
62.86
 11
-66.4306
 21
62.8959
  0
LINE
  8
0
 10
-66.4306
 20
62.8959
 11
-66.468
 21
62.9325
  0
LINE
  8
0
 10
-66.468
 20
62.9325
 11
-66.5047
 21
62.9699
  0
LINE
  8
0
 10
-66.5047
 20
62.9699
 11
-66.5405
 21
63.0081
  0
LINE
  8
0
 10
-66.5405
 20
63.0081
 11
-66.5755
 21
63.047
  0
LINE
  8
0
 10
-66.5755
 20
63.047
 11
-66.6098
 21
63.0866
  0
LINE
  8
0
 10
-66.6098
 20
63.0866
 11
-66.6431
 21
63.127
  0
LINE
  8
0
 10
-66.6431
 20
63.127
 11
-66.6756
 21
63.168
  0
LINE
  8
0
 10
-66.6756
 20
63.168
 11
-66.7073
 21
63.2097
  0
LINE
  8
0
 10
-66.7073
 20
63.2097
 11
-66.7381
 21
63.2521
  0
LINE
  8
0
 10
-66.7381
 20
63.2521
 11
-66.768
 21
63.2951
  0
LINE
  8
0
 10
-66.768
 20
63.2951
 11
-66.7969
 21
63.3387
  0
LINE
  8
0
 10
-66.7969
 20
63.3387
 11
-66.825
 21
63.3829
  0
LINE
  8
0
 10
-66.825
 20
63.3829
 11
-66.8521
 21
63.4277
  0
LINE
  8
0
 10
-66.8521
 20
63.4277
 11
-66.8783
 21
63.473
  0
LINE
  8
0
 10
-66.8783
 20
63.473
 11
-66.9035
 21
63.5189
  0
LINE
  8
0
 10
-66.9035
 20
63.5189
 11
-66.9278
 21
63.5653
  0
LINE
  8
0
 10
-66.9278
 20
63.5653
 11
-66.9511
 21
63.6122
  0
LINE
  8
0
 10
-66.9511
 20
63.6122
 11
-66.9734
 21
63.6596
  0
LINE
  8
0
 10
-66.9734
 20
63.6596
 11
-66.9946
 21
63.7074
  0
LINE
  8
0
 10
-66.9946
 20
63.7074
 11
-67.0149
 21
63.7557
  0
LINE
  8
0
 10
-67.0149
 20
63.7557
 11
-67.0342
 21
63.8043
  0
LINE
  8
0
 10
-67.0342
 20
63.8043
 11
-67.0525
 21
63.8534
  0
LINE
  8
0
 10
-67.0525
 20
63.8534
 11
-67.0697
 21
63.9029
  0
LINE
  8
0
 10
-67.0697
 20
63.9029
 11
-67.0859
 21
63.9527
  0
LINE
  8
0
 10
-67.0859
 20
63.9527
 11
-67.101
 21
64.0028
  0
LINE
  8
0
 10
-67.101
 20
64.0028
 11
-67.1151
 21
64.0532
  0
LINE
  8
0
 10
-67.1151
 20
64.0532
 11
-67.1281
 21
64.1039
  0
LINE
  8
0
 10
-67.1281
 20
64.1039
 11
-67.1401
 21
64.1549
  0
LINE
  8
0
 10
-67.1401
 20
64.1549
 11
-67.1509
 21
64.2061
  0
LINE
  8
0
 10
-67.1509
 20
64.2061
 11
-67.1608
 21
64.2576
  0
LINE
  8
0
 10
-67.1608
 20
64.2576
 11
-67.1695
 21
64.3092
  0
LINE
  8
0
 10
-67.1695
 20
64.3092
 11
-67.1771
 21
64.361
  0
LINE
  8
0
 10
-67.1771
 20
64.361
 11
-67.1837
 21
64.4129
  0
LINE
  8
0
 10
-67.1837
 20
64.4129
 11
-67.1892
 21
64.465
  0
LINE
  8
0
 10
-67.1892
 20
64.465
 11
-67.1935
 21
64.5172
  0
LINE
  8
0
 10
-67.1935
 20
64.5172
 11
-67.1968
 21
64.5694
  0
LINE
  8
0
 10
-67.1968
 20
64.5694
 11
-67.199
 21
64.6217
  0
LINE
  8
0
 10
-67.199
 20
64.6217
 11
-67.2001
 21
64.6741
  0
LINE
  8
0
 10
-67.2001
 20
64.6741
 11
-67.2001
 21
64.7264
  0
LINE
  8
0
 10
-67.2001
 20
64.7264
 11
-67.199
 21
64.7788
  0
LINE
  8
0
 10
-67.199
 20
64.7788
 11
-67.1968
 21
64.8311
  0
LINE
  8
0
 10
-67.1968
 20
64.8311
 11
-67.1935
 21
64.8834
  0
LINE
  8
0
 10
-67.1935
 20
64.8834
 11
-67.1892
 21
64.9355
  0
LINE
  8
0
 10
-67.1892
 20
64.9355
 11
-67.1837
 21
64.9876
  0
LINE
  8
0
 10
-67.1837
 20
64.9876
 11
-67.1771
 21
65.0396
  0
LINE
  8
0
 10
-67.1771
 20
65.0396
 11
-67.1695
 21
65.0914
  0
LINE
  8
0
 10
-67.1695
 20
65.0914
 11
-67.1608
 21
65.143
  0
LINE
  8
0
 10
-67.1608
 20
65.143
 11
-67.1509
 21
65.1944
  0
LINE
  8
0
 10
-67.1509
 20
65.1944
 11
-67.1401
 21
65.2456
  0
LINE
  8
0
 10
-67.1401
 20
65.2456
 11
-67.1281
 21
65.2966
  0
LINE
  8
0
 10
-67.1281
 20
65.2966
 11
-67.1151
 21
65.3473
  0
LINE
  8
0
 10
-67.1151
 20
65.3473
 11
-67.101
 21
65.3977
  0
LINE
  8
0
 10
-67.101
 20
65.3977
 11
-67.0859
 21
65.4479
  0
LINE
  8
0
 10
-67.0859
 20
65.4479
 11
-67.0697
 21
65.4977
  0
LINE
  8
0
 10
-67.0697
 20
65.4977
 11
-67.0525
 21
65.5471
  0
LINE
  8
0
 10
-67.0525
 20
65.5471
 11
-67.0342
 21
65.5962
  0
LINE
  8
0
 10
-67.0342
 20
65.5962
 11
-67.0149
 21
65.6449
  0
LINE
  8
0
 10
-67.0149
 20
65.6449
 11
-66.9946
 21
65.6931
  0
LINE
  8
0
 10
-66.9946
 20
65.6931
 11
-66.9734
 21
65.741
  0
LINE
  8
0
 10
-66.9734
 20
65.741
 11
-66.9511
 21
65.7883
  0
LINE
  8
0
 10
-66.9511
 20
65.7883
 11
-66.9278
 21
65.8352
  0
LINE
  8
0
 10
-66.9278
 20
65.8352
 11
-66.9035
 21
65.8816
  0
LINE
  8
0
 10
-66.9035
 20
65.8816
 11
-66.8783
 21
65.9275
  0
LINE
  8
0
 10
-66.8783
 20
65.9275
 11
-66.8521
 21
65.9729
  0
LINE
  8
0
 10
-66.8521
 20
65.9729
 11
-66.825
 21
66.0177
  0
LINE
  8
0
 10
-66.825
 20
66.0177
 11
-66.7969
 21
66.0619
  0
LINE
  8
0
 10
-66.7969
 20
66.0619
 11
-66.768
 21
66.1055
  0
LINE
  8
0
 10
-66.768
 20
66.1055
 11
-66.7381
 21
66.1485
  0
LINE
  8
0
 10
-66.7381
 20
66.1485
 11
-66.7073
 21
66.1908
  0
LINE
  8
0
 10
-66.7073
 20
66.1908
 11
-66.6756
 21
66.2325
  0
LINE
  8
0
 10
-66.6756
 20
66.2325
 11
-66.6431
 21
66.2736
  0
LINE
  8
0
 10
-66.6431
 20
66.2736
 11
-66.6098
 21
66.3139
  0
LINE
  8
0
 10
-66.6098
 20
66.3139
 11
-66.5755
 21
66.3535
  0
LINE
  8
0
 10
-66.5755
 20
66.3535
 11
-66.5405
 21
66.3925
  0
LINE
  8
0
 10
-66.5405
 20
66.3925
 11
-66.5047
 21
66.4306
  0
LINE
  8
0
 10
-66.5047
 20
66.4306
 11
-66.468
 21
66.468
  0
LINE
  8
0
 10
-66.468
 20
66.468
 11
-66.4306
 21
66.5047
  0
LINE
  8
0
 10
-66.4306
 20
66.5047
 11
-66.3925
 21
66.5405
  0
LINE
  8
0
 10
-66.3925
 20
66.5405
 11
-66.3535
 21
66.5755
  0
LINE
  8
0
 10
-66.3535
 20
66.5755
 11
-66.3139
 21
66.6098
  0
LINE
  8
0
 10
-66.3139
 20
66.6098
 11
-66.2736
 21
66.6431
  0
LINE
  8
0
 10
-66.2736
 20
66.6431
 11
-66.2325
 21
66.6756
  0
LINE
  8
0
 10
-66.2325
 20
66.6756
 11
-66.1908
 21
66.7073
  0
LINE
  8
0
 10
-66.1908
 20
66.7073
 11
-66.1485
 21
66.7381
  0
LINE
  8
0
 10
-66.1485
 20
66.7381
 11
-66.1055
 21
66.768
  0
LINE
  8
0
 10
-66.1055
 20
66.768
 11
-66.0619
 21
66.7969
  0
LINE
  8
0
 10
-66.0619
 20
66.7969
 11
-66.0177
 21
66.825
  0
LINE
  8
0
 10
-66.0177
 20
66.825
 11
-65.9729
 21
66.8521
  0
LINE
  8
0
 10
-65.9729
 20
66.8521
 11
-65.9275
 21
66.8783
  0
LINE
  8
0
 10
-65.9275
 20
66.8783
 11
-65.8816
 21
66.9035
  0
LINE
  8
0
 10
-65.8816
 20
66.9035
 11
-65.8352
 21
66.9278
  0
LINE
  8
0
 10
-65.8352
 20
66.9278
 11
-65.7883
 21
66.9511
  0
LINE
  8
0
 10
-65.7883
 20
66.9511
 11
-65.741
 21
66.9734
  0
LINE
  8
0
 10
-65.741
 20
66.9734
 11
-65.6931
 21
66.9946
  0
LINE
  8
0
 10
-65.6931
 20
66.9946
 11
-65.6449
 21
67.0149
  0
LINE
  8
0
 10
-65.6449
 20
67.0149
 11
-65.5962
 21
67.0342
  0
LINE
  8
0
 10
-65.5962
 20
67.0342
 11
-65.5471
 21
67.0525
  0
LINE
  8
0
 10
-65.5471
 20
67.0525
 11
-65.4977
 21
67.0697
  0
LINE
  8
0
 10
-65.4977
 20
67.0697
 11
-65.4479
 21
67.0859
  0
LINE
  8
0
 10
-65.4479
 20
67.0859
 11
-65.3977
 21
67.101
  0
LINE
  8
0
 10
-65.3977
 20
67.101
 11
-65.3473
 21
67.1151
  0
LINE
  8
0
 10
-65.3473
 20
67.1151
 11
-65.2966
 21
67.1281
  0
LINE
  8
0
 10
-65.2966
 20
67.1281
 11
-65.2456
 21
67.1401
  0
LINE
  8
0
 10
-65.2456
 20
67.1401
 11
-65.1944
 21
67.1509
  0
LINE
  8
0
 10
-65.1944
 20
67.1509
 11
-65.143
 21
67.1608
  0
LINE
  8
0
 10
-65.143
 20
67.1608
 11
-65.0914
 21
67.1695
  0
LINE
  8
0
 10
-65.0914
 20
67.1695
 11
-65.0396
 21
67.1771
  0
LINE
  8
0
 10
-65.0396
 20
67.1771
 11
-64.9876
 21
67.1837
  0
LINE
  8
0
 10
-64.9876
 20
67.1837
 11
-64.9355
 21
67.1892
  0
LINE
  8
0
 10
-64.9355
 20
67.1892
 11
-64.8834
 21
67.1935
  0
LINE
  8
0
 10
-64.8834
 20
67.1935
 11
-64.8311
 21
67.1968
  0
LINE
  8
0
 10
-64.8311
 20
67.1968
 11
-64.7788
 21
67.199
  0
LINE
  8
0
 10
-64.7788
 20
67.199
 11
-64.7264
 21
67.2001
  0
LINE
  8
0
 10
-64.7264
 20
67.2001
 11
-64.6741
 21
67.2001
  0
LINE
  8
0
 10
-64.6741
 20
67.2001
 11
-64.6217
 21
67.199
  0
LINE
  8
0
 10
-64.6217
 20
67.199
 11
-64.5694
 21
67.1968
  0
LINE
  8
0
 10
-64.5694
 20
67.1968
 11
-64.5172
 21
67.1935
  0
LINE
  8
0
 10
-64.5172
 20
67.1935
 11
-64.465
 21
67.1892
  0
LINE
  8
0
 10
-64.465
 20
67.1892
 11
-64.4129
 21
67.1837
  0
LINE
  8
0
 10
-64.4129
 20
67.1837
 11
-64.361
 21
67.1771
  0
LINE
  8
0
 10
-64.361
 20
67.1771
 11
-64.3092
 21
67.1695
  0
LINE
  8
0
 10
-64.3092
 20
67.1695
 11
-64.2576
 21
67.1608
  0
LINE
  8
0
 10
-64.2576
 20
67.1608
 11
-64.2061
 21
67.1509
  0
LINE
  8
0
 10
-64.2061
 20
67.1509
 11
-64.1549
 21
67.1401
  0
LINE
  8
0
 10
-64.1549
 20
67.1401
 11
-64.1039
 21
67.1281
  0
LINE
  8
0
 10
-64.1039
 20
67.1281
 11
-64.0532
 21
67.1151
  0
LINE
  8
0
 10
-64.0532
 20
67.1151
 11
-64.0028
 21
67.101
  0
LINE
  8
0
 10
-64.0028
 20
67.101
 11
-63.9527
 21
67.0859
  0
LINE
  8
0
 10
-63.9527
 20
67.0859
 11
-63.9029
 21
67.0697
  0
LINE
  8
0
 10
-63.9029
 20
67.0697
 11
-63.8534
 21
67.0525
  0
LINE
  8
0
 10
-63.8534
 20
67.0525
 11
-63.8043
 21
67.0342
  0
LINE
  8
0
 10
-63.8043
 20
67.0342
 11
-63.7557
 21
67.0149
  0
LINE
  8
0
 10
-63.7557
 20
67.0149
 11
-63.7074
 21
66.9946
  0
LINE
  8
0
 10
-63.7074
 20
66.9946
 11
-63.6596
 21
66.9734
  0
LINE
  8
0
 10
-63.6596
 20
66.9734
 11
-63.6122
 21
66.9511
  0
LINE
  8
0
 10
-63.6122
 20
66.9511
 11
-63.5653
 21
66.9278
  0
LINE
  8
0
 10
-63.5653
 20
66.9278
 11
-63.5189
 21
66.9035
  0
LINE
  8
0
 10
-63.5189
 20
66.9035
 11
-63.473
 21
66.8783
  0
LINE
  8
0
 10
-63.473
 20
66.8783
 11
-63.4277
 21
66.8521
  0
LINE
  8
0
 10
-63.4277
 20
66.8521
 11
-63.3829
 21
66.825
  0
LINE
  8
0
 10
-63.3829
 20
66.825
 11
-63.3387
 21
66.7969
  0
LINE
  8
0
 10
-63.3387
 20
66.7969
 11
-63.2951
 21
66.768
  0
LINE
  8
0
 10
-63.2951
 20
66.768
 11
-63.2521
 21
66.7381
  0
LINE
  8
0
 10
-63.2521
 20
66.7381
 11
-63.2097
 21
66.7073
  0
LINE
  8
0
 10
-63.2097
 20
66.7073
 11
-63.168
 21
66.6756
  0
LINE
  8
0
 10
-63.168
 20
66.6756
 11
-63.127
 21
66.6431
  0
LINE
  8
0
 10
-63.127
 20
66.6431
 11
-63.0866
 21
66.6098
  0
LINE
  8
0
 10
-63.0866
 20
66.6098
 11
-63.047
 21
66.5755
  0
LINE
  8
0
 10
-63.047
 20
66.5755
 11
-63.0081
 21
66.5405
  0
LINE
  8
0
 10
-63.0081
 20
66.5405
 11
-62.9699
 21
66.5047
  0
LINE
  8
0
 10
-62.9699
 20
66.5047
 11
-62.9325
 21
66.468
  0
LINE
  8
0
 10
-62.9325
 20
66.468
 11
-62.8959
 21
66.4306
  0
LINE
  8
0
 10
-62.8959
 20
66.4306
 11
-62.86
 21
66.3925
  0
LINE
  8
0
 10
-62.86
 20
66.3925
 11
-62.825
 21
66.3535
  0
LINE
  8
0
 10
-62.825
 20
66.3535
 11
-62.7908
 21
66.3139
  0
LINE
  8
0
 10
-62.7908
 20
66.3139
 11
-62.7574
 21
66.2736
  0
LINE
  8
0
 10
-62.7574
 20
66.2736
 11
-62.7249
 21
66.2325
  0
LINE
  8
0
 10
-62.7249
 20
66.2325
 11
-62.6932
 21
66.1908
  0
LINE
  8
0
 10
-62.6932
 20
66.1908
 11
-62.6624
 21
66.1485
  0
LINE
  8
0
 10
-62.6624
 20
66.1485
 11
-62.6326
 21
66.1055
  0
LINE
  8
0
 10
-62.6326
 20
66.1055
 11
-62.6036
 21
66.0619
  0
LINE
  8
0
 10
-62.6036
 20
66.0619
 11
-62.5755
 21
66.0177
  0
LINE
  8
0
 10
-62.5755
 20
66.0177
 11
-62.5484
 21
65.9729
  0
LINE
  8
0
 10
-62.5484
 20
65.9729
 11
-62.5222
 21
65.9275
  0
LINE
  8
0
 10
-62.5222
 20
65.9275
 11
-62.497
 21
65.8816
  0
LINE
  8
0
 10
-62.497
 20
65.8816
 11
-62.4727
 21
65.8352
  0
LINE
  8
0
 10
-62.4727
 20
65.8352
 11
-62.4495
 21
65.7883
  0
LINE
  8
0
 10
-62.4495
 20
65.7883
 11
-62.4272
 21
65.741
  0
LINE
  8
0
 10
-62.4272
 20
65.741
 11
-62.4059
 21
65.6931
  0
LINE
  8
0
 10
-62.4059
 20
65.6931
 11
-62.3856
 21
65.6449
  0
LINE
  8
0
 10
-62.3856
 20
65.6449
 11
-62.3663
 21
65.5962
  0
LINE
  8
0
 10
-62.3663
 20
65.5962
 11
-62.3481
 21
65.5471
  0
LINE
  8
0
 10
-62.3481
 20
65.5471
 11
-62.3308
 21
65.4977
  0
LINE
  8
0
 10
-62.3308
 20
65.4977
 11
-62.3147
 21
65.4479
  0
LINE
  8
0
 10
-62.3147
 20
65.4479
 11
-62.2995
 21
65.3977
  0
LINE
  8
0
 10
-62.2995
 20
65.3977
 11
-62.2854
 21
65.3473
  0
LINE
  8
0
 10
-62.2854
 20
65.3473
 11
-62.2724
 21
65.2966
  0
LINE
  8
0
 10
-62.2724
 20
65.2966
 11
-62.2605
 21
65.2456
  0
LINE
  8
0
 10
-62.2605
 20
65.2456
 11
-62.2496
 21
65.1944
  0
LINE
  8
0
 10
-62.2496
 20
65.1944
 11
-62.2398
 21
65.143
  0
LINE
  8
0
 10
-62.2398
 20
65.143
 11
-62.231
 21
65.0914
  0
LINE
  8
0
 10
-62.231
 20
65.0914
 11
-62.2234
 21
65.0396
  0
LINE
  8
0
 10
-62.2234
 20
65.0396
 11
-62.2168
 21
64.9876
  0
LINE
  8
0
 10
-62.2168
 20
64.9876
 11
-62.2114
 21
64.9355
  0
LINE
  8
0
 10
-62.2114
 20
64.9355
 11
-62.207
 21
64.8834
  0
LINE
  8
0
 10
-62.207
 20
64.8834
 11
-62.2037
 21
64.8311
  0
LINE
  8
0
 10
-62.2037
 20
64.8311
 11
-62.2015
 21
64.7788
  0
LINE
  8
0
 10
-62.2015
 20
64.7788
 11
-62.2004
 21
64.7264
  0
LINE
  8
0
 10
-62.2004
 20
64.7264
 11
-62.2004
 21
64.6741
  0
LINE
  8
0
 10
-62.2004
 20
64.6741
 11
-62.2015
 21
64.6217
  0
LINE
  8
0
 10
-62.2015
 20
64.6217
 11
-62.2037
 21
64.5694
  0
LINE
  8
0
 10
-62.2037
 20
64.5694
 11
-62.207
 21
64.5172
  0
LINE
  8
0
 10
-62.207
 20
64.5172
 11
-62.2114
 21
64.465
  0
LINE
  8
0
 10
-62.2114
 20
64.465
 11
-62.2168
 21
64.4129
  0
LINE
  8
0
 10
-62.2168
 20
64.4129
 11
-62.2234
 21
64.361
  0
LINE
  8
0
 10
-62.2234
 20
64.361
 11
-62.231
 21
64.3092
  0
LINE
  8
0
 10
-62.231
 20
64.3092
 11
-62.2398
 21
64.2576
  0
LINE
  8
0
 10
-62.2398
 20
64.2576
 11
-62.2496
 21
64.2061
  0
LINE
  8
0
 10
-62.2496
 20
64.2061
 11
-62.2605
 21
64.1549
  0
LINE
  8
0
 10
-62.2605
 20
64.1549
 11
-62.2724
 21
64.1039
  0
LINE
  8
0
 10
-62.2724
 20
64.1039
 11
-62.2854
 21
64.0532
  0
LINE
  8
0
 10
-62.2854
 20
64.0532
 11
-62.2995
 21
64.0028
  0
LINE
  8
0
 10
-62.2995
 20
64.0028
 11
-62.3147
 21
63.9527
  0
LINE
  8
0
 10
-62.3147
 20
63.9527
 11
-62.3308
 21
63.9029
  0
LINE
  8
0
 10
-62.3308
 20
63.9029
 11
-62.3481
 21
63.8534
  0
LINE
  8
0
 10
-62.3481
 20
63.8534
 11
-62.3663
 21
63.8043
  0
LINE
  8
0
 10
-62.3663
 20
63.8043
 11
-62.3856
 21
63.7557
  0
LINE
  8
0
 10
-62.3856
 20
63.7557
 11
-62.4059
 21
63.7074
  0
LINE
  8
0
 10
-62.4059
 20
63.7074
 11
-62.4272
 21
63.6596
  0
LINE
  8
0
 10
-62.4272
 20
63.6596
 11
-62.4495
 21
63.6122
  0
LINE
  8
0
 10
-62.4495
 20
63.6122
 11
-62.4727
 21
63.5653
  0
LINE
  8
0
 10
-62.4727
 20
63.5653
 11
-62.497
 21
63.5189
  0
LINE
  8
0
 10
-62.497
 20
63.5189
 11
-62.5222
 21
63.473
  0
LINE
  8
0
 10
-62.5222
 20
63.473
 11
-62.5484
 21
63.4277
  0
LINE
  8
0
 10
-62.5484
 20
63.4277
 11
-62.5755
 21
63.3829
  0
LINE
  8
0
 10
-62.5755
 20
63.3829
 11
-62.6036
 21
63.3387
  0
LINE
  8
0
 10
-62.6036
 20
63.3387
 11
-62.6326
 21
63.2951
  0
LINE
  8
0
 10
-62.6326
 20
63.2951
 11
-62.6624
 21
63.2521
  0
LINE
  8
0
 10
-62.6624
 20
63.2521
 11
-62.6932
 21
63.2097
  0
LINE
  8
0
 10
-62.6932
 20
63.2097
 11
-62.7249
 21
63.168
  0
LINE
  8
0
 10
-62.7249
 20
63.168
 11
-62.7574
 21
63.127
  0
LINE
  8
0
 10
-62.7574
 20
63.127
 11
-62.7908
 21
63.0866
  0
LINE
  8
0
 10
-62.7908
 20
63.0866
 11
-62.825
 21
63.047
  0
LINE
  8
0
 10
-62.825
 20
63.047
 11
-62.86
 21
63.0081
  0
LINE
  8
0
 10
-62.86
 20
63.0081
 11
-62.8959
 21
62.9699
  0
LINE
  8
0
 10
-62.8959
 20
62.9699
 11
-62.9325
 21
62.9325
  0
LINE
  8
0
 10
-62.9325
 20
62.9325
 11
-62.9699
 21
62.8959
  0
LINE
  8
0
 10
-62.9699
 20
62.8959
 11
-63.0081
 21
62.86
  0
LINE
  8
0
 10
-63.0081
 20
62.86
 11
-63.047
 21
62.825
  0
LINE
  8
0
 10
-63.047
 20
62.825
 11
-63.0866
 21
62.7908
  0
LINE
  8
0
 10
-63.0866
 20
62.7908
 11
-63.127
 21
62.7574
  0
LINE
  8
0
 10
-63.127
 20
62.7574
 11
-63.168
 21
62.7249
  0
LINE
  8
0
 10
-63.168
 20
62.7249
 11
-63.2097
 21
62.6932
  0
LINE
  8
0
 10
-63.2097
 20
62.6932
 11
-63.2521
 21
62.6624
  0
LINE
  8
0
 10
-63.2521
 20
62.6624
 11
-63.2951
 21
62.6326
  0
LINE
  8
0
 10
-63.2951
 20
62.6326
 11
-63.3387
 21
62.6036
  0
LINE
  8
0
 10
-63.3387
 20
62.6036
 11
-63.3829
 21
62.5755
  0
LINE
  8
0
 10
-63.3829
 20
62.5755
 11
-63.4277
 21
62.5484
  0
LINE
  8
0
 10
-63.4277
 20
62.5484
 11
-63.473
 21
62.5222
  0
LINE
  8
0
 10
-63.473
 20
62.5222
 11
-63.5189
 21
62.497
  0
LINE
  8
0
 10
-63.5189
 20
62.497
 11
-63.5653
 21
62.4727
  0
LINE
  8
0
 10
-63.5653
 20
62.4727
 11
-63.6122
 21
62.4495
  0
LINE
  8
0
 10
-63.6122
 20
62.4495
 11
-63.6596
 21
62.4272
  0
LINE
  8
0
 10
-63.6596
 20
62.4272
 11
-63.7074
 21
62.4059
  0
LINE
  8
0
 10
-63.7074
 20
62.4059
 11
-63.7557
 21
62.3856
  0
LINE
  8
0
 10
-63.7557
 20
62.3856
 11
-63.8043
 21
62.3663
  0
LINE
  8
0
 10
-63.8043
 20
62.3663
 11
-63.8534
 21
62.3481
  0
LINE
  8
0
 10
-63.8534
 20
62.3481
 11
-63.9029
 21
62.3308
  0
LINE
  8
0
 10
-63.9029
 20
62.3308
 11
-63.9527
 21
62.3147
  0
LINE
  8
0
 10
-63.9527
 20
62.3147
 11
-64.0028
 21
62.2995
  0
LINE
  8
0
 10
-64.0028
 20
62.2995
 11
-64.0532
 21
62.2854
  0
LINE
  8
0
 10
-64.0532
 20
62.2854
 11
-64.1039
 21
62.2724
  0
LINE
  8
0
 10
-64.1039
 20
62.2724
 11
-64.1549
 21
62.2605
  0
LINE
  8
0
 10
-64.1549
 20
62.2605
 11
-64.2061
 21
62.2496
  0
LINE
  8
0
 10
-64.2061
 20
62.2496
 11
-64.2576
 21
62.2398
  0
LINE
  8
0
 10
-64.2576
 20
62.2398
 11
-64.3092
 21
62.231
  0
LINE
  8
0
 10
-64.3092
 20
62.231
 11
-64.361
 21
62.2234
  0
LINE
  8
0
 10
-64.361
 20
62.2234
 11
-64.4129
 21
62.2168
  0
LINE
  8
0
 10
-64.4129
 20
62.2168
 11
-64.465
 21
62.2114
  0
LINE
  8
0
 10
-64.465
 20
62.2114
 11
-64.5172
 21
62.207
  0
LINE
  8
0
 10
-64.5172
 20
62.207
 11
-64.5694
 21
62.2037
  0
LINE
  8
0
 10
-64.5694
 20
62.2037
 11
-64.6217
 21
62.2015
  0
LINE
  8
0
 10
-64.6217
 20
62.2015
 11
-64.6741
 21
62.2004
  0
LINE
  8
0
 10
-64.6741
 20
62.2004
 11
-64.7264
 21
62.2004
  0
LINE
  8
0
 10
91.4476
 20
-2.49945
 11
91.3953
 21
-2.4978
  0
LINE
  8
0
 10
91.3953
 20
-2.4978
 11
91.343
 21
-2.49506
  0
LINE
  8
0
 10
91.343
 20
-2.49506
 11
91.2908
 21
-2.49123
  0
LINE
  8
0
 10
91.2908
 20
-2.49123
 11
91.2387
 21
-2.4863
  0
LINE
  8
0
 10
91.2387
 20
-2.4863
 11
91.1867
 21
-2.48029
  0
LINE
  8
0
 10
91.1867
 20
-2.48029
 11
91.1348
 21
-2.47318
  0
LINE
  8
0
 10
91.1348
 20
-2.47318
 11
91.0831
 21
-2.46498
  0
LINE
  8
0
 10
91.0831
 20
-2.46498
 11
91.0315
 21
-2.4557
  0
LINE
  8
0
 10
91.0315
 20
-2.4557
 11
90.9802
 21
-2.44536
  0
LINE
  8
0
 10
90.9802
 20
-2.44536
 11
90.9291
 21
-2.43394
  0
LINE
  8
0
 10
90.9291
 20
-2.43394
 11
90.8783
 21
-2.42145
  0
LINE
  8
0
 10
90.8783
 20
-2.42145
 11
90.8277
 21
-2.4079
  0
LINE
  8
0
 10
90.8277
 20
-2.4079
 11
90.7774
 21
-2.3933
  0
LINE
  8
0
 10
90.7774
 20
-2.3933
 11
90.7274
 21
-2.37764
  0
LINE
  8
0
 10
90.7274
 20
-2.37764
 11
90.6778
 21
-2.36093
  0
LINE
  8
0
 10
90.6778
 20
-2.36093
 11
90.6286
 21
-2.3432
  0
LINE
  8
0
 10
90.6286
 20
-2.3432
 11
90.5797
 21
-2.32443
  0
LINE
  8
0
 10
90.5797
 20
-2.32443
 11
90.5312
 21
-2.30466
  0
LINE
  8
0
 10
90.5312
 20
-2.30466
 11
90.4832
 21
-2.28386
  0
LINE
  8
0
 10
90.4832
 20
-2.28386
 11
90.4355
 21
-2.26205
  0
LINE
  8
0
 10
90.4355
 20
-2.26205
 11
90.3884
 21
-2.23927
  0
LINE
  8
0
 10
90.3884
 20
-2.23927
 11
90.3418
 21
-2.2155
  0
LINE
  8
0
 10
90.3418
 20
-2.2155
 11
90.2956
 21
-2.19077
  0
LINE
  8
0
 10
90.2956
 20
-2.19077
 11
90.25
 21
-2.16505
  0
LINE
  8
0
 10
90.25
 20
-2.16505
 11
90.2049
 21
-2.1384
  0
LINE
  8
0
 10
90.2049
 20
-2.1384
 11
90.1604
 21
-2.11081
  0
LINE
  8
0
 10
90.1604
 20
-2.11081
 11
90.1165
 21
-2.08229
  0
LINE
  8
0
 10
90.1165
 20
-2.08229
 11
90.0732
 21
-2.05287
  0
LINE
  8
0
 10
90.0732
 20
-2.05287
 11
90.0305
 21
-2.02254
  0
LINE
  8
0
 10
90.0305
 20
-2.02254
 11
89.9885
 21
-1.99132
  0
LINE
  8
0
 10
89.9885
 20
-1.99132
 11
89.9471
 21
-1.95923
  0
LINE
  8
0
 10
89.9471
 20
-1.95923
 11
89.9064
 21
-1.92627
  0
LINE
  8
0
 10
89.9064
 20
-1.92627
 11
89.8664
 21
-1.89249
  0
LINE
  8
0
 10
89.8664
 20
-1.89249
 11
89.8272
 21
-1.85785
  0
LINE
  8
0
 10
89.8272
 20
-1.85785
 11
89.7886
 21
-1.82242
  0
LINE
  8
0
 10
89.7886
 20
-1.82242
 11
89.7508
 21
-1.78618
  0
LINE
  8
0
 10
89.7508
 20
-1.78618
 11
89.7138
 21
-1.74915
  0
LINE
  8
0
 10
89.7138
 20
-1.74915
 11
89.6776
 21
-1.71136
  0
LINE
  8
0
 10
89.6776
 20
-1.71136
 11
89.6421
 21
-1.67282
  0
LINE
  8
0
 10
89.6421
 20
-1.67282
 11
89.6075
 21
-1.63354
  0
LINE
  8
0
 10
89.6075
 20
-1.63354
 11
89.5737
 21
-1.59355
  0
LINE
  8
0
 10
89.5737
 20
-1.59355
 11
89.5408
 21
-1.55286
  0
LINE
  8
0
 10
89.5408
 20
-1.55286
 11
89.5087
 21
-1.51149
  0
LINE
  8
0
 10
89.5087
 20
-1.51149
 11
89.4774
 21
-1.46945
  0
LINE
  8
0
 10
89.4774
 20
-1.46945
 11
89.4471
 21
-1.42677
  0
LINE
  8
0
 10
89.4471
 20
-1.42677
 11
89.4177
 21
-1.38347
  0
LINE
  8
0
 10
89.4177
 20
-1.38347
 11
89.3892
 21
-1.33955
  0
LINE
  8
0
 10
89.3892
 20
-1.33955
 11
89.3616
 21
-1.29506
  0
LINE
  8
0
 10
89.3616
 20
-1.29506
 11
89.3349
 21
-1.25
  0
LINE
  8
0
 10
89.3349
 20
-1.25
 11
89.3092
 21
-1.20438
  0
LINE
  8
0
 10
89.3092
 20
-1.20438
 11
89.2845
 21
-1.15823
  0
LINE
  8
0
 10
89.2845
 20
-1.15823
 11
89.2607
 21
-1.11159
  0
LINE
  8
0
 10
89.2607
 20
-1.11159
 11
89.2379
 21
-1.06444
  0
LINE
  8
0
 10
89.2379
 20
-1.06444
 11
89.2161
 21
-1.01683
  0
LINE
  8
0
 10
89.2161
 20
-1.01683
 11
89.1953
 21
-0.968781
  0
LINE
  8
0
 10
89.1953
 20
-0.968781
 11
89.1756
 21
-0.920303
  0
LINE
  8
0
 10
89.1756
 20
-0.920303
 11
89.1568
 21
-0.871429
  0
LINE
  8
0
 10
89.1568
 20
-0.871429
 11
89.1391
 21
-0.822159
  0
LINE
  8
0
 10
89.1391
 20
-0.822159
 11
89.1223
 21
-0.772537
  0
LINE
  8
0
 10
89.1223
 20
-0.772537
 11
89.1067
 21
-0.722565
  0
LINE
  8
0
 10
89.1067
 20
-0.722565
 11
89.0921
 21
-0.672287
  0
LINE
  8
0
 10
89.0921
 20
-0.672287
 11
89.0785
 21
-0.621719
  0
LINE
  8
0
 10
89.0785
 20
-0.621719
 11
89.066
 21
-0.570877
  0
LINE
  8
0
 10
89.066
 20
-0.570877
 11
89.0546
 21
-0.519775
  0
LINE
  8
0
 10
89.0546
 20
-0.519775
 11
89.0443
 21
-0.468445
  0
LINE
  8
0
 10
89.0443
 20
-0.468445
 11
89.035
 21
-0.416916
  0
LINE
  8
0
 10
89.035
 20
-0.416916
 11
89.0268
 21
-0.365204
  0
LINE
  8
0
 10
89.0268
 20
-0.365204
 11
89.0197
 21
-0.313324
  0
LINE
  8
0
 10
89.0197
 20
-0.313324
 11
89.0137
 21
-0.261307
  0
LINE
  8
0
 10
89.0137
 20
-0.261307
 11
89.0088
 21
-0.209183
  0
LINE
  8
0
 10
89.0088
 20
-0.209183
 11
89.0049
 21
-0.156967
  0
LINE
  8
0
 10
89.0049
 20
-0.156967
 11
89.0022
 21
-0.104675
  0
LINE
  8
0
 10
89.0022
 20
-0.104675
 11
89.0005
 21
-0.0523529
  0
LINE
  8
0
 10
89.0005
 20
-0.0523529
 11
89
 21
0
  0
LINE
  8
0
 10
89
 20
0
 11
89.0005
 21
0.0523529
  0
LINE
  8
0
 10
89.0005
 20
0.0523529
 11
89.0022
 21
0.104675
  0
LINE
  8
0
 10
89.0022
 20
0.104675
 11
89.0049
 21
0.156967
  0
LINE
  8
0
 10
89.0049
 20
0.156967
 11
89.0088
 21
0.209183
  0
LINE
  8
0
 10
89.0088
 20
0.209183
 11
89.0137
 21
0.261307
  0
LINE
  8
0
 10
89.0137
 20
0.261307
 11
89.0197
 21
0.313324
  0
LINE
  8
0
 10
89.0197
 20
0.313324
 11
89.0268
 21
0.365204
  0
LINE
  8
0
 10
89.0268
 20
0.365204
 11
89.035
 21
0.416916
  0
LINE
  8
0
 10
89.035
 20
0.416916
 11
89.0443
 21
0.468445
  0
LINE
  8
0
 10
89.0443
 20
0.468445
 11
89.0546
 21
0.519775
  0
LINE
  8
0
 10
89.0546
 20
0.519775
 11
89.066
 21
0.570877
  0
LINE
  8
0
 10
89.066
 20
0.570877
 11
89.0785
 21
0.621719
  0
LINE
  8
0
 10
89.0785
 20
0.621719
 11
89.0921
 21
0.672287
  0
LINE
  8
0
 10
89.0921
 20
0.672287
 11
89.1067
 21
0.722565
  0
LINE
  8
0
 10
89.1067
 20
0.722565
 11
89.1223
 21
0.772537
  0
LINE
  8
0
 10
89.1223
 20
0.772537
 11
89.1391
 21
0.822159
  0
LINE
  8
0
 10
89.1391
 20
0.822159
 11
89.1568
 21
0.871429
  0
LINE
  8
0
 10
89.1568
 20
0.871429
 11
89.1756
 21
0.920303
  0
LINE
  8
0
 10
89.1756
 20
0.920303
 11
89.1953
 21
0.968781
  0
LINE
  8
0
 10
89.1953
 20
0.968781
 11
89.2161
 21
1.01683
  0
LINE
  8
0
 10
89.2161
 20
1.01683
 11
89.2379
 21
1.06444
  0
LINE
  8
0
 10
89.2379
 20
1.06444
 11
89.2607
 21
1.11159
  0
LINE
  8
0
 10
89.2607
 20
1.11159
 11
89.2845
 21
1.15823
  0
LINE
  8
0
 10
89.2845
 20
1.15823
 11
89.3092
 21
1.20438
  0
LINE
  8
0
 10
89.3092
 20
1.20438
 11
89.3349
 21
1.25
  0
LINE
  8
0
 10
89.3349
 20
1.25
 11
89.3616
 21
1.29506
  0
LINE
  8
0
 10
89.3616
 20
1.29506
 11
89.3892
 21
1.33955
  0
LINE
  8
0
 10
89.3892
 20
1.33955
 11
89.4177
 21
1.38347
  0
LINE
  8
0
 10
89.4177
 20
1.38347
 11
89.4471
 21
1.42677
  0
LINE
  8
0
 10
89.4471
 20
1.42677
 11
89.4774
 21
1.46945
  0
LINE
  8
0
 10
89.4774
 20
1.46945
 11
89.5087
 21
1.51149
  0
LINE
  8
0
 10
89.5087
 20
1.51149
 11
89.5408
 21
1.55286
  0
LINE
  8
0
 10
89.5408
 20
1.55286
 11
89.5737
 21
1.59355
  0
LINE
  8
0
 10
89.5737
 20
1.59355
 11
89.6075
 21
1.63354
  0
LINE
  8
0
 10
89.6075
 20
1.63354
 11
89.6421
 21
1.67282
  0
LINE
  8
0
 10
89.6421
 20
1.67282
 11
89.6776
 21
1.71136
  0
LINE
  8
0
 10
89.6776
 20
1.71136
 11
89.7138
 21
1.74915
  0
LINE
  8
0
 10
89.7138
 20
1.74915
 11
89.7508
 21
1.78618
  0
LINE
  8
0
 10
89.7508
 20
1.78618
 11
89.7886
 21
1.82242
  0
LINE
  8
0
 10
89.7886
 20
1.82242
 11
89.8272
 21
1.85785
  0
LINE
  8
0
 10
89.8272
 20
1.85785
 11
89.8664
 21
1.89249
  0
LINE
  8
0
 10
89.8664
 20
1.89249
 11
89.9064
 21
1.92627
  0
LINE
  8
0
 10
89.9064
 20
1.92627
 11
89.9471
 21
1.95923
  0
LINE
  8
0
 10
89.9471
 20
1.95923
 11
89.9885
 21
1.99132
  0
LINE
  8
0
 10
89.9885
 20
1.99132
 11
90.0305
 21
2.02254
  0
LINE
  8
0
 10
90.0305
 20
2.02254
 11
90.0732
 21
2.05287
  0
LINE
  8
0
 10
90.0732
 20
2.05287
 11
90.1165
 21
2.08229
  0
LINE
  8
0
 10
90.1165
 20
2.08229
 11
90.1604
 21
2.11081
  0
LINE
  8
0
 10
90.1604
 20
2.11081
 11
90.2049
 21
2.1384
  0
LINE
  8
0
 10
90.2049
 20
2.1384
 11
90.25
 21
2.16505
  0
LINE
  8
0
 10
90.25
 20
2.16505
 11
90.2956
 21
2.19077
  0
LINE
  8
0
 10
90.2956
 20
2.19077
 11
90.3418
 21
2.2155
  0
LINE
  8
0
 10
90.3418
 20
2.2155
 11
90.3884
 21
2.23927
  0
LINE
  8
0
 10
90.3884
 20
2.23927
 11
90.4355
 21
2.26205
  0
LINE
  8
0
 10
90.4355
 20
2.26205
 11
90.4832
 21
2.28386
  0
LINE
  8
0
 10
90.4832
 20
2.28386
 11
90.5312
 21
2.30466
  0
LINE
  8
0
 10
90.5312
 20
2.30466
 11
90.5797
 21
2.32443
  0
LINE
  8
0
 10
90.5797
 20
2.32443
 11
90.6286
 21
2.3432
  0
LINE
  8
0
 10
90.6286
 20
2.3432
 11
90.6778
 21
2.36093
  0
LINE
  8
0
 10
90.6778
 20
2.36093
 11
90.7274
 21
2.37764
  0
LINE
  8
0
 10
90.7274
 20
2.37764
 11
90.7774
 21
2.3933
  0
LINE
  8
0
 10
90.7774
 20
2.3933
 11
90.8277
 21
2.4079
  0
LINE
  8
0
 10
90.8277
 20
2.4079
 11
90.8783
 21
2.42145
  0
LINE
  8
0
 10
90.8783
 20
2.42145
 11
90.9291
 21
2.43394
  0
LINE
  8
0
 10
90.9291
 20
2.43394
 11
90.9802
 21
2.44536
  0
LINE
  8
0
 10
90.9802
 20
2.44536
 11
91.0315
 21
2.4557
  0
LINE
  8
0
 10
91.0315
 20
2.4557
 11
91.0831
 21
2.46498
  0
LINE
  8
0
 10
91.0831
 20
2.46498
 11
91.1348
 21
2.47318
  0
LINE
  8
0
 10
91.1348
 20
2.47318
 11
91.1867
 21
2.48029
  0
LINE
  8
0
 10
91.1867
 20
2.48029
 11
91.2387
 21
2.4863
  0
LINE
  8
0
 10
91.2387
 20
2.4863
 11
91.2908
 21
2.49123
  0
LINE
  8
0
 10
91.2908
 20
2.49123
 11
91.343
 21
2.49506
  0
LINE
  8
0
 10
91.343
 20
2.49506
 11
91.3953
 21
2.4978
  0
LINE
  8
0
 10
91.3953
 20
2.4978
 11
91.4476
 21
2.49945
  0
LINE
  8
0
 10
91.4476
 20
2.49945
 11
91.5
 21
2.5
  0
LINE
  8
0
 10
91.5
 20
2.5
 11
91.5524
 21
2.49945
  0
LINE
  8
0
 10
91.5524
 20
2.49945
 11
91.6047
 21
2.4978
  0
LINE
  8
0
 10
91.6047
 20
2.4978
 11
91.657
 21
2.49506
  0
LINE
  8
0
 10
91.657
 20
2.49506
 11
91.7092
 21
2.49123
  0
LINE
  8
0
 10
91.7092
 20
2.49123
 11
91.7613
 21
2.4863
  0
LINE
  8
0
 10
91.7613
 20
2.4863
 11
91.8133
 21
2.48029
  0
LINE
  8
0
 10
91.8133
 20
2.48029
 11
91.8652
 21
2.47318
  0
LINE
  8
0
 10
91.8652
 20
2.47318
 11
91.9169
 21
2.46498
  0
LINE
  8
0
 10
91.9169
 20
2.46498
 11
91.9684
 21
2.4557
  0
LINE
  8
0
 10
91.9684
 20
2.4557
 11
92.0198
 21
2.44536
  0
LINE
  8
0
 10
92.0198
 20
2.44536
 11
92.0709
 21
2.43394
  0
LINE
  8
0
 10
92.0709
 20
2.43394
 11
92.1217
 21
2.42145
  0
LINE
  8
0
 10
92.1217
 20
2.42145
 11
92.1723
 21
2.4079
  0
LINE
  8
0
 10
92.1723
 20
2.4079
 11
92.2226
 21
2.3933
  0
LINE
  8
0
 10
92.2226
 20
2.3933
 11
92.2725
 21
2.37764
  0
LINE
  8
0
 10
92.2725
 20
2.37764
 11
92.3222
 21
2.36093
  0
LINE
  8
0
 10
92.3222
 20
2.36093
 11
92.3714
 21
2.3432
  0
LINE
  8
0
 10
92.3714
 20
2.3432
 11
92.4203
 21
2.32443
  0
LINE
  8
0
 10
92.4203
 20
2.32443
 11
92.4688
 21
2.30466
  0
LINE
  8
0
 10
92.4688
 20
2.30466
 11
92.5168
 21
2.28386
  0
LINE
  8
0
 10
92.5168
 20
2.28386
 11
92.5644
 21
2.26205
  0
LINE
  8
0
 10
92.5644
 20
2.26205
 11
92.6116
 21
2.23927
  0
LINE
  8
0
 10
92.6116
 20
2.23927
 11
92.6582
 21
2.2155
  0
LINE
  8
0
 10
92.6582
 20
2.2155
 11
92.7044
 21
2.19077
  0
LINE
  8
0
 10
92.7044
 20
2.19077
 11
92.75
 21
2.16505
  0
LINE
  8
0
 10
92.75
 20
2.16505
 11
92.7951
 21
2.1384
  0
LINE
  8
0
 10
92.7951
 20
2.1384
 11
92.8396
 21
2.11081
  0
LINE
  8
0
 10
92.8396
 20
2.11081
 11
92.8835
 21
2.08229
  0
LINE
  8
0
 10
92.8835
 20
2.08229
 11
92.9268
 21
2.05287
  0
LINE
  8
0
 10
92.9268
 20
2.05287
 11
92.9695
 21
2.02254
  0
LINE
  8
0
 10
92.9695
 20
2.02254
 11
93.0115
 21
1.99132
  0
LINE
  8
0
 10
93.0115
 20
1.99132
 11
93.0529
 21
1.95923
  0
LINE
  8
0
 10
93.0529
 20
1.95923
 11
93.0936
 21
1.92627
  0
LINE
  8
0
 10
93.0936
 20
1.92627
 11
93.1335
 21
1.89249
  0
LINE
  8
0
 10
93.1335
 20
1.89249
 11
93.1728
 21
1.85785
  0
LINE
  8
0
 10
93.1728
 20
1.85785
 11
93.2114
 21
1.82242
  0
LINE
  8
0
 10
93.2114
 20
1.82242
 11
93.2491
 21
1.78618
  0
LINE
  8
0
 10
93.2491
 20
1.78618
 11
93.2862
 21
1.74915
  0
LINE
  8
0
 10
93.2862
 20
1.74915
 11
93.3224
 21
1.71136
  0
LINE
  8
0
 10
93.3224
 20
1.71136
 11
93.3578
 21
1.67282
  0
LINE
  8
0
 10
93.3578
 20
1.67282
 11
93.3925
 21
1.63354
  0
LINE
  8
0
 10
93.3925
 20
1.63354
 11
93.4263
 21
1.59355
  0
LINE
  8
0
 10
93.4263
 20
1.59355
 11
93.4592
 21
1.55286
  0
LINE
  8
0
 10
93.4592
 20
1.55286
 11
93.4913
 21
1.51149
  0
LINE
  8
0
 10
93.4913
 20
1.51149
 11
93.5225
 21
1.46945
  0
LINE
  8
0
 10
93.5225
 20
1.46945
 11
93.5529
 21
1.42677
  0
LINE
  8
0
 10
93.5529
 20
1.42677
 11
93.5823
 21
1.38347
  0
LINE
  8
0
 10
93.5823
 20
1.38347
 11
93.6108
 21
1.33955
  0
LINE
  8
0
 10
93.6108
 20
1.33955
 11
93.6384
 21
1.29506
  0
LINE
  8
0
 10
93.6384
 20
1.29506
 11
93.6651
 21
1.25
  0
LINE
  8
0
 10
93.6651
 20
1.25
 11
93.6908
 21
1.20438
  0
LINE
  8
0
 10
93.6908
 20
1.20438
 11
93.7155
 21
1.15823
  0
LINE
  8
0
 10
93.7155
 20
1.15823
 11
93.7393
 21
1.11159
  0
LINE
  8
0
 10
93.7393
 20
1.11159
 11
93.7621
 21
1.06444
  0
LINE
  8
0
 10
93.7621
 20
1.06444
 11
93.7839
 21
1.01683
  0
LINE
  8
0
 10
93.7839
 20
1.01683
 11
93.8047
 21
0.968781
  0
LINE
  8
0
 10
93.8047
 20
0.968781
 11
93.8244
 21
0.920303
  0
LINE
  8
0
 10
93.8244
 20
0.920303
 11
93.8432
 21
0.871429
  0
LINE
  8
0
 10
93.8432
 20
0.871429
 11
93.8609
 21
0.822159
  0
LINE
  8
0
 10
93.8609
 20
0.822159
 11
93.8776
 21
0.772537
  0
LINE
  8
0
 10
93.8776
 20
0.772537
 11
93.8933
 21
0.722565
  0
LINE
  8
0
 10
93.8933
 20
0.722565
 11
93.9079
 21
0.672287
  0
LINE
  8
0
 10
93.9079
 20
0.672287
 11
93.9214
 21
0.621719
  0
LINE
  8
0
 10
93.9214
 20
0.621719
 11
93.9339
 21
0.570877
  0
LINE
  8
0
 10
93.9339
 20
0.570877
 11
93.9454
 21
0.519775
  0
LINE
  8
0
 10
93.9454
 20
0.519775
 11
93.9557
 21
0.468445
  0
LINE
  8
0
 10
93.9557
 20
0.468445
 11
93.965
 21
0.416916
  0
LINE
  8
0
 10
93.965
 20
0.416916
 11
93.9732
 21
0.365204
  0
LINE
  8
0
 10
93.9732
 20
0.365204
 11
93.9803
 21
0.313324
  0
LINE
  8
0
 10
93.9803
 20
0.313324
 11
93.9863
 21
0.261307
  0
LINE
  8
0
 10
93.9863
 20
0.261307
 11
93.9912
 21
0.209183
  0
LINE
  8
0
 10
93.9912
 20
0.209183
 11
93.9951
 21
0.156967
  0
LINE
  8
0
 10
93.9951
 20
0.156967
 11
93.9978
 21
0.104675
  0
LINE
  8
0
 10
93.9978
 20
0.104675
 11
93.9995
 21
0.0523529
  0
LINE
  8
0
 10
93.9995
 20
0.0523529
 11
94
 21
0
  0
LINE
  8
0
 10
94
 20
0
 11
93.9995
 21
-0.0523529
  0
LINE
  8
0
 10
93.9995
 20
-0.0523529
 11
93.9978
 21
-0.104675
  0
LINE
  8
0
 10
93.9978
 20
-0.104675
 11
93.9951
 21
-0.156967
  0
LINE
  8
0
 10
93.9951
 20
-0.156967
 11
93.9912
 21
-0.209183
  0
LINE
  8
0
 10
93.9912
 20
-0.209183
 11
93.9863
 21
-0.261307
  0
LINE
  8
0
 10
93.9863
 20
-0.261307
 11
93.9803
 21
-0.313324
  0
LINE
  8
0
 10
93.9803
 20
-0.313324
 11
93.9732
 21
-0.365204
  0
LINE
  8
0
 10
93.9732
 20
-0.365204
 11
93.965
 21
-0.416916
  0
LINE
  8
0
 10
93.965
 20
-0.416916
 11
93.9557
 21
-0.468445
  0
LINE
  8
0
 10
93.9557
 20
-0.468445
 11
93.9454
 21
-0.519775
  0
LINE
  8
0
 10
93.9454
 20
-0.519775
 11
93.9339
 21
-0.570877
  0
LINE
  8
0
 10
93.9339
 20
-0.570877
 11
93.9214
 21
-0.621719
  0
LINE
  8
0
 10
93.9214
 20
-0.621719
 11
93.9079
 21
-0.672287
  0
LINE
  8
0
 10
93.9079
 20
-0.672287
 11
93.8933
 21
-0.722565
  0
LINE
  8
0
 10
93.8933
 20
-0.722565
 11
93.8776
 21
-0.772537
  0
LINE
  8
0
 10
93.8776
 20
-0.772537
 11
93.8609
 21
-0.822159
  0
LINE
  8
0
 10
93.8609
 20
-0.822159
 11
93.8432
 21
-0.871429
  0
LINE
  8
0
 10
93.8432
 20
-0.871429
 11
93.8244
 21
-0.920303
  0
LINE
  8
0
 10
93.8244
 20
-0.920303
 11
93.8047
 21
-0.968781
  0
LINE
  8
0
 10
93.8047
 20
-0.968781
 11
93.7839
 21
-1.01683
  0
LINE
  8
0
 10
93.7839
 20
-1.01683
 11
93.7621
 21
-1.06444
  0
LINE
  8
0
 10
93.7621
 20
-1.06444
 11
93.7393
 21
-1.11159
  0
LINE
  8
0
 10
93.7393
 20
-1.11159
 11
93.7155
 21
-1.15823
  0
LINE
  8
0
 10
93.7155
 20
-1.15823
 11
93.6908
 21
-1.20438
  0
LINE
  8
0
 10
93.6908
 20
-1.20438
 11
93.6651
 21
-1.25
  0
LINE
  8
0
 10
93.6651
 20
-1.25
 11
93.6384
 21
-1.29506
  0
LINE
  8
0
 10
93.6384
 20
-1.29506
 11
93.6108
 21
-1.33955
  0
LINE
  8
0
 10
93.6108
 20
-1.33955
 11
93.5823
 21
-1.38347
  0
LINE
  8
0
 10
93.5823
 20
-1.38347
 11
93.5529
 21
-1.42677
  0
LINE
  8
0
 10
93.5529
 20
-1.42677
 11
93.5225
 21
-1.46945
  0
LINE
  8
0
 10
93.5225
 20
-1.46945
 11
93.4913
 21
-1.51149
  0
LINE
  8
0
 10
93.4913
 20
-1.51149
 11
93.4592
 21
-1.55286
  0
LINE
  8
0
 10
93.4592
 20
-1.55286
 11
93.4263
 21
-1.59355
  0
LINE
  8
0
 10
93.4263
 20
-1.59355
 11
93.3925
 21
-1.63354
  0
LINE
  8
0
 10
93.3925
 20
-1.63354
 11
93.3578
 21
-1.67282
  0
LINE
  8
0
 10
93.3578
 20
-1.67282
 11
93.3224
 21
-1.71136
  0
LINE
  8
0
 10
93.3224
 20
-1.71136
 11
93.2862
 21
-1.74915
  0
LINE
  8
0
 10
93.2862
 20
-1.74915
 11
93.2491
 21
-1.78618
  0
LINE
  8
0
 10
93.2491
 20
-1.78618
 11
93.2114
 21
-1.82242
  0
LINE
  8
0
 10
93.2114
 20
-1.82242
 11
93.1728
 21
-1.85785
  0
LINE
  8
0
 10
93.1728
 20
-1.85785
 11
93.1335
 21
-1.89249
  0
LINE
  8
0
 10
93.1335
 20
-1.89249
 11
93.0936
 21
-1.92627
  0
LINE
  8
0
 10
93.0936
 20
-1.92627
 11
93.0529
 21
-1.95923
  0
LINE
  8
0
 10
93.0529
 20
-1.95923
 11
93.0115
 21
-1.99132
  0
LINE
  8
0
 10
93.0115
 20
-1.99132
 11
92.9695
 21
-2.02254
  0
LINE
  8
0
 10
92.9695
 20
-2.02254
 11
92.9268
 21
-2.05287
  0
LINE
  8
0
 10
92.9268
 20
-2.05287
 11
92.8835
 21
-2.08229
  0
LINE
  8
0
 10
92.8835
 20
-2.08229
 11
92.8396
 21
-2.11081
  0
LINE
  8
0
 10
92.8396
 20
-2.11081
 11
92.7951
 21
-2.1384
  0
LINE
  8
0
 10
92.7951
 20
-2.1384
 11
92.75
 21
-2.16505
  0
LINE
  8
0
 10
92.75
 20
-2.16505
 11
92.7044
 21
-2.19077
  0
LINE
  8
0
 10
92.7044
 20
-2.19077
 11
92.6582
 21
-2.2155
  0
LINE
  8
0
 10
92.6582
 20
-2.2155
 11
92.6116
 21
-2.23927
  0
LINE
  8
0
 10
92.6116
 20
-2.23927
 11
92.5644
 21
-2.26205
  0
LINE
  8
0
 10
92.5644
 20
-2.26205
 11
92.5168
 21
-2.28386
  0
LINE
  8
0
 10
92.5168
 20
-2.28386
 11
92.4688
 21
-2.30466
  0
LINE
  8
0
 10
92.4688
 20
-2.30466
 11
92.4203
 21
-2.32443
  0
LINE
  8
0
 10
92.4203
 20
-2.32443
 11
92.3714
 21
-2.3432
  0
LINE
  8
0
 10
92.3714
 20
-2.3432
 11
92.3222
 21
-2.36093
  0
LINE
  8
0
 10
92.3222
 20
-2.36093
 11
92.2725
 21
-2.37764
  0
LINE
  8
0
 10
92.2725
 20
-2.37764
 11
92.2226
 21
-2.3933
  0
LINE
  8
0
 10
92.2226
 20
-2.3933
 11
92.1723
 21
-2.4079
  0
LINE
  8
0
 10
92.1723
 20
-2.4079
 11
92.1217
 21
-2.42145
  0
LINE
  8
0
 10
92.1217
 20
-2.42145
 11
92.0709
 21
-2.43394
  0
LINE
  8
0
 10
92.0709
 20
-2.43394
 11
92.0198
 21
-2.44536
  0
LINE
  8
0
 10
92.0198
 20
-2.44536
 11
91.9684
 21
-2.4557
  0
LINE
  8
0
 10
91.9684
 20
-2.4557
 11
91.9169
 21
-2.46498
  0
LINE
  8
0
 10
91.9169
 20
-2.46498
 11
91.8652
 21
-2.47318
  0
LINE
  8
0
 10
91.8652
 20
-2.47318
 11
91.8133
 21
-2.48029
  0
LINE
  8
0
 10
91.8133
 20
-2.48029
 11
91.7613
 21
-2.4863
  0
LINE
  8
0
 10
91.7613
 20
-2.4863
 11
91.7092
 21
-2.49123
  0
LINE
  8
0
 10
91.7092
 20
-2.49123
 11
91.657
 21
-2.49506
  0
LINE
  8
0
 10
91.657
 20
-2.49506
 11
91.6047
 21
-2.4978
  0
LINE
  8
0
 10
91.6047
 20
-2.4978
 11
91.5524
 21
-2.49945
  0
LINE
  8
0
 10
91.5524
 20
-2.49945
 11
91.5
 21
-2.5
  0
LINE
  8
0
 10
91.5
 20
-2.5
 11
91.4476
 21
-2.49945
  0
LINE
  8
0
 10
-91.5524
 20
-2.49945
 11
-91.6047
 21
-2.4978
  0
LINE
  8
0
 10
-91.6047
 20
-2.4978
 11
-91.657
 21
-2.49506
  0
LINE
  8
0
 10
-91.657
 20
-2.49506
 11
-91.7092
 21
-2.49123
  0
LINE
  8
0
 10
-91.7092
 20
-2.49123
 11
-91.7613
 21
-2.4863
  0
LINE
  8
0
 10
-91.7613
 20
-2.4863
 11
-91.8133
 21
-2.48029
  0
LINE
  8
0
 10
-91.8133
 20
-2.48029
 11
-91.8652
 21
-2.47318
  0
LINE
  8
0
 10
-91.8652
 20
-2.47318
 11
-91.9169
 21
-2.46498
  0
LINE
  8
0
 10
-91.9169
 20
-2.46498
 11
-91.9684
 21
-2.4557
  0
LINE
  8
0
 10
-91.9684
 20
-2.4557
 11
-92.0198
 21
-2.44536
  0
LINE
  8
0
 10
-92.0198
 20
-2.44536
 11
-92.0709
 21
-2.43394
  0
LINE
  8
0
 10
-92.0709
 20
-2.43394
 11
-92.1217
 21
-2.42145
  0
LINE
  8
0
 10
-92.1217
 20
-2.42145
 11
-92.1723
 21
-2.4079
  0
LINE
  8
0
 10
-92.1723
 20
-2.4079
 11
-92.2226
 21
-2.3933
  0
LINE
  8
0
 10
-92.2226
 20
-2.3933
 11
-92.2725
 21
-2.37764
  0
LINE
  8
0
 10
-92.2725
 20
-2.37764
 11
-92.3222
 21
-2.36093
  0
LINE
  8
0
 10
-92.3222
 20
-2.36093
 11
-92.3714
 21
-2.3432
  0
LINE
  8
0
 10
-92.3714
 20
-2.3432
 11
-92.4203
 21
-2.32443
  0
LINE
  8
0
 10
-92.4203
 20
-2.32443
 11
-92.4688
 21
-2.30466
  0
LINE
  8
0
 10
-92.4688
 20
-2.30466
 11
-92.5168
 21
-2.28386
  0
LINE
  8
0
 10
-92.5168
 20
-2.28386
 11
-92.5644
 21
-2.26205
  0
LINE
  8
0
 10
-92.5644
 20
-2.26205
 11
-92.6116
 21
-2.23927
  0
LINE
  8
0
 10
-92.6116
 20
-2.23927
 11
-92.6582
 21
-2.2155
  0
LINE
  8
0
 10
-92.6582
 20
-2.2155
 11
-92.7044
 21
-2.19077
  0
LINE
  8
0
 10
-92.7044
 20
-2.19077
 11
-92.75
 21
-2.16505
  0
LINE
  8
0
 10
-92.75
 20
-2.16505
 11
-92.7951
 21
-2.1384
  0
LINE
  8
0
 10
-92.7951
 20
-2.1384
 11
-92.8396
 21
-2.11081
  0
LINE
  8
0
 10
-92.8396
 20
-2.11081
 11
-92.8835
 21
-2.08229
  0
LINE
  8
0
 10
-92.8835
 20
-2.08229
 11
-92.9268
 21
-2.05287
  0
LINE
  8
0
 10
-92.9268
 20
-2.05287
 11
-92.9695
 21
-2.02254
  0
LINE
  8
0
 10
-92.9695
 20
-2.02254
 11
-93.0115
 21
-1.99132
  0
LINE
  8
0
 10
-93.0115
 20
-1.99132
 11
-93.0529
 21
-1.95923
  0
LINE
  8
0
 10
-93.0529
 20
-1.95923
 11
-93.0936
 21
-1.92627
  0
LINE
  8
0
 10
-93.0936
 20
-1.92627
 11
-93.1335
 21
-1.89249
  0
LINE
  8
0
 10
-93.1335
 20
-1.89249
 11
-93.1728
 21
-1.85785
  0
LINE
  8
0
 10
-93.1728
 20
-1.85785
 11
-93.2114
 21
-1.82242
  0
LINE
  8
0
 10
-93.2114
 20
-1.82242
 11
-93.2491
 21
-1.78618
  0
LINE
  8
0
 10
-93.2491
 20
-1.78618
 11
-93.2862
 21
-1.74915
  0
LINE
  8
0
 10
-93.2862
 20
-1.74915
 11
-93.3224
 21
-1.71136
  0
LINE
  8
0
 10
-93.3224
 20
-1.71136
 11
-93.3578
 21
-1.67282
  0
LINE
  8
0
 10
-93.3578
 20
-1.67282
 11
-93.3925
 21
-1.63354
  0
LINE
  8
0
 10
-93.3925
 20
-1.63354
 11
-93.4263
 21
-1.59355
  0
LINE
  8
0
 10
-93.4263
 20
-1.59355
 11
-93.4592
 21
-1.55286
  0
LINE
  8
0
 10
-93.4592
 20
-1.55286
 11
-93.4913
 21
-1.51149
  0
LINE
  8
0
 10
-93.4913
 20
-1.51149
 11
-93.5225
 21
-1.46945
  0
LINE
  8
0
 10
-93.5225
 20
-1.46945
 11
-93.5529
 21
-1.42677
  0
LINE
  8
0
 10
-93.5529
 20
-1.42677
 11
-93.5823
 21
-1.38347
  0
LINE
  8
0
 10
-93.5823
 20
-1.38347
 11
-93.6108
 21
-1.33955
  0
LINE
  8
0
 10
-93.6108
 20
-1.33955
 11
-93.6384
 21
-1.29506
  0
LINE
  8
0
 10
-93.6384
 20
-1.29506
 11
-93.6651
 21
-1.25
  0
LINE
  8
0
 10
-93.6651
 20
-1.25
 11
-93.6908
 21
-1.20438
  0
LINE
  8
0
 10
-93.6908
 20
-1.20438
 11
-93.7155
 21
-1.15823
  0
LINE
  8
0
 10
-93.7155
 20
-1.15823
 11
-93.7393
 21
-1.11159
  0
LINE
  8
0
 10
-93.7393
 20
-1.11159
 11
-93.7621
 21
-1.06444
  0
LINE
  8
0
 10
-93.7621
 20
-1.06444
 11
-93.7839
 21
-1.01683
  0
LINE
  8
0
 10
-93.7839
 20
-1.01683
 11
-93.8047
 21
-0.968781
  0
LINE
  8
0
 10
-93.8047
 20
-0.968781
 11
-93.8244
 21
-0.920303
  0
LINE
  8
0
 10
-93.8244
 20
-0.920303
 11
-93.8432
 21
-0.871429
  0
LINE
  8
0
 10
-93.8432
 20
-0.871429
 11
-93.8609
 21
-0.822159
  0
LINE
  8
0
 10
-93.8609
 20
-0.822159
 11
-93.8776
 21
-0.772537
  0
LINE
  8
0
 10
-93.8776
 20
-0.772537
 11
-93.8933
 21
-0.722565
  0
LINE
  8
0
 10
-93.8933
 20
-0.722565
 11
-93.9079
 21
-0.672287
  0
LINE
  8
0
 10
-93.9079
 20
-0.672287
 11
-93.9214
 21
-0.621719
  0
LINE
  8
0
 10
-93.9214
 20
-0.621719
 11
-93.9339
 21
-0.570877
  0
LINE
  8
0
 10
-93.9339
 20
-0.570877
 11
-93.9454
 21
-0.519775
  0
LINE
  8
0
 10
-93.9454
 20
-0.519775
 11
-93.9557
 21
-0.468445
  0
LINE
  8
0
 10
-93.9557
 20
-0.468445
 11
-93.965
 21
-0.416916
  0
LINE
  8
0
 10
-93.965
 20
-0.416916
 11
-93.9732
 21
-0.365204
  0
LINE
  8
0
 10
-93.9732
 20
-0.365204
 11
-93.9803
 21
-0.313324
  0
LINE
  8
0
 10
-93.9803
 20
-0.313324
 11
-93.9863
 21
-0.261307
  0
LINE
  8
0
 10
-93.9863
 20
-0.261307
 11
-93.9912
 21
-0.209183
  0
LINE
  8
0
 10
-93.9912
 20
-0.209183
 11
-93.9951
 21
-0.156967
  0
LINE
  8
0
 10
-93.9951
 20
-0.156967
 11
-93.9978
 21
-0.104675
  0
LINE
  8
0
 10
-93.9978
 20
-0.104675
 11
-93.9995
 21
-0.0523529
  0
LINE
  8
0
 10
-93.9995
 20
-0.0523529
 11
-94
 21
0
  0
LINE
  8
0
 10
-94
 20
0
 11
-93.9995
 21
0.0523529
  0
LINE
  8
0
 10
-93.9995
 20
0.0523529
 11
-93.9978
 21
0.104675
  0
LINE
  8
0
 10
-93.9978
 20
0.104675
 11
-93.9951
 21
0.156967
  0
LINE
  8
0
 10
-93.9951
 20
0.156967
 11
-93.9912
 21
0.209183
  0
LINE
  8
0
 10
-93.9912
 20
0.209183
 11
-93.9863
 21
0.261307
  0
LINE
  8
0
 10
-93.9863
 20
0.261307
 11
-93.9803
 21
0.313324
  0
LINE
  8
0
 10
-93.9803
 20
0.313324
 11
-93.9732
 21
0.365204
  0
LINE
  8
0
 10
-93.9732
 20
0.365204
 11
-93.965
 21
0.416916
  0
LINE
  8
0
 10
-93.965
 20
0.416916
 11
-93.9557
 21
0.468445
  0
LINE
  8
0
 10
-93.9557
 20
0.468445
 11
-93.9454
 21
0.519775
  0
LINE
  8
0
 10
-93.9454
 20
0.519775
 11
-93.9339
 21
0.570877
  0
LINE
  8
0
 10
-93.9339
 20
0.570877
 11
-93.9214
 21
0.621719
  0
LINE
  8
0
 10
-93.9214
 20
0.621719
 11
-93.9079
 21
0.672287
  0
LINE
  8
0
 10
-93.9079
 20
0.672287
 11
-93.8933
 21
0.722565
  0
LINE
  8
0
 10
-93.8933
 20
0.722565
 11
-93.8776
 21
0.772537
  0
LINE
  8
0
 10
-93.8776
 20
0.772537
 11
-93.8609
 21
0.822159
  0
LINE
  8
0
 10
-93.8609
 20
0.822159
 11
-93.8432
 21
0.871429
  0
LINE
  8
0
 10
-93.8432
 20
0.871429
 11
-93.8244
 21
0.920303
  0
LINE
  8
0
 10
-93.8244
 20
0.920303
 11
-93.8047
 21
0.968781
  0
LINE
  8
0
 10
-93.8047
 20
0.968781
 11
-93.7839
 21
1.01683
  0
LINE
  8
0
 10
-93.7839
 20
1.01683
 11
-93.7621
 21
1.06444
  0
LINE
  8
0
 10
-93.7621
 20
1.06444
 11
-93.7393
 21
1.11159
  0
LINE
  8
0
 10
-93.7393
 20
1.11159
 11
-93.7155
 21
1.15823
  0
LINE
  8
0
 10
-93.7155
 20
1.15823
 11
-93.6908
 21
1.20438
  0
LINE
  8
0
 10
-93.6908
 20
1.20438
 11
-93.6651
 21
1.25
  0
LINE
  8
0
 10
-93.6651
 20
1.25
 11
-93.6384
 21
1.29506
  0
LINE
  8
0
 10
-93.6384
 20
1.29506
 11
-93.6108
 21
1.33955
  0
LINE
  8
0
 10
-93.6108
 20
1.33955
 11
-93.5823
 21
1.38347
  0
LINE
  8
0
 10
-93.5823
 20
1.38347
 11
-93.5529
 21
1.42677
  0
LINE
  8
0
 10
-93.5529
 20
1.42677
 11
-93.5225
 21
1.46945
  0
LINE
  8
0
 10
-93.5225
 20
1.46945
 11
-93.4913
 21
1.51149
  0
LINE
  8
0
 10
-93.4913
 20
1.51149
 11
-93.4592
 21
1.55286
  0
LINE
  8
0
 10
-93.4592
 20
1.55286
 11
-93.4263
 21
1.59355
  0
LINE
  8
0
 10
-93.4263
 20
1.59355
 11
-93.3925
 21
1.63354
  0
LINE
  8
0
 10
-93.3925
 20
1.63354
 11
-93.3578
 21
1.67282
  0
LINE
  8
0
 10
-93.3578
 20
1.67282
 11
-93.3224
 21
1.71136
  0
LINE
  8
0
 10
-93.3224
 20
1.71136
 11
-93.2862
 21
1.74915
  0
LINE
  8
0
 10
-93.2862
 20
1.74915
 11
-93.2491
 21
1.78618
  0
LINE
  8
0
 10
-93.2491
 20
1.78618
 11
-93.2114
 21
1.82242
  0
LINE
  8
0
 10
-93.2114
 20
1.82242
 11
-93.1728
 21
1.85785
  0
LINE
  8
0
 10
-93.1728
 20
1.85785
 11
-93.1335
 21
1.89249
  0
LINE
  8
0
 10
-93.1335
 20
1.89249
 11
-93.0936
 21
1.92627
  0
LINE
  8
0
 10
-93.0936
 20
1.92627
 11
-93.0529
 21
1.95923
  0
LINE
  8
0
 10
-93.0529
 20
1.95923
 11
-93.0115
 21
1.99132
  0
LINE
  8
0
 10
-93.0115
 20
1.99132
 11
-92.9695
 21
2.02254
  0
LINE
  8
0
 10
-92.9695
 20
2.02254
 11
-92.9268
 21
2.05287
  0
LINE
  8
0
 10
-92.9268
 20
2.05287
 11
-92.8835
 21
2.08229
  0
LINE
  8
0
 10
-92.8835
 20
2.08229
 11
-92.8396
 21
2.11081
  0
LINE
  8
0
 10
-92.8396
 20
2.11081
 11
-92.7951
 21
2.1384
  0
LINE
  8
0
 10
-92.7951
 20
2.1384
 11
-92.75
 21
2.16505
  0
LINE
  8
0
 10
-92.75
 20
2.16505
 11
-92.7044
 21
2.19077
  0
LINE
  8
0
 10
-92.7044
 20
2.19077
 11
-92.6582
 21
2.2155
  0
LINE
  8
0
 10
-92.6582
 20
2.2155
 11
-92.6116
 21
2.23927
  0
LINE
  8
0
 10
-92.6116
 20
2.23927
 11
-92.5644
 21
2.26205
  0
LINE
  8
0
 10
-92.5644
 20
2.26205
 11
-92.5168
 21
2.28386
  0
LINE
  8
0
 10
-92.5168
 20
2.28386
 11
-92.4688
 21
2.30466
  0
LINE
  8
0
 10
-92.4688
 20
2.30466
 11
-92.4203
 21
2.32443
  0
LINE
  8
0
 10
-92.4203
 20
2.32443
 11
-92.3714
 21
2.3432
  0
LINE
  8
0
 10
-92.3714
 20
2.3432
 11
-92.3222
 21
2.36093
  0
LINE
  8
0
 10
-92.3222
 20
2.36093
 11
-92.2725
 21
2.37764
  0
LINE
  8
0
 10
-92.2725
 20
2.37764
 11
-92.2226
 21
2.3933
  0
LINE
  8
0
 10
-92.2226
 20
2.3933
 11
-92.1723
 21
2.4079
  0
LINE
  8
0
 10
-92.1723
 20
2.4079
 11
-92.1217
 21
2.42145
  0
LINE
  8
0
 10
-92.1217
 20
2.42145
 11
-92.0709
 21
2.43394
  0
LINE
  8
0
 10
-92.0709
 20
2.43394
 11
-92.0198
 21
2.44536
  0
LINE
  8
0
 10
-92.0198
 20
2.44536
 11
-91.9684
 21
2.4557
  0
LINE
  8
0
 10
-91.9684
 20
2.4557
 11
-91.9169
 21
2.46498
  0
LINE
  8
0
 10
-91.9169
 20
2.46498
 11
-91.8652
 21
2.47318
  0
LINE
  8
0
 10
-91.8652
 20
2.47318
 11
-91.8133
 21
2.48029
  0
LINE
  8
0
 10
-91.8133
 20
2.48029
 11
-91.7613
 21
2.4863
  0
LINE
  8
0
 10
-91.7613
 20
2.4863
 11
-91.7092
 21
2.49123
  0
LINE
  8
0
 10
-91.7092
 20
2.49123
 11
-91.657
 21
2.49506
  0
LINE
  8
0
 10
-91.657
 20
2.49506
 11
-91.6047
 21
2.4978
  0
LINE
  8
0
 10
-91.6047
 20
2.4978
 11
-91.5524
 21
2.49945
  0
LINE
  8
0
 10
-91.5524
 20
2.49945
 11
-91.5
 21
2.5
  0
LINE
  8
0
 10
-91.5
 20
2.5
 11
-91.4476
 21
2.49945
  0
LINE
  8
0
 10
-91.4476
 20
2.49945
 11
-91.3953
 21
2.4978
  0
LINE
  8
0
 10
-91.3953
 20
2.4978
 11
-91.343
 21
2.49506
  0
LINE
  8
0
 10
-91.343
 20
2.49506
 11
-91.2908
 21
2.49123
  0
LINE
  8
0
 10
-91.2908
 20
2.49123
 11
-91.2387
 21
2.4863
  0
LINE
  8
0
 10
-91.2387
 20
2.4863
 11
-91.1867
 21
2.48029
  0
LINE
  8
0
 10
-91.1867
 20
2.48029
 11
-91.1348
 21
2.47318
  0
LINE
  8
0
 10
-91.1348
 20
2.47318
 11
-91.0831
 21
2.46498
  0
LINE
  8
0
 10
-91.0831
 20
2.46498
 11
-91.0315
 21
2.4557
  0
LINE
  8
0
 10
-91.0315
 20
2.4557
 11
-90.9802
 21
2.44536
  0
LINE
  8
0
 10
-90.9802
 20
2.44536
 11
-90.9291
 21
2.43394
  0
LINE
  8
0
 10
-90.9291
 20
2.43394
 11
-90.8783
 21
2.42145
  0
LINE
  8
0
 10
-90.8783
 20
2.42145
 11
-90.8277
 21
2.4079
  0
LINE
  8
0
 10
-90.8277
 20
2.4079
 11
-90.7774
 21
2.3933
  0
LINE
  8
0
 10
-90.7774
 20
2.3933
 11
-90.7274
 21
2.37764
  0
LINE
  8
0
 10
-90.7274
 20
2.37764
 11
-90.6778
 21
2.36093
  0
LINE
  8
0
 10
-90.6778
 20
2.36093
 11
-90.6286
 21
2.3432
  0
LINE
  8
0
 10
-90.6286
 20
2.3432
 11
-90.5797
 21
2.32443
  0
LINE
  8
0
 10
-90.5797
 20
2.32443
 11
-90.5312
 21
2.30466
  0
LINE
  8
0
 10
-90.5312
 20
2.30466
 11
-90.4832
 21
2.28386
  0
LINE
  8
0
 10
-90.4832
 20
2.28386
 11
-90.4355
 21
2.26205
  0
LINE
  8
0
 10
-90.4355
 20
2.26205
 11
-90.3884
 21
2.23927
  0
LINE
  8
0
 10
-90.3884
 20
2.23927
 11
-90.3418
 21
2.2155
  0
LINE
  8
0
 10
-90.3418
 20
2.2155
 11
-90.2956
 21
2.19077
  0
LINE
  8
0
 10
-90.2956
 20
2.19077
 11
-90.25
 21
2.16505
  0
LINE
  8
0
 10
-90.25
 20
2.16505
 11
-90.2049
 21
2.1384
  0
LINE
  8
0
 10
-90.2049
 20
2.1384
 11
-90.1604
 21
2.11081
  0
LINE
  8
0
 10
-90.1604
 20
2.11081
 11
-90.1165
 21
2.08229
  0
LINE
  8
0
 10
-90.1165
 20
2.08229
 11
-90.0732
 21
2.05287
  0
LINE
  8
0
 10
-90.0732
 20
2.05287
 11
-90.0305
 21
2.02254
  0
LINE
  8
0
 10
-90.0305
 20
2.02254
 11
-89.9885
 21
1.99132
  0
LINE
  8
0
 10
-89.9885
 20
1.99132
 11
-89.9471
 21
1.95923
  0
LINE
  8
0
 10
-89.9471
 20
1.95923
 11
-89.9064
 21
1.92627
  0
LINE
  8
0
 10
-89.9064
 20
1.92627
 11
-89.8664
 21
1.89249
  0
LINE
  8
0
 10
-89.8664
 20
1.89249
 11
-89.8272
 21
1.85785
  0
LINE
  8
0
 10
-89.8272
 20
1.85785
 11
-89.7886
 21
1.82242
  0
LINE
  8
0
 10
-89.7886
 20
1.82242
 11
-89.7508
 21
1.78618
  0
LINE
  8
0
 10
-89.7508
 20
1.78618
 11
-89.7138
 21
1.74915
  0
LINE
  8
0
 10
-89.7138
 20
1.74915
 11
-89.6776
 21
1.71136
  0
LINE
  8
0
 10
-89.6776
 20
1.71136
 11
-89.6421
 21
1.67282
  0
LINE
  8
0
 10
-89.6421
 20
1.67282
 11
-89.6075
 21
1.63354
  0
LINE
  8
0
 10
-89.6075
 20
1.63354
 11
-89.5737
 21
1.59355
  0
LINE
  8
0
 10
-89.5737
 20
1.59355
 11
-89.5408
 21
1.55286
  0
LINE
  8
0
 10
-89.5408
 20
1.55286
 11
-89.5087
 21
1.51149
  0
LINE
  8
0
 10
-89.5087
 20
1.51149
 11
-89.4774
 21
1.46945
  0
LINE
  8
0
 10
-89.4774
 20
1.46945
 11
-89.4471
 21
1.42677
  0
LINE
  8
0
 10
-89.4471
 20
1.42677
 11
-89.4177
 21
1.38347
  0
LINE
  8
0
 10
-89.4177
 20
1.38347
 11
-89.3892
 21
1.33955
  0
LINE
  8
0
 10
-89.3892
 20
1.33955
 11
-89.3616
 21
1.29506
  0
LINE
  8
0
 10
-89.3616
 20
1.29506
 11
-89.3349
 21
1.25
  0
LINE
  8
0
 10
-89.3349
 20
1.25
 11
-89.3092
 21
1.20438
  0
LINE
  8
0
 10
-89.3092
 20
1.20438
 11
-89.2845
 21
1.15823
  0
LINE
  8
0
 10
-89.2845
 20
1.15823
 11
-89.2607
 21
1.11159
  0
LINE
  8
0
 10
-89.2607
 20
1.11159
 11
-89.2379
 21
1.06444
  0
LINE
  8
0
 10
-89.2379
 20
1.06444
 11
-89.2161
 21
1.01683
  0
LINE
  8
0
 10
-89.2161
 20
1.01683
 11
-89.1953
 21
0.968781
  0
LINE
  8
0
 10
-89.1953
 20
0.968781
 11
-89.1756
 21
0.920303
  0
LINE
  8
0
 10
-89.1756
 20
0.920303
 11
-89.1568
 21
0.871429
  0
LINE
  8
0
 10
-89.1568
 20
0.871429
 11
-89.1391
 21
0.822159
  0
LINE
  8
0
 10
-89.1391
 20
0.822159
 11
-89.1223
 21
0.772537
  0
LINE
  8
0
 10
-89.1223
 20
0.772537
 11
-89.1067
 21
0.722565
  0
LINE
  8
0
 10
-89.1067
 20
0.722565
 11
-89.0921
 21
0.672287
  0
LINE
  8
0
 10
-89.0921
 20
0.672287
 11
-89.0785
 21
0.621719
  0
LINE
  8
0
 10
-89.0785
 20
0.621719
 11
-89.066
 21
0.570877
  0
LINE
  8
0
 10
-89.066
 20
0.570877
 11
-89.0546
 21
0.519775
  0
LINE
  8
0
 10
-89.0546
 20
0.519775
 11
-89.0443
 21
0.468445
  0
LINE
  8
0
 10
-89.0443
 20
0.468445
 11
-89.035
 21
0.416916
  0
LINE
  8
0
 10
-89.035
 20
0.416916
 11
-89.0268
 21
0.365204
  0
LINE
  8
0
 10
-89.0268
 20
0.365204
 11
-89.0197
 21
0.313324
  0
LINE
  8
0
 10
-89.0197
 20
0.313324
 11
-89.0137
 21
0.261307
  0
LINE
  8
0
 10
-89.0137
 20
0.261307
 11
-89.0088
 21
0.209183
  0
LINE
  8
0
 10
-89.0088
 20
0.209183
 11
-89.0049
 21
0.156967
  0
LINE
  8
0
 10
-89.0049
 20
0.156967
 11
-89.0022
 21
0.104675
  0
LINE
  8
0
 10
-89.0022
 20
0.104675
 11
-89.0005
 21
0.0523529
  0
LINE
  8
0
 10
-89.0005
 20
0.0523529
 11
-89
 21
0
  0
LINE
  8
0
 10
-89
 20
0
 11
-89.0005
 21
-0.0523529
  0
LINE
  8
0
 10
-89.0005
 20
-0.0523529
 11
-89.0022
 21
-0.104675
  0
LINE
  8
0
 10
-89.0022
 20
-0.104675
 11
-89.0049
 21
-0.156967
  0
LINE
  8
0
 10
-89.0049
 20
-0.156967
 11
-89.0088
 21
-0.209183
  0
LINE
  8
0
 10
-89.0088
 20
-0.209183
 11
-89.0137
 21
-0.261307
  0
LINE
  8
0
 10
-89.0137
 20
-0.261307
 11
-89.0197
 21
-0.313324
  0
LINE
  8
0
 10
-89.0197
 20
-0.313324
 11
-89.0268
 21
-0.365204
  0
LINE
  8
0
 10
-89.0268
 20
-0.365204
 11
-89.035
 21
-0.416916
  0
LINE
  8
0
 10
-89.035
 20
-0.416916
 11
-89.0443
 21
-0.468445
  0
LINE
  8
0
 10
-89.0443
 20
-0.468445
 11
-89.0546
 21
-0.519775
  0
LINE
  8
0
 10
-89.0546
 20
-0.519775
 11
-89.066
 21
-0.570877
  0
LINE
  8
0
 10
-89.066
 20
-0.570877
 11
-89.0785
 21
-0.621719
  0
LINE
  8
0
 10
-89.0785
 20
-0.621719
 11
-89.0921
 21
-0.672287
  0
LINE
  8
0
 10
-89.0921
 20
-0.672287
 11
-89.1067
 21
-0.722565
  0
LINE
  8
0
 10
-89.1067
 20
-0.722565
 11
-89.1223
 21
-0.772537
  0
LINE
  8
0
 10
-89.1223
 20
-0.772537
 11
-89.1391
 21
-0.822159
  0
LINE
  8
0
 10
-89.1391
 20
-0.822159
 11
-89.1568
 21
-0.871429
  0
LINE
  8
0
 10
-89.1568
 20
-0.871429
 11
-89.1756
 21
-0.920303
  0
LINE
  8
0
 10
-89.1756
 20
-0.920303
 11
-89.1953
 21
-0.968781
  0
LINE
  8
0
 10
-89.1953
 20
-0.968781
 11
-89.2161
 21
-1.01683
  0
LINE
  8
0
 10
-89.2161
 20
-1.01683
 11
-89.2379
 21
-1.06444
  0
LINE
  8
0
 10
-89.2379
 20
-1.06444
 11
-89.2607
 21
-1.11159
  0
LINE
  8
0
 10
-89.2607
 20
-1.11159
 11
-89.2845
 21
-1.15823
  0
LINE
  8
0
 10
-89.2845
 20
-1.15823
 11
-89.3092
 21
-1.20438
  0
LINE
  8
0
 10
-89.3092
 20
-1.20438
 11
-89.3349
 21
-1.25
  0
LINE
  8
0
 10
-89.3349
 20
-1.25
 11
-89.3616
 21
-1.29506
  0
LINE
  8
0
 10
-89.3616
 20
-1.29506
 11
-89.3892
 21
-1.33955
  0
LINE
  8
0
 10
-89.3892
 20
-1.33955
 11
-89.4177
 21
-1.38347
  0
LINE
  8
0
 10
-89.4177
 20
-1.38347
 11
-89.4471
 21
-1.42677
  0
LINE
  8
0
 10
-89.4471
 20
-1.42677
 11
-89.4774
 21
-1.46945
  0
LINE
  8
0
 10
-89.4774
 20
-1.46945
 11
-89.5087
 21
-1.51149
  0
LINE
  8
0
 10
-89.5087
 20
-1.51149
 11
-89.5408
 21
-1.55286
  0
LINE
  8
0
 10
-89.5408
 20
-1.55286
 11
-89.5737
 21
-1.59355
  0
LINE
  8
0
 10
-89.5737
 20
-1.59355
 11
-89.6075
 21
-1.63354
  0
LINE
  8
0
 10
-89.6075
 20
-1.63354
 11
-89.6421
 21
-1.67282
  0
LINE
  8
0
 10
-89.6421
 20
-1.67282
 11
-89.6776
 21
-1.71136
  0
LINE
  8
0
 10
-89.6776
 20
-1.71136
 11
-89.7138
 21
-1.74915
  0
LINE
  8
0
 10
-89.7138
 20
-1.74915
 11
-89.7508
 21
-1.78618
  0
LINE
  8
0
 10
-89.7508
 20
-1.78618
 11
-89.7886
 21
-1.82242
  0
LINE
  8
0
 10
-89.7886
 20
-1.82242
 11
-89.8272
 21
-1.85785
  0
LINE
  8
0
 10
-89.8272
 20
-1.85785
 11
-89.8664
 21
-1.89249
  0
LINE
  8
0
 10
-89.8664
 20
-1.89249
 11
-89.9064
 21
-1.92627
  0
LINE
  8
0
 10
-89.9064
 20
-1.92627
 11
-89.9471
 21
-1.95923
  0
LINE
  8
0
 10
-89.9471
 20
-1.95923
 11
-89.9885
 21
-1.99132
  0
LINE
  8
0
 10
-89.9885
 20
-1.99132
 11
-90.0305
 21
-2.02254
  0
LINE
  8
0
 10
-90.0305
 20
-2.02254
 11
-90.0732
 21
-2.05287
  0
LINE
  8
0
 10
-90.0732
 20
-2.05287
 11
-90.1165
 21
-2.08229
  0
LINE
  8
0
 10
-90.1165
 20
-2.08229
 11
-90.1604
 21
-2.11081
  0
LINE
  8
0
 10
-90.1604
 20
-2.11081
 11
-90.2049
 21
-2.1384
  0
LINE
  8
0
 10
-90.2049
 20
-2.1384
 11
-90.25
 21
-2.16505
  0
LINE
  8
0
 10
-90.25
 20
-2.16505
 11
-90.2956
 21
-2.19077
  0
LINE
  8
0
 10
-90.2956
 20
-2.19077
 11
-90.3418
 21
-2.2155
  0
LINE
  8
0
 10
-90.3418
 20
-2.2155
 11
-90.3884
 21
-2.23927
  0
LINE
  8
0
 10
-90.3884
 20
-2.23927
 11
-90.4355
 21
-2.26205
  0
LINE
  8
0
 10
-90.4355
 20
-2.26205
 11
-90.4832
 21
-2.28386
  0
LINE
  8
0
 10
-90.4832
 20
-2.28386
 11
-90.5312
 21
-2.30466
  0
LINE
  8
0
 10
-90.5312
 20
-2.30466
 11
-90.5797
 21
-2.32443
  0
LINE
  8
0
 10
-90.5797
 20
-2.32443
 11
-90.6286
 21
-2.3432
  0
LINE
  8
0
 10
-90.6286
 20
-2.3432
 11
-90.6778
 21
-2.36093
  0
LINE
  8
0
 10
-90.6778
 20
-2.36093
 11
-90.7274
 21
-2.37764
  0
LINE
  8
0
 10
-90.7274
 20
-2.37764
 11
-90.7774
 21
-2.3933
  0
LINE
  8
0
 10
-90.7774
 20
-2.3933
 11
-90.8277
 21
-2.4079
  0
LINE
  8
0
 10
-90.8277
 20
-2.4079
 11
-90.8783
 21
-2.42145
  0
LINE
  8
0
 10
-90.8783
 20
-2.42145
 11
-90.9291
 21
-2.43394
  0
LINE
  8
0
 10
-90.9291
 20
-2.43394
 11
-90.9802
 21
-2.44536
  0
LINE
  8
0
 10
-90.9802
 20
-2.44536
 11
-91.0315
 21
-2.4557
  0
LINE
  8
0
 10
-91.0315
 20
-2.4557
 11
-91.0831
 21
-2.46498
  0
LINE
  8
0
 10
-91.0831
 20
-2.46498
 11
-91.1348
 21
-2.47318
  0
LINE
  8
0
 10
-91.1348
 20
-2.47318
 11
-91.1867
 21
-2.48029
  0
LINE
  8
0
 10
-91.1867
 20
-2.48029
 11
-91.2387
 21
-2.4863
  0
LINE
  8
0
 10
-91.2387
 20
-2.4863
 11
-91.2908
 21
-2.49123
  0
LINE
  8
0
 10
-91.2908
 20
-2.49123
 11
-91.343
 21
-2.49506
  0
LINE
  8
0
 10
-91.343
 20
-2.49506
 11
-91.3953
 21
-2.4978
  0
LINE
  8
0
 10
-91.3953
 20
-2.4978
 11
-91.4476
 21
-2.49945
  0
LINE
  8
0
 10
-91.4476
 20
-2.49945
 11
-91.5
 21
-2.5
  0
LINE
  8
0
 10
-91.5
 20
-2.5
 11
-91.5524
 21
-2.49945
  0
LINE
  8
0
 10
-64.7264
 20
-67.2001
 11
-64.7788
 21
-67.199
  0
LINE
  8
0
 10
-64.7788
 20
-67.199
 11
-64.8311
 21
-67.1968
  0
LINE
  8
0
 10
-64.8311
 20
-67.1968
 11
-64.8834
 21
-67.1935
  0
LINE
  8
0
 10
-64.8834
 20
-67.1935
 11
-64.9355
 21
-67.1892
  0
LINE
  8
0
 10
-64.9355
 20
-67.1892
 11
-64.9876
 21
-67.1837
  0
LINE
  8
0
 10
-64.9876
 20
-67.1837
 11
-65.0396
 21
-67.1771
  0
LINE
  8
0
 10
-65.0396
 20
-67.1771
 11
-65.0914
 21
-67.1695
  0
LINE
  8
0
 10
-65.0914
 20
-67.1695
 11
-65.143
 21
-67.1608
  0
LINE
  8
0
 10
-65.143
 20
-67.1608
 11
-65.1944
 21
-67.1509
  0
LINE
  8
0
 10
-65.1944
 20
-67.1509
 11
-65.2456
 21
-67.1401
  0
LINE
  8
0
 10
-65.2456
 20
-67.1401
 11
-65.2966
 21
-67.1281
  0
LINE
  8
0
 10
-65.2966
 20
-67.1281
 11
-65.3473
 21
-67.1151
  0
LINE
  8
0
 10
-65.3473
 20
-67.1151
 11
-65.3977
 21
-67.101
  0
LINE
  8
0
 10
-65.3977
 20
-67.101
 11
-65.4479
 21
-67.0859
  0
LINE
  8
0
 10
-65.4479
 20
-67.0859
 11
-65.4977
 21
-67.0697
  0
LINE
  8
0
 10
-65.4977
 20
-67.0697
 11
-65.5471
 21
-67.0525
  0
LINE
  8
0
 10
-65.5471
 20
-67.0525
 11
-65.5962
 21
-67.0342
  0
LINE
  8
0
 10
-65.5962
 20
-67.0342
 11
-65.6449
 21
-67.0149
  0
LINE
  8
0
 10
-65.6449
 20
-67.0149
 11
-65.6931
 21
-66.9946
  0
LINE
  8
0
 10
-65.6931
 20
-66.9946
 11
-65.741
 21
-66.9734
  0
LINE
  8
0
 10
-65.741
 20
-66.9734
 11
-65.7883
 21
-66.9511
  0
LINE
  8
0
 10
-65.7883
 20
-66.9511
 11
-65.8352
 21
-66.9278
  0
LINE
  8
0
 10
-65.8352
 20
-66.9278
 11
-65.8816
 21
-66.9035
  0
LINE
  8
0
 10
-65.8816
 20
-66.9035
 11
-65.9275
 21
-66.8783
  0
LINE
  8
0
 10
-65.9275
 20
-66.8783
 11
-65.9729
 21
-66.8521
  0
LINE
  8
0
 10
-65.9729
 20
-66.8521
 11
-66.0177
 21
-66.825
  0
LINE
  8
0
 10
-66.0177
 20
-66.825
 11
-66.0619
 21
-66.7969
  0
LINE
  8
0
 10
-66.0619
 20
-66.7969
 11
-66.1055
 21
-66.768
  0
LINE
  8
0
 10
-66.1055
 20
-66.768
 11
-66.1485
 21
-66.7381
  0
LINE
  8
0
 10
-66.1485
 20
-66.7381
 11
-66.1908
 21
-66.7073
  0
LINE
  8
0
 10
-66.1908
 20
-66.7073
 11
-66.2325
 21
-66.6756
  0
LINE
  8
0
 10
-66.2325
 20
-66.6756
 11
-66.2736
 21
-66.6431
  0
LINE
  8
0
 10
-66.2736
 20
-66.6431
 11
-66.3139
 21
-66.6098
  0
LINE
  8
0
 10
-66.3139
 20
-66.6098
 11
-66.3535
 21
-66.5755
  0
LINE
  8
0
 10
-66.3535
 20
-66.5755
 11
-66.3925
 21
-66.5405
  0
LINE
  8
0
 10
-66.3925
 20
-66.5405
 11
-66.4306
 21
-66.5047
  0
LINE
  8
0
 10
-66.4306
 20
-66.5047
 11
-66.468
 21
-66.468
  0
LINE
  8
0
 10
-66.468
 20
-66.468
 11
-66.5047
 21
-66.4306
  0
LINE
  8
0
 10
-66.5047
 20
-66.4306
 11
-66.5405
 21
-66.3925
  0
LINE
  8
0
 10
-66.5405
 20
-66.3925
 11
-66.5755
 21
-66.3535
  0
LINE
  8
0
 10
-66.5755
 20
-66.3535
 11
-66.6098
 21
-66.3139
  0
LINE
  8
0
 10
-66.6098
 20
-66.3139
 11
-66.6431
 21
-66.2736
  0
LINE
  8
0
 10
-66.6431
 20
-66.2736
 11
-66.6756
 21
-66.2325
  0
LINE
  8
0
 10
-66.6756
 20
-66.2325
 11
-66.7073
 21
-66.1908
  0
LINE
  8
0
 10
-66.7073
 20
-66.1908
 11
-66.7381
 21
-66.1485
  0
LINE
  8
0
 10
-66.7381
 20
-66.1485
 11
-66.768
 21
-66.1055
  0
LINE
  8
0
 10
-66.768
 20
-66.1055
 11
-66.7969
 21
-66.0619
  0
LINE
  8
0
 10
-66.7969
 20
-66.0619
 11
-66.825
 21
-66.0177
  0
LINE
  8
0
 10
-66.825
 20
-66.0177
 11
-66.8521
 21
-65.9729
  0
LINE
  8
0
 10
-66.8521
 20
-65.9729
 11
-66.8783
 21
-65.9275
  0
LINE
  8
0
 10
-66.8783
 20
-65.9275
 11
-66.9035
 21
-65.8816
  0
LINE
  8
0
 10
-66.9035
 20
-65.8816
 11
-66.9278
 21
-65.8352
  0
LINE
  8
0
 10
-66.9278
 20
-65.8352
 11
-66.9511
 21
-65.7883
  0
LINE
  8
0
 10
-66.9511
 20
-65.7883
 11
-66.9734
 21
-65.741
  0
LINE
  8
0
 10
-66.9734
 20
-65.741
 11
-66.9946
 21
-65.6931
  0
LINE
  8
0
 10
-66.9946
 20
-65.6931
 11
-67.0149
 21
-65.6449
  0
LINE
  8
0
 10
-67.0149
 20
-65.6449
 11
-67.0342
 21
-65.5962
  0
LINE
  8
0
 10
-67.0342
 20
-65.5962
 11
-67.0525
 21
-65.5471
  0
LINE
  8
0
 10
-67.0525
 20
-65.5471
 11
-67.0697
 21
-65.4977
  0
LINE
  8
0
 10
-67.0697
 20
-65.4977
 11
-67.0859
 21
-65.4479
  0
LINE
  8
0
 10
-67.0859
 20
-65.4479
 11
-67.101
 21
-65.3977
  0
LINE
  8
0
 10
-67.101
 20
-65.3977
 11
-67.1151
 21
-65.3473
  0
LINE
  8
0
 10
-67.1151
 20
-65.3473
 11
-67.1281
 21
-65.2966
  0
LINE
  8
0
 10
-67.1281
 20
-65.2966
 11
-67.1401
 21
-65.2456
  0
LINE
  8
0
 10
-67.1401
 20
-65.2456
 11
-67.1509
 21
-65.1944
  0
LINE
  8
0
 10
-67.1509
 20
-65.1944
 11
-67.1608
 21
-65.143
  0
LINE
  8
0
 10
-67.1608
 20
-65.143
 11
-67.1695
 21
-65.0914
  0
LINE
  8
0
 10
-67.1695
 20
-65.0914
 11
-67.1771
 21
-65.0396
  0
LINE
  8
0
 10
-67.1771
 20
-65.0396
 11
-67.1837
 21
-64.9876
  0
LINE
  8
0
 10
-67.1837
 20
-64.9876
 11
-67.1892
 21
-64.9355
  0
LINE
  8
0
 10
-67.1892
 20
-64.9355
 11
-67.1935
 21
-64.8834
  0
LINE
  8
0
 10
-67.1935
 20
-64.8834
 11
-67.1968
 21
-64.8311
  0
LINE
  8
0
 10
-67.1968
 20
-64.8311
 11
-67.199
 21
-64.7788
  0
LINE
  8
0
 10
-67.199
 20
-64.7788
 11
-67.2001
 21
-64.7264
  0
LINE
  8
0
 10
-67.2001
 20
-64.7264
 11
-67.2001
 21
-64.6741
  0
LINE
  8
0
 10
-67.2001
 20
-64.6741
 11
-67.199
 21
-64.6217
  0
LINE
  8
0
 10
-67.199
 20
-64.6217
 11
-67.1968
 21
-64.5694
  0
LINE
  8
0
 10
-67.1968
 20
-64.5694
 11
-67.1935
 21
-64.5172
  0
LINE
  8
0
 10
-67.1935
 20
-64.5172
 11
-67.1892
 21
-64.465
  0
LINE
  8
0
 10
-67.1892
 20
-64.465
 11
-67.1837
 21
-64.4129
  0
LINE
  8
0
 10
-67.1837
 20
-64.4129
 11
-67.1771
 21
-64.361
  0
LINE
  8
0
 10
-67.1771
 20
-64.361
 11
-67.1695
 21
-64.3092
  0
LINE
  8
0
 10
-67.1695
 20
-64.3092
 11
-67.1608
 21
-64.2576
  0
LINE
  8
0
 10
-67.1608
 20
-64.2576
 11
-67.1509
 21
-64.2061
  0
LINE
  8
0
 10
-67.1509
 20
-64.2061
 11
-67.1401
 21
-64.1549
  0
LINE
  8
0
 10
-67.1401
 20
-64.1549
 11
-67.1281
 21
-64.1039
  0
LINE
  8
0
 10
-67.1281
 20
-64.1039
 11
-67.1151
 21
-64.0532
  0
LINE
  8
0
 10
-67.1151
 20
-64.0532
 11
-67.101
 21
-64.0028
  0
LINE
  8
0
 10
-67.101
 20
-64.0028
 11
-67.0859
 21
-63.9527
  0
LINE
  8
0
 10
-67.0859
 20
-63.9527
 11
-67.0697
 21
-63.9029
  0
LINE
  8
0
 10
-67.0697
 20
-63.9029
 11
-67.0525
 21
-63.8534
  0
LINE
  8
0
 10
-67.0525
 20
-63.8534
 11
-67.0342
 21
-63.8043
  0
LINE
  8
0
 10
-67.0342
 20
-63.8043
 11
-67.0149
 21
-63.7557
  0
LINE
  8
0
 10
-67.0149
 20
-63.7557
 11
-66.9946
 21
-63.7074
  0
LINE
  8
0
 10
-66.9946
 20
-63.7074
 11
-66.9734
 21
-63.6596
  0
LINE
  8
0
 10
-66.9734
 20
-63.6596
 11
-66.9511
 21
-63.6122
  0
LINE
  8
0
 10
-66.9511
 20
-63.6122
 11
-66.9278
 21
-63.5653
  0
LINE
  8
0
 10
-66.9278
 20
-63.5653
 11
-66.9035
 21
-63.5189
  0
LINE
  8
0
 10
-66.9035
 20
-63.5189
 11
-66.8783
 21
-63.473
  0
LINE
  8
0
 10
-66.8783
 20
-63.473
 11
-66.8521
 21
-63.4277
  0
LINE
  8
0
 10
-66.8521
 20
-63.4277
 11
-66.825
 21
-63.3829
  0
LINE
  8
0
 10
-66.825
 20
-63.3829
 11
-66.7969
 21
-63.3387
  0
LINE
  8
0
 10
-66.7969
 20
-63.3387
 11
-66.768
 21
-63.2951
  0
LINE
  8
0
 10
-66.768
 20
-63.2951
 11
-66.7381
 21
-63.2521
  0
LINE
  8
0
 10
-66.7381
 20
-63.2521
 11
-66.7073
 21
-63.2097
  0
LINE
  8
0
 10
-66.7073
 20
-63.2097
 11
-66.6756
 21
-63.168
  0
LINE
  8
0
 10
-66.6756
 20
-63.168
 11
-66.6431
 21
-63.127
  0
LINE
  8
0
 10
-66.6431
 20
-63.127
 11
-66.6098
 21
-63.0866
  0
LINE
  8
0
 10
-66.6098
 20
-63.0866
 11
-66.5755
 21
-63.047
  0
LINE
  8
0
 10
-66.5755
 20
-63.047
 11
-66.5405
 21
-63.0081
  0
LINE
  8
0
 10
-66.5405
 20
-63.0081
 11
-66.5047
 21
-62.9699
  0
LINE
  8
0
 10
-66.5047
 20
-62.9699
 11
-66.468
 21
-62.9325
  0
LINE
  8
0
 10
-66.468
 20
-62.9325
 11
-66.4306
 21
-62.8959
  0
LINE
  8
0
 10
-66.4306
 20
-62.8959
 11
-66.3925
 21
-62.86
  0
LINE
  8
0
 10
-66.3925
 20
-62.86
 11
-66.3535
 21
-62.825
  0
LINE
  8
0
 10
-66.3535
 20
-62.825
 11
-66.3139
 21
-62.7908
  0
LINE
  8
0
 10
-66.3139
 20
-62.7908
 11
-66.2736
 21
-62.7574
  0
LINE
  8
0
 10
-66.2736
 20
-62.7574
 11
-66.2325
 21
-62.7249
  0
LINE
  8
0
 10
-66.2325
 20
-62.7249
 11
-66.1908
 21
-62.6932
  0
LINE
  8
0
 10
-66.1908
 20
-62.6932
 11
-66.1485
 21
-62.6624
  0
LINE
  8
0
 10
-66.1485
 20
-62.6624
 11
-66.1055
 21
-62.6326
  0
LINE
  8
0
 10
-66.1055
 20
-62.6326
 11
-66.0619
 21
-62.6036
  0
LINE
  8
0
 10
-66.0619
 20
-62.6036
 11
-66.0177
 21
-62.5755
  0
LINE
  8
0
 10
-66.0177
 20
-62.5755
 11
-65.9729
 21
-62.5484
  0
LINE
  8
0
 10
-65.9729
 20
-62.5484
 11
-65.9275
 21
-62.5222
  0
LINE
  8
0
 10
-65.9275
 20
-62.5222
 11
-65.8816
 21
-62.497
  0
LINE
  8
0
 10
-65.8816
 20
-62.497
 11
-65.8352
 21
-62.4727
  0
LINE
  8
0
 10
-65.8352
 20
-62.4727
 11
-65.7883
 21
-62.4495
  0
LINE
  8
0
 10
-65.7883
 20
-62.4495
 11
-65.741
 21
-62.4272
  0
LINE
  8
0
 10
-65.741
 20
-62.4272
 11
-65.6931
 21
-62.4059
  0
LINE
  8
0
 10
-65.6931
 20
-62.4059
 11
-65.6449
 21
-62.3856
  0
LINE
  8
0
 10
-65.6449
 20
-62.3856
 11
-65.5962
 21
-62.3663
  0
LINE
  8
0
 10
-65.5962
 20
-62.3663
 11
-65.5471
 21
-62.3481
  0
LINE
  8
0
 10
-65.5471
 20
-62.3481
 11
-65.4977
 21
-62.3308
  0
LINE
  8
0
 10
-65.4977
 20
-62.3308
 11
-65.4479
 21
-62.3147
  0
LINE
  8
0
 10
-65.4479
 20
-62.3147
 11
-65.3977
 21
-62.2995
  0
LINE
  8
0
 10
-65.3977
 20
-62.2995
 11
-65.3473
 21
-62.2854
  0
LINE
  8
0
 10
-65.3473
 20
-62.2854
 11
-65.2966
 21
-62.2724
  0
LINE
  8
0
 10
-65.2966
 20
-62.2724
 11
-65.2456
 21
-62.2605
  0
LINE
  8
0
 10
-65.2456
 20
-62.2605
 11
-65.1944
 21
-62.2496
  0
LINE
  8
0
 10
-65.1944
 20
-62.2496
 11
-65.143
 21
-62.2398
  0
LINE
  8
0
 10
-65.143
 20
-62.2398
 11
-65.0914
 21
-62.231
  0
LINE
  8
0
 10
-65.0914
 20
-62.231
 11
-65.0396
 21
-62.2234
  0
LINE
  8
0
 10
-65.0396
 20
-62.2234
 11
-64.9876
 21
-62.2168
  0
LINE
  8
0
 10
-64.9876
 20
-62.2168
 11
-64.9355
 21
-62.2114
  0
LINE
  8
0
 10
-64.9355
 20
-62.2114
 11
-64.8834
 21
-62.207
  0
LINE
  8
0
 10
-64.8834
 20
-62.207
 11
-64.8311
 21
-62.2037
  0
LINE
  8
0
 10
-64.8311
 20
-62.2037
 11
-64.7788
 21
-62.2015
  0
LINE
  8
0
 10
-64.7788
 20
-62.2015
 11
-64.7264
 21
-62.2004
  0
LINE
  8
0
 10
-64.7264
 20
-62.2004
 11
-64.6741
 21
-62.2004
  0
LINE
  8
0
 10
-64.6741
 20
-62.2004
 11
-64.6217
 21
-62.2015
  0
LINE
  8
0
 10
-64.6217
 20
-62.2015
 11
-64.5694
 21
-62.2037
  0
LINE
  8
0
 10
-64.5694
 20
-62.2037
 11
-64.5172
 21
-62.207
  0
LINE
  8
0
 10
-64.5172
 20
-62.207
 11
-64.465
 21
-62.2114
  0
LINE
  8
0
 10
-64.465
 20
-62.2114
 11
-64.4129
 21
-62.2168
  0
LINE
  8
0
 10
-64.4129
 20
-62.2168
 11
-64.361
 21
-62.2234
  0
LINE
  8
0
 10
-64.361
 20
-62.2234
 11
-64.3092
 21
-62.231
  0
LINE
  8
0
 10
-64.3092
 20
-62.231
 11
-64.2576
 21
-62.2398
  0
LINE
  8
0
 10
-64.2576
 20
-62.2398
 11
-64.2061
 21
-62.2496
  0
LINE
  8
0
 10
-64.2061
 20
-62.2496
 11
-64.1549
 21
-62.2605
  0
LINE
  8
0
 10
-64.1549
 20
-62.2605
 11
-64.1039
 21
-62.2724
  0
LINE
  8
0
 10
-64.1039
 20
-62.2724
 11
-64.0532
 21
-62.2854
  0
LINE
  8
0
 10
-64.0532
 20
-62.2854
 11
-64.0028
 21
-62.2995
  0
LINE
  8
0
 10
-64.0028
 20
-62.2995
 11
-63.9527
 21
-62.3147
  0
LINE
  8
0
 10
-63.9527
 20
-62.3147
 11
-63.9029
 21
-62.3308
  0
LINE
  8
0
 10
-63.9029
 20
-62.3308
 11
-63.8534
 21
-62.3481
  0
LINE
  8
0
 10
-63.8534
 20
-62.3481
 11
-63.8043
 21
-62.3663
  0
LINE
  8
0
 10
-63.8043
 20
-62.3663
 11
-63.7557
 21
-62.3856
  0
LINE
  8
0
 10
-63.7557
 20
-62.3856
 11
-63.7074
 21
-62.4059
  0
LINE
  8
0
 10
-63.7074
 20
-62.4059
 11
-63.6596
 21
-62.4272
  0
LINE
  8
0
 10
-63.6596
 20
-62.4272
 11
-63.6122
 21
-62.4495
  0
LINE
  8
0
 10
-63.6122
 20
-62.4495
 11
-63.5653
 21
-62.4727
  0
LINE
  8
0
 10
-63.5653
 20
-62.4727
 11
-63.5189
 21
-62.497
  0
LINE
  8
0
 10
-63.5189
 20
-62.497
 11
-63.473
 21
-62.5222
  0
LINE
  8
0
 10
-63.473
 20
-62.5222
 11
-63.4277
 21
-62.5484
  0
LINE
  8
0
 10
-63.4277
 20
-62.5484
 11
-63.3829
 21
-62.5755
  0
LINE
  8
0
 10
-63.3829
 20
-62.5755
 11
-63.3387
 21
-62.6036
  0
LINE
  8
0
 10
-63.3387
 20
-62.6036
 11
-63.2951
 21
-62.6326
  0
LINE
  8
0
 10
-63.2951
 20
-62.6326
 11
-63.2521
 21
-62.6624
  0
LINE
  8
0
 10
-63.2521
 20
-62.6624
 11
-63.2097
 21
-62.6932
  0
LINE
  8
0
 10
-63.2097
 20
-62.6932
 11
-63.168
 21
-62.7249
  0
LINE
  8
0
 10
-63.168
 20
-62.7249
 11
-63.127
 21
-62.7574
  0
LINE
  8
0
 10
-63.127
 20
-62.7574
 11
-63.0866
 21
-62.7908
  0
LINE
  8
0
 10
-63.0866
 20
-62.7908
 11
-63.047
 21
-62.825
  0
LINE
  8
0
 10
-63.047
 20
-62.825
 11
-63.0081
 21
-62.86
  0
LINE
  8
0
 10
-63.0081
 20
-62.86
 11
-62.9699
 21
-62.8959
  0
LINE
  8
0
 10
-62.9699
 20
-62.8959
 11
-62.9325
 21
-62.9325
  0
LINE
  8
0
 10
-62.9325
 20
-62.9325
 11
-62.8959
 21
-62.9699
  0
LINE
  8
0
 10
-62.8959
 20
-62.9699
 11
-62.86
 21
-63.0081
  0
LINE
  8
0
 10
-62.86
 20
-63.0081
 11
-62.825
 21
-63.047
  0
LINE
  8
0
 10
-62.825
 20
-63.047
 11
-62.7908
 21
-63.0866
  0
LINE
  8
0
 10
-62.7908
 20
-63.0866
 11
-62.7574
 21
-63.127
  0
LINE
  8
0
 10
-62.7574
 20
-63.127
 11
-62.7249
 21
-63.168
  0
LINE
  8
0
 10
-62.7249
 20
-63.168
 11
-62.6932
 21
-63.2097
  0
LINE
  8
0
 10
-62.6932
 20
-63.2097
 11
-62.6624
 21
-63.2521
  0
LINE
  8
0
 10
-62.6624
 20
-63.2521
 11
-62.6326
 21
-63.2951
  0
LINE
  8
0
 10
-62.6326
 20
-63.2951
 11
-62.6036
 21
-63.3387
  0
LINE
  8
0
 10
-62.6036
 20
-63.3387
 11
-62.5755
 21
-63.3829
  0
LINE
  8
0
 10
-62.5755
 20
-63.3829
 11
-62.5484
 21
-63.4277
  0
LINE
  8
0
 10
-62.5484
 20
-63.4277
 11
-62.5222
 21
-63.473
  0
LINE
  8
0
 10
-62.5222
 20
-63.473
 11
-62.497
 21
-63.5189
  0
LINE
  8
0
 10
-62.497
 20
-63.5189
 11
-62.4727
 21
-63.5653
  0
LINE
  8
0
 10
-62.4727
 20
-63.5653
 11
-62.4495
 21
-63.6122
  0
LINE
  8
0
 10
-62.4495
 20
-63.6122
 11
-62.4272
 21
-63.6596
  0
LINE
  8
0
 10
-62.4272
 20
-63.6596
 11
-62.4059
 21
-63.7074
  0
LINE
  8
0
 10
-62.4059
 20
-63.7074
 11
-62.3856
 21
-63.7557
  0
LINE
  8
0
 10
-62.3856
 20
-63.7557
 11
-62.3663
 21
-63.8043
  0
LINE
  8
0
 10
-62.3663
 20
-63.8043
 11
-62.3481
 21
-63.8534
  0
LINE
  8
0
 10
-62.3481
 20
-63.8534
 11
-62.3308
 21
-63.9029
  0
LINE
  8
0
 10
-62.3308
 20
-63.9029
 11
-62.3147
 21
-63.9527
  0
LINE
  8
0
 10
-62.3147
 20
-63.9527
 11
-62.2995
 21
-64.0028
  0
LINE
  8
0
 10
-62.2995
 20
-64.0028
 11
-62.2854
 21
-64.0532
  0
LINE
  8
0
 10
-62.2854
 20
-64.0532
 11
-62.2724
 21
-64.1039
  0
LINE
  8
0
 10
-62.2724
 20
-64.1039
 11
-62.2605
 21
-64.1549
  0
LINE
  8
0
 10
-62.2605
 20
-64.1549
 11
-62.2496
 21
-64.2061
  0
LINE
  8
0
 10
-62.2496
 20
-64.2061
 11
-62.2398
 21
-64.2576
  0
LINE
  8
0
 10
-62.2398
 20
-64.2576
 11
-62.231
 21
-64.3092
  0
LINE
  8
0
 10
-62.231
 20
-64.3092
 11
-62.2234
 21
-64.361
  0
LINE
  8
0
 10
-62.2234
 20
-64.361
 11
-62.2168
 21
-64.4129
  0
LINE
  8
0
 10
-62.2168
 20
-64.4129
 11
-62.2114
 21
-64.465
  0
LINE
  8
0
 10
-62.2114
 20
-64.465
 11
-62.207
 21
-64.5172
  0
LINE
  8
0
 10
-62.207
 20
-64.5172
 11
-62.2037
 21
-64.5694
  0
LINE
  8
0
 10
-62.2037
 20
-64.5694
 11
-62.2015
 21
-64.6217
  0
LINE
  8
0
 10
-62.2015
 20
-64.6217
 11
-62.2004
 21
-64.6741
  0
LINE
  8
0
 10
-62.2004
 20
-64.6741
 11
-62.2004
 21
-64.7264
  0
LINE
  8
0
 10
-62.2004
 20
-64.7264
 11
-62.2015
 21
-64.7788
  0
LINE
  8
0
 10
-62.2015
 20
-64.7788
 11
-62.2037
 21
-64.8311
  0
LINE
  8
0
 10
-62.2037
 20
-64.8311
 11
-62.207
 21
-64.8834
  0
LINE
  8
0
 10
-62.207
 20
-64.8834
 11
-62.2114
 21
-64.9355
  0
LINE
  8
0
 10
-62.2114
 20
-64.9355
 11
-62.2168
 21
-64.9876
  0
LINE
  8
0
 10
-62.2168
 20
-64.9876
 11
-62.2234
 21
-65.0396
  0
LINE
  8
0
 10
-62.2234
 20
-65.0396
 11
-62.231
 21
-65.0914
  0
LINE
  8
0
 10
-62.231
 20
-65.0914
 11
-62.2398
 21
-65.143
  0
LINE
  8
0
 10
-62.2398
 20
-65.143
 11
-62.2496
 21
-65.1944
  0
LINE
  8
0
 10
-62.2496
 20
-65.1944
 11
-62.2605
 21
-65.2456
  0
LINE
  8
0
 10
-62.2605
 20
-65.2456
 11
-62.2724
 21
-65.2966
  0
LINE
  8
0
 10
-62.2724
 20
-65.2966
 11
-62.2854
 21
-65.3473
  0
LINE
  8
0
 10
-62.2854
 20
-65.3473
 11
-62.2995
 21
-65.3977
  0
LINE
  8
0
 10
-62.2995
 20
-65.3977
 11
-62.3147
 21
-65.4479
  0
LINE
  8
0
 10
-62.3147
 20
-65.4479
 11
-62.3308
 21
-65.4977
  0
LINE
  8
0
 10
-62.3308
 20
-65.4977
 11
-62.3481
 21
-65.5471
  0
LINE
  8
0
 10
-62.3481
 20
-65.5471
 11
-62.3663
 21
-65.5962
  0
LINE
  8
0
 10
-62.3663
 20
-65.5962
 11
-62.3856
 21
-65.6449
  0
LINE
  8
0
 10
-62.3856
 20
-65.6449
 11
-62.4059
 21
-65.6931
  0
LINE
  8
0
 10
-62.4059
 20
-65.6931
 11
-62.4272
 21
-65.741
  0
LINE
  8
0
 10
-62.4272
 20
-65.741
 11
-62.4495
 21
-65.7883
  0
LINE
  8
0
 10
-62.4495
 20
-65.7883
 11
-62.4727
 21
-65.8352
  0
LINE
  8
0
 10
-62.4727
 20
-65.8352
 11
-62.497
 21
-65.8816
  0
LINE
  8
0
 10
-62.497
 20
-65.8816
 11
-62.5222
 21
-65.9275
  0
LINE
  8
0
 10
-62.5222
 20
-65.9275
 11
-62.5484
 21
-65.9729
  0
LINE
  8
0
 10
-62.5484
 20
-65.9729
 11
-62.5755
 21
-66.0177
  0
LINE
  8
0
 10
-62.5755
 20
-66.0177
 11
-62.6036
 21
-66.0619
  0
LINE
  8
0
 10
-62.6036
 20
-66.0619
 11
-62.6326
 21
-66.1055
  0
LINE
  8
0
 10
-62.6326
 20
-66.1055
 11
-62.6624
 21
-66.1485
  0
LINE
  8
0
 10
-62.6624
 20
-66.1485
 11
-62.6932
 21
-66.1908
  0
LINE
  8
0
 10
-62.6932
 20
-66.1908
 11
-62.7249
 21
-66.2325
  0
LINE
  8
0
 10
-62.7249
 20
-66.2325
 11
-62.7574
 21
-66.2736
  0
LINE
  8
0
 10
-62.7574
 20
-66.2736
 11
-62.7908
 21
-66.3139
  0
LINE
  8
0
 10
-62.7908
 20
-66.3139
 11
-62.825
 21
-66.3535
  0
LINE
  8
0
 10
-62.825
 20
-66.3535
 11
-62.86
 21
-66.3925
  0
LINE
  8
0
 10
-62.86
 20
-66.3925
 11
-62.8959
 21
-66.4306
  0
LINE
  8
0
 10
-62.8959
 20
-66.4306
 11
-62.9325
 21
-66.468
  0
LINE
  8
0
 10
-62.9325
 20
-66.468
 11
-62.9699
 21
-66.5047
  0
LINE
  8
0
 10
-62.9699
 20
-66.5047
 11
-63.0081
 21
-66.5405
  0
LINE
  8
0
 10
-63.0081
 20
-66.5405
 11
-63.047
 21
-66.5755
  0
LINE
  8
0
 10
-63.047
 20
-66.5755
 11
-63.0866
 21
-66.6098
  0
LINE
  8
0
 10
-63.0866
 20
-66.6098
 11
-63.127
 21
-66.6431
  0
LINE
  8
0
 10
-63.127
 20
-66.6431
 11
-63.168
 21
-66.6756
  0
LINE
  8
0
 10
-63.168
 20
-66.6756
 11
-63.2097
 21
-66.7073
  0
LINE
  8
0
 10
-63.2097
 20
-66.7073
 11
-63.2521
 21
-66.7381
  0
LINE
  8
0
 10
-63.2521
 20
-66.7381
 11
-63.2951
 21
-66.768
  0
LINE
  8
0
 10
-63.2951
 20
-66.768
 11
-63.3387
 21
-66.7969
  0
LINE
  8
0
 10
-63.3387
 20
-66.7969
 11
-63.3829
 21
-66.825
  0
LINE
  8
0
 10
-63.3829
 20
-66.825
 11
-63.4277
 21
-66.8521
  0
LINE
  8
0
 10
-63.4277
 20
-66.8521
 11
-63.473
 21
-66.8783
  0
LINE
  8
0
 10
-63.473
 20
-66.8783
 11
-63.5189
 21
-66.9035
  0
LINE
  8
0
 10
-63.5189
 20
-66.9035
 11
-63.5653
 21
-66.9278
  0
LINE
  8
0
 10
-63.5653
 20
-66.9278
 11
-63.6122
 21
-66.9511
  0
LINE
  8
0
 10
-63.6122
 20
-66.9511
 11
-63.6596
 21
-66.9734
  0
LINE
  8
0
 10
-63.6596
 20
-66.9734
 11
-63.7074
 21
-66.9946
  0
LINE
  8
0
 10
-63.7074
 20
-66.9946
 11
-63.7557
 21
-67.0149
  0
LINE
  8
0
 10
-63.7557
 20
-67.0149
 11
-63.8043
 21
-67.0342
  0
LINE
  8
0
 10
-63.8043
 20
-67.0342
 11
-63.8534
 21
-67.0525
  0
LINE
  8
0
 10
-63.8534
 20
-67.0525
 11
-63.9029
 21
-67.0697
  0
LINE
  8
0
 10
-63.9029
 20
-67.0697
 11
-63.9527
 21
-67.0859
  0
LINE
  8
0
 10
-63.9527
 20
-67.0859
 11
-64.0028
 21
-67.101
  0
LINE
  8
0
 10
-64.0028
 20
-67.101
 11
-64.0532
 21
-67.1151
  0
LINE
  8
0
 10
-64.0532
 20
-67.1151
 11
-64.1039
 21
-67.1281
  0
LINE
  8
0
 10
-64.1039
 20
-67.1281
 11
-64.1549
 21
-67.1401
  0
LINE
  8
0
 10
-64.1549
 20
-67.1401
 11
-64.2061
 21
-67.1509
  0
LINE
  8
0
 10
-64.2061
 20
-67.1509
 11
-64.2576
 21
-67.1608
  0
LINE
  8
0
 10
-64.2576
 20
-67.1608
 11
-64.3092
 21
-67.1695
  0
LINE
  8
0
 10
-64.3092
 20
-67.1695
 11
-64.361
 21
-67.1771
  0
LINE
  8
0
 10
-64.361
 20
-67.1771
 11
-64.4129
 21
-67.1837
  0
LINE
  8
0
 10
-64.4129
 20
-67.1837
 11
-64.465
 21
-67.1892
  0
LINE
  8
0
 10
-64.465
 20
-67.1892
 11
-64.5172
 21
-67.1935
  0
LINE
  8
0
 10
-64.5172
 20
-67.1935
 11
-64.5694
 21
-67.1968
  0
LINE
  8
0
 10
-64.5694
 20
-67.1968
 11
-64.6217
 21
-67.199
  0
LINE
  8
0
 10
-64.6217
 20
-67.199
 11
-64.6741
 21
-67.2001
  0
LINE
  8
0
 10
-64.6741
 20
-67.2001
 11
-64.7264
 21
-67.2001
  0
LINE
  8
0
 10
64.6741
 20
-67.2001
 11
64.6217
 21
-67.199
  0
LINE
  8
0
 10
64.6217
 20
-67.199
 11
64.5694
 21
-67.1968
  0
LINE
  8
0
 10
64.5694
 20
-67.1968
 11
64.5172
 21
-67.1935
  0
LINE
  8
0
 10
64.5172
 20
-67.1935
 11
64.465
 21
-67.1892
  0
LINE
  8
0
 10
64.465
 20
-67.1892
 11
64.4129
 21
-67.1837
  0
LINE
  8
0
 10
64.4129
 20
-67.1837
 11
64.361
 21
-67.1771
  0
LINE
  8
0
 10
64.361
 20
-67.1771
 11
64.3092
 21
-67.1695
  0
LINE
  8
0
 10
64.3092
 20
-67.1695
 11
64.2576
 21
-67.1608
  0
LINE
  8
0
 10
64.2576
 20
-67.1608
 11
64.2061
 21
-67.1509
  0
LINE
  8
0
 10
64.2061
 20
-67.1509
 11
64.1549
 21
-67.1401
  0
LINE
  8
0
 10
64.1549
 20
-67.1401
 11
64.1039
 21
-67.1281
  0
LINE
  8
0
 10
64.1039
 20
-67.1281
 11
64.0532
 21
-67.1151
  0
LINE
  8
0
 10
64.0532
 20
-67.1151
 11
64.0028
 21
-67.101
  0
LINE
  8
0
 10
64.0028
 20
-67.101
 11
63.9527
 21
-67.0859
  0
LINE
  8
0
 10
63.9527
 20
-67.0859
 11
63.9029
 21
-67.0697
  0
LINE
  8
0
 10
63.9029
 20
-67.0697
 11
63.8534
 21
-67.0525
  0
LINE
  8
0
 10
63.8534
 20
-67.0525
 11
63.8043
 21
-67.0342
  0
LINE
  8
0
 10
63.8043
 20
-67.0342
 11
63.7557
 21
-67.0149
  0
LINE
  8
0
 10
63.7557
 20
-67.0149
 11
63.7074
 21
-66.9946
  0
LINE
  8
0
 10
63.7074
 20
-66.9946
 11
63.6596
 21
-66.9734
  0
LINE
  8
0
 10
63.6596
 20
-66.9734
 11
63.6122
 21
-66.9511
  0
LINE
  8
0
 10
63.6122
 20
-66.9511
 11
63.5653
 21
-66.9278
  0
LINE
  8
0
 10
63.5653
 20
-66.9278
 11
63.5189
 21
-66.9035
  0
LINE
  8
0
 10
63.5189
 20
-66.9035
 11
63.473
 21
-66.8783
  0
LINE
  8
0
 10
63.473
 20
-66.8783
 11
63.4277
 21
-66.8521
  0
LINE
  8
0
 10
63.4277
 20
-66.8521
 11
63.3829
 21
-66.825
  0
LINE
  8
0
 10
63.3829
 20
-66.825
 11
63.3387
 21
-66.7969
  0
LINE
  8
0
 10
63.3387
 20
-66.7969
 11
63.2951
 21
-66.768
  0
LINE
  8
0
 10
63.2951
 20
-66.768
 11
63.2521
 21
-66.7381
  0
LINE
  8
0
 10
63.2521
 20
-66.7381
 11
63.2097
 21
-66.7073
  0
LINE
  8
0
 10
63.2097
 20
-66.7073
 11
63.168
 21
-66.6756
  0
LINE
  8
0
 10
63.168
 20
-66.6756
 11
63.127
 21
-66.6431
  0
LINE
  8
0
 10
63.127
 20
-66.6431
 11
63.0866
 21
-66.6098
  0
LINE
  8
0
 10
63.0866
 20
-66.6098
 11
63.047
 21
-66.5755
  0
LINE
  8
0
 10
63.047
 20
-66.5755
 11
63.0081
 21
-66.5405
  0
LINE
  8
0
 10
63.0081
 20
-66.5405
 11
62.9699
 21
-66.5047
  0
LINE
  8
0
 10
62.9699
 20
-66.5047
 11
62.9325
 21
-66.468
  0
LINE
  8
0
 10
62.9325
 20
-66.468
 11
62.8959
 21
-66.4306
  0
LINE
  8
0
 10
62.8959
 20
-66.4306
 11
62.86
 21
-66.3925
  0
LINE
  8
0
 10
62.86
 20
-66.3925
 11
62.825
 21
-66.3535
  0
LINE
  8
0
 10
62.825
 20
-66.3535
 11
62.7908
 21
-66.3139
  0
LINE
  8
0
 10
62.7908
 20
-66.3139
 11
62.7574
 21
-66.2736
  0
LINE
  8
0
 10
62.7574
 20
-66.2736
 11
62.7249
 21
-66.2325
  0
LINE
  8
0
 10
62.7249
 20
-66.2325
 11
62.6932
 21
-66.1908
  0
LINE
  8
0
 10
62.6932
 20
-66.1908
 11
62.6624
 21
-66.1485
  0
LINE
  8
0
 10
62.6624
 20
-66.1485
 11
62.6326
 21
-66.1055
  0
LINE
  8
0
 10
62.6326
 20
-66.1055
 11
62.6036
 21
-66.0619
  0
LINE
  8
0
 10
62.6036
 20
-66.0619
 11
62.5755
 21
-66.0177
  0
LINE
  8
0
 10
62.5755
 20
-66.0177
 11
62.5484
 21
-65.9729
  0
LINE
  8
0
 10
62.5484
 20
-65.9729
 11
62.5222
 21
-65.9275
  0
LINE
  8
0
 10
62.5222
 20
-65.9275
 11
62.497
 21
-65.8816
  0
LINE
  8
0
 10
62.497
 20
-65.8816
 11
62.4727
 21
-65.8352
  0
LINE
  8
0
 10
62.4727
 20
-65.8352
 11
62.4495
 21
-65.7883
  0
LINE
  8
0
 10
62.4495
 20
-65.7883
 11
62.4272
 21
-65.741
  0
LINE
  8
0
 10
62.4272
 20
-65.741
 11
62.4059
 21
-65.6931
  0
LINE
  8
0
 10
62.4059
 20
-65.6931
 11
62.3856
 21
-65.6449
  0
LINE
  8
0
 10
62.3856
 20
-65.6449
 11
62.3663
 21
-65.5962
  0
LINE
  8
0
 10
62.3663
 20
-65.5962
 11
62.3481
 21
-65.5471
  0
LINE
  8
0
 10
62.3481
 20
-65.5471
 11
62.3308
 21
-65.4977
  0
LINE
  8
0
 10
62.3308
 20
-65.4977
 11
62.3147
 21
-65.4479
  0
LINE
  8
0
 10
62.3147
 20
-65.4479
 11
62.2995
 21
-65.3977
  0
LINE
  8
0
 10
62.2995
 20
-65.3977
 11
62.2854
 21
-65.3473
  0
LINE
  8
0
 10
62.2854
 20
-65.3473
 11
62.2724
 21
-65.2966
  0
LINE
  8
0
 10
62.2724
 20
-65.2966
 11
62.2605
 21
-65.2456
  0
LINE
  8
0
 10
62.2605
 20
-65.2456
 11
62.2496
 21
-65.1944
  0
LINE
  8
0
 10
62.2496
 20
-65.1944
 11
62.2398
 21
-65.143
  0
LINE
  8
0
 10
62.2398
 20
-65.143
 11
62.231
 21
-65.0914
  0
LINE
  8
0
 10
62.231
 20
-65.0914
 11
62.2234
 21
-65.0396
  0
LINE
  8
0
 10
62.2234
 20
-65.0396
 11
62.2168
 21
-64.9876
  0
LINE
  8
0
 10
62.2168
 20
-64.9876
 11
62.2114
 21
-64.9355
  0
LINE
  8
0
 10
62.2114
 20
-64.9355
 11
62.207
 21
-64.8834
  0
LINE
  8
0
 10
62.207
 20
-64.8834
 11
62.2037
 21
-64.8311
  0
LINE
  8
0
 10
62.2037
 20
-64.8311
 11
62.2015
 21
-64.7788
  0
LINE
  8
0
 10
62.2015
 20
-64.7788
 11
62.2004
 21
-64.7264
  0
LINE
  8
0
 10
62.2004
 20
-64.7264
 11
62.2004
 21
-64.6741
  0
LINE
  8
0
 10
62.2004
 20
-64.6741
 11
62.2015
 21
-64.6217
  0
LINE
  8
0
 10
62.2015
 20
-64.6217
 11
62.2037
 21
-64.5694
  0
LINE
  8
0
 10
62.2037
 20
-64.5694
 11
62.207
 21
-64.5172
  0
LINE
  8
0
 10
62.207
 20
-64.5172
 11
62.2114
 21
-64.465
  0
LINE
  8
0
 10
62.2114
 20
-64.465
 11
62.2168
 21
-64.4129
  0
LINE
  8
0
 10
62.2168
 20
-64.4129
 11
62.2234
 21
-64.361
  0
LINE
  8
0
 10
62.2234
 20
-64.361
 11
62.231
 21
-64.3092
  0
LINE
  8
0
 10
62.231
 20
-64.3092
 11
62.2398
 21
-64.2576
  0
LINE
  8
0
 10
62.2398
 20
-64.2576
 11
62.2496
 21
-64.2061
  0
LINE
  8
0
 10
62.2496
 20
-64.2061
 11
62.2605
 21
-64.1549
  0
LINE
  8
0
 10
62.2605
 20
-64.1549
 11
62.2724
 21
-64.1039
  0
LINE
  8
0
 10
62.2724
 20
-64.1039
 11
62.2854
 21
-64.0532
  0
LINE
  8
0
 10
62.2854
 20
-64.0532
 11
62.2995
 21
-64.0028
  0
LINE
  8
0
 10
62.2995
 20
-64.0028
 11
62.3147
 21
-63.9527
  0
LINE
  8
0
 10
62.3147
 20
-63.9527
 11
62.3308
 21
-63.9029
  0
LINE
  8
0
 10
62.3308
 20
-63.9029
 11
62.3481
 21
-63.8534
  0
LINE
  8
0
 10
62.3481
 20
-63.8534
 11
62.3663
 21
-63.8043
  0
LINE
  8
0
 10
62.3663
 20
-63.8043
 11
62.3856
 21
-63.7557
  0
LINE
  8
0
 10
62.3856
 20
-63.7557
 11
62.4059
 21
-63.7074
  0
LINE
  8
0
 10
62.4059
 20
-63.7074
 11
62.4272
 21
-63.6596
  0
LINE
  8
0
 10
62.4272
 20
-63.6596
 11
62.4495
 21
-63.6122
  0
LINE
  8
0
 10
62.4495
 20
-63.6122
 11
62.4727
 21
-63.5653
  0
LINE
  8
0
 10
62.4727
 20
-63.5653
 11
62.497
 21
-63.5189
  0
LINE
  8
0
 10
62.497
 20
-63.5189
 11
62.5222
 21
-63.473
  0
LINE
  8
0
 10
62.5222
 20
-63.473
 11
62.5484
 21
-63.4277
  0
LINE
  8
0
 10
62.5484
 20
-63.4277
 11
62.5755
 21
-63.3829
  0
LINE
  8
0
 10
62.5755
 20
-63.3829
 11
62.6036
 21
-63.3387
  0
LINE
  8
0
 10
62.6036
 20
-63.3387
 11
62.6326
 21
-63.2951
  0
LINE
  8
0
 10
62.6326
 20
-63.2951
 11
62.6624
 21
-63.2521
  0
LINE
  8
0
 10
62.6624
 20
-63.2521
 11
62.6932
 21
-63.2097
  0
LINE
  8
0
 10
62.6932
 20
-63.2097
 11
62.7249
 21
-63.168
  0
LINE
  8
0
 10
62.7249
 20
-63.168
 11
62.7574
 21
-63.127
  0
LINE
  8
0
 10
62.7574
 20
-63.127
 11
62.7908
 21
-63.0866
  0
LINE
  8
0
 10
62.7908
 20
-63.0866
 11
62.825
 21
-63.047
  0
LINE
  8
0
 10
62.825
 20
-63.047
 11
62.86
 21
-63.0081
  0
LINE
  8
0
 10
62.86
 20
-63.0081
 11
62.8959
 21
-62.9699
  0
LINE
  8
0
 10
62.8959
 20
-62.9699
 11
62.9325
 21
-62.9325
  0
LINE
  8
0
 10
62.9325
 20
-62.9325
 11
62.9699
 21
-62.8959
  0
LINE
  8
0
 10
62.9699
 20
-62.8959
 11
63.0081
 21
-62.86
  0
LINE
  8
0
 10
63.0081
 20
-62.86
 11
63.047
 21
-62.825
  0
LINE
  8
0
 10
63.047
 20
-62.825
 11
63.0866
 21
-62.7908
  0
LINE
  8
0
 10
63.0866
 20
-62.7908
 11
63.127
 21
-62.7574
  0
LINE
  8
0
 10
63.127
 20
-62.7574
 11
63.168
 21
-62.7249
  0
LINE
  8
0
 10
63.168
 20
-62.7249
 11
63.2097
 21
-62.6932
  0
LINE
  8
0
 10
63.2097
 20
-62.6932
 11
63.2521
 21
-62.6624
  0
LINE
  8
0
 10
63.2521
 20
-62.6624
 11
63.2951
 21
-62.6326
  0
LINE
  8
0
 10
63.2951
 20
-62.6326
 11
63.3387
 21
-62.6036
  0
LINE
  8
0
 10
63.3387
 20
-62.6036
 11
63.3829
 21
-62.5755
  0
LINE
  8
0
 10
63.3829
 20
-62.5755
 11
63.4277
 21
-62.5484
  0
LINE
  8
0
 10
63.4277
 20
-62.5484
 11
63.473
 21
-62.5222
  0
LINE
  8
0
 10
63.473
 20
-62.5222
 11
63.5189
 21
-62.497
  0
LINE
  8
0
 10
63.5189
 20
-62.497
 11
63.5653
 21
-62.4727
  0
LINE
  8
0
 10
63.5653
 20
-62.4727
 11
63.6122
 21
-62.4495
  0
LINE
  8
0
 10
63.6122
 20
-62.4495
 11
63.6596
 21
-62.4272
  0
LINE
  8
0
 10
63.6596
 20
-62.4272
 11
63.7074
 21
-62.4059
  0
LINE
  8
0
 10
63.7074
 20
-62.4059
 11
63.7557
 21
-62.3856
  0
LINE
  8
0
 10
63.7557
 20
-62.3856
 11
63.8043
 21
-62.3663
  0
LINE
  8
0
 10
63.8043
 20
-62.3663
 11
63.8534
 21
-62.3481
  0
LINE
  8
0
 10
63.8534
 20
-62.3481
 11
63.9029
 21
-62.3308
  0
LINE
  8
0
 10
63.9029
 20
-62.3308
 11
63.9527
 21
-62.3147
  0
LINE
  8
0
 10
63.9527
 20
-62.3147
 11
64.0028
 21
-62.2995
  0
LINE
  8
0
 10
64.0028
 20
-62.2995
 11
64.0532
 21
-62.2854
  0
LINE
  8
0
 10
64.0532
 20
-62.2854
 11
64.1039
 21
-62.2724
  0
LINE
  8
0
 10
64.1039
 20
-62.2724
 11
64.1549
 21
-62.2605
  0
LINE
  8
0
 10
64.1549
 20
-62.2605
 11
64.2061
 21
-62.2496
  0
LINE
  8
0
 10
64.2061
 20
-62.2496
 11
64.2576
 21
-62.2398
  0
LINE
  8
0
 10
64.2576
 20
-62.2398
 11
64.3092
 21
-62.231
  0
LINE
  8
0
 10
64.3092
 20
-62.231
 11
64.361
 21
-62.2234
  0
LINE
  8
0
 10
64.361
 20
-62.2234
 11
64.4129
 21
-62.2168
  0
LINE
  8
0
 10
64.4129
 20
-62.2168
 11
64.465
 21
-62.2114
  0
LINE
  8
0
 10
64.465
 20
-62.2114
 11
64.5172
 21
-62.207
  0
LINE
  8
0
 10
64.5172
 20
-62.207
 11
64.5694
 21
-62.2037
  0
LINE
  8
0
 10
64.5694
 20
-62.2037
 11
64.6217
 21
-62.2015
  0
LINE
  8
0
 10
64.6217
 20
-62.2015
 11
64.6741
 21
-62.2004
  0
LINE
  8
0
 10
64.6741
 20
-62.2004
 11
64.7264
 21
-62.2004
  0
LINE
  8
0
 10
64.7264
 20
-62.2004
 11
64.7788
 21
-62.2015
  0
LINE
  8
0
 10
64.7788
 20
-62.2015
 11
64.8311
 21
-62.2037
  0
LINE
  8
0
 10
64.8311
 20
-62.2037
 11
64.8834
 21
-62.207
  0
LINE
  8
0
 10
64.8834
 20
-62.207
 11
64.9355
 21
-62.2114
  0
LINE
  8
0
 10
64.9355
 20
-62.2114
 11
64.9876
 21
-62.2168
  0
LINE
  8
0
 10
64.9876
 20
-62.2168
 11
65.0396
 21
-62.2234
  0
LINE
  8
0
 10
65.0396
 20
-62.2234
 11
65.0914
 21
-62.231
  0
LINE
  8
0
 10
65.0914
 20
-62.231
 11
65.143
 21
-62.2398
  0
LINE
  8
0
 10
65.143
 20
-62.2398
 11
65.1944
 21
-62.2496
  0
LINE
  8
0
 10
65.1944
 20
-62.2496
 11
65.2456
 21
-62.2605
  0
LINE
  8
0
 10
65.2456
 20
-62.2605
 11
65.2966
 21
-62.2724
  0
LINE
  8
0
 10
65.2966
 20
-62.2724
 11
65.3473
 21
-62.2854
  0
LINE
  8
0
 10
65.3473
 20
-62.2854
 11
65.3977
 21
-62.2995
  0
LINE
  8
0
 10
65.3977
 20
-62.2995
 11
65.4479
 21
-62.3147
  0
LINE
  8
0
 10
65.4479
 20
-62.3147
 11
65.4977
 21
-62.3308
  0
LINE
  8
0
 10
65.4977
 20
-62.3308
 11
65.5471
 21
-62.3481
  0
LINE
  8
0
 10
65.5471
 20
-62.3481
 11
65.5962
 21
-62.3663
  0
LINE
  8
0
 10
65.5962
 20
-62.3663
 11
65.6449
 21
-62.3856
  0
LINE
  8
0
 10
65.6449
 20
-62.3856
 11
65.6931
 21
-62.4059
  0
LINE
  8
0
 10
65.6931
 20
-62.4059
 11
65.741
 21
-62.4272
  0
LINE
  8
0
 10
65.741
 20
-62.4272
 11
65.7883
 21
-62.4495
  0
LINE
  8
0
 10
65.7883
 20
-62.4495
 11
65.8352
 21
-62.4727
  0
LINE
  8
0
 10
65.8352
 20
-62.4727
 11
65.8816
 21
-62.497
  0
LINE
  8
0
 10
65.8816
 20
-62.497
 11
65.9275
 21
-62.5222
  0
LINE
  8
0
 10
65.9275
 20
-62.5222
 11
65.9729
 21
-62.5484
  0
LINE
  8
0
 10
65.9729
 20
-62.5484
 11
66.0177
 21
-62.5755
  0
LINE
  8
0
 10
66.0177
 20
-62.5755
 11
66.0619
 21
-62.6036
  0
LINE
  8
0
 10
66.0619
 20
-62.6036
 11
66.1055
 21
-62.6326
  0
LINE
  8
0
 10
66.1055
 20
-62.6326
 11
66.1485
 21
-62.6624
  0
LINE
  8
0
 10
66.1485
 20
-62.6624
 11
66.1908
 21
-62.6932
  0
LINE
  8
0
 10
66.1908
 20
-62.6932
 11
66.2325
 21
-62.7249
  0
LINE
  8
0
 10
66.2325
 20
-62.7249
 11
66.2736
 21
-62.7574
  0
LINE
  8
0
 10
66.2736
 20
-62.7574
 11
66.3139
 21
-62.7908
  0
LINE
  8
0
 10
66.3139
 20
-62.7908
 11
66.3535
 21
-62.825
  0
LINE
  8
0
 10
66.3535
 20
-62.825
 11
66.3925
 21
-62.86
  0
LINE
  8
0
 10
66.3925
 20
-62.86
 11
66.4306
 21
-62.8959
  0
LINE
  8
0
 10
66.4306
 20
-62.8959
 11
66.468
 21
-62.9325
  0
LINE
  8
0
 10
66.468
 20
-62.9325
 11
66.5047
 21
-62.9699
  0
LINE
  8
0
 10
66.5047
 20
-62.9699
 11
66.5405
 21
-63.0081
  0
LINE
  8
0
 10
66.5405
 20
-63.0081
 11
66.5755
 21
-63.047
  0
LINE
  8
0
 10
66.5755
 20
-63.047
 11
66.6098
 21
-63.0866
  0
LINE
  8
0
 10
66.6098
 20
-63.0866
 11
66.6431
 21
-63.127
  0
LINE
  8
0
 10
66.6431
 20
-63.127
 11
66.6756
 21
-63.168
  0
LINE
  8
0
 10
66.6756
 20
-63.168
 11
66.7073
 21
-63.2097
  0
LINE
  8
0
 10
66.7073
 20
-63.2097
 11
66.7381
 21
-63.2521
  0
LINE
  8
0
 10
66.7381
 20
-63.2521
 11
66.768
 21
-63.2951
  0
LINE
  8
0
 10
66.768
 20
-63.2951
 11
66.7969
 21
-63.3387
  0
LINE
  8
0
 10
66.7969
 20
-63.3387
 11
66.825
 21
-63.3829
  0
LINE
  8
0
 10
66.825
 20
-63.3829
 11
66.8521
 21
-63.4277
  0
LINE
  8
0
 10
66.8521
 20
-63.4277
 11
66.8783
 21
-63.473
  0
LINE
  8
0
 10
66.8783
 20
-63.473
 11
66.9035
 21
-63.5189
  0
LINE
  8
0
 10
66.9035
 20
-63.5189
 11
66.9278
 21
-63.5653
  0
LINE
  8
0
 10
66.9278
 20
-63.5653
 11
66.9511
 21
-63.6122
  0
LINE
  8
0
 10
66.9511
 20
-63.6122
 11
66.9734
 21
-63.6596
  0
LINE
  8
0
 10
66.9734
 20
-63.6596
 11
66.9946
 21
-63.7074
  0
LINE
  8
0
 10
66.9946
 20
-63.7074
 11
67.0149
 21
-63.7557
  0
LINE
  8
0
 10
67.0149
 20
-63.7557
 11
67.0342
 21
-63.8043
  0
LINE
  8
0
 10
67.0342
 20
-63.8043
 11
67.0525
 21
-63.8534
  0
LINE
  8
0
 10
67.0525
 20
-63.8534
 11
67.0697
 21
-63.9029
  0
LINE
  8
0
 10
67.0697
 20
-63.9029
 11
67.0859
 21
-63.9527
  0
LINE
  8
0
 10
67.0859
 20
-63.9527
 11
67.101
 21
-64.0028
  0
LINE
  8
0
 10
67.101
 20
-64.0028
 11
67.1151
 21
-64.0532
  0
LINE
  8
0
 10
67.1151
 20
-64.0532
 11
67.1281
 21
-64.1039
  0
LINE
  8
0
 10
67.1281
 20
-64.1039
 11
67.1401
 21
-64.1549
  0
LINE
  8
0
 10
67.1401
 20
-64.1549
 11
67.1509
 21
-64.2061
  0
LINE
  8
0
 10
67.1509
 20
-64.2061
 11
67.1608
 21
-64.2576
  0
LINE
  8
0
 10
67.1608
 20
-64.2576
 11
67.1695
 21
-64.3092
  0
LINE
  8
0
 10
67.1695
 20
-64.3092
 11
67.1771
 21
-64.361
  0
LINE
  8
0
 10
67.1771
 20
-64.361
 11
67.1837
 21
-64.4129
  0
LINE
  8
0
 10
67.1837
 20
-64.4129
 11
67.1892
 21
-64.465
  0
LINE
  8
0
 10
67.1892
 20
-64.465
 11
67.1935
 21
-64.5172
  0
LINE
  8
0
 10
67.1935
 20
-64.5172
 11
67.1968
 21
-64.5694
  0
LINE
  8
0
 10
67.1968
 20
-64.5694
 11
67.199
 21
-64.6217
  0
LINE
  8
0
 10
67.199
 20
-64.6217
 11
67.2001
 21
-64.6741
  0
LINE
  8
0
 10
67.2001
 20
-64.6741
 11
67.2001
 21
-64.7264
  0
LINE
  8
0
 10
67.2001
 20
-64.7264
 11
67.199
 21
-64.7788
  0
LINE
  8
0
 10
67.199
 20
-64.7788
 11
67.1968
 21
-64.8311
  0
LINE
  8
0
 10
67.1968
 20
-64.8311
 11
67.1935
 21
-64.8834
  0
LINE
  8
0
 10
67.1935
 20
-64.8834
 11
67.1892
 21
-64.9355
  0
LINE
  8
0
 10
67.1892
 20
-64.9355
 11
67.1837
 21
-64.9876
  0
LINE
  8
0
 10
67.1837
 20
-64.9876
 11
67.1771
 21
-65.0396
  0
LINE
  8
0
 10
67.1771
 20
-65.0396
 11
67.1695
 21
-65.0914
  0
LINE
  8
0
 10
67.1695
 20
-65.0914
 11
67.1608
 21
-65.143
  0
LINE
  8
0
 10
67.1608
 20
-65.143
 11
67.1509
 21
-65.1944
  0
LINE
  8
0
 10
67.1509
 20
-65.1944
 11
67.1401
 21
-65.2456
  0
LINE
  8
0
 10
67.1401
 20
-65.2456
 11
67.1281
 21
-65.2966
  0
LINE
  8
0
 10
67.1281
 20
-65.2966
 11
67.1151
 21
-65.3473
  0
LINE
  8
0
 10
67.1151
 20
-65.3473
 11
67.101
 21
-65.3977
  0
LINE
  8
0
 10
67.101
 20
-65.3977
 11
67.0859
 21
-65.4479
  0
LINE
  8
0
 10
67.0859
 20
-65.4479
 11
67.0697
 21
-65.4977
  0
LINE
  8
0
 10
67.0697
 20
-65.4977
 11
67.0525
 21
-65.5471
  0
LINE
  8
0
 10
67.0525
 20
-65.5471
 11
67.0342
 21
-65.5962
  0
LINE
  8
0
 10
67.0342
 20
-65.5962
 11
67.0149
 21
-65.6449
  0
LINE
  8
0
 10
67.0149
 20
-65.6449
 11
66.9946
 21
-65.6931
  0
LINE
  8
0
 10
66.9946
 20
-65.6931
 11
66.9734
 21
-65.741
  0
LINE
  8
0
 10
66.9734
 20
-65.741
 11
66.9511
 21
-65.7883
  0
LINE
  8
0
 10
66.9511
 20
-65.7883
 11
66.9278
 21
-65.8352
  0
LINE
  8
0
 10
66.9278
 20
-65.8352
 11
66.9035
 21
-65.8816
  0
LINE
  8
0
 10
66.9035
 20
-65.8816
 11
66.8783
 21
-65.9275
  0
LINE
  8
0
 10
66.8783
 20
-65.9275
 11
66.8521
 21
-65.9729
  0
LINE
  8
0
 10
66.8521
 20
-65.9729
 11
66.825
 21
-66.0177
  0
LINE
  8
0
 10
66.825
 20
-66.0177
 11
66.7969
 21
-66.0619
  0
LINE
  8
0
 10
66.7969
 20
-66.0619
 11
66.768
 21
-66.1055
  0
LINE
  8
0
 10
66.768
 20
-66.1055
 11
66.7381
 21
-66.1485
  0
LINE
  8
0
 10
66.7381
 20
-66.1485
 11
66.7073
 21
-66.1908
  0
LINE
  8
0
 10
66.7073
 20
-66.1908
 11
66.6756
 21
-66.2325
  0
LINE
  8
0
 10
66.6756
 20
-66.2325
 11
66.6431
 21
-66.2736
  0
LINE
  8
0
 10
66.6431
 20
-66.2736
 11
66.6098
 21
-66.3139
  0
LINE
  8
0
 10
66.6098
 20
-66.3139
 11
66.5755
 21
-66.3535
  0
LINE
  8
0
 10
66.5755
 20
-66.3535
 11
66.5405
 21
-66.3925
  0
LINE
  8
0
 10
66.5405
 20
-66.3925
 11
66.5047
 21
-66.4306
  0
LINE
  8
0
 10
66.5047
 20
-66.4306
 11
66.468
 21
-66.468
  0
LINE
  8
0
 10
66.468
 20
-66.468
 11
66.4306
 21
-66.5047
  0
LINE
  8
0
 10
66.4306
 20
-66.5047
 11
66.3925
 21
-66.5405
  0
LINE
  8
0
 10
66.3925
 20
-66.5405
 11
66.3535
 21
-66.5755
  0
LINE
  8
0
 10
66.3535
 20
-66.5755
 11
66.3139
 21
-66.6098
  0
LINE
  8
0
 10
66.3139
 20
-66.6098
 11
66.2736
 21
-66.6431
  0
LINE
  8
0
 10
66.2736
 20
-66.6431
 11
66.2325
 21
-66.6756
  0
LINE
  8
0
 10
66.2325
 20
-66.6756
 11
66.1908
 21
-66.7073
  0
LINE
  8
0
 10
66.1908
 20
-66.7073
 11
66.1485
 21
-66.7381
  0
LINE
  8
0
 10
66.1485
 20
-66.7381
 11
66.1055
 21
-66.768
  0
LINE
  8
0
 10
66.1055
 20
-66.768
 11
66.0619
 21
-66.7969
  0
LINE
  8
0
 10
66.0619
 20
-66.7969
 11
66.0177
 21
-66.825
  0
LINE
  8
0
 10
66.0177
 20
-66.825
 11
65.9729
 21
-66.8521
  0
LINE
  8
0
 10
65.9729
 20
-66.8521
 11
65.9275
 21
-66.8783
  0
LINE
  8
0
 10
65.9275
 20
-66.8783
 11
65.8816
 21
-66.9035
  0
LINE
  8
0
 10
65.8816
 20
-66.9035
 11
65.8352
 21
-66.9278
  0
LINE
  8
0
 10
65.8352
 20
-66.9278
 11
65.7883
 21
-66.9511
  0
LINE
  8
0
 10
65.7883
 20
-66.9511
 11
65.741
 21
-66.9734
  0
LINE
  8
0
 10
65.741
 20
-66.9734
 11
65.6931
 21
-66.9946
  0
LINE
  8
0
 10
65.6931
 20
-66.9946
 11
65.6449
 21
-67.0149
  0
LINE
  8
0
 10
65.6449
 20
-67.0149
 11
65.5962
 21
-67.0342
  0
LINE
  8
0
 10
65.5962
 20
-67.0342
 11
65.5471
 21
-67.0525
  0
LINE
  8
0
 10
65.5471
 20
-67.0525
 11
65.4977
 21
-67.0697
  0
LINE
  8
0
 10
65.4977
 20
-67.0697
 11
65.4479
 21
-67.0859
  0
LINE
  8
0
 10
65.4479
 20
-67.0859
 11
65.3977
 21
-67.101
  0
LINE
  8
0
 10
65.3977
 20
-67.101
 11
65.3473
 21
-67.1151
  0
LINE
  8
0
 10
65.3473
 20
-67.1151
 11
65.2966
 21
-67.1281
  0
LINE
  8
0
 10
65.2966
 20
-67.1281
 11
65.2456
 21
-67.1401
  0
LINE
  8
0
 10
65.2456
 20
-67.1401
 11
65.1944
 21
-67.1509
  0
LINE
  8
0
 10
65.1944
 20
-67.1509
 11
65.143
 21
-67.1608
  0
LINE
  8
0
 10
65.143
 20
-67.1608
 11
65.0914
 21
-67.1695
  0
LINE
  8
0
 10
65.0914
 20
-67.1695
 11
65.0396
 21
-67.1771
  0
LINE
  8
0
 10
65.0396
 20
-67.1771
 11
64.9876
 21
-67.1837
  0
LINE
  8
0
 10
64.9876
 20
-67.1837
 11
64.9355
 21
-67.1892
  0
LINE
  8
0
 10
64.9355
 20
-67.1892
 11
64.8834
 21
-67.1935
  0
LINE
  8
0
 10
64.8834
 20
-67.1935
 11
64.8311
 21
-67.1968
  0
LINE
  8
0
 10
64.8311
 20
-67.1968
 11
64.7788
 21
-67.199
  0
LINE
  8
0
 10
64.7788
 20
-67.199
 11
64.7264
 21
-67.2001
  0
LINE
  8
0
 10
64.7264
 20
-67.2001
 11
64.6741
 21
-67.2001
  0
LINE
  8
0
 10
-0.0523529
 20
-93.9995
 11
-0.104675
 21
-93.9978
  0
LINE
  8
0
 10
-0.104675
 20
-93.9978
 11
-0.156967
 21
-93.9951
  0
LINE
  8
0
 10
-0.156967
 20
-93.9951
 11
-0.209183
 21
-93.9912
  0
LINE
  8
0
 10
-0.209183
 20
-93.9912
 11
-0.261307
 21
-93.9863
  0
LINE
  8
0
 10
-0.261307
 20
-93.9863
 11
-0.313324
 21
-93.9803
  0
LINE
  8
0
 10
-0.313324
 20
-93.9803
 11
-0.365204
 21
-93.9732
  0
LINE
  8
0
 10
-0.365204
 20
-93.9732
 11
-0.416916
 21
-93.965
  0
LINE
  8
0
 10
-0.416916
 20
-93.965
 11
-0.468445
 21
-93.9557
  0
LINE
  8
0
 10
-0.468445
 20
-93.9557
 11
-0.519775
 21
-93.9454
  0
LINE
  8
0
 10
-0.519775
 20
-93.9454
 11
-0.570877
 21
-93.9339
  0
LINE
  8
0
 10
-0.570877
 20
-93.9339
 11
-0.621719
 21
-93.9214
  0
LINE
  8
0
 10
-0.621719
 20
-93.9214
 11
-0.672287
 21
-93.9079
  0
LINE
  8
0
 10
-0.672287
 20
-93.9079
 11
-0.722565
 21
-93.8933
  0
LINE
  8
0
 10
-0.722565
 20
-93.8933
 11
-0.772537
 21
-93.8776
  0
LINE
  8
0
 10
-0.772537
 20
-93.8776
 11
-0.822159
 21
-93.8609
  0
LINE
  8
0
 10
-0.822159
 20
-93.8609
 11
-0.871429
 21
-93.8432
  0
LINE
  8
0
 10
-0.871429
 20
-93.8432
 11
-0.920303
 21
-93.8244
  0
LINE
  8
0
 10
-0.920303
 20
-93.8244
 11
-0.968781
 21
-93.8047
  0
LINE
  8
0
 10
-0.968781
 20
-93.8047
 11
-1.01683
 21
-93.7839
  0
LINE
  8
0
 10
-1.01683
 20
-93.7839
 11
-1.06444
 21
-93.7621
  0
LINE
  8
0
 10
-1.06444
 20
-93.7621
 11
-1.11159
 21
-93.7393
  0
LINE
  8
0
 10
-1.11159
 20
-93.7393
 11
-1.15823
 21
-93.7155
  0
LINE
  8
0
 10
-1.15823
 20
-93.7155
 11
-1.20438
 21
-93.6908
  0
LINE
  8
0
 10
-1.20438
 20
-93.6908
 11
-1.25
 21
-93.6651
  0
LINE
  8
0
 10
-1.25
 20
-93.6651
 11
-1.29506
 21
-93.6384
  0
LINE
  8
0
 10
-1.29506
 20
-93.6384
 11
-1.33955
 21
-93.6108
  0
LINE
  8
0
 10
-1.33955
 20
-93.6108
 11
-1.38347
 21
-93.5823
  0
LINE
  8
0
 10
-1.38347
 20
-93.5823
 11
-1.42677
 21
-93.5529
  0
LINE
  8
0
 10
-1.42677
 20
-93.5529
 11
-1.46945
 21
-93.5225
  0
LINE
  8
0
 10
-1.46945
 20
-93.5225
 11
-1.51149
 21
-93.4913
  0
LINE
  8
0
 10
-1.51149
 20
-93.4913
 11
-1.55286
 21
-93.4592
  0
LINE
  8
0
 10
-1.55286
 20
-93.4592
 11
-1.59355
 21
-93.4263
  0
LINE
  8
0
 10
-1.59355
 20
-93.4263
 11
-1.63354
 21
-93.3925
  0
LINE
  8
0
 10
-1.63354
 20
-93.3925
 11
-1.67282
 21
-93.3578
  0
LINE
  8
0
 10
-1.67282
 20
-93.3578
 11
-1.71136
 21
-93.3224
  0
LINE
  8
0
 10
-1.71136
 20
-93.3224
 11
-1.74915
 21
-93.2862
  0
LINE
  8
0
 10
-1.74915
 20
-93.2862
 11
-1.78618
 21
-93.2491
  0
LINE
  8
0
 10
-1.78618
 20
-93.2491
 11
-1.82242
 21
-93.2114
  0
LINE
  8
0
 10
-1.82242
 20
-93.2114
 11
-1.85785
 21
-93.1728
  0
LINE
  8
0
 10
-1.85785
 20
-93.1728
 11
-1.89249
 21
-93.1335
  0
LINE
  8
0
 10
-1.89249
 20
-93.1335
 11
-1.92627
 21
-93.0936
  0
LINE
  8
0
 10
-1.92627
 20
-93.0936
 11
-1.95923
 21
-93.0529
  0
LINE
  8
0
 10
-1.95923
 20
-93.0529
 11
-1.99132
 21
-93.0115
  0
LINE
  8
0
 10
-1.99132
 20
-93.0115
 11
-2.02254
 21
-92.9695
  0
LINE
  8
0
 10
-2.02254
 20
-92.9695
 11
-2.05287
 21
-92.9268
  0
LINE
  8
0
 10
-2.05287
 20
-92.9268
 11
-2.08229
 21
-92.8835
  0
LINE
  8
0
 10
-2.08229
 20
-92.8835
 11
-2.11081
 21
-92.8396
  0
LINE
  8
0
 10
-2.11081
 20
-92.8396
 11
-2.1384
 21
-92.7951
  0
LINE
  8
0
 10
-2.1384
 20
-92.7951
 11
-2.16505
 21
-92.75
  0
LINE
  8
0
 10
-2.16505
 20
-92.75
 11
-2.19077
 21
-92.7044
  0
LINE
  8
0
 10
-2.19077
 20
-92.7044
 11
-2.2155
 21
-92.6582
  0
LINE
  8
0
 10
-2.2155
 20
-92.6582
 11
-2.23927
 21
-92.6116
  0
LINE
  8
0
 10
-2.23927
 20
-92.6116
 11
-2.26205
 21
-92.5644
  0
LINE
  8
0
 10
-2.26205
 20
-92.5644
 11
-2.28386
 21
-92.5168
  0
LINE
  8
0
 10
-2.28386
 20
-92.5168
 11
-2.30466
 21
-92.4688
  0
LINE
  8
0
 10
-2.30466
 20
-92.4688
 11
-2.32443
 21
-92.4203
  0
LINE
  8
0
 10
-2.32443
 20
-92.4203
 11
-2.3432
 21
-92.3714
  0
LINE
  8
0
 10
-2.3432
 20
-92.3714
 11
-2.36093
 21
-92.3222
  0
LINE
  8
0
 10
-2.36093
 20
-92.3222
 11
-2.37764
 21
-92.2725
  0
LINE
  8
0
 10
-2.37764
 20
-92.2725
 11
-2.3933
 21
-92.2226
  0
LINE
  8
0
 10
-2.3933
 20
-92.2226
 11
-2.4079
 21
-92.1723
  0
LINE
  8
0
 10
-2.4079
 20
-92.1723
 11
-2.42145
 21
-92.1217
  0
LINE
  8
0
 10
-2.42145
 20
-92.1217
 11
-2.43394
 21
-92.0709
  0
LINE
  8
0
 10
-2.43394
 20
-92.0709
 11
-2.44536
 21
-92.0198
  0
LINE
  8
0
 10
-2.44536
 20
-92.0198
 11
-2.4557
 21
-91.9684
  0
LINE
  8
0
 10
-2.4557
 20
-91.9684
 11
-2.46498
 21
-91.9169
  0
LINE
  8
0
 10
-2.46498
 20
-91.9169
 11
-2.47318
 21
-91.8652
  0
LINE
  8
0
 10
-2.47318
 20
-91.8652
 11
-2.48029
 21
-91.8133
  0
LINE
  8
0
 10
-2.48029
 20
-91.8133
 11
-2.4863
 21
-91.7613
  0
LINE
  8
0
 10
-2.4863
 20
-91.7613
 11
-2.49123
 21
-91.7092
  0
LINE
  8
0
 10
-2.49123
 20
-91.7092
 11
-2.49506
 21
-91.657
  0
LINE
  8
0
 10
-2.49506
 20
-91.657
 11
-2.4978
 21
-91.6047
  0
LINE
  8
0
 10
-2.4978
 20
-91.6047
 11
-2.49945
 21
-91.5524
  0
LINE
  8
0
 10
-2.49945
 20
-91.5524
 11
-2.5
 21
-91.5
  0
LINE
  8
0
 10
-2.5
 20
-91.5
 11
-2.49945
 21
-91.4476
  0
LINE
  8
0
 10
-2.49945
 20
-91.4476
 11
-2.4978
 21
-91.3953
  0
LINE
  8
0
 10
-2.4978
 20
-91.3953
 11
-2.49506
 21
-91.343
  0
LINE
  8
0
 10
-2.49506
 20
-91.343
 11
-2.49123
 21
-91.2908
  0
LINE
  8
0
 10
-2.49123
 20
-91.2908
 11
-2.4863
 21
-91.2387
  0
LINE
  8
0
 10
-2.4863
 20
-91.2387
 11
-2.48029
 21
-91.1867
  0
LINE
  8
0
 10
-2.48029
 20
-91.1867
 11
-2.47318
 21
-91.1348
  0
LINE
  8
0
 10
-2.47318
 20
-91.1348
 11
-2.46498
 21
-91.0831
  0
LINE
  8
0
 10
-2.46498
 20
-91.0831
 11
-2.4557
 21
-91.0315
  0
LINE
  8
0
 10
-2.4557
 20
-91.0315
 11
-2.44536
 21
-90.9802
  0
LINE
  8
0
 10
-2.44536
 20
-90.9802
 11
-2.43394
 21
-90.9291
  0
LINE
  8
0
 10
-2.43394
 20
-90.9291
 11
-2.42145
 21
-90.8783
  0
LINE
  8
0
 10
-2.42145
 20
-90.8783
 11
-2.4079
 21
-90.8277
  0
LINE
  8
0
 10
-2.4079
 20
-90.8277
 11
-2.3933
 21
-90.7774
  0
LINE
  8
0
 10
-2.3933
 20
-90.7774
 11
-2.37764
 21
-90.7274
  0
LINE
  8
0
 10
-2.37764
 20
-90.7274
 11
-2.36093
 21
-90.6778
  0
LINE
  8
0
 10
-2.36093
 20
-90.6778
 11
-2.3432
 21
-90.6286
  0
LINE
  8
0
 10
-2.3432
 20
-90.6286
 11
-2.32443
 21
-90.5797
  0
LINE
  8
0
 10
-2.32443
 20
-90.5797
 11
-2.30466
 21
-90.5312
  0
LINE
  8
0
 10
-2.30466
 20
-90.5312
 11
-2.28386
 21
-90.4832
  0
LINE
  8
0
 10
-2.28386
 20
-90.4832
 11
-2.26205
 21
-90.4355
  0
LINE
  8
0
 10
-2.26205
 20
-90.4355
 11
-2.23927
 21
-90.3884
  0
LINE
  8
0
 10
-2.23927
 20
-90.3884
 11
-2.2155
 21
-90.3418
  0
LINE
  8
0
 10
-2.2155
 20
-90.3418
 11
-2.19077
 21
-90.2956
  0
LINE
  8
0
 10
-2.19077
 20
-90.2956
 11
-2.16505
 21
-90.25
  0
LINE
  8
0
 10
-2.16505
 20
-90.25
 11
-2.1384
 21
-90.2049
  0
LINE
  8
0
 10
-2.1384
 20
-90.2049
 11
-2.11081
 21
-90.1604
  0
LINE
  8
0
 10
-2.11081
 20
-90.1604
 11
-2.08229
 21
-90.1165
  0
LINE
  8
0
 10
-2.08229
 20
-90.1165
 11
-2.05287
 21
-90.0732
  0
LINE
  8
0
 10
-2.05287
 20
-90.0732
 11
-2.02254
 21
-90.0305
  0
LINE
  8
0
 10
-2.02254
 20
-90.0305
 11
-1.99132
 21
-89.9885
  0
LINE
  8
0
 10
-1.99132
 20
-89.9885
 11
-1.95923
 21
-89.9471
  0
LINE
  8
0
 10
-1.95923
 20
-89.9471
 11
-1.92627
 21
-89.9064
  0
LINE
  8
0
 10
-1.92627
 20
-89.9064
 11
-1.89249
 21
-89.8664
  0
LINE
  8
0
 10
-1.89249
 20
-89.8664
 11
-1.85785
 21
-89.8272
  0
LINE
  8
0
 10
-1.85785
 20
-89.8272
 11
-1.82242
 21
-89.7886
  0
LINE
  8
0
 10
-1.82242
 20
-89.7886
 11
-1.78618
 21
-89.7508
  0
LINE
  8
0
 10
-1.78618
 20
-89.7508
 11
-1.74915
 21
-89.7138
  0
LINE
  8
0
 10
-1.74915
 20
-89.7138
 11
-1.71136
 21
-89.6776
  0
LINE
  8
0
 10
-1.71136
 20
-89.6776
 11
-1.67282
 21
-89.6421
  0
LINE
  8
0
 10
-1.67282
 20
-89.6421
 11
-1.63354
 21
-89.6075
  0
LINE
  8
0
 10
-1.63354
 20
-89.6075
 11
-1.59355
 21
-89.5737
  0
LINE
  8
0
 10
-1.59355
 20
-89.5737
 11
-1.55286
 21
-89.5408
  0
LINE
  8
0
 10
-1.55286
 20
-89.5408
 11
-1.51149
 21
-89.5087
  0
LINE
  8
0
 10
-1.51149
 20
-89.5087
 11
-1.46945
 21
-89.4774
  0
LINE
  8
0
 10
-1.46945
 20
-89.4774
 11
-1.42677
 21
-89.4471
  0
LINE
  8
0
 10
-1.42677
 20
-89.4471
 11
-1.38347
 21
-89.4177
  0
LINE
  8
0
 10
-1.38347
 20
-89.4177
 11
-1.33955
 21
-89.3892
  0
LINE
  8
0
 10
-1.33955
 20
-89.3892
 11
-1.29506
 21
-89.3616
  0
LINE
  8
0
 10
-1.29506
 20
-89.3616
 11
-1.25
 21
-89.3349
  0
LINE
  8
0
 10
-1.25
 20
-89.3349
 11
-1.20438
 21
-89.3092
  0
LINE
  8
0
 10
-1.20438
 20
-89.3092
 11
-1.15823
 21
-89.2845
  0
LINE
  8
0
 10
-1.15823
 20
-89.2845
 11
-1.11159
 21
-89.2607
  0
LINE
  8
0
 10
-1.11159
 20
-89.2607
 11
-1.06444
 21
-89.2379
  0
LINE
  8
0
 10
-1.06444
 20
-89.2379
 11
-1.01683
 21
-89.2161
  0
LINE
  8
0
 10
-1.01683
 20
-89.2161
 11
-0.968781
 21
-89.1953
  0
LINE
  8
0
 10
-0.968781
 20
-89.1953
 11
-0.920303
 21
-89.1756
  0
LINE
  8
0
 10
-0.920303
 20
-89.1756
 11
-0.871429
 21
-89.1568
  0
LINE
  8
0
 10
-0.871429
 20
-89.1568
 11
-0.822159
 21
-89.1391
  0
LINE
  8
0
 10
-0.822159
 20
-89.1391
 11
-0.772537
 21
-89.1223
  0
LINE
  8
0
 10
-0.772537
 20
-89.1223
 11
-0.722565
 21
-89.1067
  0
LINE
  8
0
 10
-0.722565
 20
-89.1067
 11
-0.672287
 21
-89.0921
  0
LINE
  8
0
 10
-0.672287
 20
-89.0921
 11
-0.621719
 21
-89.0785
  0
LINE
  8
0
 10
-0.621719
 20
-89.0785
 11
-0.570877
 21
-89.066
  0
LINE
  8
0
 10
-0.570877
 20
-89.066
 11
-0.519775
 21
-89.0546
  0
LINE
  8
0
 10
-0.519775
 20
-89.0546
 11
-0.468445
 21
-89.0443
  0
LINE
  8
0
 10
-0.468445
 20
-89.0443
 11
-0.416916
 21
-89.035
  0
LINE
  8
0
 10
-0.416916
 20
-89.035
 11
-0.365204
 21
-89.0268
  0
LINE
  8
0
 10
-0.365204
 20
-89.0268
 11
-0.313324
 21
-89.0197
  0
LINE
  8
0
 10
-0.313324
 20
-89.0197
 11
-0.261307
 21
-89.0137
  0
LINE
  8
0
 10
-0.261307
 20
-89.0137
 11
-0.209183
 21
-89.0088
  0
LINE
  8
0
 10
-0.209183
 20
-89.0088
 11
-0.156967
 21
-89.0049
  0
LINE
  8
0
 10
-0.156967
 20
-89.0049
 11
-0.104675
 21
-89.0022
  0
LINE
  8
0
 10
-0.104675
 20
-89.0022
 11
-0.0523529
 21
-89.0005
  0
LINE
  8
0
 10
-0.0523529
 20
-89.0005
 11
0
 21
-89
  0
LINE
  8
0
 10
0
 20
-89
 11
0.0523529
 21
-89.0005
  0
LINE
  8
0
 10
0.0523529
 20
-89.0005
 11
0.104675
 21
-89.0022
  0
LINE
  8
0
 10
0.104675
 20
-89.0022
 11
0.156967
 21
-89.0049
  0
LINE
  8
0
 10
0.156967
 20
-89.0049
 11
0.209183
 21
-89.0088
  0
LINE
  8
0
 10
0.209183
 20
-89.0088
 11
0.261307
 21
-89.0137
  0
LINE
  8
0
 10
0.261307
 20
-89.0137
 11
0.313324
 21
-89.0197
  0
LINE
  8
0
 10
0.313324
 20
-89.0197
 11
0.365204
 21
-89.0268
  0
LINE
  8
0
 10
0.365204
 20
-89.0268
 11
0.416916
 21
-89.035
  0
LINE
  8
0
 10
0.416916
 20
-89.035
 11
0.468445
 21
-89.0443
  0
LINE
  8
0
 10
0.468445
 20
-89.0443
 11
0.519775
 21
-89.0546
  0
LINE
  8
0
 10
0.519775
 20
-89.0546
 11
0.570877
 21
-89.066
  0
LINE
  8
0
 10
0.570877
 20
-89.066
 11
0.621719
 21
-89.0785
  0
LINE
  8
0
 10
0.621719
 20
-89.0785
 11
0.672287
 21
-89.0921
  0
LINE
  8
0
 10
0.672287
 20
-89.0921
 11
0.722565
 21
-89.1067
  0
LINE
  8
0
 10
0.722565
 20
-89.1067
 11
0.772537
 21
-89.1223
  0
LINE
  8
0
 10
0.772537
 20
-89.1223
 11
0.822159
 21
-89.1391
  0
LINE
  8
0
 10
0.822159
 20
-89.1391
 11
0.871429
 21
-89.1568
  0
LINE
  8
0
 10
0.871429
 20
-89.1568
 11
0.920303
 21
-89.1756
  0
LINE
  8
0
 10
0.920303
 20
-89.1756
 11
0.968781
 21
-89.1953
  0
LINE
  8
0
 10
0.968781
 20
-89.1953
 11
1.01683
 21
-89.2161
  0
LINE
  8
0
 10
1.01683
 20
-89.2161
 11
1.06444
 21
-89.2379
  0
LINE
  8
0
 10
1.06444
 20
-89.2379
 11
1.11159
 21
-89.2607
  0
LINE
  8
0
 10
1.11159
 20
-89.2607
 11
1.15823
 21
-89.2845
  0
LINE
  8
0
 10
1.15823
 20
-89.2845
 11
1.20438
 21
-89.3092
  0
LINE
  8
0
 10
1.20438
 20
-89.3092
 11
1.25
 21
-89.3349
  0
LINE
  8
0
 10
1.25
 20
-89.3349
 11
1.29506
 21
-89.3616
  0
LINE
  8
0
 10
1.29506
 20
-89.3616
 11
1.33955
 21
-89.3892
  0
LINE
  8
0
 10
1.33955
 20
-89.3892
 11
1.38347
 21
-89.4177
  0
LINE
  8
0
 10
1.38347
 20
-89.4177
 11
1.42677
 21
-89.4471
  0
LINE
  8
0
 10
1.42677
 20
-89.4471
 11
1.46945
 21
-89.4774
  0
LINE
  8
0
 10
1.46945
 20
-89.4774
 11
1.51149
 21
-89.5087
  0
LINE
  8
0
 10
1.51149
 20
-89.5087
 11
1.55286
 21
-89.5408
  0
LINE
  8
0
 10
1.55286
 20
-89.5408
 11
1.59355
 21
-89.5737
  0
LINE
  8
0
 10
1.59355
 20
-89.5737
 11
1.63354
 21
-89.6075
  0
LINE
  8
0
 10
1.63354
 20
-89.6075
 11
1.67282
 21
-89.6421
  0
LINE
  8
0
 10
1.67282
 20
-89.6421
 11
1.71136
 21
-89.6776
  0
LINE
  8
0
 10
1.71136
 20
-89.6776
 11
1.74915
 21
-89.7138
  0
LINE
  8
0
 10
1.74915
 20
-89.7138
 11
1.78618
 21
-89.7508
  0
LINE
  8
0
 10
1.78618
 20
-89.7508
 11
1.82242
 21
-89.7886
  0
LINE
  8
0
 10
1.82242
 20
-89.7886
 11
1.85785
 21
-89.8272
  0
LINE
  8
0
 10
1.85785
 20
-89.8272
 11
1.89249
 21
-89.8664
  0
LINE
  8
0
 10
1.89249
 20
-89.8664
 11
1.92627
 21
-89.9064
  0
LINE
  8
0
 10
1.92627
 20
-89.9064
 11
1.95923
 21
-89.9471
  0
LINE
  8
0
 10
1.95923
 20
-89.9471
 11
1.99132
 21
-89.9885
  0
LINE
  8
0
 10
1.99132
 20
-89.9885
 11
2.02254
 21
-90.0305
  0
LINE
  8
0
 10
2.02254
 20
-90.0305
 11
2.05287
 21
-90.0732
  0
LINE
  8
0
 10
2.05287
 20
-90.0732
 11
2.08229
 21
-90.1165
  0
LINE
  8
0
 10
2.08229
 20
-90.1165
 11
2.11081
 21
-90.1604
  0
LINE
  8
0
 10
2.11081
 20
-90.1604
 11
2.1384
 21
-90.2049
  0
LINE
  8
0
 10
2.1384
 20
-90.2049
 11
2.16505
 21
-90.25
  0
LINE
  8
0
 10
2.16505
 20
-90.25
 11
2.19077
 21
-90.2956
  0
LINE
  8
0
 10
2.19077
 20
-90.2956
 11
2.2155
 21
-90.3418
  0
LINE
  8
0
 10
2.2155
 20
-90.3418
 11
2.23927
 21
-90.3884
  0
LINE
  8
0
 10
2.23927
 20
-90.3884
 11
2.26205
 21
-90.4355
  0
LINE
  8
0
 10
2.26205
 20
-90.4355
 11
2.28386
 21
-90.4832
  0
LINE
  8
0
 10
2.28386
 20
-90.4832
 11
2.30466
 21
-90.5312
  0
LINE
  8
0
 10
2.30466
 20
-90.5312
 11
2.32443
 21
-90.5797
  0
LINE
  8
0
 10
2.32443
 20
-90.5797
 11
2.3432
 21
-90.6286
  0
LINE
  8
0
 10
2.3432
 20
-90.6286
 11
2.36093
 21
-90.6778
  0
LINE
  8
0
 10
2.36093
 20
-90.6778
 11
2.37764
 21
-90.7274
  0
LINE
  8
0
 10
2.37764
 20
-90.7274
 11
2.3933
 21
-90.7774
  0
LINE
  8
0
 10
2.3933
 20
-90.7774
 11
2.4079
 21
-90.8277
  0
LINE
  8
0
 10
2.4079
 20
-90.8277
 11
2.42145
 21
-90.8783
  0
LINE
  8
0
 10
2.42145
 20
-90.8783
 11
2.43394
 21
-90.9291
  0
LINE
  8
0
 10
2.43394
 20
-90.9291
 11
2.44536
 21
-90.9802
  0
LINE
  8
0
 10
2.44536
 20
-90.9802
 11
2.4557
 21
-91.0315
  0
LINE
  8
0
 10
2.4557
 20
-91.0315
 11
2.46498
 21
-91.0831
  0
LINE
  8
0
 10
2.46498
 20
-91.0831
 11
2.47318
 21
-91.1348
  0
LINE
  8
0
 10
2.47318
 20
-91.1348
 11
2.48029
 21
-91.1867
  0
LINE
  8
0
 10
2.48029
 20
-91.1867
 11
2.4863
 21
-91.2387
  0
LINE
  8
0
 10
2.4863
 20
-91.2387
 11
2.49123
 21
-91.2908
  0
LINE
  8
0
 10
2.49123
 20
-91.2908
 11
2.49506
 21
-91.343
  0
LINE
  8
0
 10
2.49506
 20
-91.343
 11
2.4978
 21
-91.3953
  0
LINE
  8
0
 10
2.4978
 20
-91.3953
 11
2.49945
 21
-91.4476
  0
LINE
  8
0
 10
2.49945
 20
-91.4476
 11
2.5
 21
-91.5
  0
LINE
  8
0
 10
2.5
 20
-91.5
 11
2.49945
 21
-91.5524
  0
LINE
  8
0
 10
2.49945
 20
-91.5524
 11
2.4978
 21
-91.6047
  0
LINE
  8
0
 10
2.4978
 20
-91.6047
 11
2.49506
 21
-91.657
  0
LINE
  8
0
 10
2.49506
 20
-91.657
 11
2.49123
 21
-91.7092
  0
LINE
  8
0
 10
2.49123
 20
-91.7092
 11
2.4863
 21
-91.7613
  0
LINE
  8
0
 10
2.4863
 20
-91.7613
 11
2.48029
 21
-91.8133
  0
LINE
  8
0
 10
2.48029
 20
-91.8133
 11
2.47318
 21
-91.8652
  0
LINE
  8
0
 10
2.47318
 20
-91.8652
 11
2.46498
 21
-91.9169
  0
LINE
  8
0
 10
2.46498
 20
-91.9169
 11
2.4557
 21
-91.9684
  0
LINE
  8
0
 10
2.4557
 20
-91.9684
 11
2.44536
 21
-92.0198
  0
LINE
  8
0
 10
2.44536
 20
-92.0198
 11
2.43394
 21
-92.0709
  0
LINE
  8
0
 10
2.43394
 20
-92.0709
 11
2.42145
 21
-92.1217
  0
LINE
  8
0
 10
2.42145
 20
-92.1217
 11
2.4079
 21
-92.1723
  0
LINE
  8
0
 10
2.4079
 20
-92.1723
 11
2.3933
 21
-92.2226
  0
LINE
  8
0
 10
2.3933
 20
-92.2226
 11
2.37764
 21
-92.2725
  0
LINE
  8
0
 10
2.37764
 20
-92.2725
 11
2.36093
 21
-92.3222
  0
LINE
  8
0
 10
2.36093
 20
-92.3222
 11
2.3432
 21
-92.3714
  0
LINE
  8
0
 10
2.3432
 20
-92.3714
 11
2.32443
 21
-92.4203
  0
LINE
  8
0
 10
2.32443
 20
-92.4203
 11
2.30466
 21
-92.4688
  0
LINE
  8
0
 10
2.30466
 20
-92.4688
 11
2.28386
 21
-92.5168
  0
LINE
  8
0
 10
2.28386
 20
-92.5168
 11
2.26205
 21
-92.5644
  0
LINE
  8
0
 10
2.26205
 20
-92.5644
 11
2.23927
 21
-92.6116
  0
LINE
  8
0
 10
2.23927
 20
-92.6116
 11
2.2155
 21
-92.6582
  0
LINE
  8
0
 10
2.2155
 20
-92.6582
 11
2.19077
 21
-92.7044
  0
LINE
  8
0
 10
2.19077
 20
-92.7044
 11
2.16505
 21
-92.75
  0
LINE
  8
0
 10
2.16505
 20
-92.75
 11
2.1384
 21
-92.7951
  0
LINE
  8
0
 10
2.1384
 20
-92.7951
 11
2.11081
 21
-92.8396
  0
LINE
  8
0
 10
2.11081
 20
-92.8396
 11
2.08229
 21
-92.8835
  0
LINE
  8
0
 10
2.08229
 20
-92.8835
 11
2.05287
 21
-92.9268
  0
LINE
  8
0
 10
2.05287
 20
-92.9268
 11
2.02254
 21
-92.9695
  0
LINE
  8
0
 10
2.02254
 20
-92.9695
 11
1.99132
 21
-93.0115
  0
LINE
  8
0
 10
1.99132
 20
-93.0115
 11
1.95923
 21
-93.0529
  0
LINE
  8
0
 10
1.95923
 20
-93.0529
 11
1.92627
 21
-93.0936
  0
LINE
  8
0
 10
1.92627
 20
-93.0936
 11
1.89249
 21
-93.1335
  0
LINE
  8
0
 10
1.89249
 20
-93.1335
 11
1.85785
 21
-93.1728
  0
LINE
  8
0
 10
1.85785
 20
-93.1728
 11
1.82242
 21
-93.2114
  0
LINE
  8
0
 10
1.82242
 20
-93.2114
 11
1.78618
 21
-93.2491
  0
LINE
  8
0
 10
1.78618
 20
-93.2491
 11
1.74915
 21
-93.2862
  0
LINE
  8
0
 10
1.74915
 20
-93.2862
 11
1.71136
 21
-93.3224
  0
LINE
  8
0
 10
1.71136
 20
-93.3224
 11
1.67282
 21
-93.3578
  0
LINE
  8
0
 10
1.67282
 20
-93.3578
 11
1.63354
 21
-93.3925
  0
LINE
  8
0
 10
1.63354
 20
-93.3925
 11
1.59355
 21
-93.4263
  0
LINE
  8
0
 10
1.59355
 20
-93.4263
 11
1.55286
 21
-93.4592
  0
LINE
  8
0
 10
1.55286
 20
-93.4592
 11
1.51149
 21
-93.4913
  0
LINE
  8
0
 10
1.51149
 20
-93.4913
 11
1.46945
 21
-93.5225
  0
LINE
  8
0
 10
1.46945
 20
-93.5225
 11
1.42677
 21
-93.5529
  0
LINE
  8
0
 10
1.42677
 20
-93.5529
 11
1.38347
 21
-93.5823
  0
LINE
  8
0
 10
1.38347
 20
-93.5823
 11
1.33955
 21
-93.6108
  0
LINE
  8
0
 10
1.33955
 20
-93.6108
 11
1.29506
 21
-93.6384
  0
LINE
  8
0
 10
1.29506
 20
-93.6384
 11
1.25
 21
-93.6651
  0
LINE
  8
0
 10
1.25
 20
-93.6651
 11
1.20438
 21
-93.6908
  0
LINE
  8
0
 10
1.20438
 20
-93.6908
 11
1.15823
 21
-93.7155
  0
LINE
  8
0
 10
1.15823
 20
-93.7155
 11
1.11159
 21
-93.7393
  0
LINE
  8
0
 10
1.11159
 20
-93.7393
 11
1.06444
 21
-93.7621
  0
LINE
  8
0
 10
1.06444
 20
-93.7621
 11
1.01683
 21
-93.7839
  0
LINE
  8
0
 10
1.01683
 20
-93.7839
 11
0.968781
 21
-93.8047
  0
LINE
  8
0
 10
0.968781
 20
-93.8047
 11
0.920303
 21
-93.8244
  0
LINE
  8
0
 10
0.920303
 20
-93.8244
 11
0.871429
 21
-93.8432
  0
LINE
  8
0
 10
0.871429
 20
-93.8432
 11
0.822159
 21
-93.8609
  0
LINE
  8
0
 10
0.822159
 20
-93.8609
 11
0.772537
 21
-93.8776
  0
LINE
  8
0
 10
0.772537
 20
-93.8776
 11
0.722565
 21
-93.8933
  0
LINE
  8
0
 10
0.722565
 20
-93.8933
 11
0.672287
 21
-93.9079
  0
LINE
  8
0
 10
0.672287
 20
-93.9079
 11
0.621719
 21
-93.9214
  0
LINE
  8
0
 10
0.621719
 20
-93.9214
 11
0.570877
 21
-93.9339
  0
LINE
  8
0
 10
0.570877
 20
-93.9339
 11
0.519775
 21
-93.9454
  0
LINE
  8
0
 10
0.519775
 20
-93.9454
 11
0.468445
 21
-93.9557
  0
LINE
  8
0
 10
0.468445
 20
-93.9557
 11
0.416916
 21
-93.965
  0
LINE
  8
0
 10
0.416916
 20
-93.965
 11
0.365204
 21
-93.9732
  0
LINE
  8
0
 10
0.365204
 20
-93.9732
 11
0.313324
 21
-93.9803
  0
LINE
  8
0
 10
0.313324
 20
-93.9803
 11
0.261307
 21
-93.9863
  0
LINE
  8
0
 10
0.261307
 20
-93.9863
 11
0.209183
 21
-93.9912
  0
LINE
  8
0
 10
0.209183
 20
-93.9912
 11
0.156967
 21
-93.9951
  0
LINE
  8
0
 10
0.156967
 20
-93.9951
 11
0.104675
 21
-93.9978
  0
LINE
  8
0
 10
0.104675
 20
-93.9978
 11
0.0523529
 21
-93.9995
  0
LINE
  8
0
 10
0.0523529
 20
-93.9995
 11
0
 21
-94
  0
LINE
  8
0
 10
0
 20
-94
 11
-0.0523529
 21
-93.9995
  0
ENDSEC
  0
SECTION
  2
OBJECTS
  0
DICTIONARY
  0
ENDSEC
  0
EOF
