  0
SECTION
  2
BLOCKS
  0
ENDSEC
  0
SECTION
  2
ENTITIES
  0
LINE
  8
0
 10
35.9423
 20
21
 11
-35.9423
 21
21
  0
LINE
  8
0
 10
-35.9423
 20
21
 11
-35.9423
 21
-21
  0
LINE
  8
0
 10
-35.9423
 20
-21
 11
35.9423
 21
-21
  0
LINE
  8
0
 10
35.9423
 20
-21
 11
35.9423
 21
21
  0
LINE
  8
0
 10
25.6705
 20
7.41423
 11
25.4017
 21
7.4568
  0
LINE
  8
0
 10
25.4017
 20
7.4568
 11
25.1388
 21
7.52725
  0
LINE
  8
0
 10
25.1388
 20
7.52725
 11
24.8848
 21
7.62477
  0
LINE
  8
0
 10
24.8848
 20
7.62477
 11
24.6423
 21
7.74832
  0
LINE
  8
0
 10
24.6423
 20
7.74832
 11
24.414
 21
7.89655
  0
LINE
  8
0
 10
24.414
 20
7.89655
 11
24.2025
 21
8.06781
  0
LINE
  8
0
 10
24.2025
 20
8.06781
 11
24.0101
 21
8.26025
  0
LINE
  8
0
 10
24.0101
 20
8.26025
 11
23.8388
 21
8.47176
  0
LINE
  8
0
 10
23.8388
 20
8.47176
 11
23.6906
 21
8.7
  0
LINE
  8
0
 10
23.6906
 20
8.7
 11
23.5671
 21
8.94247
  0
LINE
  8
0
 10
23.5671
 20
8.94247
 11
23.4695
 21
9.19655
  0
LINE
  8
0
 10
23.4695
 20
9.19655
 11
23.3991
 21
9.45943
  0
LINE
  8
0
 10
23.3991
 20
9.45943
 11
23.3565
 21
9.72823
  0
LINE
  8
0
 10
23.3565
 20
9.72823
 11
23.3423
 21
10
  0
LINE
  8
0
 10
23.3423
 20
10
 11
23.3565
 21
10.2718
  0
LINE
  8
0
 10
23.3565
 20
10.2718
 11
23.3991
 21
10.5406
  0
LINE
  8
0
 10
23.3991
 20
10.5406
 11
23.4695
 21
10.8034
  0
LINE
  8
0
 10
23.4695
 20
10.8034
 11
23.5671
 21
11.0575
  0
LINE
  8
0
 10
23.5671
 20
11.0575
 11
23.6906
 21
11.3
  0
LINE
  8
0
 10
23.6906
 20
11.3
 11
23.8388
 21
11.5282
  0
LINE
  8
0
 10
23.8388
 20
11.5282
 11
24.0101
 21
11.7397
  0
LINE
  8
0
 10
24.0101
 20
11.7397
 11
24.2025
 21
11.9322
  0
LINE
  8
0
 10
24.2025
 20
11.9322
 11
24.414
 21
12.1034
  0
LINE
  8
0
 10
24.414
 20
12.1034
 11
24.6423
 21
12.2517
  0
LINE
  8
0
 10
24.6423
 20
12.2517
 11
24.8848
 21
12.3752
  0
LINE
  8
0
 10
24.8848
 20
12.3752
 11
25.1388
 21
12.4727
  0
LINE
  8
0
 10
25.1388
 20
12.4727
 11
25.4017
 21
12.5432
  0
LINE
  8
0
 10
25.4017
 20
12.5432
 11
25.6705
 21
12.5858
  0
LINE
  8
0
 10
25.6705
 20
12.5858
 11
25.9423
 21
12.6
  0
LINE
  8
0
 10
25.9423
 20
12.6
 11
26.2141
 21
12.5858
  0
LINE
  8
0
 10
26.2141
 20
12.5858
 11
26.4828
 21
12.5432
  0
LINE
  8
0
 10
26.4828
 20
12.5432
 11
26.7457
 21
12.4727
  0
LINE
  8
0
 10
26.7457
 20
12.4727
 11
26.9998
 21
12.3752
  0
LINE
  8
0
 10
26.9998
 20
12.3752
 11
27.2423
 21
12.2517
  0
LINE
  8
0
 10
27.2423
 20
12.2517
 11
27.4705
 21
12.1034
  0
LINE
  8
0
 10
27.4705
 20
12.1034
 11
27.682
 21
11.9322
  0
LINE
  8
0
 10
27.682
 20
11.9322
 11
27.8745
 21
11.7397
  0
LINE
  8
0
 10
27.8745
 20
11.7397
 11
28.0457
 21
11.5282
  0
LINE
  8
0
 10
28.0457
 20
11.5282
 11
28.1939
 21
11.3
  0
LINE
  8
0
 10
28.1939
 20
11.3
 11
28.3175
 21
11.0575
  0
LINE
  8
0
 10
28.3175
 20
11.0575
 11
28.415
 21
10.8034
  0
LINE
  8
0
 10
28.415
 20
10.8034
 11
28.4855
 21
10.5406
  0
LINE
  8
0
 10
28.4855
 20
10.5406
 11
28.528
 21
10.2718
  0
LINE
  8
0
 10
28.528
 20
10.2718
 11
28.5423
 21
10
  0
LINE
  8
0
 10
28.5423
 20
10
 11
28.528
 21
9.72823
  0
LINE
  8
0
 10
28.528
 20
9.72823
 11
28.4855
 21
9.45943
  0
LINE
  8
0
 10
28.4855
 20
9.45943
 11
28.415
 21
9.19655
  0
LINE
  8
0
 10
28.415
 20
9.19655
 11
28.3175
 21
8.94247
  0
LINE
  8
0
 10
28.3175
 20
8.94247
 11
28.1939
 21
8.7
  0
LINE
  8
0
 10
28.1939
 20
8.7
 11
28.0457
 21
8.47176
  0
LINE
  8
0
 10
28.0457
 20
8.47176
 11
27.8745
 21
8.26025
  0
LINE
  8
0
 10
27.8745
 20
8.26025
 11
27.682
 21
8.06781
  0
LINE
  8
0
 10
27.682
 20
8.06781
 11
27.4705
 21
7.89655
  0
LINE
  8
0
 10
27.4705
 20
7.89655
 11
27.2423
 21
7.74832
  0
LINE
  8
0
 10
27.2423
 20
7.74832
 11
26.9998
 21
7.62477
  0
LINE
  8
0
 10
26.9998
 20
7.62477
 11
26.7457
 21
7.52725
  0
LINE
  8
0
 10
26.7457
 20
7.52725
 11
26.4828
 21
7.4568
  0
LINE
  8
0
 10
26.4828
 20
7.4568
 11
26.2141
 21
7.41423
  0
LINE
  8
0
 10
26.2141
 20
7.41423
 11
25.9423
 21
7.39999
  0
LINE
  8
0
 10
25.9423
 20
7.39999
 11
25.6705
 21
7.41423
  0
LINE
  8
0
 10
-26.2141
 20
7.41423
 11
-26.4828
 21
7.4568
  0
LINE
  8
0
 10
-26.4828
 20
7.4568
 11
-26.7457
 21
7.52725
  0
LINE
  8
0
 10
-26.7457
 20
7.52725
 11
-26.9998
 21
7.62477
  0
LINE
  8
0
 10
-26.9998
 20
7.62477
 11
-27.2423
 21
7.74832
  0
LINE
  8
0
 10
-27.2423
 20
7.74832
 11
-27.4705
 21
7.89655
  0
LINE
  8
0
 10
-27.4705
 20
7.89655
 11
-27.682
 21
8.06781
  0
LINE
  8
0
 10
-27.682
 20
8.06781
 11
-27.8745
 21
8.26025
  0
LINE
  8
0
 10
-27.8745
 20
8.26025
 11
-28.0457
 21
8.47176
  0
LINE
  8
0
 10
-28.0457
 20
8.47176
 11
-28.1939
 21
8.7
  0
LINE
  8
0
 10
-28.1939
 20
8.7
 11
-28.3175
 21
8.94247
  0
LINE
  8
0
 10
-28.3175
 20
8.94247
 11
-28.415
 21
9.19655
  0
LINE
  8
0
 10
-28.415
 20
9.19655
 11
-28.4855
 21
9.45943
  0
LINE
  8
0
 10
-28.4855
 20
9.45943
 11
-28.528
 21
9.72823
  0
LINE
  8
0
 10
-28.528
 20
9.72823
 11
-28.5423
 21
10
  0
LINE
  8
0
 10
-28.5423
 20
10
 11
-28.528
 21
10.2718
  0
LINE
  8
0
 10
-28.528
 20
10.2718
 11
-28.4855
 21
10.5406
  0
LINE
  8
0
 10
-28.4855
 20
10.5406
 11
-28.415
 21
10.8034
  0
LINE
  8
0
 10
-28.415
 20
10.8034
 11
-28.3175
 21
11.0575
  0
LINE
  8
0
 10
-28.3175
 20
11.0575
 11
-28.1939
 21
11.3
  0
LINE
  8
0
 10
-28.1939
 20
11.3
 11
-28.0457
 21
11.5282
  0
LINE
  8
0
 10
-28.0457
 20
11.5282
 11
-27.8745
 21
11.7397
  0
LINE
  8
0
 10
-27.8745
 20
11.7397
 11
-27.682
 21
11.9322
  0
LINE
  8
0
 10
-27.682
 20
11.9322
 11
-27.4705
 21
12.1034
  0
LINE
  8
0
 10
-27.4705
 20
12.1034
 11
-27.2423
 21
12.2517
  0
LINE
  8
0
 10
-27.2423
 20
12.2517
 11
-26.9998
 21
12.3752
  0
LINE
  8
0
 10
-26.9998
 20
12.3752
 11
-26.7457
 21
12.4727
  0
LINE
  8
0
 10
-26.7457
 20
12.4727
 11
-26.4828
 21
12.5432
  0
LINE
  8
0
 10
-26.4828
 20
12.5432
 11
-26.2141
 21
12.5858
  0
LINE
  8
0
 10
-26.2141
 20
12.5858
 11
-25.9423
 21
12.6
  0
LINE
  8
0
 10
-25.9423
 20
12.6
 11
-25.6705
 21
12.5858
  0
LINE
  8
0
 10
-25.6705
 20
12.5858
 11
-25.4017
 21
12.5432
  0
LINE
  8
0
 10
-25.4017
 20
12.5432
 11
-25.1388
 21
12.4727
  0
LINE
  8
0
 10
-25.1388
 20
12.4727
 11
-24.8848
 21
12.3752
  0
LINE
  8
0
 10
-24.8848
 20
12.3752
 11
-24.6423
 21
12.2517
  0
LINE
  8
0
 10
-24.6423
 20
12.2517
 11
-24.414
 21
12.1034
  0
LINE
  8
0
 10
-24.414
 20
12.1034
 11
-24.2025
 21
11.9322
  0
LINE
  8
0
 10
-24.2025
 20
11.9322
 11
-24.0101
 21
11.7397
  0
LINE
  8
0
 10
-24.0101
 20
11.7397
 11
-23.8388
 21
11.5282
  0
LINE
  8
0
 10
-23.8388
 20
11.5282
 11
-23.6906
 21
11.3
  0
LINE
  8
0
 10
-23.6906
 20
11.3
 11
-23.5671
 21
11.0575
  0
LINE
  8
0
 10
-23.5671
 20
11.0575
 11
-23.4695
 21
10.8034
  0
LINE
  8
0
 10
-23.4695
 20
10.8034
 11
-23.3991
 21
10.5406
  0
LINE
  8
0
 10
-23.3991
 20
10.5406
 11
-23.3565
 21
10.2718
  0
LINE
  8
0
 10
-23.3565
 20
10.2718
 11
-23.3423
 21
10
  0
LINE
  8
0
 10
-23.3423
 20
10
 11
-23.3565
 21
9.72823
  0
LINE
  8
0
 10
-23.3565
 20
9.72823
 11
-23.3991
 21
9.45943
  0
LINE
  8
0
 10
-23.3991
 20
9.45943
 11
-23.4695
 21
9.19655
  0
LINE
  8
0
 10
-23.4695
 20
9.19655
 11
-23.5671
 21
8.94247
  0
LINE
  8
0
 10
-23.5671
 20
8.94247
 11
-23.6906
 21
8.7
  0
LINE
  8
0
 10
-23.6906
 20
8.7
 11
-23.8388
 21
8.47176
  0
LINE
  8
0
 10
-23.8388
 20
8.47176
 11
-24.0101
 21
8.26025
  0
LINE
  8
0
 10
-24.0101
 20
8.26025
 11
-24.2025
 21
8.06781
  0
LINE
  8
0
 10
-24.2025
 20
8.06781
 11
-24.414
 21
7.89655
  0
LINE
  8
0
 10
-24.414
 20
7.89655
 11
-24.6423
 21
7.74832
  0
LINE
  8
0
 10
-24.6423
 20
7.74832
 11
-24.8848
 21
7.62477
  0
LINE
  8
0
 10
-24.8848
 20
7.62477
 11
-25.1388
 21
7.52725
  0
LINE
  8
0
 10
-25.1388
 20
7.52725
 11
-25.4017
 21
7.4568
  0
LINE
  8
0
 10
-25.4017
 20
7.4568
 11
-25.6705
 21
7.41423
  0
LINE
  8
0
 10
-25.6705
 20
7.41423
 11
-25.9423
 21
7.39999
  0
LINE
  8
0
 10
-25.9423
 20
7.39999
 11
-26.2141
 21
7.41423
  0
LINE
  8
0
 10
17.6994
 20
-14.0858
 11
17.4306
 21
-14.0432
  0
LINE
  8
0
 10
17.4306
 20
-14.0432
 11
17.1677
 21
-13.9727
  0
LINE
  8
0
 10
17.1677
 20
-13.9727
 11
16.9136
 21
-13.8752
  0
LINE
  8
0
 10
16.9136
 20
-13.8752
 11
16.6711
 21
-13.7517
  0
LINE
  8
0
 10
16.6711
 20
-13.7517
 11
16.4429
 21
-13.6034
  0
LINE
  8
0
 10
16.4429
 20
-13.6034
 11
16.2314
 21
-13.4322
  0
LINE
  8
0
 10
16.2314
 20
-13.4322
 11
16.039
 21
-13.2397
  0
LINE
  8
0
 10
16.039
 20
-13.2397
 11
15.8677
 21
-13.0282
  0
LINE
  8
0
 10
15.8677
 20
-13.0282
 11
15.7195
 21
-12.8
  0
LINE
  8
0
 10
15.7195
 20
-12.8
 11
15.5959
 21
-12.5575
  0
LINE
  8
0
 10
15.5959
 20
-12.5575
 11
15.4984
 21
-12.3034
  0
LINE
  8
0
 10
15.4984
 20
-12.3034
 11
15.4279
 21
-12.0406
  0
LINE
  8
0
 10
15.4279
 20
-12.0406
 11
15.3854
 21
-11.7718
  0
LINE
  8
0
 10
15.3854
 20
-11.7718
 11
15.3711
 21
-11.5
  0
LINE
  8
0
 10
15.3711
 20
-11.5
 11
15.3854
 21
-11.2282
  0
LINE
  8
0
 10
15.3854
 20
-11.2282
 11
15.4279
 21
-10.9594
  0
LINE
  8
0
 10
15.4279
 20
-10.9594
 11
15.4984
 21
-10.6965
  0
LINE
  8
0
 10
15.4984
 20
-10.6965
 11
15.5959
 21
-10.4425
  0
LINE
  8
0
 10
15.5959
 20
-10.4425
 11
15.7195
 21
-10.2
  0
LINE
  8
0
 10
15.7195
 20
-10.2
 11
15.8677
 21
-9.97176
  0
LINE
  8
0
 10
15.8677
 20
-9.97176
 11
16.039
 21
-9.76025
  0
LINE
  8
0
 10
16.039
 20
-9.76025
 11
16.2314
 21
-9.56781
  0
LINE
  8
0
 10
16.2314
 20
-9.56781
 11
16.4429
 21
-9.39655
  0
LINE
  8
0
 10
16.4429
 20
-9.39655
 11
16.6711
 21
-9.24832
  0
LINE
  8
0
 10
16.6711
 20
-9.24832
 11
16.9136
 21
-9.12477
  0
LINE
  8
0
 10
16.9136
 20
-9.12477
 11
17.1677
 21
-9.02725
  0
LINE
  8
0
 10
17.1677
 20
-9.02725
 11
17.4306
 21
-8.9568
  0
LINE
  8
0
 10
17.4306
 20
-8.9568
 11
17.6994
 21
-8.91423
  0
LINE
  8
0
 10
17.6994
 20
-8.91423
 11
17.9711
 21
-8.89999
  0
LINE
  8
0
 10
17.9711
 20
-8.89999
 11
18.2429
 21
-8.91423
  0
LINE
  8
0
 10
18.2429
 20
-8.91423
 11
18.5117
 21
-8.9568
  0
LINE
  8
0
 10
18.5117
 20
-8.9568
 11
18.7746
 21
-9.02725
  0
LINE
  8
0
 10
18.7746
 20
-9.02725
 11
19.0287
 21
-9.12477
  0
LINE
  8
0
 10
19.0287
 20
-9.12477
 11
19.2711
 21
-9.24832
  0
LINE
  8
0
 10
19.2711
 20
-9.24832
 11
19.4994
 21
-9.39655
  0
LINE
  8
0
 10
19.4994
 20
-9.39655
 11
19.7109
 21
-9.56781
  0
LINE
  8
0
 10
19.7109
 20
-9.56781
 11
19.9033
 21
-9.76025
  0
LINE
  8
0
 10
19.9033
 20
-9.76025
 11
20.0746
 21
-9.97176
  0
LINE
  8
0
 10
20.0746
 20
-9.97176
 11
20.2228
 21
-10.2
  0
LINE
  8
0
 10
20.2228
 20
-10.2
 11
20.3464
 21
-10.4425
  0
LINE
  8
0
 10
20.3464
 20
-10.4425
 11
20.4439
 21
-10.6965
  0
LINE
  8
0
 10
20.4439
 20
-10.6965
 11
20.5143
 21
-10.9594
  0
LINE
  8
0
 10
20.5143
 20
-10.9594
 11
20.5569
 21
-11.2282
  0
LINE
  8
0
 10
20.5569
 20
-11.2282
 11
20.5711
 21
-11.5
  0
LINE
  8
0
 10
20.5711
 20
-11.5
 11
20.5569
 21
-11.7718
  0
LINE
  8
0
 10
20.5569
 20
-11.7718
 11
20.5143
 21
-12.0406
  0
LINE
  8
0
 10
20.5143
 20
-12.0406
 11
20.4439
 21
-12.3034
  0
LINE
  8
0
 10
20.4439
 20
-12.3034
 11
20.3464
 21
-12.5575
  0
LINE
  8
0
 10
20.3464
 20
-12.5575
 11
20.2228
 21
-12.8
  0
LINE
  8
0
 10
20.2228
 20
-12.8
 11
20.0746
 21
-13.0282
  0
LINE
  8
0
 10
20.0746
 20
-13.0282
 11
19.9033
 21
-13.2397
  0
LINE
  8
0
 10
19.9033
 20
-13.2397
 11
19.7109
 21
-13.4322
  0
LINE
  8
0
 10
19.7109
 20
-13.4322
 11
19.4994
 21
-13.6034
  0
LINE
  8
0
 10
19.4994
 20
-13.6034
 11
19.2711
 21
-13.7517
  0
LINE
  8
0
 10
19.2711
 20
-13.7517
 11
19.0287
 21
-13.8752
  0
LINE
  8
0
 10
19.0287
 20
-13.8752
 11
18.7746
 21
-13.9727
  0
LINE
  8
0
 10
18.7746
 20
-13.9727
 11
18.5117
 21
-14.0432
  0
LINE
  8
0
 10
18.5117
 20
-14.0432
 11
18.2429
 21
-14.0858
  0
LINE
  8
0
 10
18.2429
 20
-14.0858
 11
17.9711
 21
-14.1
  0
LINE
  8
0
 10
17.9711
 20
-14.1
 11
17.6994
 21
-14.0858
  0
LINE
  8
0
 10
-18.2429
 20
-14.0858
 11
-18.5117
 21
-14.0432
  0
LINE
  8
0
 10
-18.5117
 20
-14.0432
 11
-18.7746
 21
-13.9727
  0
LINE
  8
0
 10
-18.7746
 20
-13.9727
 11
-19.0287
 21
-13.8752
  0
LINE
  8
0
 10
-19.0287
 20
-13.8752
 11
-19.2711
 21
-13.7517
  0
LINE
  8
0
 10
-19.2711
 20
-13.7517
 11
-19.4994
 21
-13.6034
  0
LINE
  8
0
 10
-19.4994
 20
-13.6034
 11
-19.7109
 21
-13.4322
  0
LINE
  8
0
 10
-19.7109
 20
-13.4322
 11
-19.9033
 21
-13.2397
  0
LINE
  8
0
 10
-19.9033
 20
-13.2397
 11
-20.0746
 21
-13.0282
  0
LINE
  8
0
 10
-20.0746
 20
-13.0282
 11
-20.2228
 21
-12.8
  0
LINE
  8
0
 10
-20.2228
 20
-12.8
 11
-20.3464
 21
-12.5575
  0
LINE
  8
0
 10
-20.3464
 20
-12.5575
 11
-20.4439
 21
-12.3034
  0
LINE
  8
0
 10
-20.4439
 20
-12.3034
 11
-20.5143
 21
-12.0406
  0
LINE
  8
0
 10
-20.5143
 20
-12.0406
 11
-20.5569
 21
-11.7718
  0
LINE
  8
0
 10
-20.5569
 20
-11.7718
 11
-20.5711
 21
-11.5
  0
LINE
  8
0
 10
-20.5711
 20
-11.5
 11
-20.5569
 21
-11.2282
  0
LINE
  8
0
 10
-20.5569
 20
-11.2282
 11
-20.5143
 21
-10.9594
  0
LINE
  8
0
 10
-20.5143
 20
-10.9594
 11
-20.4439
 21
-10.6965
  0
LINE
  8
0
 10
-20.4439
 20
-10.6965
 11
-20.3464
 21
-10.4425
  0
LINE
  8
0
 10
-20.3464
 20
-10.4425
 11
-20.2228
 21
-10.2
  0
LINE
  8
0
 10
-20.2228
 20
-10.2
 11
-20.0746
 21
-9.97176
  0
LINE
  8
0
 10
-20.0746
 20
-9.97176
 11
-19.9033
 21
-9.76025
  0
LINE
  8
0
 10
-19.9033
 20
-9.76025
 11
-19.7109
 21
-9.56781
  0
LINE
  8
0
 10
-19.7109
 20
-9.56781
 11
-19.4994
 21
-9.39655
  0
LINE
  8
0
 10
-19.4994
 20
-9.39655
 11
-19.2711
 21
-9.24832
  0
LINE
  8
0
 10
-19.2711
 20
-9.24832
 11
-19.0287
 21
-9.12477
  0
LINE
  8
0
 10
-19.0287
 20
-9.12477
 11
-18.7746
 21
-9.02725
  0
LINE
  8
0
 10
-18.7746
 20
-9.02725
 11
-18.5117
 21
-8.9568
  0
LINE
  8
0
 10
-18.5117
 20
-8.9568
 11
-18.2429
 21
-8.91423
  0
LINE
  8
0
 10
-18.2429
 20
-8.91423
 11
-17.9711
 21
-8.89999
  0
LINE
  8
0
 10
-17.9711
 20
-8.89999
 11
-17.6994
 21
-8.91423
  0
LINE
  8
0
 10
-17.6994
 20
-8.91423
 11
-17.4306
 21
-8.9568
  0
LINE
  8
0
 10
-17.4306
 20
-8.9568
 11
-17.1677
 21
-9.02725
  0
LINE
  8
0
 10
-17.1677
 20
-9.02725
 11
-16.9136
 21
-9.12477
  0
LINE
  8
0
 10
-16.9136
 20
-9.12477
 11
-16.6711
 21
-9.24832
  0
LINE
  8
0
 10
-16.6711
 20
-9.24832
 11
-16.4429
 21
-9.39655
  0
LINE
  8
0
 10
-16.4429
 20
-9.39655
 11
-16.2314
 21
-9.56781
  0
LINE
  8
0
 10
-16.2314
 20
-9.56781
 11
-16.039
 21
-9.76025
  0
LINE
  8
0
 10
-16.039
 20
-9.76025
 11
-15.8677
 21
-9.97176
  0
LINE
  8
0
 10
-15.8677
 20
-9.97176
 11
-15.7195
 21
-10.2
  0
LINE
  8
0
 10
-15.7195
 20
-10.2
 11
-15.5959
 21
-10.4425
  0
LINE
  8
0
 10
-15.5959
 20
-10.4425
 11
-15.4984
 21
-10.6965
  0
LINE
  8
0
 10
-15.4984
 20
-10.6965
 11
-15.4279
 21
-10.9594
  0
LINE
  8
0
 10
-15.4279
 20
-10.9594
 11
-15.3854
 21
-11.2282
  0
LINE
  8
0
 10
-15.3854
 20
-11.2282
 11
-15.3711
 21
-11.5
  0
LINE
  8
0
 10
-15.3711
 20
-11.5
 11
-15.3854
 21
-11.7718
  0
LINE
  8
0
 10
-15.3854
 20
-11.7718
 11
-15.4279
 21
-12.0406
  0
LINE
  8
0
 10
-15.4279
 20
-12.0406
 11
-15.4984
 21
-12.3034
  0
LINE
  8
0
 10
-15.4984
 20
-12.3034
 11
-15.5959
 21
-12.5575
  0
LINE
  8
0
 10
-15.5959
 20
-12.5575
 11
-15.7195
 21
-12.8
  0
LINE
  8
0
 10
-15.7195
 20
-12.8
 11
-15.8677
 21
-13.0282
  0
LINE
  8
0
 10
-15.8677
 20
-13.0282
 11
-16.039
 21
-13.2397
  0
LINE
  8
0
 10
-16.039
 20
-13.2397
 11
-16.2314
 21
-13.4322
  0
LINE
  8
0
 10
-16.2314
 20
-13.4322
 11
-16.4429
 21
-13.6034
  0
LINE
  8
0
 10
-16.4429
 20
-13.6034
 11
-16.6711
 21
-13.7517
  0
LINE
  8
0
 10
-16.6711
 20
-13.7517
 11
-16.9136
 21
-13.8752
  0
LINE
  8
0
 10
-16.9136
 20
-13.8752
 11
-17.1677
 21
-13.9727
  0
LINE
  8
0
 10
-17.1677
 20
-13.9727
 11
-17.4306
 21
-14.0432
  0
LINE
  8
0
 10
-17.4306
 20
-14.0432
 11
-17.6994
 21
-14.0858
  0
LINE
  8
0
 10
-17.6994
 20
-14.0858
 11
-17.9711
 21
-14.1
  0
LINE
  8
0
 10
-17.9711
 20
-14.1
 11
-18.2429
 21
-14.0858
  0
ENDSEC
  0
SECTION
  2
OBJECTS
  0
DICTIONARY
  0
ENDSEC
  0
EOF
