  0
SECTION
  2
BLOCKS
  0
ENDSEC
  0
SECTION
  2
ENTITIES
  0
LINE
  8
0
 10
16.893
 20
-127.092
 11
17.0998
 21
-127.059
  0
LINE
  8
0
 10
17.0998
 20
-127.059
 11
17.302
 21
-127.005
  0
LINE
  8
0
 10
17.302
 20
-127.005
 11
17.4974
 21
-126.93
  0
LINE
  8
0
 10
17.4974
 20
-126.93
 11
17.6839
 21
-126.835
  0
LINE
  8
0
 10
17.6839
 20
-126.835
 11
101
 21
-78.732
  0
LINE
  8
0
 10
101
 20
-78.732
 11
101.176
 21
-78.618
  0
LINE
  8
0
 10
101.176
 20
-78.618
 11
101.338
 21
-78.4863
  0
LINE
  8
0
 10
101.338
 20
-78.4863
 11
101.486
 21
-78.3383
  0
LINE
  8
0
 10
101.486
 20
-78.3383
 11
101.618
 21
-78.1756
  0
LINE
  8
0
 10
101.618
 20
-78.1756
 11
101.732
 21
-78
  0
LINE
  8
0
 10
101.732
 20
-78
 11
101.827
 21
-77.8135
  0
LINE
  8
0
 10
101.827
 20
-77.8135
 11
101.902
 21
-77.618
  0
LINE
  8
0
 10
101.902
 20
-77.618
 11
101.956
 21
-77.4158
  0
LINE
  8
0
 10
101.956
 20
-77.4158
 11
101.989
 21
-77.209
  0
LINE
  8
0
 10
101.989
 20
-77.209
 11
102
 21
-77
  0
LINE
  8
0
 10
102
 20
-77
 11
102
 21
77
  0
LINE
  8
0
 10
102
 20
77
 11
101.989
 21
77.209
  0
LINE
  8
0
 10
101.989
 20
77.209
 11
101.956
 21
77.4158
  0
LINE
  8
0
 10
101.956
 20
77.4158
 11
101.902
 21
77.618
  0
LINE
  8
0
 10
101.902
 20
77.618
 11
101.827
 21
77.8135
  0
LINE
  8
0
 10
101.827
 20
77.8135
 11
101.732
 21
78
  0
LINE
  8
0
 10
101.732
 20
78
 11
101.618
 21
78.1756
  0
LINE
  8
0
 10
101.618
 20
78.1756
 11
101.486
 21
78.3383
  0
LINE
  8
0
 10
101.486
 20
78.3383
 11
101.338
 21
78.4863
  0
LINE
  8
0
 10
101.338
 20
78.4863
 11
101.176
 21
78.618
  0
LINE
  8
0
 10
101.176
 20
78.618
 11
101
 21
78.732
  0
LINE
  8
0
 10
101
 20
78.732
 11
17.6839
 21
126.835
  0
LINE
  8
0
 10
17.6839
 20
126.835
 11
17.4974
 21
126.93
  0
LINE
  8
0
 10
17.4974
 20
126.93
 11
17.302
 21
127.005
  0
LINE
  8
0
 10
17.302
 20
127.005
 11
17.0998
 21
127.059
  0
LINE
  8
0
 10
17.0998
 20
127.059
 11
16.893
 21
127.092
  0
LINE
  8
0
 10
16.893
 20
127.092
 11
16.684
 21
127.103
  0
LINE
  8
0
 10
16.684
 20
127.103
 11
16.4749
 21
127.092
  0
LINE
  8
0
 10
16.4749
 20
127.092
 11
16.2681
 21
127.059
  0
LINE
  8
0
 10
16.2681
 20
127.059
 11
16.0659
 21
127.005
  0
LINE
  8
0
 10
16.0659
 20
127.005
 11
15.8705
 21
126.93
  0
LINE
  8
0
 10
15.8705
 20
126.93
 11
15.6839
 21
126.835
  0
LINE
  8
0
 10
15.6839
 20
126.835
 11
-117.684
 21
49.8346
  0
LINE
  8
0
 10
-117.684
 20
49.8346
 11
-117.859
 21
49.7206
  0
LINE
  8
0
 10
-117.859
 20
49.7206
 11
-118.022
 21
49.5888
  0
LINE
  8
0
 10
-118.022
 20
49.5888
 11
-118.17
 21
49.4408
  0
LINE
  8
0
 10
-118.17
 20
49.4408
 11
-118.302
 21
49.2781
  0
LINE
  8
0
 10
-118.302
 20
49.2781
 11
-118.416
 21
49.1025
  0
LINE
  8
0
 10
-118.416
 20
49.1025
 11
-118.511
 21
48.916
  0
LINE
  8
0
 10
-118.511
 20
48.916
 11
-118.586
 21
48.7206
  0
LINE
  8
0
 10
-118.586
 20
48.7206
 11
-118.64
 21
48.5184
  0
LINE
  8
0
 10
-118.64
 20
48.5184
 11
-118.673
 21
48.3116
  0
LINE
  8
0
 10
-118.673
 20
48.3116
 11
-118.684
 21
48.1025
  0
LINE
  8
0
 10
-118.684
 20
48.1025
 11
-118.684
 21
-48.1025
  0
LINE
  8
0
 10
-118.684
 20
-48.1025
 11
-118.673
 21
-48.3116
  0
LINE
  8
0
 10
-118.673
 20
-48.3116
 11
-118.64
 21
-48.5184
  0
LINE
  8
0
 10
-118.64
 20
-48.5184
 11
-118.586
 21
-48.7206
  0
LINE
  8
0
 10
-118.586
 20
-48.7206
 11
-118.511
 21
-48.916
  0
LINE
  8
0
 10
-118.511
 20
-48.916
 11
-118.416
 21
-49.1025
  0
LINE
  8
0
 10
-118.416
 20
-49.1025
 11
-118.302
 21
-49.2781
  0
LINE
  8
0
 10
-118.302
 20
-49.2781
 11
-118.17
 21
-49.4408
  0
LINE
  8
0
 10
-118.17
 20
-49.4408
 11
-118.022
 21
-49.5888
  0
LINE
  8
0
 10
-118.022
 20
-49.5888
 11
-117.859
 21
-49.7206
  0
LINE
  8
0
 10
-117.859
 20
-49.7206
 11
-117.684
 21
-49.8346
  0
LINE
  8
0
 10
-117.684
 20
-49.8346
 11
15.6839
 21
-126.835
  0
LINE
  8
0
 10
15.6839
 20
-126.835
 11
15.8705
 21
-126.93
  0
LINE
  8
0
 10
15.8705
 20
-126.93
 11
16.0659
 21
-127.005
  0
LINE
  8
0
 10
16.0659
 20
-127.005
 11
16.2681
 21
-127.059
  0
LINE
  8
0
 10
16.2681
 20
-127.059
 11
16.4749
 21
-127.092
  0
LINE
  8
0
 10
16.4749
 20
-127.092
 11
16.684
 21
-127.103
  0
LINE
  8
0
 10
16.684
 20
-127.103
 11
16.893
 21
-127.092
  0
LINE
  8
0
 10
14.7593
 20
95.3797
 11
14.4905
 21
95.4222
  0
LINE
  8
0
 10
14.4905
 20
95.4222
 11
14.2276
 21
95.4927
  0
LINE
  8
0
 10
14.2276
 20
95.4927
 11
13.9735
 21
95.5902
  0
LINE
  8
0
 10
13.9735
 20
95.5902
 11
13.731
 21
95.7137
  0
LINE
  8
0
 10
13.731
 20
95.7137
 11
13.5028
 21
95.862
  0
LINE
  8
0
 10
13.5028
 20
95.862
 11
13.2913
 21
96.0332
  0
LINE
  8
0
 10
13.2913
 20
96.0332
 11
13.0989
 21
96.2257
  0
LINE
  8
0
 10
13.0989
 20
96.2257
 11
12.9276
 21
96.4372
  0
LINE
  8
0
 10
12.9276
 20
96.4372
 11
12.7794
 21
96.6654
  0
LINE
  8
0
 10
12.7794
 20
96.6654
 11
12.6559
 21
96.9079
  0
LINE
  8
0
 10
12.6559
 20
96.9079
 11
12.5583
 21
97.1619
  0
LINE
  8
0
 10
12.5583
 20
97.1619
 11
12.4879
 21
97.4248
  0
LINE
  8
0
 10
12.4879
 20
97.4248
 11
12.4453
 21
97.6936
  0
LINE
  8
0
 10
12.4453
 20
97.6936
 11
12.4311
 21
97.9654
  0
LINE
  8
0
 10
12.4311
 20
97.9654
 11
12.4453
 21
98.2372
  0
LINE
  8
0
 10
12.4453
 20
98.2372
 11
12.4879
 21
98.506
  0
LINE
  8
0
 10
12.4879
 20
98.506
 11
12.5583
 21
98.7688
  0
LINE
  8
0
 10
12.5583
 20
98.7688
 11
12.6559
 21
99.0229
  0
LINE
  8
0
 10
12.6559
 20
99.0229
 11
12.7794
 21
99.2654
  0
LINE
  8
0
 10
12.7794
 20
99.2654
 11
12.9276
 21
99.4936
  0
LINE
  8
0
 10
12.9276
 20
99.4936
 11
13.0989
 21
99.7051
  0
LINE
  8
0
 10
13.0989
 20
99.7051
 11
13.2913
 21
99.8976
  0
LINE
  8
0
 10
13.2913
 20
99.8976
 11
13.5028
 21
100.069
  0
LINE
  8
0
 10
13.5028
 20
100.069
 11
13.7311
 21
100.217
  0
LINE
  8
0
 10
13.7311
 20
100.217
 11
13.9735
 21
100.341
  0
LINE
  8
0
 10
13.9735
 20
100.341
 11
14.2276
 21
100.438
  0
LINE
  8
0
 10
14.2276
 20
100.438
 11
14.4905
 21
100.509
  0
LINE
  8
0
 10
14.4905
 20
100.509
 11
14.7593
 21
100.551
  0
LINE
  8
0
 10
14.7593
 20
100.551
 11
15.0311
 21
100.565
  0
LINE
  8
0
 10
15.0311
 20
100.565
 11
15.3028
 21
100.551
  0
LINE
  8
0
 10
15.3028
 20
100.551
 11
15.5716
 21
100.509
  0
LINE
  8
0
 10
15.5716
 20
100.509
 11
15.8345
 21
100.438
  0
LINE
  8
0
 10
15.8345
 20
100.438
 11
16.0886
 21
100.341
  0
LINE
  8
0
 10
16.0886
 20
100.341
 11
16.3311
 21
100.217
  0
LINE
  8
0
 10
16.3311
 20
100.217
 11
16.5593
 21
100.069
  0
LINE
  8
0
 10
16.5593
 20
100.069
 11
16.7708
 21
99.8976
  0
LINE
  8
0
 10
16.7708
 20
99.8976
 11
16.9632
 21
99.7051
  0
LINE
  8
0
 10
16.9632
 20
99.7051
 11
17.1345
 21
99.4936
  0
LINE
  8
0
 10
17.1345
 20
99.4936
 11
17.2827
 21
99.2654
  0
LINE
  8
0
 10
17.2827
 20
99.2654
 11
17.4063
 21
99.0229
  0
LINE
  8
0
 10
17.4063
 20
99.0229
 11
17.5038
 21
98.7689
  0
LINE
  8
0
 10
17.5038
 20
98.7689
 11
17.5742
 21
98.506
  0
LINE
  8
0
 10
17.5742
 20
98.506
 11
17.6168
 21
98.2372
  0
LINE
  8
0
 10
17.6168
 20
98.2372
 11
17.6311
 21
97.9654
  0
LINE
  8
0
 10
17.6311
 20
97.9654
 11
17.6168
 21
97.6936
  0
LINE
  8
0
 10
17.6168
 20
97.6936
 11
17.5742
 21
97.4249
  0
LINE
  8
0
 10
17.5742
 20
97.4249
 11
17.5038
 21
97.162
  0
LINE
  8
0
 10
17.5038
 20
97.162
 11
17.4063
 21
96.9079
  0
LINE
  8
0
 10
17.4063
 20
96.9079
 11
17.2827
 21
96.6654
  0
LINE
  8
0
 10
17.2827
 20
96.6654
 11
17.1345
 21
96.4372
  0
LINE
  8
0
 10
17.1345
 20
96.4372
 11
16.9632
 21
96.2257
  0
LINE
  8
0
 10
16.9632
 20
96.2257
 11
16.7708
 21
96.0332
  0
LINE
  8
0
 10
16.7708
 20
96.0332
 11
16.5593
 21
95.862
  0
LINE
  8
0
 10
16.5593
 20
95.862
 11
16.3311
 21
95.7137
  0
LINE
  8
0
 10
16.3311
 20
95.7137
 11
16.0886
 21
95.5902
  0
LINE
  8
0
 10
16.0886
 20
95.5902
 11
15.8345
 21
95.4927
  0
LINE
  8
0
 10
15.8345
 20
95.4927
 11
15.5716
 21
95.4222
  0
LINE
  8
0
 10
15.5716
 20
95.4222
 11
15.3028
 21
95.3797
  0
LINE
  8
0
 10
15.3028
 20
95.3797
 11
15.0311
 21
95.3654
  0
LINE
  8
0
 10
15.0311
 20
95.3654
 11
14.7593
 21
95.3797
  0
LINE
  8
0
 10
31.5042
 20
88.3941
 11
31.2354
 21
88.4367
  0
LINE
  8
0
 10
31.2354
 20
88.4367
 11
30.9725
 21
88.5071
  0
LINE
  8
0
 10
30.9725
 20
88.5071
 11
30.7184
 21
88.6046
  0
LINE
  8
0
 10
30.7184
 20
88.6046
 11
30.476
 21
88.7282
  0
LINE
  8
0
 10
30.476
 20
88.7282
 11
30.2477
 21
88.8764
  0
LINE
  8
0
 10
30.2477
 20
88.8764
 11
30.0362
 21
89.0477
  0
LINE
  8
0
 10
30.0362
 20
89.0477
 11
29.8438
 21
89.2401
  0
LINE
  8
0
 10
29.8438
 20
89.2401
 11
29.6725
 21
89.4516
  0
LINE
  8
0
 10
29.6725
 20
89.4516
 11
29.5243
 21
89.6798
  0
LINE
  8
0
 10
29.5243
 20
89.6798
 11
29.4007
 21
89.9223
  0
LINE
  8
0
 10
29.4007
 20
89.9223
 11
29.3032
 21
90.1764
  0
LINE
  8
0
 10
29.3032
 20
90.1764
 11
29.2328
 21
90.4393
  0
LINE
  8
0
 10
29.2328
 20
90.4393
 11
29.1902
 21
90.7081
  0
LINE
  8
0
 10
29.1902
 20
90.7081
 11
29.1759
 21
90.9798
  0
LINE
  8
0
 10
29.1759
 20
90.9798
 11
29.1902
 21
91.2516
  0
LINE
  8
0
 10
29.1902
 20
91.2516
 11
29.2328
 21
91.5204
  0
LINE
  8
0
 10
29.2328
 20
91.5204
 11
29.3032
 21
91.7833
  0
LINE
  8
0
 10
29.3032
 20
91.7833
 11
29.4007
 21
92.0374
  0
LINE
  8
0
 10
29.4007
 20
92.0374
 11
29.5243
 21
92.2798
  0
LINE
  8
0
 10
29.5243
 20
92.2798
 11
29.6725
 21
92.5081
  0
LINE
  8
0
 10
29.6725
 20
92.5081
 11
29.8438
 21
92.7196
  0
LINE
  8
0
 10
29.8438
 20
92.7196
 11
30.0362
 21
92.912
  0
LINE
  8
0
 10
30.0362
 20
92.912
 11
30.2477
 21
93.0833
  0
LINE
  8
0
 10
30.2477
 20
93.0833
 11
30.4759
 21
93.2315
  0
LINE
  8
0
 10
30.4759
 20
93.2315
 11
30.7184
 21
93.3551
  0
LINE
  8
0
 10
30.7184
 20
93.3551
 11
30.9725
 21
93.4526
  0
LINE
  8
0
 10
30.9725
 20
93.4526
 11
31.2354
 21
93.523
  0
LINE
  8
0
 10
31.2354
 20
93.523
 11
31.5042
 21
93.5656
  0
LINE
  8
0
 10
31.5042
 20
93.5656
 11
31.776
 21
93.5798
  0
LINE
  8
0
 10
31.776
 20
93.5798
 11
32.0477
 21
93.5656
  0
LINE
  8
0
 10
32.0477
 20
93.5656
 11
32.3165
 21
93.523
  0
LINE
  8
0
 10
32.3165
 20
93.523
 11
32.5794
 21
93.4526
  0
LINE
  8
0
 10
32.5794
 20
93.4526
 11
32.8335
 21
93.3551
  0
LINE
  8
0
 10
32.8335
 20
93.3551
 11
33.076
 21
93.2315
  0
LINE
  8
0
 10
33.076
 20
93.2315
 11
33.3042
 21
93.0833
  0
LINE
  8
0
 10
33.3042
 20
93.0833
 11
33.5157
 21
92.912
  0
LINE
  8
0
 10
33.5157
 20
92.912
 11
33.7081
 21
92.7196
  0
LINE
  8
0
 10
33.7081
 20
92.7196
 11
33.8794
 21
92.5081
  0
LINE
  8
0
 10
33.8794
 20
92.5081
 11
34.0276
 21
92.2798
  0
LINE
  8
0
 10
34.0276
 20
92.2798
 11
34.1512
 21
92.0374
  0
LINE
  8
0
 10
34.1512
 20
92.0374
 11
34.2487
 21
91.7833
  0
LINE
  8
0
 10
34.2487
 20
91.7833
 11
34.3191
 21
91.5204
  0
LINE
  8
0
 10
34.3191
 20
91.5204
 11
34.3617
 21
91.2516
  0
LINE
  8
0
 10
34.3617
 20
91.2516
 11
34.3759
 21
90.9798
  0
LINE
  8
0
 10
34.3759
 20
90.9798
 11
34.3617
 21
90.7081
  0
LINE
  8
0
 10
34.3617
 20
90.7081
 11
34.3191
 21
90.4393
  0
LINE
  8
0
 10
34.3191
 20
90.4393
 11
34.2487
 21
90.1764
  0
LINE
  8
0
 10
34.2487
 20
90.1764
 11
34.1512
 21
89.9223
  0
LINE
  8
0
 10
34.1512
 20
89.9223
 11
34.0276
 21
89.6798
  0
LINE
  8
0
 10
34.0276
 20
89.6798
 11
33.8794
 21
89.4516
  0
LINE
  8
0
 10
33.8794
 20
89.4516
 11
33.7081
 21
89.2401
  0
LINE
  8
0
 10
33.7081
 20
89.2401
 11
33.5157
 21
89.0477
  0
LINE
  8
0
 10
33.5157
 20
89.0477
 11
33.3042
 21
88.8764
  0
LINE
  8
0
 10
33.3042
 20
88.8764
 11
33.076
 21
88.7282
  0
LINE
  8
0
 10
33.076
 20
88.7282
 11
32.8335
 21
88.6046
  0
LINE
  8
0
 10
32.8335
 20
88.6046
 11
32.5794
 21
88.5071
  0
LINE
  8
0
 10
32.5794
 20
88.5071
 11
32.3165
 21
88.4367
  0
LINE
  8
0
 10
32.3165
 20
88.4367
 11
32.0477
 21
88.3941
  0
LINE
  8
0
 10
32.0477
 20
88.3941
 11
31.776
 21
88.3799
  0
LINE
  8
0
 10
31.776
 20
88.3799
 11
31.5042
 21
88.3941
  0
LINE
  8
0
 10
62.6311
 20
70.4229
 11
62.3623
 21
70.4655
  0
LINE
  8
0
 10
62.3623
 20
70.4655
 11
62.0994
 21
70.536
  0
LINE
  8
0
 10
62.0994
 20
70.536
 11
61.8454
 21
70.6335
  0
LINE
  8
0
 10
61.8454
 20
70.6335
 11
61.6029
 21
70.757
  0
LINE
  8
0
 10
61.6029
 20
70.757
 11
61.3746
 21
70.9053
  0
LINE
  8
0
 10
61.3746
 20
70.9053
 11
61.1631
 21
71.0765
  0
LINE
  8
0
 10
61.1631
 20
71.0765
 11
60.9707
 21
71.269
  0
LINE
  8
0
 10
60.9707
 20
71.269
 11
60.7994
 21
71.4805
  0
LINE
  8
0
 10
60.7994
 20
71.4805
 11
60.6512
 21
71.7087
  0
LINE
  8
0
 10
60.6512
 20
71.7087
 11
60.5276
 21
71.9512
  0
LINE
  8
0
 10
60.5276
 20
71.9512
 11
60.4301
 21
72.2053
  0
LINE
  8
0
 10
60.4301
 20
72.2053
 11
60.3597
 21
72.4681
  0
LINE
  8
0
 10
60.3597
 20
72.4681
 11
60.3171
 21
72.7369
  0
LINE
  8
0
 10
60.3171
 20
72.7369
 11
60.3029
 21
73.0087
  0
LINE
  8
0
 10
60.3029
 20
73.0087
 11
60.3171
 21
73.2805
  0
LINE
  8
0
 10
60.3171
 20
73.2805
 11
60.3597
 21
73.5493
  0
LINE
  8
0
 10
60.3597
 20
73.5493
 11
60.4301
 21
73.8121
  0
LINE
  8
0
 10
60.4301
 20
73.8121
 11
60.5276
 21
74.0662
  0
LINE
  8
0
 10
60.5276
 20
74.0662
 11
60.6512
 21
74.3087
  0
LINE
  8
0
 10
60.6512
 20
74.3087
 11
60.7994
 21
74.537
  0
LINE
  8
0
 10
60.7994
 20
74.537
 11
60.9707
 21
74.7484
  0
LINE
  8
0
 10
60.9707
 20
74.7484
 11
61.1631
 21
74.9409
  0
LINE
  8
0
 10
61.1631
 20
74.9409
 11
61.3746
 21
75.1122
  0
LINE
  8
0
 10
61.3746
 20
75.1122
 11
61.6029
 21
75.2604
  0
LINE
  8
0
 10
61.6029
 20
75.2604
 11
61.8454
 21
75.3839
  0
LINE
  8
0
 10
61.8454
 20
75.3839
 11
62.0994
 21
75.4814
  0
LINE
  8
0
 10
62.0994
 20
75.4814
 11
62.3623
 21
75.5519
  0
LINE
  8
0
 10
62.3623
 20
75.5519
 11
62.6311
 21
75.5945
  0
LINE
  8
0
 10
62.6311
 20
75.5945
 11
62.9029
 21
75.6087
  0
LINE
  8
0
 10
62.9029
 20
75.6087
 11
63.1746
 21
75.5945
  0
LINE
  8
0
 10
63.1746
 20
75.5945
 11
63.4435
 21
75.5519
  0
LINE
  8
0
 10
63.4435
 20
75.5519
 11
63.7063
 21
75.4814
  0
LINE
  8
0
 10
63.7063
 20
75.4814
 11
63.9604
 21
75.3839
  0
LINE
  8
0
 10
63.9604
 20
75.3839
 11
64.2029
 21
75.2604
  0
LINE
  8
0
 10
64.2029
 20
75.2604
 11
64.4311
 21
75.1122
  0
LINE
  8
0
 10
64.4311
 20
75.1122
 11
64.6426
 21
74.9409
  0
LINE
  8
0
 10
64.6426
 20
74.9409
 11
64.8351
 21
74.7484
  0
LINE
  8
0
 10
64.8351
 20
74.7484
 11
65.0063
 21
74.5369
  0
LINE
  8
0
 10
65.0063
 20
74.5369
 11
65.1545
 21
74.3087
  0
LINE
  8
0
 10
65.1545
 20
74.3087
 11
65.2781
 21
74.0662
  0
LINE
  8
0
 10
65.2781
 20
74.0662
 11
65.3756
 21
73.8121
  0
LINE
  8
0
 10
65.3756
 20
73.8121
 11
65.446
 21
73.5493
  0
LINE
  8
0
 10
65.446
 20
73.5493
 11
65.4886
 21
73.2805
  0
LINE
  8
0
 10
65.4886
 20
73.2805
 11
65.5029
 21
73.0087
  0
LINE
  8
0
 10
65.5029
 20
73.0087
 11
65.4886
 21
72.7369
  0
LINE
  8
0
 10
65.4886
 20
72.7369
 11
65.446
 21
72.4681
  0
LINE
  8
0
 10
65.446
 20
72.4681
 11
65.3756
 21
72.2053
  0
LINE
  8
0
 10
65.3756
 20
72.2053
 11
65.2781
 21
71.9512
  0
LINE
  8
0
 10
65.2781
 20
71.9512
 11
65.1545
 21
71.7087
  0
LINE
  8
0
 10
65.1545
 20
71.7087
 11
65.0063
 21
71.4805
  0
LINE
  8
0
 10
65.0063
 20
71.4805
 11
64.835
 21
71.269
  0
LINE
  8
0
 10
64.835
 20
71.269
 11
64.6426
 21
71.0765
  0
LINE
  8
0
 10
64.6426
 20
71.0765
 11
64.4311
 21
70.9052
  0
LINE
  8
0
 10
64.4311
 20
70.9052
 11
64.2029
 21
70.757
  0
LINE
  8
0
 10
64.2029
 20
70.757
 11
63.9604
 21
70.6335
  0
LINE
  8
0
 10
63.9604
 20
70.6335
 11
63.7063
 21
70.5359
  0
LINE
  8
0
 10
63.7063
 20
70.5359
 11
63.4435
 21
70.4655
  0
LINE
  8
0
 10
63.4435
 20
70.4655
 11
63.1746
 21
70.4229
  0
LINE
  8
0
 10
63.1746
 20
70.4229
 11
62.9029
 21
70.4087
  0
LINE
  8
0
 10
62.9029
 20
70.4087
 11
62.6311
 21
70.4229
  0
LINE
  8
0
 10
-38.9343
 20
64.3797
 11
-39.203
 21
64.4222
  0
LINE
  8
0
 10
-39.203
 20
64.4222
 11
-39.4659
 21
64.4927
  0
LINE
  8
0
 10
-39.4659
 20
64.4927
 11
-39.72
 21
64.5902
  0
LINE
  8
0
 10
-39.72
 20
64.5902
 11
-39.9625
 21
64.7137
  0
LINE
  8
0
 10
-39.9625
 20
64.7137
 11
-40.1907
 21
64.862
  0
LINE
  8
0
 10
-40.1907
 20
64.862
 11
-40.4022
 21
65.0332
  0
LINE
  8
0
 10
-40.4022
 20
65.0332
 11
-40.5947
 21
65.2257
  0
LINE
  8
0
 10
-40.5947
 20
65.2257
 11
-40.7659
 21
65.4372
  0
LINE
  8
0
 10
-40.7659
 20
65.4372
 11
-40.9142
 21
65.6654
  0
LINE
  8
0
 10
-40.9142
 20
65.6654
 11
-41.0377
 21
65.9079
  0
LINE
  8
0
 10
-41.0377
 20
65.9079
 11
-41.1352
 21
66.162
  0
LINE
  8
0
 10
-41.1352
 20
66.162
 11
-41.2057
 21
66.4248
  0
LINE
  8
0
 10
-41.2057
 20
66.4248
 11
-41.2482
 21
66.6936
  0
LINE
  8
0
 10
-41.2482
 20
66.6936
 11
-41.2625
 21
66.9654
  0
LINE
  8
0
 10
-41.2625
 20
66.9654
 11
-41.2482
 21
67.2372
  0
LINE
  8
0
 10
-41.2482
 20
67.2372
 11
-41.2057
 21
67.506
  0
LINE
  8
0
 10
-41.2057
 20
67.506
 11
-41.1352
 21
67.7689
  0
LINE
  8
0
 10
-41.1352
 20
67.7689
 11
-41.0377
 21
68.0229
  0
LINE
  8
0
 10
-41.0377
 20
68.0229
 11
-40.9142
 21
68.2654
  0
LINE
  8
0
 10
-40.9142
 20
68.2654
 11
-40.7659
 21
68.4937
  0
LINE
  8
0
 10
-40.7659
 20
68.4937
 11
-40.5947
 21
68.7051
  0
LINE
  8
0
 10
-40.5947
 20
68.7051
 11
-40.4022
 21
68.8976
  0
LINE
  8
0
 10
-40.4022
 20
68.8976
 11
-40.1907
 21
69.0689
  0
LINE
  8
0
 10
-40.1907
 20
69.0689
 11
-39.9625
 21
69.2171
  0
LINE
  8
0
 10
-39.9625
 20
69.2171
 11
-39.72
 21
69.3406
  0
LINE
  8
0
 10
-39.72
 20
69.3406
 11
-39.4659
 21
69.4381
  0
LINE
  8
0
 10
-39.4659
 20
69.4381
 11
-39.2031
 21
69.5086
  0
LINE
  8
0
 10
-39.2031
 20
69.5086
 11
-38.9343
 21
69.5512
  0
LINE
  8
0
 10
-38.9343
 20
69.5512
 11
-38.6625
 21
69.5654
  0
LINE
  8
0
 10
-38.6625
 20
69.5654
 11
-38.3907
 21
69.5511
  0
LINE
  8
0
 10
-38.3907
 20
69.5511
 11
-38.1219
 21
69.5086
  0
LINE
  8
0
 10
-38.1219
 20
69.5086
 11
-37.859
 21
69.4381
  0
LINE
  8
0
 10
-37.859
 20
69.4381
 11
-37.605
 21
69.3406
  0
LINE
  8
0
 10
-37.605
 20
69.3406
 11
-37.3625
 21
69.2171
  0
LINE
  8
0
 10
-37.3625
 20
69.2171
 11
-37.1342
 21
69.0688
  0
LINE
  8
0
 10
-37.1342
 20
69.0688
 11
-36.9228
 21
68.8976
  0
LINE
  8
0
 10
-36.9228
 20
68.8976
 11
-36.7303
 21
68.7051
  0
LINE
  8
0
 10
-36.7303
 20
68.7051
 11
-36.559
 21
68.4936
  0
LINE
  8
0
 10
-36.559
 20
68.4936
 11
-36.4108
 21
68.2654
  0
LINE
  8
0
 10
-36.4108
 20
68.2654
 11
-36.2873
 21
68.0229
  0
LINE
  8
0
 10
-36.2873
 20
68.0229
 11
-36.1898
 21
67.7689
  0
LINE
  8
0
 10
-36.1898
 20
67.7689
 11
-36.1193
 21
67.506
  0
LINE
  8
0
 10
-36.1193
 20
67.506
 11
-36.0767
 21
67.2372
  0
LINE
  8
0
 10
-36.0767
 20
67.2372
 11
-36.0625
 21
66.9654
  0
LINE
  8
0
 10
-36.0625
 20
66.9654
 11
-36.0768
 21
66.6936
  0
LINE
  8
0
 10
-36.0768
 20
66.6936
 11
-36.1193
 21
66.4249
  0
LINE
  8
0
 10
-36.1193
 20
66.4249
 11
-36.1898
 21
66.162
  0
LINE
  8
0
 10
-36.1898
 20
66.162
 11
-36.2873
 21
65.9079
  0
LINE
  8
0
 10
-36.2873
 20
65.9079
 11
-36.4108
 21
65.6654
  0
LINE
  8
0
 10
-36.4108
 20
65.6654
 11
-36.5591
 21
65.4372
  0
LINE
  8
0
 10
-36.5591
 20
65.4372
 11
-36.7303
 21
65.2257
  0
LINE
  8
0
 10
-36.7303
 20
65.2257
 11
-36.9228
 21
65.0332
  0
LINE
  8
0
 10
-36.9228
 20
65.0332
 11
-37.1343
 21
64.862
  0
LINE
  8
0
 10
-37.1343
 20
64.862
 11
-37.3625
 21
64.7137
  0
LINE
  8
0
 10
-37.3625
 20
64.7137
 11
-37.605
 21
64.5902
  0
LINE
  8
0
 10
-37.605
 20
64.5902
 11
-37.859
 21
64.4927
  0
LINE
  8
0
 10
-37.859
 20
64.4927
 11
-38.1219
 21
64.4222
  0
LINE
  8
0
 10
-38.1219
 20
64.4222
 11
-38.3907
 21
64.3797
  0
LINE
  8
0
 10
-38.3907
 20
64.3797
 11
-38.6625
 21
64.3654
  0
LINE
  8
0
 10
-38.6625
 20
64.3654
 11
-38.9343
 21
64.3797
  0
LINE
  8
0
 10
77.0532
 20
59.4142
 11
76.7844
 21
59.4568
  0
LINE
  8
0
 10
76.7844
 20
59.4568
 11
76.5216
 21
59.5273
  0
LINE
  8
0
 10
76.5216
 20
59.5273
 11
76.2675
 21
59.6248
  0
LINE
  8
0
 10
76.2675
 20
59.6248
 11
76.025
 21
59.7483
  0
LINE
  8
0
 10
76.025
 20
59.7483
 11
75.7968
 21
59.8965
  0
LINE
  8
0
 10
75.7968
 20
59.8965
 11
75.5853
 21
60.0678
  0
LINE
  8
0
 10
75.5853
 20
60.0678
 11
75.3928
 21
60.2603
  0
LINE
  8
0
 10
75.3928
 20
60.2603
 11
75.2216
 21
60.4718
  0
LINE
  8
0
 10
75.2216
 20
60.4718
 11
75.0733
 21
60.7
  0
LINE
  8
0
 10
75.0733
 20
60.7
 11
74.9498
 21
60.9425
  0
LINE
  8
0
 10
74.9498
 20
60.9425
 11
74.8523
 21
61.1965
  0
LINE
  8
0
 10
74.8523
 20
61.1965
 11
74.7818
 21
61.4594
  0
LINE
  8
0
 10
74.7818
 20
61.4594
 11
74.7392
 21
61.7282
  0
LINE
  8
0
 10
74.7392
 20
61.7282
 11
74.725
 21
62
  0
LINE
  8
0
 10
74.725
 20
62
 11
74.7392
 21
62.2718
  0
LINE
  8
0
 10
74.7392
 20
62.2718
 11
74.7818
 21
62.5406
  0
LINE
  8
0
 10
74.7818
 20
62.5406
 11
74.8523
 21
62.8034
  0
LINE
  8
0
 10
74.8523
 20
62.8034
 11
74.9498
 21
63.0575
  0
LINE
  8
0
 10
74.9498
 20
63.0575
 11
75.0733
 21
63.3
  0
LINE
  8
0
 10
75.0733
 20
63.3
 11
75.2216
 21
63.5282
  0
LINE
  8
0
 10
75.2216
 20
63.5282
 11
75.3928
 21
63.7397
  0
LINE
  8
0
 10
75.3928
 20
63.7397
 11
75.5853
 21
63.9322
  0
LINE
  8
0
 10
75.5853
 20
63.9322
 11
75.7968
 21
64.1034
  0
LINE
  8
0
 10
75.7968
 20
64.1034
 11
76.025
 21
64.2517
  0
LINE
  8
0
 10
76.025
 20
64.2517
 11
76.2675
 21
64.3752
  0
LINE
  8
0
 10
76.2675
 20
64.3752
 11
76.5216
 21
64.4727
  0
LINE
  8
0
 10
76.5216
 20
64.4727
 11
76.7844
 21
64.5432
  0
LINE
  8
0
 10
76.7844
 20
64.5432
 11
77.0532
 21
64.5858
  0
LINE
  8
0
 10
77.0532
 20
64.5858
 11
77.325
 21
64.6
  0
LINE
  8
0
 10
77.325
 20
64.6
 11
77.5968
 21
64.5858
  0
LINE
  8
0
 10
77.5968
 20
64.5858
 11
77.8656
 21
64.5432
  0
LINE
  8
0
 10
77.8656
 20
64.5432
 11
78.1284
 21
64.4727
  0
LINE
  8
0
 10
78.1284
 20
64.4727
 11
78.3825
 21
64.3752
  0
LINE
  8
0
 10
78.3825
 20
64.3752
 11
78.625
 21
64.2517
  0
LINE
  8
0
 10
78.625
 20
64.2517
 11
78.8532
 21
64.1034
  0
LINE
  8
0
 10
78.8532
 20
64.1034
 11
79.0647
 21
63.9322
  0
LINE
  8
0
 10
79.0647
 20
63.9322
 11
79.2572
 21
63.7397
  0
LINE
  8
0
 10
79.2572
 20
63.7397
 11
79.4284
 21
63.5282
  0
LINE
  8
0
 10
79.4284
 20
63.5282
 11
79.5767
 21
63.3
  0
LINE
  8
0
 10
79.5767
 20
63.3
 11
79.7002
 21
63.0575
  0
LINE
  8
0
 10
79.7002
 20
63.0575
 11
79.7977
 21
62.8034
  0
LINE
  8
0
 10
79.7977
 20
62.8034
 11
79.8682
 21
62.5406
  0
LINE
  8
0
 10
79.8682
 20
62.5406
 11
79.9108
 21
62.2718
  0
LINE
  8
0
 10
79.9108
 20
62.2718
 11
79.925
 21
62
  0
LINE
  8
0
 10
79.925
 20
62
 11
79.9108
 21
61.7282
  0
LINE
  8
0
 10
79.9108
 20
61.7282
 11
79.8682
 21
61.4594
  0
LINE
  8
0
 10
79.8682
 20
61.4594
 11
79.7977
 21
61.1965
  0
LINE
  8
0
 10
79.7977
 20
61.1965
 11
79.7002
 21
60.9425
  0
LINE
  8
0
 10
79.7002
 20
60.9425
 11
79.5767
 21
60.7
  0
LINE
  8
0
 10
79.5767
 20
60.7
 11
79.4284
 21
60.4718
  0
LINE
  8
0
 10
79.4284
 20
60.4718
 11
79.2572
 21
60.2603
  0
LINE
  8
0
 10
79.2572
 20
60.2603
 11
79.0647
 21
60.0678
  0
LINE
  8
0
 10
79.0647
 20
60.0678
 11
78.8532
 21
59.8965
  0
LINE
  8
0
 10
78.8532
 20
59.8965
 11
78.625
 21
59.7483
  0
LINE
  8
0
 10
78.625
 20
59.7483
 11
78.3825
 21
59.6248
  0
LINE
  8
0
 10
78.3825
 20
59.6248
 11
78.1284
 21
59.5273
  0
LINE
  8
0
 10
78.1284
 20
59.5273
 11
77.8656
 21
59.4568
  0
LINE
  8
0
 10
77.8656
 20
59.4568
 11
77.5968
 21
59.4142
  0
LINE
  8
0
 10
77.5968
 20
59.4142
 11
77.325
 21
59.4
  0
LINE
  8
0
 10
77.325
 20
59.4
 11
77.0532
 21
59.4142
  0
LINE
  8
0
 10
-92.6278
 20
33.3797
 11
-92.8966
 21
33.4222
  0
LINE
  8
0
 10
-92.8966
 20
33.4222
 11
-93.1595
 21
33.4927
  0
LINE
  8
0
 10
-93.1595
 20
33.4927
 11
-93.4136
 21
33.5902
  0
LINE
  8
0
 10
-93.4136
 20
33.5902
 11
-93.6561
 21
33.7137
  0
LINE
  8
0
 10
-93.6561
 20
33.7137
 11
-93.8843
 21
33.862
  0
LINE
  8
0
 10
-93.8843
 20
33.862
 11
-94.0958
 21
34.0332
  0
LINE
  8
0
 10
-94.0958
 20
34.0332
 11
-94.2883
 21
34.2257
  0
LINE
  8
0
 10
-94.2883
 20
34.2257
 11
-94.4595
 21
34.4372
  0
LINE
  8
0
 10
-94.4595
 20
34.4372
 11
-94.6077
 21
34.6654
  0
LINE
  8
0
 10
-94.6077
 20
34.6654
 11
-94.7313
 21
34.9079
  0
LINE
  8
0
 10
-94.7313
 20
34.9079
 11
-94.8288
 21
35.162
  0
LINE
  8
0
 10
-94.8288
 20
35.162
 11
-94.8992
 21
35.4248
  0
LINE
  8
0
 10
-94.8992
 20
35.4248
 11
-94.9418
 21
35.6936
  0
LINE
  8
0
 10
-94.9418
 20
35.6936
 11
-94.9561
 21
35.9654
  0
LINE
  8
0
 10
-94.9561
 20
35.9654
 11
-94.9418
 21
36.2372
  0
LINE
  8
0
 10
-94.9418
 20
36.2372
 11
-94.8992
 21
36.506
  0
LINE
  8
0
 10
-94.8992
 20
36.506
 11
-94.8288
 21
36.7689
  0
LINE
  8
0
 10
-94.8288
 20
36.7689
 11
-94.7313
 21
37.0229
  0
LINE
  8
0
 10
-94.7313
 20
37.0229
 11
-94.6077
 21
37.2654
  0
LINE
  8
0
 10
-94.6077
 20
37.2654
 11
-94.4595
 21
37.4937
  0
LINE
  8
0
 10
-94.4595
 20
37.4937
 11
-94.2882
 21
37.7051
  0
LINE
  8
0
 10
-94.2882
 20
37.7051
 11
-94.0958
 21
37.8976
  0
LINE
  8
0
 10
-94.0958
 20
37.8976
 11
-93.8843
 21
38.0689
  0
LINE
  8
0
 10
-93.8843
 20
38.0689
 11
-93.6561
 21
38.2171
  0
LINE
  8
0
 10
-93.6561
 20
38.2171
 11
-93.4136
 21
38.3406
  0
LINE
  8
0
 10
-93.4136
 20
38.3406
 11
-93.1595
 21
38.4382
  0
LINE
  8
0
 10
-93.1595
 20
38.4382
 11
-92.8966
 21
38.5086
  0
LINE
  8
0
 10
-92.8966
 20
38.5086
 11
-92.6278
 21
38.5512
  0
LINE
  8
0
 10
-92.6278
 20
38.5512
 11
-92.3561
 21
38.5654
  0
LINE
  8
0
 10
-92.3561
 20
38.5654
 11
-92.0843
 21
38.5512
  0
LINE
  8
0
 10
-92.0843
 20
38.5512
 11
-91.8155
 21
38.5086
  0
LINE
  8
0
 10
-91.8155
 20
38.5086
 11
-91.5526
 21
38.4382
  0
LINE
  8
0
 10
-91.5526
 20
38.4382
 11
-91.2985
 21
38.3406
  0
LINE
  8
0
 10
-91.2985
 20
38.3406
 11
-91.056
 21
38.2171
  0
LINE
  8
0
 10
-91.056
 20
38.2171
 11
-90.8278
 21
38.0688
  0
LINE
  8
0
 10
-90.8278
 20
38.0688
 11
-90.6163
 21
37.8976
  0
LINE
  8
0
 10
-90.6163
 20
37.8976
 11
-90.4239
 21
37.7051
  0
LINE
  8
0
 10
-90.4239
 20
37.7051
 11
-90.2526
 21
37.4936
  0
LINE
  8
0
 10
-90.2526
 20
37.4936
 11
-90.1044
 21
37.2654
  0
LINE
  8
0
 10
-90.1044
 20
37.2654
 11
-89.9809
 21
37.0229
  0
LINE
  8
0
 10
-89.9809
 20
37.0229
 11
-89.8833
 21
36.7689
  0
LINE
  8
0
 10
-89.8833
 20
36.7689
 11
-89.8129
 21
36.506
  0
LINE
  8
0
 10
-89.8129
 20
36.506
 11
-89.7703
 21
36.2372
  0
LINE
  8
0
 10
-89.7703
 20
36.2372
 11
-89.7561
 21
35.9654
  0
LINE
  8
0
 10
-89.7561
 20
35.9654
 11
-89.7703
 21
35.6936
  0
LINE
  8
0
 10
-89.7703
 20
35.6936
 11
-89.8129
 21
35.4249
  0
LINE
  8
0
 10
-89.8129
 20
35.4249
 11
-89.8833
 21
35.162
  0
LINE
  8
0
 10
-89.8833
 20
35.162
 11
-89.9809
 21
34.9079
  0
LINE
  8
0
 10
-89.9809
 20
34.9079
 11
-90.1044
 21
34.6654
  0
LINE
  8
0
 10
-90.1044
 20
34.6654
 11
-90.2526
 21
34.4372
  0
LINE
  8
0
 10
-90.2526
 20
34.4372
 11
-90.4239
 21
34.2257
  0
LINE
  8
0
 10
-90.4239
 20
34.2257
 11
-90.6163
 21
34.0332
  0
LINE
  8
0
 10
-90.6163
 20
34.0332
 11
-90.8278
 21
33.862
  0
LINE
  8
0
 10
-90.8278
 20
33.862
 11
-91.0561
 21
33.7137
  0
LINE
  8
0
 10
-91.0561
 20
33.7137
 11
-91.2985
 21
33.5902
  0
LINE
  8
0
 10
-91.2985
 20
33.5902
 11
-91.5526
 21
33.4927
  0
LINE
  8
0
 10
-91.5526
 20
33.4927
 11
-91.8155
 21
33.4222
  0
LINE
  8
0
 10
-91.8155
 20
33.4222
 11
-92.0843
 21
33.3797
  0
LINE
  8
0
 10
-92.0843
 20
33.3797
 11
-92.3561
 21
33.3654
  0
LINE
  8
0
 10
-92.3561
 20
33.3654
 11
-92.6278
 21
33.3797
  0
LINE
  8
0
 10
-23.8418
 20
20.9842
 11
-24.1106
 21
21.0268
  0
LINE
  8
0
 10
-24.1106
 20
21.0268
 11
-24.3734
 21
21.0972
  0
LINE
  8
0
 10
-24.3734
 20
21.0972
 11
-24.6275
 21
21.1948
  0
LINE
  8
0
 10
-24.6275
 20
21.1948
 11
-24.87
 21
21.3183
  0
LINE
  8
0
 10
-24.87
 20
21.3183
 11
-25.0982
 21
21.4666
  0
LINE
  8
0
 10
-25.0982
 20
21.4666
 11
-25.3097
 21
21.6378
  0
LINE
  8
0
 10
-25.3097
 20
21.6378
 11
-25.5022
 21
21.8302
  0
LINE
  8
0
 10
-25.5022
 20
21.8302
 11
-25.6734
 21
22.0417
  0
LINE
  8
0
 10
-25.6734
 20
22.0417
 11
-25.8217
 21
22.27
  0
LINE
  8
0
 10
-25.8217
 20
22.27
 11
-25.9452
 21
22.5125
  0
LINE
  8
0
 10
-25.9452
 20
22.5125
 11
-26.0427
 21
22.7666
  0
LINE
  8
0
 10
-26.0427
 20
22.7666
 11
-26.1132
 21
23.0294
  0
LINE
  8
0
 10
-26.1132
 20
23.0294
 11
-26.1557
 21
23.2982
  0
LINE
  8
0
 10
-26.1557
 20
23.2982
 11
-26.17
 21
23.57
  0
LINE
  8
0
 10
-26.17
 20
23.57
 11
-26.1557
 21
23.8418
  0
LINE
  8
0
 10
-26.1557
 20
23.8418
 11
-26.1132
 21
24.1106
  0
LINE
  8
0
 10
-26.1132
 20
24.1106
 11
-26.0427
 21
24.3734
  0
LINE
  8
0
 10
-26.0427
 20
24.3734
 11
-25.9452
 21
24.6275
  0
LINE
  8
0
 10
-25.9452
 20
24.6275
 11
-25.8217
 21
24.87
  0
LINE
  8
0
 10
-25.8217
 20
24.87
 11
-25.6734
 21
25.0982
  0
LINE
  8
0
 10
-25.6734
 20
25.0982
 11
-25.5022
 21
25.3097
  0
LINE
  8
0
 10
-25.5022
 20
25.3097
 11
-25.3097
 21
25.5022
  0
LINE
  8
0
 10
-25.3097
 20
25.5022
 11
-25.0982
 21
25.6734
  0
LINE
  8
0
 10
-25.0982
 20
25.6734
 11
-24.87
 21
25.8217
  0
LINE
  8
0
 10
-24.87
 20
25.8217
 11
-24.6275
 21
25.9452
  0
LINE
  8
0
 10
-24.6275
 20
25.9452
 11
-24.3734
 21
26.0427
  0
LINE
  8
0
 10
-24.3734
 20
26.0427
 11
-24.1106
 21
26.1132
  0
LINE
  8
0
 10
-24.1106
 20
26.1132
 11
-23.8418
 21
26.1557
  0
LINE
  8
0
 10
-23.8418
 20
26.1557
 11
-23.57
 21
26.17
  0
LINE
  8
0
 10
-23.57
 20
26.17
 11
-23.2982
 21
26.1557
  0
LINE
  8
0
 10
-23.2982
 20
26.1557
 11
-23.0294
 21
26.1132
  0
LINE
  8
0
 10
-23.0294
 20
26.1132
 11
-22.7666
 21
26.0427
  0
LINE
  8
0
 10
-22.7666
 20
26.0427
 11
-22.5125
 21
25.9452
  0
LINE
  8
0
 10
-22.5125
 20
25.9452
 11
-22.27
 21
25.8217
  0
LINE
  8
0
 10
-22.27
 20
25.8217
 11
-22.0417
 21
25.6734
  0
LINE
  8
0
 10
-22.0417
 20
25.6734
 11
-21.8302
 21
25.5022
  0
LINE
  8
0
 10
-21.8302
 20
25.5022
 11
-21.6378
 21
25.3097
  0
LINE
  8
0
 10
-21.6378
 20
25.3097
 11
-21.4666
 21
25.0982
  0
LINE
  8
0
 10
-21.4666
 20
25.0982
 11
-21.3183
 21
24.87
  0
LINE
  8
0
 10
-21.3183
 20
24.87
 11
-21.1948
 21
24.6275
  0
LINE
  8
0
 10
-21.1948
 20
24.6275
 11
-21.0972
 21
24.3734
  0
LINE
  8
0
 10
-21.0972
 20
24.3734
 11
-21.0268
 21
24.1106
  0
LINE
  8
0
 10
-21.0268
 20
24.1106
 11
-20.9842
 21
23.8418
  0
LINE
  8
0
 10
-20.9842
 20
23.8418
 11
-20.97
 21
23.57
  0
LINE
  8
0
 10
-20.97
 20
23.57
 11
-20.9842
 21
23.2982
  0
LINE
  8
0
 10
-20.9842
 20
23.2982
 11
-21.0268
 21
23.0294
  0
LINE
  8
0
 10
-21.0268
 20
23.0294
 11
-21.0972
 21
22.7666
  0
LINE
  8
0
 10
-21.0972
 20
22.7666
 11
-21.1948
 21
22.5125
  0
LINE
  8
0
 10
-21.1948
 20
22.5125
 11
-21.3183
 21
22.27
  0
LINE
  8
0
 10
-21.3183
 20
22.27
 11
-21.4666
 21
22.0417
  0
LINE
  8
0
 10
-21.4666
 20
22.0417
 11
-21.6378
 21
21.8302
  0
LINE
  8
0
 10
-21.6378
 20
21.8302
 11
-21.8302
 21
21.6378
  0
LINE
  8
0
 10
-21.8302
 20
21.6378
 11
-22.0417
 21
21.4666
  0
LINE
  8
0
 10
-22.0417
 20
21.4666
 11
-22.27
 21
21.3183
  0
LINE
  8
0
 10
-22.27
 20
21.3183
 11
-22.5125
 21
21.1948
  0
LINE
  8
0
 10
-22.5125
 20
21.1948
 11
-22.7666
 21
21.0972
  0
LINE
  8
0
 10
-22.7666
 20
21.0972
 11
-23.0294
 21
21.0268
  0
LINE
  8
0
 10
-23.0294
 20
21.0268
 11
-23.2982
 21
20.9842
  0
LINE
  8
0
 10
-23.2982
 20
20.9842
 11
-23.57
 21
20.97
  0
LINE
  8
0
 10
-23.57
 20
20.97
 11
-23.8418
 21
20.9842
  0
LINE
  8
0
 10
23.2982
 20
20.9842
 11
23.0294
 21
21.0268
  0
LINE
  8
0
 10
23.0294
 20
21.0268
 11
22.7666
 21
21.0972
  0
LINE
  8
0
 10
22.7666
 20
21.0972
 11
22.5125
 21
21.1948
  0
LINE
  8
0
 10
22.5125
 20
21.1948
 11
22.27
 21
21.3183
  0
LINE
  8
0
 10
22.27
 20
21.3183
 11
22.0417
 21
21.4666
  0
LINE
  8
0
 10
22.0417
 20
21.4666
 11
21.8302
 21
21.6378
  0
LINE
  8
0
 10
21.8302
 20
21.6378
 11
21.6378
 21
21.8302
  0
LINE
  8
0
 10
21.6378
 20
21.8302
 11
21.4666
 21
22.0417
  0
LINE
  8
0
 10
21.4666
 20
22.0417
 11
21.3183
 21
22.27
  0
LINE
  8
0
 10
21.3183
 20
22.27
 11
21.1948
 21
22.5125
  0
LINE
  8
0
 10
21.1948
 20
22.5125
 11
21.0972
 21
22.7666
  0
LINE
  8
0
 10
21.0972
 20
22.7666
 11
21.0268
 21
23.0294
  0
LINE
  8
0
 10
21.0268
 20
23.0294
 11
20.9842
 21
23.2982
  0
LINE
  8
0
 10
20.9842
 20
23.2982
 11
20.97
 21
23.57
  0
LINE
  8
0
 10
20.97
 20
23.57
 11
20.9842
 21
23.8418
  0
LINE
  8
0
 10
20.9842
 20
23.8418
 11
21.0268
 21
24.1106
  0
LINE
  8
0
 10
21.0268
 20
24.1106
 11
21.0972
 21
24.3734
  0
LINE
  8
0
 10
21.0972
 20
24.3734
 11
21.1948
 21
24.6275
  0
LINE
  8
0
 10
21.1948
 20
24.6275
 11
21.3183
 21
24.87
  0
LINE
  8
0
 10
21.3183
 20
24.87
 11
21.4666
 21
25.0982
  0
LINE
  8
0
 10
21.4666
 20
25.0982
 11
21.6378
 21
25.3097
  0
LINE
  8
0
 10
21.6378
 20
25.3097
 11
21.8302
 21
25.5022
  0
LINE
  8
0
 10
21.8302
 20
25.5022
 11
22.0417
 21
25.6734
  0
LINE
  8
0
 10
22.0417
 20
25.6734
 11
22.27
 21
25.8217
  0
LINE
  8
0
 10
22.27
 20
25.8217
 11
22.5125
 21
25.9452
  0
LINE
  8
0
 10
22.5125
 20
25.9452
 11
22.7666
 21
26.0427
  0
LINE
  8
0
 10
22.7666
 20
26.0427
 11
23.0294
 21
26.1132
  0
LINE
  8
0
 10
23.0294
 20
26.1132
 11
23.2982
 21
26.1557
  0
LINE
  8
0
 10
23.2982
 20
26.1557
 11
23.57
 21
26.17
  0
LINE
  8
0
 10
23.57
 20
26.17
 11
23.8418
 21
26.1557
  0
LINE
  8
0
 10
23.8418
 20
26.1557
 11
24.1106
 21
26.1132
  0
LINE
  8
0
 10
24.1106
 20
26.1132
 11
24.3734
 21
26.0427
  0
LINE
  8
0
 10
24.3734
 20
26.0427
 11
24.6275
 21
25.9452
  0
LINE
  8
0
 10
24.6275
 20
25.9452
 11
24.87
 21
25.8217
  0
LINE
  8
0
 10
24.87
 20
25.8217
 11
25.0982
 21
25.6734
  0
LINE
  8
0
 10
25.0982
 20
25.6734
 11
25.3097
 21
25.5022
  0
LINE
  8
0
 10
25.3097
 20
25.5022
 11
25.5022
 21
25.3097
  0
LINE
  8
0
 10
25.5022
 20
25.3097
 11
25.6734
 21
25.0982
  0
LINE
  8
0
 10
25.6734
 20
25.0982
 11
25.8217
 21
24.87
  0
LINE
  8
0
 10
25.8217
 20
24.87
 11
25.9452
 21
24.6275
  0
LINE
  8
0
 10
25.9452
 20
24.6275
 11
26.0427
 21
24.3734
  0
LINE
  8
0
 10
26.0427
 20
24.3734
 11
26.1132
 21
24.1106
  0
LINE
  8
0
 10
26.1132
 20
24.1106
 11
26.1557
 21
23.8418
  0
LINE
  8
0
 10
26.1557
 20
23.8418
 11
26.17
 21
23.57
  0
LINE
  8
0
 10
26.17
 20
23.57
 11
26.1557
 21
23.2982
  0
LINE
  8
0
 10
26.1557
 20
23.2982
 11
26.1132
 21
23.0294
  0
LINE
  8
0
 10
26.1132
 20
23.0294
 11
26.0427
 21
22.7666
  0
LINE
  8
0
 10
26.0427
 20
22.7666
 11
25.9452
 21
22.5125
  0
LINE
  8
0
 10
25.9452
 20
22.5125
 11
25.8217
 21
22.27
  0
LINE
  8
0
 10
25.8217
 20
22.27
 11
25.6734
 21
22.0417
  0
LINE
  8
0
 10
25.6734
 20
22.0417
 11
25.5022
 21
21.8302
  0
LINE
  8
0
 10
25.5022
 20
21.8302
 11
25.3097
 21
21.6378
  0
LINE
  8
0
 10
25.3097
 20
21.6378
 11
25.0982
 21
21.4666
  0
LINE
  8
0
 10
25.0982
 20
21.4666
 11
24.87
 21
21.3183
  0
LINE
  8
0
 10
24.87
 20
21.3183
 11
24.6275
 21
21.1948
  0
LINE
  8
0
 10
24.6275
 20
21.1948
 11
24.3734
 21
21.0972
  0
LINE
  8
0
 10
24.3734
 20
21.0972
 11
24.1106
 21
21.0268
  0
LINE
  8
0
 10
24.1106
 20
21.0268
 11
23.8418
 21
20.9842
  0
LINE
  8
0
 10
23.8418
 20
20.9842
 11
23.57
 21
20.97
  0
LINE
  8
0
 10
23.57
 20
20.97
 11
23.2982
 21
20.9842
  0
LINE
  8
0
 10
-94.9506
 20
15.3854
 11
-95.2194
 21
15.4279
  0
LINE
  8
0
 10
-95.2194
 20
15.4279
 11
-95.4823
 21
15.4984
  0
LINE
  8
0
 10
-95.4823
 20
15.4984
 11
-95.7363
 21
15.5959
  0
LINE
  8
0
 10
-95.7363
 20
15.5959
 11
-95.9788
 21
15.7195
  0
LINE
  8
0
 10
-95.9788
 20
15.7195
 11
-96.2071
 21
15.8677
  0
LINE
  8
0
 10
-96.2071
 20
15.8677
 11
-96.4186
 21
16.039
  0
LINE
  8
0
 10
-96.4186
 20
16.039
 11
-96.611
 21
16.2314
  0
LINE
  8
0
 10
-96.611
 20
16.2314
 11
-96.7823
 21
16.4429
  0
LINE
  8
0
 10
-96.7823
 20
16.4429
 11
-96.9305
 21
16.6711
  0
LINE
  8
0
 10
-96.9305
 20
16.6711
 11
-97.054
 21
16.9136
  0
LINE
  8
0
 10
-97.054
 20
16.9136
 11
-97.1516
 21
17.1677
  0
LINE
  8
0
 10
-97.1516
 20
17.1677
 11
-97.222
 21
17.4306
  0
LINE
  8
0
 10
-97.222
 20
17.4306
 11
-97.2646
 21
17.6994
  0
LINE
  8
0
 10
-97.2646
 20
17.6994
 11
-97.2788
 21
17.9711
  0
LINE
  8
0
 10
-97.2788
 20
17.9711
 11
-97.2646
 21
18.2429
  0
LINE
  8
0
 10
-97.2646
 20
18.2429
 11
-97.222
 21
18.5117
  0
LINE
  8
0
 10
-97.222
 20
18.5117
 11
-97.1516
 21
18.7746
  0
LINE
  8
0
 10
-97.1516
 20
18.7746
 11
-97.054
 21
19.0287
  0
LINE
  8
0
 10
-97.054
 20
19.0287
 11
-96.9305
 21
19.2711
  0
LINE
  8
0
 10
-96.9305
 20
19.2711
 11
-96.7823
 21
19.4994
  0
LINE
  8
0
 10
-96.7823
 20
19.4994
 11
-96.611
 21
19.7109
  0
LINE
  8
0
 10
-96.611
 20
19.7109
 11
-96.4186
 21
19.9033
  0
LINE
  8
0
 10
-96.4186
 20
19.9033
 11
-96.2071
 21
20.0746
  0
LINE
  8
0
 10
-96.2071
 20
20.0746
 11
-95.9788
 21
20.2228
  0
LINE
  8
0
 10
-95.9788
 20
20.2228
 11
-95.7363
 21
20.3464
  0
LINE
  8
0
 10
-95.7363
 20
20.3464
 11
-95.4823
 21
20.4439
  0
LINE
  8
0
 10
-95.4823
 20
20.4439
 11
-95.2194
 21
20.5143
  0
LINE
  8
0
 10
-95.2194
 20
20.5143
 11
-94.9506
 21
20.5569
  0
LINE
  8
0
 10
-94.9506
 20
20.5569
 11
-94.6788
 21
20.5711
  0
LINE
  8
0
 10
-94.6788
 20
20.5711
 11
-94.4071
 21
20.5569
  0
LINE
  8
0
 10
-94.4071
 20
20.5569
 11
-94.1383
 21
20.5143
  0
LINE
  8
0
 10
-94.1383
 20
20.5143
 11
-93.8754
 21
20.4439
  0
LINE
  8
0
 10
-93.8754
 20
20.4439
 11
-93.6213
 21
20.3464
  0
LINE
  8
0
 10
-93.6213
 20
20.3464
 11
-93.3788
 21
20.2228
  0
LINE
  8
0
 10
-93.3788
 20
20.2228
 11
-93.1506
 21
20.0746
  0
LINE
  8
0
 10
-93.1506
 20
20.0746
 11
-92.9391
 21
19.9033
  0
LINE
  8
0
 10
-92.9391
 20
19.9033
 11
-92.7467
 21
19.7109
  0
LINE
  8
0
 10
-92.7467
 20
19.7109
 11
-92.5754
 21
19.4994
  0
LINE
  8
0
 10
-92.5754
 20
19.4994
 11
-92.4272
 21
19.2711
  0
LINE
  8
0
 10
-92.4272
 20
19.2711
 11
-92.3036
 21
19.0287
  0
LINE
  8
0
 10
-92.3036
 20
19.0287
 11
-92.2061
 21
18.7746
  0
LINE
  8
0
 10
-92.2061
 20
18.7746
 11
-92.1357
 21
18.5117
  0
LINE
  8
0
 10
-92.1357
 20
18.5117
 11
-92.0931
 21
18.2429
  0
LINE
  8
0
 10
-92.0931
 20
18.2429
 11
-92.0788
 21
17.9711
  0
LINE
  8
0
 10
-92.0788
 20
17.9711
 11
-92.0931
 21
17.6994
  0
LINE
  8
0
 10
-92.0931
 20
17.6994
 11
-92.1357
 21
17.4306
  0
LINE
  8
0
 10
-92.1357
 20
17.4306
 11
-92.2061
 21
17.1677
  0
LINE
  8
0
 10
-92.2061
 20
17.1677
 11
-92.3036
 21
16.9136
  0
LINE
  8
0
 10
-92.3036
 20
16.9136
 11
-92.4272
 21
16.6711
  0
LINE
  8
0
 10
-92.4272
 20
16.6711
 11
-92.5754
 21
16.4429
  0
LINE
  8
0
 10
-92.5754
 20
16.4429
 11
-92.7467
 21
16.2314
  0
LINE
  8
0
 10
-92.7467
 20
16.2314
 11
-92.9391
 21
16.039
  0
LINE
  8
0
 10
-92.9391
 20
16.039
 11
-93.1506
 21
15.8677
  0
LINE
  8
0
 10
-93.1506
 20
15.8677
 11
-93.3788
 21
15.7195
  0
LINE
  8
0
 10
-93.3788
 20
15.7195
 11
-93.6213
 21
15.5959
  0
LINE
  8
0
 10
-93.6213
 20
15.5959
 11
-93.8754
 21
15.4984
  0
LINE
  8
0
 10
-93.8754
 20
15.4984
 11
-94.1383
 21
15.4279
  0
LINE
  8
0
 10
-94.1383
 20
15.4279
 11
-94.4071
 21
15.3854
  0
LINE
  8
0
 10
-94.4071
 20
15.3854
 11
-94.6788
 21
15.3711
  0
LINE
  8
0
 10
-94.6788
 20
15.3711
 11
-94.9506
 21
15.3854
  0
LINE
  8
0
 10
-1.56792
 20
-14.9178
 11
-3.11867
 21
-14.6722
  0
LINE
  8
0
 10
-3.11867
 20
-14.6722
 11
-4.63525
 21
-14.2658
  0
LINE
  8
0
 10
-4.63525
 20
-14.2658
 11
-6.10104
 21
-13.7032
  0
LINE
  8
0
 10
-6.10104
 20
-13.7032
 11
-7.5
 21
-12.9904
  0
LINE
  8
0
 10
-7.5
 20
-12.9904
 11
-8.81677
 21
-12.1353
  0
LINE
  8
0
 10
-8.81677
 20
-12.1353
 11
-10.037
 21
-11.1472
  0
LINE
  8
0
 10
-10.037
 20
-11.1472
 11
-11.1472
 21
-10.037
  0
LINE
  8
0
 10
-11.1472
 20
-10.037
 11
-12.1353
 21
-8.81677
  0
LINE
  8
0
 10
-12.1353
 20
-8.81677
 11
-12.9904
 21
-7.5
  0
LINE
  8
0
 10
-12.9904
 20
-7.5
 11
-13.7032
 21
-6.10104
  0
LINE
  8
0
 10
-13.7032
 20
-6.10104
 11
-14.2658
 21
-4.63525
  0
LINE
  8
0
 10
-14.2658
 20
-4.63525
 11
-14.6722
 21
-3.11867
  0
LINE
  8
0
 10
-14.6722
 20
-3.11867
 11
-14.9178
 21
-1.56792
  0
LINE
  8
0
 10
-14.9178
 20
-1.56792
 11
-15
 21
0
  0
LINE
  8
0
 10
-15
 20
0
 11
-14.9178
 21
1.56792
  0
LINE
  8
0
 10
-14.9178
 20
1.56792
 11
-14.6722
 21
3.11867
  0
LINE
  8
0
 10
-14.6722
 20
3.11867
 11
-14.2658
 21
4.63525
  0
LINE
  8
0
 10
-14.2658
 20
4.63525
 11
-13.7032
 21
6.10104
  0
LINE
  8
0
 10
-13.7032
 20
6.10104
 11
-12.9904
 21
7.5
  0
LINE
  8
0
 10
-12.9904
 20
7.5
 11
-12.1353
 21
8.81677
  0
LINE
  8
0
 10
-12.1353
 20
8.81677
 11
-11.1472
 21
10.037
  0
LINE
  8
0
 10
-11.1472
 20
10.037
 11
-10.037
 21
11.1472
  0
LINE
  8
0
 10
-10.037
 20
11.1472
 11
-8.81677
 21
12.1353
  0
LINE
  8
0
 10
-8.81677
 20
12.1353
 11
-7.5
 21
12.9904
  0
LINE
  8
0
 10
-7.5
 20
12.9904
 11
-6.10104
 21
13.7032
  0
LINE
  8
0
 10
-6.10104
 20
13.7032
 11
-4.63525
 21
14.2658
  0
LINE
  8
0
 10
-4.63525
 20
14.2658
 11
-3.11867
 21
14.6722
  0
LINE
  8
0
 10
-3.11867
 20
14.6722
 11
-1.56792
 21
14.9178
  0
LINE
  8
0
 10
-1.56792
 20
14.9178
 11
0
 21
15
  0
LINE
  8
0
 10
0
 20
15
 11
1.56792
 21
14.9178
  0
LINE
  8
0
 10
1.56792
 20
14.9178
 11
3.11867
 21
14.6722
  0
LINE
  8
0
 10
3.11867
 20
14.6722
 11
4.63525
 21
14.2658
  0
LINE
  8
0
 10
4.63525
 20
14.2658
 11
6.10104
 21
13.7032
  0
LINE
  8
0
 10
6.10104
 20
13.7032
 11
7.5
 21
12.9904
  0
LINE
  8
0
 10
7.5
 20
12.9904
 11
8.81677
 21
12.1353
  0
LINE
  8
0
 10
8.81677
 20
12.1353
 11
10.037
 21
11.1472
  0
LINE
  8
0
 10
10.037
 20
11.1472
 11
11.1472
 21
10.037
  0
LINE
  8
0
 10
11.1472
 20
10.037
 11
12.1353
 21
8.81677
  0
LINE
  8
0
 10
12.1353
 20
8.81677
 11
12.9904
 21
7.5
  0
LINE
  8
0
 10
12.9904
 20
7.5
 11
13.7032
 21
6.10104
  0
LINE
  8
0
 10
13.7032
 20
6.10104
 11
14.2658
 21
4.63525
  0
LINE
  8
0
 10
14.2658
 20
4.63525
 11
14.6722
 21
3.11867
  0
LINE
  8
0
 10
14.6722
 20
3.11867
 11
14.9178
 21
1.56792
  0
LINE
  8
0
 10
14.9178
 20
1.56792
 11
15
 21
0
  0
LINE
  8
0
 10
15
 20
0
 11
14.9178
 21
-1.56792
  0
LINE
  8
0
 10
14.9178
 20
-1.56792
 11
14.6722
 21
-3.11867
  0
LINE
  8
0
 10
14.6722
 20
-3.11867
 11
14.2658
 21
-4.63525
  0
LINE
  8
0
 10
14.2658
 20
-4.63525
 11
13.7032
 21
-6.10104
  0
LINE
  8
0
 10
13.7032
 20
-6.10104
 11
12.9904
 21
-7.5
  0
LINE
  8
0
 10
12.9904
 20
-7.5
 11
12.1353
 21
-8.81677
  0
LINE
  8
0
 10
12.1353
 20
-8.81677
 11
11.1472
 21
-10.037
  0
LINE
  8
0
 10
11.1472
 20
-10.037
 11
10.037
 21
-11.1472
  0
LINE
  8
0
 10
10.037
 20
-11.1472
 11
8.81677
 21
-12.1353
  0
LINE
  8
0
 10
8.81677
 20
-12.1353
 11
7.5
 21
-12.9904
  0
LINE
  8
0
 10
7.5
 20
-12.9904
 11
6.10104
 21
-13.7032
  0
LINE
  8
0
 10
6.10104
 20
-13.7032
 11
4.63525
 21
-14.2658
  0
LINE
  8
0
 10
4.63525
 20
-14.2658
 11
3.11867
 21
-14.6722
  0
LINE
  8
0
 10
3.11867
 20
-14.6722
 11
1.56792
 21
-14.9178
  0
LINE
  8
0
 10
1.56792
 20
-14.9178
 11
0
 21
-15
  0
LINE
  8
0
 10
0
 20
-15
 11
-1.56792
 21
-14.9178
  0
LINE
  8
0
 10
77.0532
 20
-2.58575
 11
76.7844
 21
-2.54318
  0
LINE
  8
0
 10
76.7844
 20
-2.54318
 11
76.5216
 21
-2.47273
  0
LINE
  8
0
 10
76.5216
 20
-2.47273
 11
76.2675
 21
-2.37521
  0
LINE
  8
0
 10
76.2675
 20
-2.37521
 11
76.025
 21
-2.25166
  0
LINE
  8
0
 10
76.025
 20
-2.25166
 11
75.7968
 21
-2.10344
  0
LINE
  8
0
 10
75.7968
 20
-2.10344
 11
75.5853
 21
-1.93217
  0
LINE
  8
0
 10
75.5853
 20
-1.93217
 11
75.3928
 21
-1.73973
  0
LINE
  8
0
 10
75.3928
 20
-1.73973
 11
75.2216
 21
-1.52823
  0
LINE
  8
0
 10
75.2216
 20
-1.52823
 11
75.0733
 21
-1.29999
  0
LINE
  8
0
 10
75.0733
 20
-1.29999
 11
74.9498
 21
-1.05751
  0
LINE
  8
0
 10
74.9498
 20
-1.05751
 11
74.8523
 21
-0.803436
  0
LINE
  8
0
 10
74.8523
 20
-0.803436
 11
74.7818
 21
-0.540558
  0
LINE
  8
0
 10
74.7818
 20
-0.540558
 11
74.7392
 21
-0.271759
  0
LINE
  8
0
 10
74.7392
 20
-0.271759
 11
74.725
 21
0
  0
LINE
  8
0
 10
74.725
 20
0
 11
74.7392
 21
0.271759
  0
LINE
  8
0
 10
74.7392
 20
0.271759
 11
74.7818
 21
0.540558
  0
LINE
  8
0
 10
74.7818
 20
0.540558
 11
74.8523
 21
0.803436
  0
LINE
  8
0
 10
74.8523
 20
0.803436
 11
74.9498
 21
1.05751
  0
LINE
  8
0
 10
74.9498
 20
1.05751
 11
75.0733
 21
1.29999
  0
LINE
  8
0
 10
75.0733
 20
1.29999
 11
75.2216
 21
1.52823
  0
LINE
  8
0
 10
75.2216
 20
1.52823
 11
75.3928
 21
1.73973
  0
LINE
  8
0
 10
75.3928
 20
1.73973
 11
75.5853
 21
1.93217
  0
LINE
  8
0
 10
75.5853
 20
1.93217
 11
75.7968
 21
2.10344
  0
LINE
  8
0
 10
75.7968
 20
2.10344
 11
76.025
 21
2.25166
  0
LINE
  8
0
 10
76.025
 20
2.25166
 11
76.2675
 21
2.37521
  0
LINE
  8
0
 10
76.2675
 20
2.37521
 11
76.5216
 21
2.47273
  0
LINE
  8
0
 10
76.5216
 20
2.47273
 11
76.7844
 21
2.54318
  0
LINE
  8
0
 10
76.7844
 20
2.54318
 11
77.0532
 21
2.58575
  0
LINE
  8
0
 10
77.0532
 20
2.58575
 11
77.325
 21
2.59999
  0
LINE
  8
0
 10
77.325
 20
2.59999
 11
77.5968
 21
2.58575
  0
LINE
  8
0
 10
77.5968
 20
2.58575
 11
77.8656
 21
2.54318
  0
LINE
  8
0
 10
77.8656
 20
2.54318
 11
78.1284
 21
2.47273
  0
LINE
  8
0
 10
78.1284
 20
2.47273
 11
78.3825
 21
2.37521
  0
LINE
  8
0
 10
78.3825
 20
2.37521
 11
78.625
 21
2.25166
  0
LINE
  8
0
 10
78.625
 20
2.25166
 11
78.8532
 21
2.10344
  0
LINE
  8
0
 10
78.8532
 20
2.10344
 11
79.0647
 21
1.93217
  0
LINE
  8
0
 10
79.0647
 20
1.93217
 11
79.2572
 21
1.73973
  0
LINE
  8
0
 10
79.2572
 20
1.73973
 11
79.4284
 21
1.52823
  0
LINE
  8
0
 10
79.4284
 20
1.52823
 11
79.5767
 21
1.29999
  0
LINE
  8
0
 10
79.5767
 20
1.29999
 11
79.7002
 21
1.05751
  0
LINE
  8
0
 10
79.7002
 20
1.05751
 11
79.7977
 21
0.803436
  0
LINE
  8
0
 10
79.7977
 20
0.803436
 11
79.8682
 21
0.540558
  0
LINE
  8
0
 10
79.8682
 20
0.540558
 11
79.9108
 21
0.271759
  0
LINE
  8
0
 10
79.9108
 20
0.271759
 11
79.925
 21
0
  0
LINE
  8
0
 10
79.925
 20
0
 11
79.9108
 21
-0.271759
  0
LINE
  8
0
 10
79.9108
 20
-0.271759
 11
79.8682
 21
-0.540558
  0
LINE
  8
0
 10
79.8682
 20
-0.540558
 11
79.7977
 21
-0.803436
  0
LINE
  8
0
 10
79.7977
 20
-0.803436
 11
79.7002
 21
-1.05751
  0
LINE
  8
0
 10
79.7002
 20
-1.05751
 11
79.5767
 21
-1.29999
  0
LINE
  8
0
 10
79.5767
 20
-1.29999
 11
79.4284
 21
-1.52823
  0
LINE
  8
0
 10
79.4284
 20
-1.52823
 11
79.2572
 21
-1.73973
  0
LINE
  8
0
 10
79.2572
 20
-1.73973
 11
79.0647
 21
-1.93217
  0
LINE
  8
0
 10
79.0647
 20
-1.93217
 11
78.8532
 21
-2.10344
  0
LINE
  8
0
 10
78.8532
 20
-2.10344
 11
78.625
 21
-2.25166
  0
LINE
  8
0
 10
78.625
 20
-2.25166
 11
78.3825
 21
-2.37521
  0
LINE
  8
0
 10
78.3825
 20
-2.37521
 11
78.1284
 21
-2.47273
  0
LINE
  8
0
 10
78.1284
 20
-2.47273
 11
77.8656
 21
-2.54318
  0
LINE
  8
0
 10
77.8656
 20
-2.54318
 11
77.5968
 21
-2.58575
  0
LINE
  8
0
 10
77.5968
 20
-2.58575
 11
77.325
 21
-2.59999
  0
LINE
  8
0
 10
77.325
 20
-2.59999
 11
77.0532
 21
-2.58575
  0
LINE
  8
0
 10
-94.9506
 20
-20.5569
 11
-95.2194
 21
-20.5143
  0
LINE
  8
0
 10
-95.2194
 20
-20.5143
 11
-95.4823
 21
-20.4439
  0
LINE
  8
0
 10
-95.4823
 20
-20.4439
 11
-95.7363
 21
-20.3464
  0
LINE
  8
0
 10
-95.7363
 20
-20.3464
 11
-95.9788
 21
-20.2228
  0
LINE
  8
0
 10
-95.9788
 20
-20.2228
 11
-96.2071
 21
-20.0746
  0
LINE
  8
0
 10
-96.2071
 20
-20.0746
 11
-96.4186
 21
-19.9033
  0
LINE
  8
0
 10
-96.4186
 20
-19.9033
 11
-96.611
 21
-19.7109
  0
LINE
  8
0
 10
-96.611
 20
-19.7109
 11
-96.7823
 21
-19.4994
  0
LINE
  8
0
 10
-96.7823
 20
-19.4994
 11
-96.9305
 21
-19.2711
  0
LINE
  8
0
 10
-96.9305
 20
-19.2711
 11
-97.054
 21
-19.0287
  0
LINE
  8
0
 10
-97.054
 20
-19.0287
 11
-97.1516
 21
-18.7746
  0
LINE
  8
0
 10
-97.1516
 20
-18.7746
 11
-97.222
 21
-18.5117
  0
LINE
  8
0
 10
-97.222
 20
-18.5117
 11
-97.2646
 21
-18.2429
  0
LINE
  8
0
 10
-97.2646
 20
-18.2429
 11
-97.2788
 21
-17.9711
  0
LINE
  8
0
 10
-97.2788
 20
-17.9711
 11
-97.2646
 21
-17.6994
  0
LINE
  8
0
 10
-97.2646
 20
-17.6994
 11
-97.222
 21
-17.4306
  0
LINE
  8
0
 10
-97.222
 20
-17.4306
 11
-97.1516
 21
-17.1677
  0
LINE
  8
0
 10
-97.1516
 20
-17.1677
 11
-97.054
 21
-16.9136
  0
LINE
  8
0
 10
-97.054
 20
-16.9136
 11
-96.9305
 21
-16.6711
  0
LINE
  8
0
 10
-96.9305
 20
-16.6711
 11
-96.7823
 21
-16.4429
  0
LINE
  8
0
 10
-96.7823
 20
-16.4429
 11
-96.611
 21
-16.2314
  0
LINE
  8
0
 10
-96.611
 20
-16.2314
 11
-96.4186
 21
-16.039
  0
LINE
  8
0
 10
-96.4186
 20
-16.039
 11
-96.2071
 21
-15.8677
  0
LINE
  8
0
 10
-96.2071
 20
-15.8677
 11
-95.9788
 21
-15.7195
  0
LINE
  8
0
 10
-95.9788
 20
-15.7195
 11
-95.7363
 21
-15.5959
  0
LINE
  8
0
 10
-95.7363
 20
-15.5959
 11
-95.4823
 21
-15.4984
  0
LINE
  8
0
 10
-95.4823
 20
-15.4984
 11
-95.2194
 21
-15.4279
  0
LINE
  8
0
 10
-95.2194
 20
-15.4279
 11
-94.9506
 21
-15.3854
  0
LINE
  8
0
 10
-94.9506
 20
-15.3854
 11
-94.6788
 21
-15.3711
  0
LINE
  8
0
 10
-94.6788
 20
-15.3711
 11
-94.4071
 21
-15.3854
  0
LINE
  8
0
 10
-94.4071
 20
-15.3854
 11
-94.1383
 21
-15.4279
  0
LINE
  8
0
 10
-94.1383
 20
-15.4279
 11
-93.8754
 21
-15.4984
  0
LINE
  8
0
 10
-93.8754
 20
-15.4984
 11
-93.6213
 21
-15.5959
  0
LINE
  8
0
 10
-93.6213
 20
-15.5959
 11
-93.3788
 21
-15.7195
  0
LINE
  8
0
 10
-93.3788
 20
-15.7195
 11
-93.1506
 21
-15.8677
  0
LINE
  8
0
 10
-93.1506
 20
-15.8677
 11
-92.9391
 21
-16.039
  0
LINE
  8
0
 10
-92.9391
 20
-16.039
 11
-92.7467
 21
-16.2314
  0
LINE
  8
0
 10
-92.7467
 20
-16.2314
 11
-92.5754
 21
-16.4429
  0
LINE
  8
0
 10
-92.5754
 20
-16.4429
 11
-92.4272
 21
-16.6711
  0
LINE
  8
0
 10
-92.4272
 20
-16.6711
 11
-92.3036
 21
-16.9136
  0
LINE
  8
0
 10
-92.3036
 20
-16.9136
 11
-92.2061
 21
-17.1677
  0
LINE
  8
0
 10
-92.2061
 20
-17.1677
 11
-92.1357
 21
-17.4306
  0
LINE
  8
0
 10
-92.1357
 20
-17.4306
 11
-92.0931
 21
-17.6994
  0
LINE
  8
0
 10
-92.0931
 20
-17.6994
 11
-92.0788
 21
-17.9711
  0
LINE
  8
0
 10
-92.0788
 20
-17.9711
 11
-92.0931
 21
-18.2429
  0
LINE
  8
0
 10
-92.0931
 20
-18.2429
 11
-92.1357
 21
-18.5117
  0
LINE
  8
0
 10
-92.1357
 20
-18.5117
 11
-92.2061
 21
-18.7746
  0
LINE
  8
0
 10
-92.2061
 20
-18.7746
 11
-92.3036
 21
-19.0287
  0
LINE
  8
0
 10
-92.3036
 20
-19.0287
 11
-92.4272
 21
-19.2711
  0
LINE
  8
0
 10
-92.4272
 20
-19.2711
 11
-92.5754
 21
-19.4994
  0
LINE
  8
0
 10
-92.5754
 20
-19.4994
 11
-92.7467
 21
-19.7109
  0
LINE
  8
0
 10
-92.7467
 20
-19.7109
 11
-92.9391
 21
-19.9033
  0
LINE
  8
0
 10
-92.9391
 20
-19.9033
 11
-93.1506
 21
-20.0746
  0
LINE
  8
0
 10
-93.1506
 20
-20.0746
 11
-93.3788
 21
-20.2228
  0
LINE
  8
0
 10
-93.3788
 20
-20.2228
 11
-93.6213
 21
-20.3464
  0
LINE
  8
0
 10
-93.6213
 20
-20.3464
 11
-93.8754
 21
-20.4439
  0
LINE
  8
0
 10
-93.8754
 20
-20.4439
 11
-94.1383
 21
-20.5143
  0
LINE
  8
0
 10
-94.1383
 20
-20.5143
 11
-94.4071
 21
-20.5569
  0
LINE
  8
0
 10
-94.4071
 20
-20.5569
 11
-94.6788
 21
-20.5711
  0
LINE
  8
0
 10
-94.6788
 20
-20.5711
 11
-94.9506
 21
-20.5569
  0
LINE
  8
0
 10
23.2982
 20
-26.1557
 11
23.0294
 21
-26.1132
  0
LINE
  8
0
 10
23.0294
 20
-26.1132
 11
22.7666
 21
-26.0427
  0
LINE
  8
0
 10
22.7666
 20
-26.0427
 11
22.5125
 21
-25.9452
  0
LINE
  8
0
 10
22.5125
 20
-25.9452
 11
22.27
 21
-25.8217
  0
LINE
  8
0
 10
22.27
 20
-25.8217
 11
22.0417
 21
-25.6734
  0
LINE
  8
0
 10
22.0417
 20
-25.6734
 11
21.8302
 21
-25.5022
  0
LINE
  8
0
 10
21.8302
 20
-25.5022
 11
21.6378
 21
-25.3097
  0
LINE
  8
0
 10
21.6378
 20
-25.3097
 11
21.4666
 21
-25.0982
  0
LINE
  8
0
 10
21.4666
 20
-25.0982
 11
21.3183
 21
-24.87
  0
LINE
  8
0
 10
21.3183
 20
-24.87
 11
21.1948
 21
-24.6275
  0
LINE
  8
0
 10
21.1948
 20
-24.6275
 11
21.0972
 21
-24.3734
  0
LINE
  8
0
 10
21.0972
 20
-24.3734
 11
21.0268
 21
-24.1106
  0
LINE
  8
0
 10
21.0268
 20
-24.1106
 11
20.9842
 21
-23.8418
  0
LINE
  8
0
 10
20.9842
 20
-23.8418
 11
20.97
 21
-23.57
  0
LINE
  8
0
 10
20.97
 20
-23.57
 11
20.9842
 21
-23.2982
  0
LINE
  8
0
 10
20.9842
 20
-23.2982
 11
21.0268
 21
-23.0294
  0
LINE
  8
0
 10
21.0268
 20
-23.0294
 11
21.0972
 21
-22.7666
  0
LINE
  8
0
 10
21.0972
 20
-22.7666
 11
21.1948
 21
-22.5125
  0
LINE
  8
0
 10
21.1948
 20
-22.5125
 11
21.3183
 21
-22.27
  0
LINE
  8
0
 10
21.3183
 20
-22.27
 11
21.4666
 21
-22.0417
  0
LINE
  8
0
 10
21.4666
 20
-22.0417
 11
21.6378
 21
-21.8302
  0
LINE
  8
0
 10
21.6378
 20
-21.8302
 11
21.8302
 21
-21.6378
  0
LINE
  8
0
 10
21.8302
 20
-21.6378
 11
22.0417
 21
-21.4666
  0
LINE
  8
0
 10
22.0417
 20
-21.4666
 11
22.27
 21
-21.3183
  0
LINE
  8
0
 10
22.27
 20
-21.3183
 11
22.5125
 21
-21.1948
  0
LINE
  8
0
 10
22.5125
 20
-21.1948
 11
22.7666
 21
-21.0972
  0
LINE
  8
0
 10
22.7666
 20
-21.0972
 11
23.0294
 21
-21.0268
  0
LINE
  8
0
 10
23.0294
 20
-21.0268
 11
23.2982
 21
-20.9842
  0
LINE
  8
0
 10
23.2982
 20
-20.9842
 11
23.57
 21
-20.97
  0
LINE
  8
0
 10
23.57
 20
-20.97
 11
23.8418
 21
-20.9842
  0
LINE
  8
0
 10
23.8418
 20
-20.9842
 11
24.1106
 21
-21.0268
  0
LINE
  8
0
 10
24.1106
 20
-21.0268
 11
24.3734
 21
-21.0972
  0
LINE
  8
0
 10
24.3734
 20
-21.0972
 11
24.6275
 21
-21.1948
  0
LINE
  8
0
 10
24.6275
 20
-21.1948
 11
24.87
 21
-21.3183
  0
LINE
  8
0
 10
24.87
 20
-21.3183
 11
25.0982
 21
-21.4666
  0
LINE
  8
0
 10
25.0982
 20
-21.4666
 11
25.3097
 21
-21.6378
  0
LINE
  8
0
 10
25.3097
 20
-21.6378
 11
25.5022
 21
-21.8302
  0
LINE
  8
0
 10
25.5022
 20
-21.8302
 11
25.6734
 21
-22.0417
  0
LINE
  8
0
 10
25.6734
 20
-22.0417
 11
25.8217
 21
-22.27
  0
LINE
  8
0
 10
25.8217
 20
-22.27
 11
25.9452
 21
-22.5125
  0
LINE
  8
0
 10
25.9452
 20
-22.5125
 11
26.0427
 21
-22.7666
  0
LINE
  8
0
 10
26.0427
 20
-22.7666
 11
26.1132
 21
-23.0294
  0
LINE
  8
0
 10
26.1132
 20
-23.0294
 11
26.1557
 21
-23.2982
  0
LINE
  8
0
 10
26.1557
 20
-23.2982
 11
26.17
 21
-23.57
  0
LINE
  8
0
 10
26.17
 20
-23.57
 11
26.1557
 21
-23.8418
  0
LINE
  8
0
 10
26.1557
 20
-23.8418
 11
26.1132
 21
-24.1106
  0
LINE
  8
0
 10
26.1132
 20
-24.1106
 11
26.0427
 21
-24.3734
  0
LINE
  8
0
 10
26.0427
 20
-24.3734
 11
25.9452
 21
-24.6275
  0
LINE
  8
0
 10
25.9452
 20
-24.6275
 11
25.8217
 21
-24.87
  0
LINE
  8
0
 10
25.8217
 20
-24.87
 11
25.6734
 21
-25.0982
  0
LINE
  8
0
 10
25.6734
 20
-25.0982
 11
25.5022
 21
-25.3097
  0
LINE
  8
0
 10
25.5022
 20
-25.3097
 11
25.3097
 21
-25.5022
  0
LINE
  8
0
 10
25.3097
 20
-25.5022
 11
25.0982
 21
-25.6734
  0
LINE
  8
0
 10
25.0982
 20
-25.6734
 11
24.87
 21
-25.8217
  0
LINE
  8
0
 10
24.87
 20
-25.8217
 11
24.6275
 21
-25.9452
  0
LINE
  8
0
 10
24.6275
 20
-25.9452
 11
24.3734
 21
-26.0427
  0
LINE
  8
0
 10
24.3734
 20
-26.0427
 11
24.1106
 21
-26.1132
  0
LINE
  8
0
 10
24.1106
 20
-26.1132
 11
23.8418
 21
-26.1557
  0
LINE
  8
0
 10
23.8418
 20
-26.1557
 11
23.57
 21
-26.17
  0
LINE
  8
0
 10
23.57
 20
-26.17
 11
23.2982
 21
-26.1557
  0
LINE
  8
0
 10
-23.8418
 20
-26.1557
 11
-24.1106
 21
-26.1132
  0
LINE
  8
0
 10
-24.1106
 20
-26.1132
 11
-24.3734
 21
-26.0427
  0
LINE
  8
0
 10
-24.3734
 20
-26.0427
 11
-24.6275
 21
-25.9452
  0
LINE
  8
0
 10
-24.6275
 20
-25.9452
 11
-24.87
 21
-25.8217
  0
LINE
  8
0
 10
-24.87
 20
-25.8217
 11
-25.0982
 21
-25.6734
  0
LINE
  8
0
 10
-25.0982
 20
-25.6734
 11
-25.3097
 21
-25.5022
  0
LINE
  8
0
 10
-25.3097
 20
-25.5022
 11
-25.5022
 21
-25.3097
  0
LINE
  8
0
 10
-25.5022
 20
-25.3097
 11
-25.6734
 21
-25.0982
  0
LINE
  8
0
 10
-25.6734
 20
-25.0982
 11
-25.8217
 21
-24.87
  0
LINE
  8
0
 10
-25.8217
 20
-24.87
 11
-25.9452
 21
-24.6275
  0
LINE
  8
0
 10
-25.9452
 20
-24.6275
 11
-26.0427
 21
-24.3734
  0
LINE
  8
0
 10
-26.0427
 20
-24.3734
 11
-26.1132
 21
-24.1106
  0
LINE
  8
0
 10
-26.1132
 20
-24.1106
 11
-26.1557
 21
-23.8418
  0
LINE
  8
0
 10
-26.1557
 20
-23.8418
 11
-26.17
 21
-23.57
  0
LINE
  8
0
 10
-26.17
 20
-23.57
 11
-26.1557
 21
-23.2982
  0
LINE
  8
0
 10
-26.1557
 20
-23.2982
 11
-26.1132
 21
-23.0294
  0
LINE
  8
0
 10
-26.1132
 20
-23.0294
 11
-26.0427
 21
-22.7666
  0
LINE
  8
0
 10
-26.0427
 20
-22.7666
 11
-25.9452
 21
-22.5125
  0
LINE
  8
0
 10
-25.9452
 20
-22.5125
 11
-25.8217
 21
-22.27
  0
LINE
  8
0
 10
-25.8217
 20
-22.27
 11
-25.6734
 21
-22.0417
  0
LINE
  8
0
 10
-25.6734
 20
-22.0417
 11
-25.5022
 21
-21.8302
  0
LINE
  8
0
 10
-25.5022
 20
-21.8302
 11
-25.3097
 21
-21.6378
  0
LINE
  8
0
 10
-25.3097
 20
-21.6378
 11
-25.0982
 21
-21.4666
  0
LINE
  8
0
 10
-25.0982
 20
-21.4666
 11
-24.87
 21
-21.3183
  0
LINE
  8
0
 10
-24.87
 20
-21.3183
 11
-24.6275
 21
-21.1948
  0
LINE
  8
0
 10
-24.6275
 20
-21.1948
 11
-24.3734
 21
-21.0972
  0
LINE
  8
0
 10
-24.3734
 20
-21.0972
 11
-24.1106
 21
-21.0268
  0
LINE
  8
0
 10
-24.1106
 20
-21.0268
 11
-23.8418
 21
-20.9842
  0
LINE
  8
0
 10
-23.8418
 20
-20.9842
 11
-23.57
 21
-20.97
  0
LINE
  8
0
 10
-23.57
 20
-20.97
 11
-23.2982
 21
-20.9842
  0
LINE
  8
0
 10
-23.2982
 20
-20.9842
 11
-23.0294
 21
-21.0268
  0
LINE
  8
0
 10
-23.0294
 20
-21.0268
 11
-22.7666
 21
-21.0972
  0
LINE
  8
0
 10
-22.7666
 20
-21.0972
 11
-22.5125
 21
-21.1948
  0
LINE
  8
0
 10
-22.5125
 20
-21.1948
 11
-22.27
 21
-21.3183
  0
LINE
  8
0
 10
-22.27
 20
-21.3183
 11
-22.0417
 21
-21.4666
  0
LINE
  8
0
 10
-22.0417
 20
-21.4666
 11
-21.8302
 21
-21.6378
  0
LINE
  8
0
 10
-21.8302
 20
-21.6378
 11
-21.6378
 21
-21.8302
  0
LINE
  8
0
 10
-21.6378
 20
-21.8302
 11
-21.4666
 21
-22.0417
  0
LINE
  8
0
 10
-21.4666
 20
-22.0417
 11
-21.3183
 21
-22.27
  0
LINE
  8
0
 10
-21.3183
 20
-22.27
 11
-21.1948
 21
-22.5125
  0
LINE
  8
0
 10
-21.1948
 20
-22.5125
 11
-21.0972
 21
-22.7666
  0
LINE
  8
0
 10
-21.0972
 20
-22.7666
 11
-21.0268
 21
-23.0294
  0
LINE
  8
0
 10
-21.0268
 20
-23.0294
 11
-20.9842
 21
-23.2982
  0
LINE
  8
0
 10
-20.9842
 20
-23.2982
 11
-20.97
 21
-23.57
  0
LINE
  8
0
 10
-20.97
 20
-23.57
 11
-20.9842
 21
-23.8418
  0
LINE
  8
0
 10
-20.9842
 20
-23.8418
 11
-21.0268
 21
-24.1106
  0
LINE
  8
0
 10
-21.0268
 20
-24.1106
 11
-21.0972
 21
-24.3734
  0
LINE
  8
0
 10
-21.0972
 20
-24.3734
 11
-21.1948
 21
-24.6275
  0
LINE
  8
0
 10
-21.1948
 20
-24.6275
 11
-21.3183
 21
-24.87
  0
LINE
  8
0
 10
-21.3183
 20
-24.87
 11
-21.4666
 21
-25.0982
  0
LINE
  8
0
 10
-21.4666
 20
-25.0982
 11
-21.6378
 21
-25.3097
  0
LINE
  8
0
 10
-21.6378
 20
-25.3097
 11
-21.8302
 21
-25.5022
  0
LINE
  8
0
 10
-21.8302
 20
-25.5022
 11
-22.0417
 21
-25.6734
  0
LINE
  8
0
 10
-22.0417
 20
-25.6734
 11
-22.27
 21
-25.8217
  0
LINE
  8
0
 10
-22.27
 20
-25.8217
 11
-22.5125
 21
-25.9452
  0
LINE
  8
0
 10
-22.5125
 20
-25.9452
 11
-22.7666
 21
-26.0427
  0
LINE
  8
0
 10
-22.7666
 20
-26.0427
 11
-23.0294
 21
-26.1132
  0
LINE
  8
0
 10
-23.0294
 20
-26.1132
 11
-23.2982
 21
-26.1557
  0
LINE
  8
0
 10
-23.2982
 20
-26.1557
 11
-23.57
 21
-26.17
  0
LINE
  8
0
 10
-23.57
 20
-26.17
 11
-23.8418
 21
-26.1557
  0
LINE
  8
0
 10
-92.6278
 20
-38.5512
 11
-92.8966
 21
-38.5086
  0
LINE
  8
0
 10
-92.8966
 20
-38.5086
 11
-93.1595
 21
-38.4382
  0
LINE
  8
0
 10
-93.1595
 20
-38.4382
 11
-93.4136
 21
-38.3406
  0
LINE
  8
0
 10
-93.4136
 20
-38.3406
 11
-93.6561
 21
-38.2171
  0
LINE
  8
0
 10
-93.6561
 20
-38.2171
 11
-93.8843
 21
-38.0689
  0
LINE
  8
0
 10
-93.8843
 20
-38.0689
 11
-94.0958
 21
-37.8976
  0
LINE
  8
0
 10
-94.0958
 20
-37.8976
 11
-94.2882
 21
-37.7051
  0
LINE
  8
0
 10
-94.2882
 20
-37.7051
 11
-94.4595
 21
-37.4937
  0
LINE
  8
0
 10
-94.4595
 20
-37.4937
 11
-94.6077
 21
-37.2654
  0
LINE
  8
0
 10
-94.6077
 20
-37.2654
 11
-94.7313
 21
-37.0229
  0
LINE
  8
0
 10
-94.7313
 20
-37.0229
 11
-94.8288
 21
-36.7689
  0
LINE
  8
0
 10
-94.8288
 20
-36.7689
 11
-94.8992
 21
-36.506
  0
LINE
  8
0
 10
-94.8992
 20
-36.506
 11
-94.9418
 21
-36.2372
  0
LINE
  8
0
 10
-94.9418
 20
-36.2372
 11
-94.9561
 21
-35.9654
  0
LINE
  8
0
 10
-94.9561
 20
-35.9654
 11
-94.9418
 21
-35.6936
  0
LINE
  8
0
 10
-94.9418
 20
-35.6936
 11
-94.8992
 21
-35.4248
  0
LINE
  8
0
 10
-94.8992
 20
-35.4248
 11
-94.8288
 21
-35.162
  0
LINE
  8
0
 10
-94.8288
 20
-35.162
 11
-94.7313
 21
-34.9079
  0
LINE
  8
0
 10
-94.7313
 20
-34.9079
 11
-94.6077
 21
-34.6654
  0
LINE
  8
0
 10
-94.6077
 20
-34.6654
 11
-94.4595
 21
-34.4372
  0
LINE
  8
0
 10
-94.4595
 20
-34.4372
 11
-94.2883
 21
-34.2257
  0
LINE
  8
0
 10
-94.2883
 20
-34.2257
 11
-94.0958
 21
-34.0332
  0
LINE
  8
0
 10
-94.0958
 20
-34.0332
 11
-93.8843
 21
-33.862
  0
LINE
  8
0
 10
-93.8843
 20
-33.862
 11
-93.6561
 21
-33.7137
  0
LINE
  8
0
 10
-93.6561
 20
-33.7137
 11
-93.4136
 21
-33.5902
  0
LINE
  8
0
 10
-93.4136
 20
-33.5902
 11
-93.1595
 21
-33.4927
  0
LINE
  8
0
 10
-93.1595
 20
-33.4927
 11
-92.8966
 21
-33.4222
  0
LINE
  8
0
 10
-92.8966
 20
-33.4222
 11
-92.6278
 21
-33.3797
  0
LINE
  8
0
 10
-92.6278
 20
-33.3797
 11
-92.3561
 21
-33.3654
  0
LINE
  8
0
 10
-92.3561
 20
-33.3654
 11
-92.0843
 21
-33.3797
  0
LINE
  8
0
 10
-92.0843
 20
-33.3797
 11
-91.8155
 21
-33.4222
  0
LINE
  8
0
 10
-91.8155
 20
-33.4222
 11
-91.5526
 21
-33.4927
  0
LINE
  8
0
 10
-91.5526
 20
-33.4927
 11
-91.2985
 21
-33.5902
  0
LINE
  8
0
 10
-91.2985
 20
-33.5902
 11
-91.0561
 21
-33.7137
  0
LINE
  8
0
 10
-91.0561
 20
-33.7137
 11
-90.8278
 21
-33.862
  0
LINE
  8
0
 10
-90.8278
 20
-33.862
 11
-90.6163
 21
-34.0332
  0
LINE
  8
0
 10
-90.6163
 20
-34.0332
 11
-90.4239
 21
-34.2257
  0
LINE
  8
0
 10
-90.4239
 20
-34.2257
 11
-90.2526
 21
-34.4372
  0
LINE
  8
0
 10
-90.2526
 20
-34.4372
 11
-90.1044
 21
-34.6654
  0
LINE
  8
0
 10
-90.1044
 20
-34.6654
 11
-89.9809
 21
-34.9079
  0
LINE
  8
0
 10
-89.9809
 20
-34.9079
 11
-89.8833
 21
-35.162
  0
LINE
  8
0
 10
-89.8833
 20
-35.162
 11
-89.8129
 21
-35.4249
  0
LINE
  8
0
 10
-89.8129
 20
-35.4249
 11
-89.7703
 21
-35.6936
  0
LINE
  8
0
 10
-89.7703
 20
-35.6936
 11
-89.7561
 21
-35.9654
  0
LINE
  8
0
 10
-89.7561
 20
-35.9654
 11
-89.7703
 21
-36.2372
  0
LINE
  8
0
 10
-89.7703
 20
-36.2372
 11
-89.8129
 21
-36.506
  0
LINE
  8
0
 10
-89.8129
 20
-36.506
 11
-89.8833
 21
-36.7689
  0
LINE
  8
0
 10
-89.8833
 20
-36.7689
 11
-89.9809
 21
-37.0229
  0
LINE
  8
0
 10
-89.9809
 20
-37.0229
 11
-90.1044
 21
-37.2654
  0
LINE
  8
0
 10
-90.1044
 20
-37.2654
 11
-90.2526
 21
-37.4936
  0
LINE
  8
0
 10
-90.2526
 20
-37.4936
 11
-90.4239
 21
-37.7051
  0
LINE
  8
0
 10
-90.4239
 20
-37.7051
 11
-90.6163
 21
-37.8976
  0
LINE
  8
0
 10
-90.6163
 20
-37.8976
 11
-90.8278
 21
-38.0688
  0
LINE
  8
0
 10
-90.8278
 20
-38.0688
 11
-91.056
 21
-38.2171
  0
LINE
  8
0
 10
-91.056
 20
-38.2171
 11
-91.2985
 21
-38.3406
  0
LINE
  8
0
 10
-91.2985
 20
-38.3406
 11
-91.5526
 21
-38.4382
  0
LINE
  8
0
 10
-91.5526
 20
-38.4382
 11
-91.8155
 21
-38.5086
  0
LINE
  8
0
 10
-91.8155
 20
-38.5086
 11
-92.0843
 21
-38.5512
  0
LINE
  8
0
 10
-92.0843
 20
-38.5512
 11
-92.3561
 21
-38.5654
  0
LINE
  8
0
 10
-92.3561
 20
-38.5654
 11
-92.6278
 21
-38.5512
  0
LINE
  8
0
 10
77.0532
 20
-64.5858
 11
76.7844
 21
-64.5432
  0
LINE
  8
0
 10
76.7844
 20
-64.5432
 11
76.5216
 21
-64.4727
  0
LINE
  8
0
 10
76.5216
 20
-64.4727
 11
76.2675
 21
-64.3752
  0
LINE
  8
0
 10
76.2675
 20
-64.3752
 11
76.025
 21
-64.2517
  0
LINE
  8
0
 10
76.025
 20
-64.2517
 11
75.7968
 21
-64.1034
  0
LINE
  8
0
 10
75.7968
 20
-64.1034
 11
75.5853
 21
-63.9322
  0
LINE
  8
0
 10
75.5853
 20
-63.9322
 11
75.3928
 21
-63.7397
  0
LINE
  8
0
 10
75.3928
 20
-63.7397
 11
75.2216
 21
-63.5282
  0
LINE
  8
0
 10
75.2216
 20
-63.5282
 11
75.0733
 21
-63.3
  0
LINE
  8
0
 10
75.0733
 20
-63.3
 11
74.9498
 21
-63.0575
  0
LINE
  8
0
 10
74.9498
 20
-63.0575
 11
74.8523
 21
-62.8034
  0
LINE
  8
0
 10
74.8523
 20
-62.8034
 11
74.7818
 21
-62.5406
  0
LINE
  8
0
 10
74.7818
 20
-62.5406
 11
74.7392
 21
-62.2718
  0
LINE
  8
0
 10
74.7392
 20
-62.2718
 11
74.725
 21
-62
  0
LINE
  8
0
 10
74.725
 20
-62
 11
74.7392
 21
-61.7282
  0
LINE
  8
0
 10
74.7392
 20
-61.7282
 11
74.7818
 21
-61.4594
  0
LINE
  8
0
 10
74.7818
 20
-61.4594
 11
74.8523
 21
-61.1965
  0
LINE
  8
0
 10
74.8523
 20
-61.1965
 11
74.9498
 21
-60.9425
  0
LINE
  8
0
 10
74.9498
 20
-60.9425
 11
75.0733
 21
-60.7
  0
LINE
  8
0
 10
75.0733
 20
-60.7
 11
75.2216
 21
-60.4718
  0
LINE
  8
0
 10
75.2216
 20
-60.4718
 11
75.3928
 21
-60.2603
  0
LINE
  8
0
 10
75.3928
 20
-60.2603
 11
75.5853
 21
-60.0678
  0
LINE
  8
0
 10
75.5853
 20
-60.0678
 11
75.7968
 21
-59.8965
  0
LINE
  8
0
 10
75.7968
 20
-59.8965
 11
76.025
 21
-59.7483
  0
LINE
  8
0
 10
76.025
 20
-59.7483
 11
76.2675
 21
-59.6248
  0
LINE
  8
0
 10
76.2675
 20
-59.6248
 11
76.5216
 21
-59.5273
  0
LINE
  8
0
 10
76.5216
 20
-59.5273
 11
76.7844
 21
-59.4568
  0
LINE
  8
0
 10
76.7844
 20
-59.4568
 11
77.0532
 21
-59.4142
  0
LINE
  8
0
 10
77.0532
 20
-59.4142
 11
77.325
 21
-59.4
  0
LINE
  8
0
 10
77.325
 20
-59.4
 11
77.5968
 21
-59.4142
  0
LINE
  8
0
 10
77.5968
 20
-59.4142
 11
77.8656
 21
-59.4568
  0
LINE
  8
0
 10
77.8656
 20
-59.4568
 11
78.1284
 21
-59.5273
  0
LINE
  8
0
 10
78.1284
 20
-59.5273
 11
78.3825
 21
-59.6248
  0
LINE
  8
0
 10
78.3825
 20
-59.6248
 11
78.625
 21
-59.7483
  0
LINE
  8
0
 10
78.625
 20
-59.7483
 11
78.8532
 21
-59.8965
  0
LINE
  8
0
 10
78.8532
 20
-59.8965
 11
79.0647
 21
-60.0678
  0
LINE
  8
0
 10
79.0647
 20
-60.0678
 11
79.2572
 21
-60.2603
  0
LINE
  8
0
 10
79.2572
 20
-60.2603
 11
79.4284
 21
-60.4718
  0
LINE
  8
0
 10
79.4284
 20
-60.4718
 11
79.5767
 21
-60.7
  0
LINE
  8
0
 10
79.5767
 20
-60.7
 11
79.7002
 21
-60.9425
  0
LINE
  8
0
 10
79.7002
 20
-60.9425
 11
79.7977
 21
-61.1965
  0
LINE
  8
0
 10
79.7977
 20
-61.1965
 11
79.8682
 21
-61.4594
  0
LINE
  8
0
 10
79.8682
 20
-61.4594
 11
79.9108
 21
-61.7282
  0
LINE
  8
0
 10
79.9108
 20
-61.7282
 11
79.925
 21
-62
  0
LINE
  8
0
 10
79.925
 20
-62
 11
79.9108
 21
-62.2718
  0
LINE
  8
0
 10
79.9108
 20
-62.2718
 11
79.8682
 21
-62.5406
  0
LINE
  8
0
 10
79.8682
 20
-62.5406
 11
79.7977
 21
-62.8034
  0
LINE
  8
0
 10
79.7977
 20
-62.8034
 11
79.7002
 21
-63.0575
  0
LINE
  8
0
 10
79.7002
 20
-63.0575
 11
79.5767
 21
-63.3
  0
LINE
  8
0
 10
79.5767
 20
-63.3
 11
79.4284
 21
-63.5282
  0
LINE
  8
0
 10
79.4284
 20
-63.5282
 11
79.2572
 21
-63.7397
  0
LINE
  8
0
 10
79.2572
 20
-63.7397
 11
79.0647
 21
-63.9322
  0
LINE
  8
0
 10
79.0647
 20
-63.9322
 11
78.8532
 21
-64.1034
  0
LINE
  8
0
 10
78.8532
 20
-64.1034
 11
78.625
 21
-64.2517
  0
LINE
  8
0
 10
78.625
 20
-64.2517
 11
78.3825
 21
-64.3752
  0
LINE
  8
0
 10
78.3825
 20
-64.3752
 11
78.1284
 21
-64.4727
  0
LINE
  8
0
 10
78.1284
 20
-64.4727
 11
77.8656
 21
-64.5432
  0
LINE
  8
0
 10
77.8656
 20
-64.5432
 11
77.5968
 21
-64.5858
  0
LINE
  8
0
 10
77.5968
 20
-64.5858
 11
77.325
 21
-64.6
  0
LINE
  8
0
 10
77.325
 20
-64.6
 11
77.0532
 21
-64.5858
  0
LINE
  8
0
 10
-38.9343
 20
-69.5512
 11
-39.2031
 21
-69.5086
  0
LINE
  8
0
 10
-39.2031
 20
-69.5086
 11
-39.4659
 21
-69.4381
  0
LINE
  8
0
 10
-39.4659
 20
-69.4381
 11
-39.72
 21
-69.3406
  0
LINE
  8
0
 10
-39.72
 20
-69.3406
 11
-39.9625
 21
-69.2171
  0
LINE
  8
0
 10
-39.9625
 20
-69.2171
 11
-40.1907
 21
-69.0689
  0
LINE
  8
0
 10
-40.1907
 20
-69.0689
 11
-40.4022
 21
-68.8976
  0
LINE
  8
0
 10
-40.4022
 20
-68.8976
 11
-40.5947
 21
-68.7051
  0
LINE
  8
0
 10
-40.5947
 20
-68.7051
 11
-40.7659
 21
-68.4937
  0
LINE
  8
0
 10
-40.7659
 20
-68.4937
 11
-40.9142
 21
-68.2654
  0
LINE
  8
0
 10
-40.9142
 20
-68.2654
 11
-41.0377
 21
-68.0229
  0
LINE
  8
0
 10
-41.0377
 20
-68.0229
 11
-41.1352
 21
-67.7689
  0
LINE
  8
0
 10
-41.1352
 20
-67.7689
 11
-41.2057
 21
-67.506
  0
LINE
  8
0
 10
-41.2057
 20
-67.506
 11
-41.2482
 21
-67.2372
  0
LINE
  8
0
 10
-41.2482
 20
-67.2372
 11
-41.2625
 21
-66.9654
  0
LINE
  8
0
 10
-41.2625
 20
-66.9654
 11
-41.2482
 21
-66.6936
  0
LINE
  8
0
 10
-41.2482
 20
-66.6936
 11
-41.2057
 21
-66.4248
  0
LINE
  8
0
 10
-41.2057
 20
-66.4248
 11
-41.1352
 21
-66.162
  0
LINE
  8
0
 10
-41.1352
 20
-66.162
 11
-41.0377
 21
-65.9079
  0
LINE
  8
0
 10
-41.0377
 20
-65.9079
 11
-40.9142
 21
-65.6654
  0
LINE
  8
0
 10
-40.9142
 20
-65.6654
 11
-40.7659
 21
-65.4372
  0
LINE
  8
0
 10
-40.7659
 20
-65.4372
 11
-40.5947
 21
-65.2257
  0
LINE
  8
0
 10
-40.5947
 20
-65.2257
 11
-40.4022
 21
-65.0332
  0
LINE
  8
0
 10
-40.4022
 20
-65.0332
 11
-40.1907
 21
-64.862
  0
LINE
  8
0
 10
-40.1907
 20
-64.862
 11
-39.9625
 21
-64.7137
  0
LINE
  8
0
 10
-39.9625
 20
-64.7137
 11
-39.72
 21
-64.5902
  0
LINE
  8
0
 10
-39.72
 20
-64.5902
 11
-39.4659
 21
-64.4927
  0
LINE
  8
0
 10
-39.4659
 20
-64.4927
 11
-39.203
 21
-64.4222
  0
LINE
  8
0
 10
-39.203
 20
-64.4222
 11
-38.9343
 21
-64.3797
  0
LINE
  8
0
 10
-38.9343
 20
-64.3797
 11
-38.6625
 21
-64.3654
  0
LINE
  8
0
 10
-38.6625
 20
-64.3654
 11
-38.3907
 21
-64.3797
  0
LINE
  8
0
 10
-38.3907
 20
-64.3797
 11
-38.1219
 21
-64.4222
  0
LINE
  8
0
 10
-38.1219
 20
-64.4222
 11
-37.859
 21
-64.4927
  0
LINE
  8
0
 10
-37.859
 20
-64.4927
 11
-37.605
 21
-64.5902
  0
LINE
  8
0
 10
-37.605
 20
-64.5902
 11
-37.3625
 21
-64.7137
  0
LINE
  8
0
 10
-37.3625
 20
-64.7137
 11
-37.1343
 21
-64.862
  0
LINE
  8
0
 10
-37.1343
 20
-64.862
 11
-36.9228
 21
-65.0332
  0
LINE
  8
0
 10
-36.9228
 20
-65.0332
 11
-36.7303
 21
-65.2257
  0
LINE
  8
0
 10
-36.7303
 20
-65.2257
 11
-36.5591
 21
-65.4372
  0
LINE
  8
0
 10
-36.5591
 20
-65.4372
 11
-36.4108
 21
-65.6654
  0
LINE
  8
0
 10
-36.4108
 20
-65.6654
 11
-36.2873
 21
-65.9079
  0
LINE
  8
0
 10
-36.2873
 20
-65.9079
 11
-36.1898
 21
-66.162
  0
LINE
  8
0
 10
-36.1898
 20
-66.162
 11
-36.1193
 21
-66.4249
  0
LINE
  8
0
 10
-36.1193
 20
-66.4249
 11
-36.0768
 21
-66.6936
  0
LINE
  8
0
 10
-36.0768
 20
-66.6936
 11
-36.0625
 21
-66.9654
  0
LINE
  8
0
 10
-36.0625
 20
-66.9654
 11
-36.0767
 21
-67.2372
  0
LINE
  8
0
 10
-36.0767
 20
-67.2372
 11
-36.1193
 21
-67.506
  0
LINE
  8
0
 10
-36.1193
 20
-67.506
 11
-36.1898
 21
-67.7689
  0
LINE
  8
0
 10
-36.1898
 20
-67.7689
 11
-36.2873
 21
-68.0229
  0
LINE
  8
0
 10
-36.2873
 20
-68.0229
 11
-36.4108
 21
-68.2654
  0
LINE
  8
0
 10
-36.4108
 20
-68.2654
 11
-36.559
 21
-68.4936
  0
LINE
  8
0
 10
-36.559
 20
-68.4936
 11
-36.7303
 21
-68.7051
  0
LINE
  8
0
 10
-36.7303
 20
-68.7051
 11
-36.9228
 21
-68.8976
  0
LINE
  8
0
 10
-36.9228
 20
-68.8976
 11
-37.1342
 21
-69.0688
  0
LINE
  8
0
 10
-37.1342
 20
-69.0688
 11
-37.3625
 21
-69.2171
  0
LINE
  8
0
 10
-37.3625
 20
-69.2171
 11
-37.605
 21
-69.3406
  0
LINE
  8
0
 10
-37.605
 20
-69.3406
 11
-37.859
 21
-69.4381
  0
LINE
  8
0
 10
-37.859
 20
-69.4381
 11
-38.1219
 21
-69.5086
  0
LINE
  8
0
 10
-38.1219
 20
-69.5086
 11
-38.3907
 21
-69.5511
  0
LINE
  8
0
 10
-38.3907
 20
-69.5511
 11
-38.6625
 21
-69.5654
  0
LINE
  8
0
 10
-38.6625
 20
-69.5654
 11
-38.9343
 21
-69.5512
  0
LINE
  8
0
 10
62.6311
 20
-75.5945
 11
62.3623
 21
-75.5519
  0
LINE
  8
0
 10
62.3623
 20
-75.5519
 11
62.0994
 21
-75.4814
  0
LINE
  8
0
 10
62.0994
 20
-75.4814
 11
61.8454
 21
-75.3839
  0
LINE
  8
0
 10
61.8454
 20
-75.3839
 11
61.6029
 21
-75.2604
  0
LINE
  8
0
 10
61.6029
 20
-75.2604
 11
61.3746
 21
-75.1122
  0
LINE
  8
0
 10
61.3746
 20
-75.1122
 11
61.1631
 21
-74.9409
  0
LINE
  8
0
 10
61.1631
 20
-74.9409
 11
60.9707
 21
-74.7484
  0
LINE
  8
0
 10
60.9707
 20
-74.7484
 11
60.7994
 21
-74.537
  0
LINE
  8
0
 10
60.7994
 20
-74.537
 11
60.6512
 21
-74.3087
  0
LINE
  8
0
 10
60.6512
 20
-74.3087
 11
60.5276
 21
-74.0662
  0
LINE
  8
0
 10
60.5276
 20
-74.0662
 11
60.4301
 21
-73.8121
  0
LINE
  8
0
 10
60.4301
 20
-73.8121
 11
60.3597
 21
-73.5493
  0
LINE
  8
0
 10
60.3597
 20
-73.5493
 11
60.3171
 21
-73.2805
  0
LINE
  8
0
 10
60.3171
 20
-73.2805
 11
60.3029
 21
-73.0087
  0
LINE
  8
0
 10
60.3029
 20
-73.0087
 11
60.3171
 21
-72.7369
  0
LINE
  8
0
 10
60.3171
 20
-72.7369
 11
60.3597
 21
-72.4681
  0
LINE
  8
0
 10
60.3597
 20
-72.4681
 11
60.4301
 21
-72.2053
  0
LINE
  8
0
 10
60.4301
 20
-72.2053
 11
60.5276
 21
-71.9512
  0
LINE
  8
0
 10
60.5276
 20
-71.9512
 11
60.6512
 21
-71.7087
  0
LINE
  8
0
 10
60.6512
 20
-71.7087
 11
60.7994
 21
-71.4805
  0
LINE
  8
0
 10
60.7994
 20
-71.4805
 11
60.9707
 21
-71.269
  0
LINE
  8
0
 10
60.9707
 20
-71.269
 11
61.1631
 21
-71.0765
  0
LINE
  8
0
 10
61.1631
 20
-71.0765
 11
61.3746
 21
-70.9053
  0
LINE
  8
0
 10
61.3746
 20
-70.9053
 11
61.6029
 21
-70.757
  0
LINE
  8
0
 10
61.6029
 20
-70.757
 11
61.8454
 21
-70.6335
  0
LINE
  8
0
 10
61.8454
 20
-70.6335
 11
62.0994
 21
-70.536
  0
LINE
  8
0
 10
62.0994
 20
-70.536
 11
62.3623
 21
-70.4655
  0
LINE
  8
0
 10
62.3623
 20
-70.4655
 11
62.6311
 21
-70.4229
  0
LINE
  8
0
 10
62.6311
 20
-70.4229
 11
62.9029
 21
-70.4087
  0
LINE
  8
0
 10
62.9029
 20
-70.4087
 11
63.1746
 21
-70.4229
  0
LINE
  8
0
 10
63.1746
 20
-70.4229
 11
63.4435
 21
-70.4655
  0
LINE
  8
0
 10
63.4435
 20
-70.4655
 11
63.7063
 21
-70.5359
  0
LINE
  8
0
 10
63.7063
 20
-70.5359
 11
63.9604
 21
-70.6335
  0
LINE
  8
0
 10
63.9604
 20
-70.6335
 11
64.2029
 21
-70.757
  0
LINE
  8
0
 10
64.2029
 20
-70.757
 11
64.4311
 21
-70.9052
  0
LINE
  8
0
 10
64.4311
 20
-70.9052
 11
64.6426
 21
-71.0765
  0
LINE
  8
0
 10
64.6426
 20
-71.0765
 11
64.835
 21
-71.269
  0
LINE
  8
0
 10
64.835
 20
-71.269
 11
65.0063
 21
-71.4805
  0
LINE
  8
0
 10
65.0063
 20
-71.4805
 11
65.1545
 21
-71.7087
  0
LINE
  8
0
 10
65.1545
 20
-71.7087
 11
65.2781
 21
-71.9512
  0
LINE
  8
0
 10
65.2781
 20
-71.9512
 11
65.3756
 21
-72.2053
  0
LINE
  8
0
 10
65.3756
 20
-72.2053
 11
65.446
 21
-72.4681
  0
LINE
  8
0
 10
65.446
 20
-72.4681
 11
65.4886
 21
-72.7369
  0
LINE
  8
0
 10
65.4886
 20
-72.7369
 11
65.5029
 21
-73.0087
  0
LINE
  8
0
 10
65.5029
 20
-73.0087
 11
65.4886
 21
-73.2805
  0
LINE
  8
0
 10
65.4886
 20
-73.2805
 11
65.446
 21
-73.5493
  0
LINE
  8
0
 10
65.446
 20
-73.5493
 11
65.3756
 21
-73.8121
  0
LINE
  8
0
 10
65.3756
 20
-73.8121
 11
65.2781
 21
-74.0662
  0
LINE
  8
0
 10
65.2781
 20
-74.0662
 11
65.1545
 21
-74.3087
  0
LINE
  8
0
 10
65.1545
 20
-74.3087
 11
65.0063
 21
-74.5369
  0
LINE
  8
0
 10
65.0063
 20
-74.5369
 11
64.8351
 21
-74.7484
  0
LINE
  8
0
 10
64.8351
 20
-74.7484
 11
64.6426
 21
-74.9409
  0
LINE
  8
0
 10
64.6426
 20
-74.9409
 11
64.4311
 21
-75.1122
  0
LINE
  8
0
 10
64.4311
 20
-75.1122
 11
64.2029
 21
-75.2604
  0
LINE
  8
0
 10
64.2029
 20
-75.2604
 11
63.9604
 21
-75.3839
  0
LINE
  8
0
 10
63.9604
 20
-75.3839
 11
63.7063
 21
-75.4814
  0
LINE
  8
0
 10
63.7063
 20
-75.4814
 11
63.4435
 21
-75.5519
  0
LINE
  8
0
 10
63.4435
 20
-75.5519
 11
63.1746
 21
-75.5945
  0
LINE
  8
0
 10
63.1746
 20
-75.5945
 11
62.9029
 21
-75.6087
  0
LINE
  8
0
 10
62.9029
 20
-75.6087
 11
62.6311
 21
-75.5945
  0
LINE
  8
0
 10
31.5042
 20
-93.5656
 11
31.2354
 21
-93.523
  0
LINE
  8
0
 10
31.2354
 20
-93.523
 11
30.9725
 21
-93.4526
  0
LINE
  8
0
 10
30.9725
 20
-93.4526
 11
30.7184
 21
-93.3551
  0
LINE
  8
0
 10
30.7184
 20
-93.3551
 11
30.4759
 21
-93.2315
  0
LINE
  8
0
 10
30.4759
 20
-93.2315
 11
30.2477
 21
-93.0833
  0
LINE
  8
0
 10
30.2477
 20
-93.0833
 11
30.0362
 21
-92.912
  0
LINE
  8
0
 10
30.0362
 20
-92.912
 11
29.8438
 21
-92.7196
  0
LINE
  8
0
 10
29.8438
 20
-92.7196
 11
29.6725
 21
-92.5081
  0
LINE
  8
0
 10
29.6725
 20
-92.5081
 11
29.5243
 21
-92.2798
  0
LINE
  8
0
 10
29.5243
 20
-92.2798
 11
29.4007
 21
-92.0374
  0
LINE
  8
0
 10
29.4007
 20
-92.0374
 11
29.3032
 21
-91.7833
  0
LINE
  8
0
 10
29.3032
 20
-91.7833
 11
29.2328
 21
-91.5204
  0
LINE
  8
0
 10
29.2328
 20
-91.5204
 11
29.1902
 21
-91.2516
  0
LINE
  8
0
 10
29.1902
 20
-91.2516
 11
29.1759
 21
-90.9798
  0
LINE
  8
0
 10
29.1759
 20
-90.9798
 11
29.1902
 21
-90.7081
  0
LINE
  8
0
 10
29.1902
 20
-90.7081
 11
29.2328
 21
-90.4393
  0
LINE
  8
0
 10
29.2328
 20
-90.4393
 11
29.3032
 21
-90.1764
  0
LINE
  8
0
 10
29.3032
 20
-90.1764
 11
29.4007
 21
-89.9223
  0
LINE
  8
0
 10
29.4007
 20
-89.9223
 11
29.5243
 21
-89.6798
  0
LINE
  8
0
 10
29.5243
 20
-89.6798
 11
29.6725
 21
-89.4516
  0
LINE
  8
0
 10
29.6725
 20
-89.4516
 11
29.8438
 21
-89.2401
  0
LINE
  8
0
 10
29.8438
 20
-89.2401
 11
30.0362
 21
-89.0477
  0
LINE
  8
0
 10
30.0362
 20
-89.0477
 11
30.2477
 21
-88.8764
  0
LINE
  8
0
 10
30.2477
 20
-88.8764
 11
30.476
 21
-88.7282
  0
LINE
  8
0
 10
30.476
 20
-88.7282
 11
30.7184
 21
-88.6046
  0
LINE
  8
0
 10
30.7184
 20
-88.6046
 11
30.9725
 21
-88.5071
  0
LINE
  8
0
 10
30.9725
 20
-88.5071
 11
31.2354
 21
-88.4367
  0
LINE
  8
0
 10
31.2354
 20
-88.4367
 11
31.5042
 21
-88.3941
  0
LINE
  8
0
 10
31.5042
 20
-88.3941
 11
31.776
 21
-88.3799
  0
LINE
  8
0
 10
31.776
 20
-88.3799
 11
32.0477
 21
-88.3941
  0
LINE
  8
0
 10
32.0477
 20
-88.3941
 11
32.3165
 21
-88.4367
  0
LINE
  8
0
 10
32.3165
 20
-88.4367
 11
32.5794
 21
-88.5071
  0
LINE
  8
0
 10
32.5794
 20
-88.5071
 11
32.8335
 21
-88.6046
  0
LINE
  8
0
 10
32.8335
 20
-88.6046
 11
33.076
 21
-88.7282
  0
LINE
  8
0
 10
33.076
 20
-88.7282
 11
33.3042
 21
-88.8764
  0
LINE
  8
0
 10
33.3042
 20
-88.8764
 11
33.5157
 21
-89.0477
  0
LINE
  8
0
 10
33.5157
 20
-89.0477
 11
33.7081
 21
-89.2401
  0
LINE
  8
0
 10
33.7081
 20
-89.2401
 11
33.8794
 21
-89.4516
  0
LINE
  8
0
 10
33.8794
 20
-89.4516
 11
34.0276
 21
-89.6798
  0
LINE
  8
0
 10
34.0276
 20
-89.6798
 11
34.1512
 21
-89.9223
  0
LINE
  8
0
 10
34.1512
 20
-89.9223
 11
34.2487
 21
-90.1764
  0
LINE
  8
0
 10
34.2487
 20
-90.1764
 11
34.3191
 21
-90.4393
  0
LINE
  8
0
 10
34.3191
 20
-90.4393
 11
34.3617
 21
-90.7081
  0
LINE
  8
0
 10
34.3617
 20
-90.7081
 11
34.3759
 21
-90.9798
  0
LINE
  8
0
 10
34.3759
 20
-90.9798
 11
34.3617
 21
-91.2516
  0
LINE
  8
0
 10
34.3617
 20
-91.2516
 11
34.3191
 21
-91.5204
  0
LINE
  8
0
 10
34.3191
 20
-91.5204
 11
34.2487
 21
-91.7833
  0
LINE
  8
0
 10
34.2487
 20
-91.7833
 11
34.1512
 21
-92.0374
  0
LINE
  8
0
 10
34.1512
 20
-92.0374
 11
34.0276
 21
-92.2798
  0
LINE
  8
0
 10
34.0276
 20
-92.2798
 11
33.8794
 21
-92.5081
  0
LINE
  8
0
 10
33.8794
 20
-92.5081
 11
33.7081
 21
-92.7196
  0
LINE
  8
0
 10
33.7081
 20
-92.7196
 11
33.5157
 21
-92.912
  0
LINE
  8
0
 10
33.5157
 20
-92.912
 11
33.3042
 21
-93.0833
  0
LINE
  8
0
 10
33.3042
 20
-93.0833
 11
33.076
 21
-93.2315
  0
LINE
  8
0
 10
33.076
 20
-93.2315
 11
32.8335
 21
-93.3551
  0
LINE
  8
0
 10
32.8335
 20
-93.3551
 11
32.5794
 21
-93.4526
  0
LINE
  8
0
 10
32.5794
 20
-93.4526
 11
32.3165
 21
-93.523
  0
LINE
  8
0
 10
32.3165
 20
-93.523
 11
32.0477
 21
-93.5656
  0
LINE
  8
0
 10
32.0477
 20
-93.5656
 11
31.776
 21
-93.5798
  0
LINE
  8
0
 10
31.776
 20
-93.5798
 11
31.5042
 21
-93.5656
  0
LINE
  8
0
 10
14.7593
 20
-100.551
 11
14.4905
 21
-100.509
  0
LINE
  8
0
 10
14.4905
 20
-100.509
 11
14.2276
 21
-100.438
  0
LINE
  8
0
 10
14.2276
 20
-100.438
 11
13.9735
 21
-100.341
  0
LINE
  8
0
 10
13.9735
 20
-100.341
 11
13.7311
 21
-100.217
  0
LINE
  8
0
 10
13.7311
 20
-100.217
 11
13.5028
 21
-100.069
  0
LINE
  8
0
 10
13.5028
 20
-100.069
 11
13.2913
 21
-99.8976
  0
LINE
  8
0
 10
13.2913
 20
-99.8976
 11
13.0989
 21
-99.7051
  0
LINE
  8
0
 10
13.0989
 20
-99.7051
 11
12.9276
 21
-99.4936
  0
LINE
  8
0
 10
12.9276
 20
-99.4936
 11
12.7794
 21
-99.2654
  0
LINE
  8
0
 10
12.7794
 20
-99.2654
 11
12.6559
 21
-99.0229
  0
LINE
  8
0
 10
12.6559
 20
-99.0229
 11
12.5583
 21
-98.7688
  0
LINE
  8
0
 10
12.5583
 20
-98.7688
 11
12.4879
 21
-98.506
  0
LINE
  8
0
 10
12.4879
 20
-98.506
 11
12.4453
 21
-98.2372
  0
LINE
  8
0
 10
12.4453
 20
-98.2372
 11
12.4311
 21
-97.9654
  0
LINE
  8
0
 10
12.4311
 20
-97.9654
 11
12.4453
 21
-97.6936
  0
LINE
  8
0
 10
12.4453
 20
-97.6936
 11
12.4879
 21
-97.4248
  0
LINE
  8
0
 10
12.4879
 20
-97.4248
 11
12.5583
 21
-97.1619
  0
LINE
  8
0
 10
12.5583
 20
-97.1619
 11
12.6559
 21
-96.9079
  0
LINE
  8
0
 10
12.6559
 20
-96.9079
 11
12.7794
 21
-96.6654
  0
LINE
  8
0
 10
12.7794
 20
-96.6654
 11
12.9276
 21
-96.4372
  0
LINE
  8
0
 10
12.9276
 20
-96.4372
 11
13.0989
 21
-96.2257
  0
LINE
  8
0
 10
13.0989
 20
-96.2257
 11
13.2913
 21
-96.0332
  0
LINE
  8
0
 10
13.2913
 20
-96.0332
 11
13.5028
 21
-95.862
  0
LINE
  8
0
 10
13.5028
 20
-95.862
 11
13.731
 21
-95.7137
  0
LINE
  8
0
 10
13.731
 20
-95.7137
 11
13.9735
 21
-95.5902
  0
LINE
  8
0
 10
13.9735
 20
-95.5902
 11
14.2276
 21
-95.4927
  0
LINE
  8
0
 10
14.2276
 20
-95.4927
 11
14.4905
 21
-95.4222
  0
LINE
  8
0
 10
14.4905
 20
-95.4222
 11
14.7593
 21
-95.3797
  0
LINE
  8
0
 10
14.7593
 20
-95.3797
 11
15.0311
 21
-95.3654
  0
LINE
  8
0
 10
15.0311
 20
-95.3654
 11
15.3028
 21
-95.3797
  0
LINE
  8
0
 10
15.3028
 20
-95.3797
 11
15.5716
 21
-95.4222
  0
LINE
  8
0
 10
15.5716
 20
-95.4222
 11
15.8345
 21
-95.4927
  0
LINE
  8
0
 10
15.8345
 20
-95.4927
 11
16.0886
 21
-95.5902
  0
LINE
  8
0
 10
16.0886
 20
-95.5902
 11
16.3311
 21
-95.7137
  0
LINE
  8
0
 10
16.3311
 20
-95.7137
 11
16.5593
 21
-95.862
  0
LINE
  8
0
 10
16.5593
 20
-95.862
 11
16.7708
 21
-96.0332
  0
LINE
  8
0
 10
16.7708
 20
-96.0332
 11
16.9632
 21
-96.2257
  0
LINE
  8
0
 10
16.9632
 20
-96.2257
 11
17.1345
 21
-96.4372
  0
LINE
  8
0
 10
17.1345
 20
-96.4372
 11
17.2827
 21
-96.6654
  0
LINE
  8
0
 10
17.2827
 20
-96.6654
 11
17.4063
 21
-96.9079
  0
LINE
  8
0
 10
17.4063
 20
-96.9079
 11
17.5038
 21
-97.162
  0
LINE
  8
0
 10
17.5038
 20
-97.162
 11
17.5742
 21
-97.4249
  0
LINE
  8
0
 10
17.5742
 20
-97.4249
 11
17.6168
 21
-97.6936
  0
LINE
  8
0
 10
17.6168
 20
-97.6936
 11
17.6311
 21
-97.9654
  0
LINE
  8
0
 10
17.6311
 20
-97.9654
 11
17.6168
 21
-98.2372
  0
LINE
  8
0
 10
17.6168
 20
-98.2372
 11
17.5742
 21
-98.506
  0
LINE
  8
0
 10
17.5742
 20
-98.506
 11
17.5038
 21
-98.7689
  0
LINE
  8
0
 10
17.5038
 20
-98.7689
 11
17.4063
 21
-99.0229
  0
LINE
  8
0
 10
17.4063
 20
-99.0229
 11
17.2827
 21
-99.2654
  0
LINE
  8
0
 10
17.2827
 20
-99.2654
 11
17.1345
 21
-99.4936
  0
LINE
  8
0
 10
17.1345
 20
-99.4936
 11
16.9632
 21
-99.7051
  0
LINE
  8
0
 10
16.9632
 20
-99.7051
 11
16.7708
 21
-99.8976
  0
LINE
  8
0
 10
16.7708
 20
-99.8976
 11
16.5593
 21
-100.069
  0
LINE
  8
0
 10
16.5593
 20
-100.069
 11
16.3311
 21
-100.217
  0
LINE
  8
0
 10
16.3311
 20
-100.217
 11
16.0886
 21
-100.341
  0
LINE
  8
0
 10
16.0886
 20
-100.341
 11
15.8345
 21
-100.438
  0
LINE
  8
0
 10
15.8345
 20
-100.438
 11
15.5716
 21
-100.509
  0
LINE
  8
0
 10
15.5716
 20
-100.509
 11
15.3028
 21
-100.551
  0
LINE
  8
0
 10
15.3028
 20
-100.551
 11
15.0311
 21
-100.565
  0
LINE
  8
0
 10
15.0311
 20
-100.565
 11
14.7593
 21
-100.551
  0
ENDSEC
  0
SECTION
  2
OBJECTS
  0
DICTIONARY
  0
ENDSEC
  0
EOF
