  0
SECTION
  2
BLOCKS
  0
ENDSEC
  0
SECTION
  2
ENTITIES
  0
LINE
  8
0
 10
72
 20
21
 11
-72
 21
21
  0
LINE
  8
0
 10
-72
 20
21
 11
-72
 21
-21
  0
LINE
  8
0
 10
-72
 20
-21
 11
72
 21
-21
  0
LINE
  8
0
 10
72
 20
-21
 11
72
 21
21
  0
LINE
  8
0
 10
-46.6672
 20
13.9088
 11
-46.8327
 21
13.935
  0
LINE
  8
0
 10
-46.8327
 20
13.935
 11
-46.9944
 21
13.9783
  0
LINE
  8
0
 10
-46.9944
 20
13.9783
 11
-47.1508
 21
14.0383
  0
LINE
  8
0
 10
-47.1508
 20
14.0383
 11
-47.3
 21
14.1143
  0
LINE
  8
0
 10
-47.3
 20
14.1143
 11
-47.4404
 21
14.2056
  0
LINE
  8
0
 10
-47.4404
 20
14.2056
 11
-47.5706
 21
14.311
  0
LINE
  8
0
 10
-47.5706
 20
14.311
 11
-47.689
 21
14.4294
  0
LINE
  8
0
 10
-47.689
 20
14.4294
 11
-47.7944
 21
14.5595
  0
LINE
  8
0
 10
-47.7944
 20
14.5595
 11
-47.8856
 21
14.7
  0
LINE
  8
0
 10
-47.8856
 20
14.7
 11
-47.9617
 21
14.8492
  0
LINE
  8
0
 10
-47.9617
 20
14.8492
 11
-48.0217
 21
15.0056
  0
LINE
  8
0
 10
-48.0217
 20
15.0056
 11
-48.065
 21
15.1673
  0
LINE
  8
0
 10
-48.065
 20
15.1673
 11
-48.0912
 21
15.3327
  0
LINE
  8
0
 10
-48.0912
 20
15.3327
 11
-48.1
 21
15.5
  0
LINE
  8
0
 10
-48.1
 20
15.5
 11
-48.0912
 21
15.6672
  0
LINE
  8
0
 10
-48.0912
 20
15.6672
 11
-48.065
 21
15.8327
  0
LINE
  8
0
 10
-48.065
 20
15.8327
 11
-48.0217
 21
15.9944
  0
LINE
  8
0
 10
-48.0217
 20
15.9944
 11
-47.9617
 21
16.1508
  0
LINE
  8
0
 10
-47.9617
 20
16.1508
 11
-47.8856
 21
16.3
  0
LINE
  8
0
 10
-47.8856
 20
16.3
 11
-47.7944
 21
16.4404
  0
LINE
  8
0
 10
-47.7944
 20
16.4404
 11
-47.689
 21
16.5706
  0
LINE
  8
0
 10
-47.689
 20
16.5706
 11
-47.5706
 21
16.689
  0
LINE
  8
0
 10
-47.5706
 20
16.689
 11
-47.4404
 21
16.7944
  0
LINE
  8
0
 10
-47.4404
 20
16.7944
 11
-47.3
 21
16.8856
  0
LINE
  8
0
 10
-47.3
 20
16.8856
 11
-47.1508
 21
16.9617
  0
LINE
  8
0
 10
-47.1508
 20
16.9617
 11
-46.9944
 21
17.0217
  0
LINE
  8
0
 10
-46.9944
 20
17.0217
 11
-46.8327
 21
17.065
  0
LINE
  8
0
 10
-46.8327
 20
17.065
 11
-46.6672
 21
17.0912
  0
LINE
  8
0
 10
-46.6672
 20
17.0912
 11
-46.5
 21
17.1
  0
LINE
  8
0
 10
-46.5
 20
17.1
 11
-46.3327
 21
17.0912
  0
LINE
  8
0
 10
-46.3327
 20
17.0912
 11
-46.1673
 21
17.065
  0
LINE
  8
0
 10
-46.1673
 20
17.065
 11
-46.0056
 21
17.0217
  0
LINE
  8
0
 10
-46.0056
 20
17.0217
 11
-45.8492
 21
16.9617
  0
LINE
  8
0
 10
-45.8492
 20
16.9617
 11
-45.7
 21
16.8856
  0
LINE
  8
0
 10
-45.7
 20
16.8856
 11
-45.5595
 21
16.7944
  0
LINE
  8
0
 10
-45.5595
 20
16.7944
 11
-45.4294
 21
16.689
  0
LINE
  8
0
 10
-45.4294
 20
16.689
 11
-45.311
 21
16.5706
  0
LINE
  8
0
 10
-45.311
 20
16.5706
 11
-45.2056
 21
16.4404
  0
LINE
  8
0
 10
-45.2056
 20
16.4404
 11
-45.1143
 21
16.3
  0
LINE
  8
0
 10
-45.1143
 20
16.3
 11
-45.0383
 21
16.1508
  0
LINE
  8
0
 10
-45.0383
 20
16.1508
 11
-44.9783
 21
15.9944
  0
LINE
  8
0
 10
-44.9783
 20
15.9944
 11
-44.935
 21
15.8327
  0
LINE
  8
0
 10
-44.935
 20
15.8327
 11
-44.9088
 21
15.6672
  0
LINE
  8
0
 10
-44.9088
 20
15.6672
 11
-44.9
 21
15.5
  0
LINE
  8
0
 10
-44.9
 20
15.5
 11
-44.9088
 21
15.3327
  0
LINE
  8
0
 10
-44.9088
 20
15.3327
 11
-44.935
 21
15.1673
  0
LINE
  8
0
 10
-44.935
 20
15.1673
 11
-44.9783
 21
15.0056
  0
LINE
  8
0
 10
-44.9783
 20
15.0056
 11
-45.0383
 21
14.8492
  0
LINE
  8
0
 10
-45.0383
 20
14.8492
 11
-45.1143
 21
14.7
  0
LINE
  8
0
 10
-45.1143
 20
14.7
 11
-45.2056
 21
14.5595
  0
LINE
  8
0
 10
-45.2056
 20
14.5595
 11
-45.311
 21
14.4294
  0
LINE
  8
0
 10
-45.311
 20
14.4294
 11
-45.4294
 21
14.311
  0
LINE
  8
0
 10
-45.4294
 20
14.311
 11
-45.5595
 21
14.2056
  0
LINE
  8
0
 10
-45.5595
 20
14.2056
 11
-45.7
 21
14.1143
  0
LINE
  8
0
 10
-45.7
 20
14.1143
 11
-45.8492
 21
14.0383
  0
LINE
  8
0
 10
-45.8492
 20
14.0383
 11
-46.0056
 21
13.9783
  0
LINE
  8
0
 10
-46.0056
 20
13.9783
 11
-46.1673
 21
13.935
  0
LINE
  8
0
 10
-46.1673
 20
13.935
 11
-46.3327
 21
13.9088
  0
LINE
  8
0
 10
-46.3327
 20
13.9088
 11
-46.5
 21
13.9
  0
LINE
  8
0
 10
-46.5
 20
13.9
 11
-46.6672
 21
13.9088
  0
LINE
  8
0
 10
-15.6673
 20
13.9088
 11
-15.8327
 21
13.935
  0
LINE
  8
0
 10
-15.8327
 20
13.935
 11
-15.9944
 21
13.9783
  0
LINE
  8
0
 10
-15.9944
 20
13.9783
 11
-16.1508
 21
14.0383
  0
LINE
  8
0
 10
-16.1508
 20
14.0383
 11
-16.3
 21
14.1143
  0
LINE
  8
0
 10
-16.3
 20
14.1143
 11
-16.4405
 21
14.2056
  0
LINE
  8
0
 10
-16.4405
 20
14.2056
 11
-16.5706
 21
14.311
  0
LINE
  8
0
 10
-16.5706
 20
14.311
 11
-16.689
 21
14.4294
  0
LINE
  8
0
 10
-16.689
 20
14.4294
 11
-16.7944
 21
14.5595
  0
LINE
  8
0
 10
-16.7944
 20
14.5595
 11
-16.8857
 21
14.7
  0
LINE
  8
0
 10
-16.8857
 20
14.7
 11
-16.9617
 21
14.8492
  0
LINE
  8
0
 10
-16.9617
 20
14.8492
 11
-17.0217
 21
15.0056
  0
LINE
  8
0
 10
-17.0217
 20
15.0056
 11
-17.065
 21
15.1673
  0
LINE
  8
0
 10
-17.065
 20
15.1673
 11
-17.0912
 21
15.3327
  0
LINE
  8
0
 10
-17.0912
 20
15.3327
 11
-17.1
 21
15.5
  0
LINE
  8
0
 10
-17.1
 20
15.5
 11
-17.0912
 21
15.6672
  0
LINE
  8
0
 10
-17.0912
 20
15.6672
 11
-17.065
 21
15.8327
  0
LINE
  8
0
 10
-17.065
 20
15.8327
 11
-17.0217
 21
15.9944
  0
LINE
  8
0
 10
-17.0217
 20
15.9944
 11
-16.9617
 21
16.1508
  0
LINE
  8
0
 10
-16.9617
 20
16.1508
 11
-16.8857
 21
16.3
  0
LINE
  8
0
 10
-16.8857
 20
16.3
 11
-16.7944
 21
16.4404
  0
LINE
  8
0
 10
-16.7944
 20
16.4404
 11
-16.689
 21
16.5706
  0
LINE
  8
0
 10
-16.689
 20
16.5706
 11
-16.5706
 21
16.689
  0
LINE
  8
0
 10
-16.5706
 20
16.689
 11
-16.4405
 21
16.7944
  0
LINE
  8
0
 10
-16.4405
 20
16.7944
 11
-16.3
 21
16.8856
  0
LINE
  8
0
 10
-16.3
 20
16.8856
 11
-16.1508
 21
16.9617
  0
LINE
  8
0
 10
-16.1508
 20
16.9617
 11
-15.9944
 21
17.0217
  0
LINE
  8
0
 10
-15.9944
 20
17.0217
 11
-15.8327
 21
17.065
  0
LINE
  8
0
 10
-15.8327
 20
17.065
 11
-15.6673
 21
17.0912
  0
LINE
  8
0
 10
-15.6673
 20
17.0912
 11
-15.5
 21
17.1
  0
LINE
  8
0
 10
-15.5
 20
17.1
 11
-15.3328
 21
17.0912
  0
LINE
  8
0
 10
-15.3328
 20
17.0912
 11
-15.1673
 21
17.065
  0
LINE
  8
0
 10
-15.1673
 20
17.065
 11
-15.0056
 21
17.0217
  0
LINE
  8
0
 10
-15.0056
 20
17.0217
 11
-14.8492
 21
16.9617
  0
LINE
  8
0
 10
-14.8492
 20
16.9617
 11
-14.7
 21
16.8856
  0
LINE
  8
0
 10
-14.7
 20
16.8856
 11
-14.5596
 21
16.7944
  0
LINE
  8
0
 10
-14.5596
 20
16.7944
 11
-14.4294
 21
16.689
  0
LINE
  8
0
 10
-14.4294
 20
16.689
 11
-14.311
 21
16.5706
  0
LINE
  8
0
 10
-14.311
 20
16.5706
 11
-14.2056
 21
16.4404
  0
LINE
  8
0
 10
-14.2056
 20
16.4404
 11
-14.1144
 21
16.3
  0
LINE
  8
0
 10
-14.1144
 20
16.3
 11
-14.0383
 21
16.1508
  0
LINE
  8
0
 10
-14.0383
 20
16.1508
 11
-13.9783
 21
15.9944
  0
LINE
  8
0
 10
-13.9783
 20
15.9944
 11
-13.935
 21
15.8327
  0
LINE
  8
0
 10
-13.935
 20
15.8327
 11
-13.9088
 21
15.6672
  0
LINE
  8
0
 10
-13.9088
 20
15.6672
 11
-13.9
 21
15.5
  0
LINE
  8
0
 10
-13.9
 20
15.5
 11
-13.9088
 21
15.3327
  0
LINE
  8
0
 10
-13.9088
 20
15.3327
 11
-13.935
 21
15.1673
  0
LINE
  8
0
 10
-13.935
 20
15.1673
 11
-13.9783
 21
15.0056
  0
LINE
  8
0
 10
-13.9783
 20
15.0056
 11
-14.0383
 21
14.8492
  0
LINE
  8
0
 10
-14.0383
 20
14.8492
 11
-14.1144
 21
14.7
  0
LINE
  8
0
 10
-14.1144
 20
14.7
 11
-14.2056
 21
14.5595
  0
LINE
  8
0
 10
-14.2056
 20
14.5595
 11
-14.311
 21
14.4294
  0
LINE
  8
0
 10
-14.311
 20
14.4294
 11
-14.4294
 21
14.311
  0
LINE
  8
0
 10
-14.4294
 20
14.311
 11
-14.5596
 21
14.2056
  0
LINE
  8
0
 10
-14.5596
 20
14.2056
 11
-14.7
 21
14.1143
  0
LINE
  8
0
 10
-14.7
 20
14.1143
 11
-14.8492
 21
14.0383
  0
LINE
  8
0
 10
-14.8492
 20
14.0383
 11
-15.0056
 21
13.9783
  0
LINE
  8
0
 10
-15.0056
 20
13.9783
 11
-15.1673
 21
13.935
  0
LINE
  8
0
 10
-15.1673
 20
13.935
 11
-15.3328
 21
13.9088
  0
LINE
  8
0
 10
-15.3328
 20
13.9088
 11
-15.5
 21
13.9
  0
LINE
  8
0
 10
-15.5
 20
13.9
 11
-15.6673
 21
13.9088
  0
LINE
  8
0
 10
15.3328
 20
13.9088
 11
15.1673
 21
13.935
  0
LINE
  8
0
 10
15.1673
 20
13.935
 11
15.0056
 21
13.9783
  0
LINE
  8
0
 10
15.0056
 20
13.9783
 11
14.8492
 21
14.0383
  0
LINE
  8
0
 10
14.8492
 20
14.0383
 11
14.7
 21
14.1143
  0
LINE
  8
0
 10
14.7
 20
14.1143
 11
14.5596
 21
14.2056
  0
LINE
  8
0
 10
14.5596
 20
14.2056
 11
14.4294
 21
14.311
  0
LINE
  8
0
 10
14.4294
 20
14.311
 11
14.311
 21
14.4294
  0
LINE
  8
0
 10
14.311
 20
14.4294
 11
14.2056
 21
14.5595
  0
LINE
  8
0
 10
14.2056
 20
14.5595
 11
14.1144
 21
14.7
  0
LINE
  8
0
 10
14.1144
 20
14.7
 11
14.0383
 21
14.8492
  0
LINE
  8
0
 10
14.0383
 20
14.8492
 11
13.9783
 21
15.0056
  0
LINE
  8
0
 10
13.9783
 20
15.0056
 11
13.935
 21
15.1673
  0
LINE
  8
0
 10
13.935
 20
15.1673
 11
13.9088
 21
15.3327
  0
LINE
  8
0
 10
13.9088
 20
15.3327
 11
13.9
 21
15.5
  0
LINE
  8
0
 10
13.9
 20
15.5
 11
13.9088
 21
15.6672
  0
LINE
  8
0
 10
13.9088
 20
15.6672
 11
13.935
 21
15.8327
  0
LINE
  8
0
 10
13.935
 20
15.8327
 11
13.9783
 21
15.9944
  0
LINE
  8
0
 10
13.9783
 20
15.9944
 11
14.0383
 21
16.1508
  0
LINE
  8
0
 10
14.0383
 20
16.1508
 11
14.1144
 21
16.3
  0
LINE
  8
0
 10
14.1144
 20
16.3
 11
14.2056
 21
16.4404
  0
LINE
  8
0
 10
14.2056
 20
16.4404
 11
14.311
 21
16.5706
  0
LINE
  8
0
 10
14.311
 20
16.5706
 11
14.4294
 21
16.689
  0
LINE
  8
0
 10
14.4294
 20
16.689
 11
14.5596
 21
16.7944
  0
LINE
  8
0
 10
14.5596
 20
16.7944
 11
14.7
 21
16.8856
  0
LINE
  8
0
 10
14.7
 20
16.8856
 11
14.8492
 21
16.9617
  0
LINE
  8
0
 10
14.8492
 20
16.9617
 11
15.0056
 21
17.0217
  0
LINE
  8
0
 10
15.0056
 20
17.0217
 11
15.1673
 21
17.065
  0
LINE
  8
0
 10
15.1673
 20
17.065
 11
15.3328
 21
17.0912
  0
LINE
  8
0
 10
15.3328
 20
17.0912
 11
15.5
 21
17.1
  0
LINE
  8
0
 10
15.5
 20
17.1
 11
15.6673
 21
17.0912
  0
LINE
  8
0
 10
15.6673
 20
17.0912
 11
15.8327
 21
17.065
  0
LINE
  8
0
 10
15.8327
 20
17.065
 11
15.9944
 21
17.0217
  0
LINE
  8
0
 10
15.9944
 20
17.0217
 11
16.1508
 21
16.9617
  0
LINE
  8
0
 10
16.1508
 20
16.9617
 11
16.3
 21
16.8856
  0
LINE
  8
0
 10
16.3
 20
16.8856
 11
16.4405
 21
16.7944
  0
LINE
  8
0
 10
16.4405
 20
16.7944
 11
16.5706
 21
16.689
  0
LINE
  8
0
 10
16.5706
 20
16.689
 11
16.689
 21
16.5706
  0
LINE
  8
0
 10
16.689
 20
16.5706
 11
16.7944
 21
16.4404
  0
LINE
  8
0
 10
16.7944
 20
16.4404
 11
16.8857
 21
16.3
  0
LINE
  8
0
 10
16.8857
 20
16.3
 11
16.9617
 21
16.1508
  0
LINE
  8
0
 10
16.9617
 20
16.1508
 11
17.0217
 21
15.9944
  0
LINE
  8
0
 10
17.0217
 20
15.9944
 11
17.065
 21
15.8327
  0
LINE
  8
0
 10
17.065
 20
15.8327
 11
17.0912
 21
15.6672
  0
LINE
  8
0
 10
17.0912
 20
15.6672
 11
17.1
 21
15.5
  0
LINE
  8
0
 10
17.1
 20
15.5
 11
17.0912
 21
15.3327
  0
LINE
  8
0
 10
17.0912
 20
15.3327
 11
17.065
 21
15.1673
  0
LINE
  8
0
 10
17.065
 20
15.1673
 11
17.0217
 21
15.0056
  0
LINE
  8
0
 10
17.0217
 20
15.0056
 11
16.9617
 21
14.8492
  0
LINE
  8
0
 10
16.9617
 20
14.8492
 11
16.8857
 21
14.7
  0
LINE
  8
0
 10
16.8857
 20
14.7
 11
16.7944
 21
14.5595
  0
LINE
  8
0
 10
16.7944
 20
14.5595
 11
16.689
 21
14.4294
  0
LINE
  8
0
 10
16.689
 20
14.4294
 11
16.5706
 21
14.311
  0
LINE
  8
0
 10
16.5706
 20
14.311
 11
16.4405
 21
14.2056
  0
LINE
  8
0
 10
16.4405
 20
14.2056
 11
16.3
 21
14.1143
  0
LINE
  8
0
 10
16.3
 20
14.1143
 11
16.1508
 21
14.0383
  0
LINE
  8
0
 10
16.1508
 20
14.0383
 11
15.9944
 21
13.9783
  0
LINE
  8
0
 10
15.9944
 20
13.9783
 11
15.8327
 21
13.935
  0
LINE
  8
0
 10
15.8327
 20
13.935
 11
15.6673
 21
13.9088
  0
LINE
  8
0
 10
15.6673
 20
13.9088
 11
15.5
 21
13.9
  0
LINE
  8
0
 10
15.5
 20
13.9
 11
15.3328
 21
13.9088
  0
LINE
  8
0
 10
46.3327
 20
13.9088
 11
46.1673
 21
13.935
  0
LINE
  8
0
 10
46.1673
 20
13.935
 11
46.0056
 21
13.9783
  0
LINE
  8
0
 10
46.0056
 20
13.9783
 11
45.8492
 21
14.0383
  0
LINE
  8
0
 10
45.8492
 20
14.0383
 11
45.7
 21
14.1143
  0
LINE
  8
0
 10
45.7
 20
14.1143
 11
45.5595
 21
14.2056
  0
LINE
  8
0
 10
45.5595
 20
14.2056
 11
45.4294
 21
14.311
  0
LINE
  8
0
 10
45.4294
 20
14.311
 11
45.311
 21
14.4294
  0
LINE
  8
0
 10
45.311
 20
14.4294
 11
45.2056
 21
14.5595
  0
LINE
  8
0
 10
45.2056
 20
14.5595
 11
45.1143
 21
14.7
  0
LINE
  8
0
 10
45.1143
 20
14.7
 11
45.0383
 21
14.8492
  0
LINE
  8
0
 10
45.0383
 20
14.8492
 11
44.9783
 21
15.0056
  0
LINE
  8
0
 10
44.9783
 20
15.0056
 11
44.935
 21
15.1673
  0
LINE
  8
0
 10
44.935
 20
15.1673
 11
44.9088
 21
15.3327
  0
LINE
  8
0
 10
44.9088
 20
15.3327
 11
44.9
 21
15.5
  0
LINE
  8
0
 10
44.9
 20
15.5
 11
44.9088
 21
15.6672
  0
LINE
  8
0
 10
44.9088
 20
15.6672
 11
44.935
 21
15.8327
  0
LINE
  8
0
 10
44.935
 20
15.8327
 11
44.9783
 21
15.9944
  0
LINE
  8
0
 10
44.9783
 20
15.9944
 11
45.0383
 21
16.1508
  0
LINE
  8
0
 10
45.0383
 20
16.1508
 11
45.1143
 21
16.3
  0
LINE
  8
0
 10
45.1143
 20
16.3
 11
45.2056
 21
16.4404
  0
LINE
  8
0
 10
45.2056
 20
16.4404
 11
45.311
 21
16.5706
  0
LINE
  8
0
 10
45.311
 20
16.5706
 11
45.4294
 21
16.689
  0
LINE
  8
0
 10
45.4294
 20
16.689
 11
45.5595
 21
16.7944
  0
LINE
  8
0
 10
45.5595
 20
16.7944
 11
45.7
 21
16.8856
  0
LINE
  8
0
 10
45.7
 20
16.8856
 11
45.8492
 21
16.9617
  0
LINE
  8
0
 10
45.8492
 20
16.9617
 11
46.0056
 21
17.0217
  0
LINE
  8
0
 10
46.0056
 20
17.0217
 11
46.1673
 21
17.065
  0
LINE
  8
0
 10
46.1673
 20
17.065
 11
46.3327
 21
17.0912
  0
LINE
  8
0
 10
46.3327
 20
17.0912
 11
46.5
 21
17.1
  0
LINE
  8
0
 10
46.5
 20
17.1
 11
46.6672
 21
17.0912
  0
LINE
  8
0
 10
46.6672
 20
17.0912
 11
46.8327
 21
17.065
  0
LINE
  8
0
 10
46.8327
 20
17.065
 11
46.9944
 21
17.0217
  0
LINE
  8
0
 10
46.9944
 20
17.0217
 11
47.1508
 21
16.9617
  0
LINE
  8
0
 10
47.1508
 20
16.9617
 11
47.3
 21
16.8856
  0
LINE
  8
0
 10
47.3
 20
16.8856
 11
47.4404
 21
16.7944
  0
LINE
  8
0
 10
47.4404
 20
16.7944
 11
47.5706
 21
16.689
  0
LINE
  8
0
 10
47.5706
 20
16.689
 11
47.689
 21
16.5706
  0
LINE
  8
0
 10
47.689
 20
16.5706
 11
47.7944
 21
16.4404
  0
LINE
  8
0
 10
47.7944
 20
16.4404
 11
47.8856
 21
16.3
  0
LINE
  8
0
 10
47.8856
 20
16.3
 11
47.9617
 21
16.1508
  0
LINE
  8
0
 10
47.9617
 20
16.1508
 11
48.0217
 21
15.9944
  0
LINE
  8
0
 10
48.0217
 20
15.9944
 11
48.065
 21
15.8327
  0
LINE
  8
0
 10
48.065
 20
15.8327
 11
48.0912
 21
15.6672
  0
LINE
  8
0
 10
48.0912
 20
15.6672
 11
48.1
 21
15.5
  0
LINE
  8
0
 10
48.1
 20
15.5
 11
48.0912
 21
15.3327
  0
LINE
  8
0
 10
48.0912
 20
15.3327
 11
48.065
 21
15.1673
  0
LINE
  8
0
 10
48.065
 20
15.1673
 11
48.0217
 21
15.0056
  0
LINE
  8
0
 10
48.0217
 20
15.0056
 11
47.9617
 21
14.8492
  0
LINE
  8
0
 10
47.9617
 20
14.8492
 11
47.8856
 21
14.7
  0
LINE
  8
0
 10
47.8856
 20
14.7
 11
47.7944
 21
14.5595
  0
LINE
  8
0
 10
47.7944
 20
14.5595
 11
47.689
 21
14.4294
  0
LINE
  8
0
 10
47.689
 20
14.4294
 11
47.5706
 21
14.311
  0
LINE
  8
0
 10
47.5706
 20
14.311
 11
47.4404
 21
14.2056
  0
LINE
  8
0
 10
47.4404
 20
14.2056
 11
47.3
 21
14.1143
  0
LINE
  8
0
 10
47.3
 20
14.1143
 11
47.1508
 21
14.0383
  0
LINE
  8
0
 10
47.1508
 20
14.0383
 11
46.9944
 21
13.9783
  0
LINE
  8
0
 10
46.9944
 20
13.9783
 11
46.8327
 21
13.935
  0
LINE
  8
0
 10
46.8327
 20
13.935
 11
46.6672
 21
13.9088
  0
LINE
  8
0
 10
46.6672
 20
13.9088
 11
46.5
 21
13.9
  0
LINE
  8
0
 10
46.5
 20
13.9
 11
46.3327
 21
13.9088
  0
LINE
  8
0
 10
61.7282
 20
7.41423
 11
61.4594
 21
7.4568
  0
LINE
  8
0
 10
61.4594
 20
7.4568
 11
61.1965
 21
7.52725
  0
LINE
  8
0
 10
61.1965
 20
7.52725
 11
60.9425
 21
7.62477
  0
LINE
  8
0
 10
60.9425
 20
7.62477
 11
60.7
 21
7.74832
  0
LINE
  8
0
 10
60.7
 20
7.74832
 11
60.4718
 21
7.89655
  0
LINE
  8
0
 10
60.4718
 20
7.89655
 11
60.2603
 21
8.06781
  0
LINE
  8
0
 10
60.2603
 20
8.06781
 11
60.0678
 21
8.26025
  0
LINE
  8
0
 10
60.0678
 20
8.26025
 11
59.8965
 21
8.47176
  0
LINE
  8
0
 10
59.8965
 20
8.47176
 11
59.7483
 21
8.7
  0
LINE
  8
0
 10
59.7483
 20
8.7
 11
59.6248
 21
8.94247
  0
LINE
  8
0
 10
59.6248
 20
8.94247
 11
59.5273
 21
9.19655
  0
LINE
  8
0
 10
59.5273
 20
9.19655
 11
59.4568
 21
9.45943
  0
LINE
  8
0
 10
59.4568
 20
9.45943
 11
59.4142
 21
9.72823
  0
LINE
  8
0
 10
59.4142
 20
9.72823
 11
59.4
 21
10
  0
LINE
  8
0
 10
59.4
 20
10
 11
59.4142
 21
10.2718
  0
LINE
  8
0
 10
59.4142
 20
10.2718
 11
59.4568
 21
10.5406
  0
LINE
  8
0
 10
59.4568
 20
10.5406
 11
59.5273
 21
10.8034
  0
LINE
  8
0
 10
59.5273
 20
10.8034
 11
59.6248
 21
11.0575
  0
LINE
  8
0
 10
59.6248
 20
11.0575
 11
59.7483
 21
11.3
  0
LINE
  8
0
 10
59.7483
 20
11.3
 11
59.8965
 21
11.5282
  0
LINE
  8
0
 10
59.8965
 20
11.5282
 11
60.0678
 21
11.7397
  0
LINE
  8
0
 10
60.0678
 20
11.7397
 11
60.2603
 21
11.9322
  0
LINE
  8
0
 10
60.2603
 20
11.9322
 11
60.4718
 21
12.1034
  0
LINE
  8
0
 10
60.4718
 20
12.1034
 11
60.7
 21
12.2517
  0
LINE
  8
0
 10
60.7
 20
12.2517
 11
60.9425
 21
12.3752
  0
LINE
  8
0
 10
60.9425
 20
12.3752
 11
61.1965
 21
12.4727
  0
LINE
  8
0
 10
61.1965
 20
12.4727
 11
61.4594
 21
12.5432
  0
LINE
  8
0
 10
61.4594
 20
12.5432
 11
61.7282
 21
12.5858
  0
LINE
  8
0
 10
61.7282
 20
12.5858
 11
62
 21
12.6
  0
LINE
  8
0
 10
62
 20
12.6
 11
62.2718
 21
12.5858
  0
LINE
  8
0
 10
62.2718
 20
12.5858
 11
62.5406
 21
12.5432
  0
LINE
  8
0
 10
62.5406
 20
12.5432
 11
62.8034
 21
12.4727
  0
LINE
  8
0
 10
62.8034
 20
12.4727
 11
63.0575
 21
12.3752
  0
LINE
  8
0
 10
63.0575
 20
12.3752
 11
63.3
 21
12.2517
  0
LINE
  8
0
 10
63.3
 20
12.2517
 11
63.5282
 21
12.1034
  0
LINE
  8
0
 10
63.5282
 20
12.1034
 11
63.7397
 21
11.9322
  0
LINE
  8
0
 10
63.7397
 20
11.9322
 11
63.9322
 21
11.7397
  0
LINE
  8
0
 10
63.9322
 20
11.7397
 11
64.1034
 21
11.5282
  0
LINE
  8
0
 10
64.1034
 20
11.5282
 11
64.2517
 21
11.3
  0
LINE
  8
0
 10
64.2517
 20
11.3
 11
64.3752
 21
11.0575
  0
LINE
  8
0
 10
64.3752
 20
11.0575
 11
64.4727
 21
10.8034
  0
LINE
  8
0
 10
64.4727
 20
10.8034
 11
64.5432
 21
10.5406
  0
LINE
  8
0
 10
64.5432
 20
10.5406
 11
64.5858
 21
10.2718
  0
LINE
  8
0
 10
64.5858
 20
10.2718
 11
64.6
 21
10
  0
LINE
  8
0
 10
64.6
 20
10
 11
64.5858
 21
9.72823
  0
LINE
  8
0
 10
64.5858
 20
9.72823
 11
64.5432
 21
9.45943
  0
LINE
  8
0
 10
64.5432
 20
9.45943
 11
64.4727
 21
9.19655
  0
LINE
  8
0
 10
64.4727
 20
9.19655
 11
64.3752
 21
8.94247
  0
LINE
  8
0
 10
64.3752
 20
8.94247
 11
64.2517
 21
8.7
  0
LINE
  8
0
 10
64.2517
 20
8.7
 11
64.1034
 21
8.47176
  0
LINE
  8
0
 10
64.1034
 20
8.47176
 11
63.9322
 21
8.26025
  0
LINE
  8
0
 10
63.9322
 20
8.26025
 11
63.7397
 21
8.06781
  0
LINE
  8
0
 10
63.7397
 20
8.06781
 11
63.5282
 21
7.89655
  0
LINE
  8
0
 10
63.5282
 20
7.89655
 11
63.3
 21
7.74832
  0
LINE
  8
0
 10
63.3
 20
7.74832
 11
63.0575
 21
7.62477
  0
LINE
  8
0
 10
63.0575
 20
7.62477
 11
62.8034
 21
7.52725
  0
LINE
  8
0
 10
62.8034
 20
7.52725
 11
62.5406
 21
7.4568
  0
LINE
  8
0
 10
62.5406
 20
7.4568
 11
62.2718
 21
7.41423
  0
LINE
  8
0
 10
62.2718
 20
7.41423
 11
62
 21
7.39999
  0
LINE
  8
0
 10
62
 20
7.39999
 11
61.7282
 21
7.41423
  0
LINE
  8
0
 10
-62.2718
 20
7.41423
 11
-62.5406
 21
7.4568
  0
LINE
  8
0
 10
-62.5406
 20
7.4568
 11
-62.8034
 21
7.52725
  0
LINE
  8
0
 10
-62.8034
 20
7.52725
 11
-63.0575
 21
7.62477
  0
LINE
  8
0
 10
-63.0575
 20
7.62477
 11
-63.3
 21
7.74832
  0
LINE
  8
0
 10
-63.3
 20
7.74832
 11
-63.5282
 21
7.89655
  0
LINE
  8
0
 10
-63.5282
 20
7.89655
 11
-63.7397
 21
8.06781
  0
LINE
  8
0
 10
-63.7397
 20
8.06781
 11
-63.9322
 21
8.26025
  0
LINE
  8
0
 10
-63.9322
 20
8.26025
 11
-64.1034
 21
8.47176
  0
LINE
  8
0
 10
-64.1034
 20
8.47176
 11
-64.2517
 21
8.7
  0
LINE
  8
0
 10
-64.2517
 20
8.7
 11
-64.3752
 21
8.94247
  0
LINE
  8
0
 10
-64.3752
 20
8.94247
 11
-64.4727
 21
9.19655
  0
LINE
  8
0
 10
-64.4727
 20
9.19655
 11
-64.5432
 21
9.45943
  0
LINE
  8
0
 10
-64.5432
 20
9.45943
 11
-64.5858
 21
9.72823
  0
LINE
  8
0
 10
-64.5858
 20
9.72823
 11
-64.6
 21
10
  0
LINE
  8
0
 10
-64.6
 20
10
 11
-64.5858
 21
10.2718
  0
LINE
  8
0
 10
-64.5858
 20
10.2718
 11
-64.5432
 21
10.5406
  0
LINE
  8
0
 10
-64.5432
 20
10.5406
 11
-64.4727
 21
10.8034
  0
LINE
  8
0
 10
-64.4727
 20
10.8034
 11
-64.3752
 21
11.0575
  0
LINE
  8
0
 10
-64.3752
 20
11.0575
 11
-64.2517
 21
11.3
  0
LINE
  8
0
 10
-64.2517
 20
11.3
 11
-64.1034
 21
11.5282
  0
LINE
  8
0
 10
-64.1034
 20
11.5282
 11
-63.9322
 21
11.7397
  0
LINE
  8
0
 10
-63.9322
 20
11.7397
 11
-63.7397
 21
11.9322
  0
LINE
  8
0
 10
-63.7397
 20
11.9322
 11
-63.5282
 21
12.1034
  0
LINE
  8
0
 10
-63.5282
 20
12.1034
 11
-63.3
 21
12.2517
  0
LINE
  8
0
 10
-63.3
 20
12.2517
 11
-63.0575
 21
12.3752
  0
LINE
  8
0
 10
-63.0575
 20
12.3752
 11
-62.8034
 21
12.4727
  0
LINE
  8
0
 10
-62.8034
 20
12.4727
 11
-62.5406
 21
12.5432
  0
LINE
  8
0
 10
-62.5406
 20
12.5432
 11
-62.2718
 21
12.5858
  0
LINE
  8
0
 10
-62.2718
 20
12.5858
 11
-62
 21
12.6
  0
LINE
  8
0
 10
-62
 20
12.6
 11
-61.7282
 21
12.5858
  0
LINE
  8
0
 10
-61.7282
 20
12.5858
 11
-61.4594
 21
12.5432
  0
LINE
  8
0
 10
-61.4594
 20
12.5432
 11
-61.1965
 21
12.4727
  0
LINE
  8
0
 10
-61.1965
 20
12.4727
 11
-60.9425
 21
12.3752
  0
LINE
  8
0
 10
-60.9425
 20
12.3752
 11
-60.7
 21
12.2517
  0
LINE
  8
0
 10
-60.7
 20
12.2517
 11
-60.4718
 21
12.1034
  0
LINE
  8
0
 10
-60.4718
 20
12.1034
 11
-60.2603
 21
11.9322
  0
LINE
  8
0
 10
-60.2603
 20
11.9322
 11
-60.0678
 21
11.7397
  0
LINE
  8
0
 10
-60.0678
 20
11.7397
 11
-59.8965
 21
11.5282
  0
LINE
  8
0
 10
-59.8965
 20
11.5282
 11
-59.7483
 21
11.3
  0
LINE
  8
0
 10
-59.7483
 20
11.3
 11
-59.6248
 21
11.0575
  0
LINE
  8
0
 10
-59.6248
 20
11.0575
 11
-59.5273
 21
10.8034
  0
LINE
  8
0
 10
-59.5273
 20
10.8034
 11
-59.4568
 21
10.5406
  0
LINE
  8
0
 10
-59.4568
 20
10.5406
 11
-59.4142
 21
10.2718
  0
LINE
  8
0
 10
-59.4142
 20
10.2718
 11
-59.4
 21
10
  0
LINE
  8
0
 10
-59.4
 20
10
 11
-59.4142
 21
9.72823
  0
LINE
  8
0
 10
-59.4142
 20
9.72823
 11
-59.4568
 21
9.45943
  0
LINE
  8
0
 10
-59.4568
 20
9.45943
 11
-59.5273
 21
9.19655
  0
LINE
  8
0
 10
-59.5273
 20
9.19655
 11
-59.6248
 21
8.94247
  0
LINE
  8
0
 10
-59.6248
 20
8.94247
 11
-59.7483
 21
8.7
  0
LINE
  8
0
 10
-59.7483
 20
8.7
 11
-59.8965
 21
8.47176
  0
LINE
  8
0
 10
-59.8965
 20
8.47176
 11
-60.0678
 21
8.26025
  0
LINE
  8
0
 10
-60.0678
 20
8.26025
 11
-60.2603
 21
8.06781
  0
LINE
  8
0
 10
-60.2603
 20
8.06781
 11
-60.4718
 21
7.89655
  0
LINE
  8
0
 10
-60.4718
 20
7.89655
 11
-60.7
 21
7.74832
  0
LINE
  8
0
 10
-60.7
 20
7.74832
 11
-60.9425
 21
7.62477
  0
LINE
  8
0
 10
-60.9425
 20
7.62477
 11
-61.1965
 21
7.52725
  0
LINE
  8
0
 10
-61.1965
 20
7.52725
 11
-61.4594
 21
7.4568
  0
LINE
  8
0
 10
-61.4594
 20
7.4568
 11
-61.7282
 21
7.41423
  0
LINE
  8
0
 10
-61.7282
 20
7.41423
 11
-62
 21
7.39999
  0
LINE
  8
0
 10
-62
 20
7.39999
 11
-62.2718
 21
7.41423
  0
LINE
  8
0
 10
-32.2021
 20
-11.437
 11
-33.391
 21
-11.2487
  0
LINE
  8
0
 10
-33.391
 20
-11.2487
 11
-34.5537
 21
-10.9371
  0
LINE
  8
0
 10
-34.5537
 20
-10.9371
 11
-35.6775
 21
-10.5058
  0
LINE
  8
0
 10
-35.6775
 20
-10.5058
 11
-36.75
 21
-9.95929
  0
LINE
  8
0
 10
-36.75
 20
-9.95929
 11
-37.7595
 21
-9.30368
  0
LINE
  8
0
 10
-37.7595
 20
-9.30368
 11
-38.695
 21
-8.54616
  0
LINE
  8
0
 10
-38.695
 20
-8.54616
 11
-39.5462
 21
-7.69499
  0
LINE
  8
0
 10
-39.5462
 20
-7.69499
 11
-40.3037
 21
-6.75952
  0
LINE
  8
0
 10
-40.3037
 20
-6.75952
 11
-40.9593
 21
-5.75
  0
LINE
  8
0
 10
-40.9593
 20
-5.75
 11
-41.5058
 21
-4.67746
  0
LINE
  8
0
 10
-41.5058
 20
-4.67746
 11
-41.9371
 21
-3.55368
  0
LINE
  8
0
 10
-41.9371
 20
-3.55368
 11
-42.2487
 21
-2.39098
  0
LINE
  8
0
 10
-42.2487
 20
-2.39098
 11
-42.437
 21
-1.20207
  0
LINE
  8
0
 10
-42.437
 20
-1.20207
 11
-42.5
 21
0
  0
LINE
  8
0
 10
-42.5
 20
0
 11
-42.437
 21
1.20207
  0
LINE
  8
0
 10
-42.437
 20
1.20207
 11
-42.2487
 21
2.39098
  0
LINE
  8
0
 10
-42.2487
 20
2.39098
 11
-41.9371
 21
3.55368
  0
LINE
  8
0
 10
-41.9371
 20
3.55368
 11
-41.5058
 21
4.67746
  0
LINE
  8
0
 10
-41.5058
 20
4.67746
 11
-40.9593
 21
5.75
  0
LINE
  8
0
 10
-40.9593
 20
5.75
 11
-40.3037
 21
6.75952
  0
LINE
  8
0
 10
-40.3037
 20
6.75952
 11
-39.5462
 21
7.69499
  0
LINE
  8
0
 10
-39.5462
 20
7.69499
 11
-38.695
 21
8.54616
  0
LINE
  8
0
 10
-38.695
 20
8.54616
 11
-37.7595
 21
9.30368
  0
LINE
  8
0
 10
-37.7595
 20
9.30368
 11
-36.75
 21
9.95929
  0
LINE
  8
0
 10
-36.75
 20
9.95929
 11
-35.6775
 21
10.5058
  0
LINE
  8
0
 10
-35.6775
 20
10.5058
 11
-34.5537
 21
10.9371
  0
LINE
  8
0
 10
-34.5537
 20
10.9371
 11
-33.391
 21
11.2487
  0
LINE
  8
0
 10
-33.391
 20
11.2487
 11
-32.2021
 21
11.437
  0
LINE
  8
0
 10
-32.2021
 20
11.437
 11
-31
 21
11.5
  0
LINE
  8
0
 10
-31
 20
11.5
 11
-29.7979
 21
11.437
  0
LINE
  8
0
 10
-29.7979
 20
11.437
 11
-28.609
 21
11.2487
  0
LINE
  8
0
 10
-28.609
 20
11.2487
 11
-27.4463
 21
10.9371
  0
LINE
  8
0
 10
-27.4463
 20
10.9371
 11
-26.3225
 21
10.5058
  0
LINE
  8
0
 10
-26.3225
 20
10.5058
 11
-25.25
 21
9.95929
  0
LINE
  8
0
 10
-25.25
 20
9.95929
 11
-24.2405
 21
9.30368
  0
LINE
  8
0
 10
-24.2405
 20
9.30368
 11
-23.305
 21
8.54616
  0
LINE
  8
0
 10
-23.305
 20
8.54616
 11
-22.4538
 21
7.69499
  0
LINE
  8
0
 10
-22.4538
 20
7.69499
 11
-21.6963
 21
6.75952
  0
LINE
  8
0
 10
-21.6963
 20
6.75952
 11
-21.0407
 21
5.75
  0
LINE
  8
0
 10
-21.0407
 20
5.75
 11
-20.4942
 21
4.67746
  0
LINE
  8
0
 10
-20.4942
 20
4.67746
 11
-20.0629
 21
3.55368
  0
LINE
  8
0
 10
-20.0629
 20
3.55368
 11
-19.7513
 21
2.39098
  0
LINE
  8
0
 10
-19.7513
 20
2.39098
 11
-19.563
 21
1.20207
  0
LINE
  8
0
 10
-19.563
 20
1.20207
 11
-19.5
 21
0
  0
LINE
  8
0
 10
-19.5
 20
0
 11
-19.563
 21
-1.20207
  0
LINE
  8
0
 10
-19.563
 20
-1.20207
 11
-19.7513
 21
-2.39098
  0
LINE
  8
0
 10
-19.7513
 20
-2.39098
 11
-20.0629
 21
-3.55368
  0
LINE
  8
0
 10
-20.0629
 20
-3.55368
 11
-20.4942
 21
-4.67746
  0
LINE
  8
0
 10
-20.4942
 20
-4.67746
 11
-21.0407
 21
-5.75
  0
LINE
  8
0
 10
-21.0407
 20
-5.75
 11
-21.6963
 21
-6.75952
  0
LINE
  8
0
 10
-21.6963
 20
-6.75952
 11
-22.4538
 21
-7.69499
  0
LINE
  8
0
 10
-22.4538
 20
-7.69499
 11
-23.305
 21
-8.54616
  0
LINE
  8
0
 10
-23.305
 20
-8.54616
 11
-24.2405
 21
-9.30368
  0
LINE
  8
0
 10
-24.2405
 20
-9.30368
 11
-25.25
 21
-9.95929
  0
LINE
  8
0
 10
-25.25
 20
-9.95929
 11
-26.3225
 21
-10.5058
  0
LINE
  8
0
 10
-26.3225
 20
-10.5058
 11
-27.4463
 21
-10.9371
  0
LINE
  8
0
 10
-27.4463
 20
-10.9371
 11
-28.609
 21
-11.2487
  0
LINE
  8
0
 10
-28.609
 20
-11.2487
 11
-29.7979
 21
-11.437
  0
LINE
  8
0
 10
-29.7979
 20
-11.437
 11
-31
 21
-11.5
  0
LINE
  8
0
 10
-31
 20
-11.5
 11
-32.2021
 21
-11.437
  0
LINE
  8
0
 10
29.7979
 20
-11.437
 11
28.609
 21
-11.2487
  0
LINE
  8
0
 10
28.609
 20
-11.2487
 11
27.4463
 21
-10.9371
  0
LINE
  8
0
 10
27.4463
 20
-10.9371
 11
26.3225
 21
-10.5058
  0
LINE
  8
0
 10
26.3225
 20
-10.5058
 11
25.25
 21
-9.95929
  0
LINE
  8
0
 10
25.25
 20
-9.95929
 11
24.2405
 21
-9.30368
  0
LINE
  8
0
 10
24.2405
 20
-9.30368
 11
23.305
 21
-8.54616
  0
LINE
  8
0
 10
23.305
 20
-8.54616
 11
22.4538
 21
-7.69499
  0
LINE
  8
0
 10
22.4538
 20
-7.69499
 11
21.6963
 21
-6.75952
  0
LINE
  8
0
 10
21.6963
 20
-6.75952
 11
21.0407
 21
-5.75
  0
LINE
  8
0
 10
21.0407
 20
-5.75
 11
20.4942
 21
-4.67746
  0
LINE
  8
0
 10
20.4942
 20
-4.67746
 11
20.0629
 21
-3.55368
  0
LINE
  8
0
 10
20.0629
 20
-3.55368
 11
19.7513
 21
-2.39098
  0
LINE
  8
0
 10
19.7513
 20
-2.39098
 11
19.563
 21
-1.20207
  0
LINE
  8
0
 10
19.563
 20
-1.20207
 11
19.5
 21
0
  0
LINE
  8
0
 10
19.5
 20
0
 11
19.563
 21
1.20207
  0
LINE
  8
0
 10
19.563
 20
1.20207
 11
19.7513
 21
2.39098
  0
LINE
  8
0
 10
19.7513
 20
2.39098
 11
20.0629
 21
3.55368
  0
LINE
  8
0
 10
20.0629
 20
3.55368
 11
20.4942
 21
4.67746
  0
LINE
  8
0
 10
20.4942
 20
4.67746
 11
21.0407
 21
5.75
  0
LINE
  8
0
 10
21.0407
 20
5.75
 11
21.6963
 21
6.75952
  0
LINE
  8
0
 10
21.6963
 20
6.75952
 11
22.4538
 21
7.69499
  0
LINE
  8
0
 10
22.4538
 20
7.69499
 11
23.305
 21
8.54616
  0
LINE
  8
0
 10
23.305
 20
8.54616
 11
24.2405
 21
9.30368
  0
LINE
  8
0
 10
24.2405
 20
9.30368
 11
25.25
 21
9.95929
  0
LINE
  8
0
 10
25.25
 20
9.95929
 11
26.3225
 21
10.5058
  0
LINE
  8
0
 10
26.3225
 20
10.5058
 11
27.4463
 21
10.9371
  0
LINE
  8
0
 10
27.4463
 20
10.9371
 11
28.609
 21
11.2487
  0
LINE
  8
0
 10
28.609
 20
11.2487
 11
29.7979
 21
11.437
  0
LINE
  8
0
 10
29.7979
 20
11.437
 11
31
 21
11.5
  0
LINE
  8
0
 10
31
 20
11.5
 11
32.2021
 21
11.437
  0
LINE
  8
0
 10
32.2021
 20
11.437
 11
33.391
 21
11.2487
  0
LINE
  8
0
 10
33.391
 20
11.2487
 11
34.5537
 21
10.9371
  0
LINE
  8
0
 10
34.5537
 20
10.9371
 11
35.6775
 21
10.5058
  0
LINE
  8
0
 10
35.6775
 20
10.5058
 11
36.75
 21
9.95929
  0
LINE
  8
0
 10
36.75
 20
9.95929
 11
37.7595
 21
9.30368
  0
LINE
  8
0
 10
37.7595
 20
9.30368
 11
38.695
 21
8.54616
  0
LINE
  8
0
 10
38.695
 20
8.54616
 11
39.5462
 21
7.69499
  0
LINE
  8
0
 10
39.5462
 20
7.69499
 11
40.3037
 21
6.75952
  0
LINE
  8
0
 10
40.3037
 20
6.75952
 11
40.9593
 21
5.75
  0
LINE
  8
0
 10
40.9593
 20
5.75
 11
41.5058
 21
4.67746
  0
LINE
  8
0
 10
41.5058
 20
4.67746
 11
41.9371
 21
3.55368
  0
LINE
  8
0
 10
41.9371
 20
3.55368
 11
42.2487
 21
2.39098
  0
LINE
  8
0
 10
42.2487
 20
2.39098
 11
42.437
 21
1.20207
  0
LINE
  8
0
 10
42.437
 20
1.20207
 11
42.5
 21
0
  0
LINE
  8
0
 10
42.5
 20
0
 11
42.437
 21
-1.20207
  0
LINE
  8
0
 10
42.437
 20
-1.20207
 11
42.2487
 21
-2.39098
  0
LINE
  8
0
 10
42.2487
 20
-2.39098
 11
41.9371
 21
-3.55368
  0
LINE
  8
0
 10
41.9371
 20
-3.55368
 11
41.5058
 21
-4.67746
  0
LINE
  8
0
 10
41.5058
 20
-4.67746
 11
40.9593
 21
-5.75
  0
LINE
  8
0
 10
40.9593
 20
-5.75
 11
40.3037
 21
-6.75952
  0
LINE
  8
0
 10
40.3037
 20
-6.75952
 11
39.5462
 21
-7.69499
  0
LINE
  8
0
 10
39.5462
 20
-7.69499
 11
38.695
 21
-8.54616
  0
LINE
  8
0
 10
38.695
 20
-8.54616
 11
37.7595
 21
-9.30368
  0
LINE
  8
0
 10
37.7595
 20
-9.30368
 11
36.75
 21
-9.95929
  0
LINE
  8
0
 10
36.75
 20
-9.95929
 11
35.6775
 21
-10.5058
  0
LINE
  8
0
 10
35.6775
 20
-10.5058
 11
34.5537
 21
-10.9371
  0
LINE
  8
0
 10
34.5537
 20
-10.9371
 11
33.391
 21
-11.2487
  0
LINE
  8
0
 10
33.391
 20
-11.2487
 11
32.2021
 21
-11.437
  0
LINE
  8
0
 10
32.2021
 20
-11.437
 11
31
 21
-11.5
  0
LINE
  8
0
 10
31
 20
-11.5
 11
29.7979
 21
-11.437
  0
LINE
  8
0
 10
-0.271759
 20
-14.0858
 11
-0.540558
 21
-14.0432
  0
LINE
  8
0
 10
-0.540558
 20
-14.0432
 11
-0.803436
 21
-13.9727
  0
LINE
  8
0
 10
-0.803436
 20
-13.9727
 11
-1.05751
 21
-13.8752
  0
LINE
  8
0
 10
-1.05751
 20
-13.8752
 11
-1.29999
 21
-13.7517
  0
LINE
  8
0
 10
-1.29999
 20
-13.7517
 11
-1.52823
 21
-13.6034
  0
LINE
  8
0
 10
-1.52823
 20
-13.6034
 11
-1.73973
 21
-13.4322
  0
LINE
  8
0
 10
-1.73973
 20
-13.4322
 11
-1.93217
 21
-13.2397
  0
LINE
  8
0
 10
-1.93217
 20
-13.2397
 11
-2.10344
 21
-13.0282
  0
LINE
  8
0
 10
-2.10344
 20
-13.0282
 11
-2.25166
 21
-12.8
  0
LINE
  8
0
 10
-2.25166
 20
-12.8
 11
-2.37521
 21
-12.5575
  0
LINE
  8
0
 10
-2.37521
 20
-12.5575
 11
-2.47273
 21
-12.3034
  0
LINE
  8
0
 10
-2.47273
 20
-12.3034
 11
-2.54318
 21
-12.0406
  0
LINE
  8
0
 10
-2.54318
 20
-12.0406
 11
-2.58575
 21
-11.7718
  0
LINE
  8
0
 10
-2.58575
 20
-11.7718
 11
-2.59999
 21
-11.5
  0
LINE
  8
0
 10
-2.59999
 20
-11.5
 11
-2.58575
 21
-11.2282
  0
LINE
  8
0
 10
-2.58575
 20
-11.2282
 11
-2.54318
 21
-10.9594
  0
LINE
  8
0
 10
-2.54318
 20
-10.9594
 11
-2.47273
 21
-10.6966
  0
LINE
  8
0
 10
-2.47273
 20
-10.6966
 11
-2.37521
 21
-10.4425
  0
LINE
  8
0
 10
-2.37521
 20
-10.4425
 11
-2.25166
 21
-10.2
  0
LINE
  8
0
 10
-2.25166
 20
-10.2
 11
-2.10344
 21
-9.97177
  0
LINE
  8
0
 10
-2.10344
 20
-9.97177
 11
-1.93217
 21
-9.76027
  0
LINE
  8
0
 10
-1.93217
 20
-9.76027
 11
-1.73973
 21
-9.56783
  0
LINE
  8
0
 10
-1.73973
 20
-9.56783
 11
-1.52823
 21
-9.39656
  0
LINE
  8
0
 10
-1.52823
 20
-9.39656
 11
-1.29999
 21
-9.24834
  0
LINE
  8
0
 10
-1.29999
 20
-9.24834
 11
-1.05751
 21
-9.12479
  0
LINE
  8
0
 10
-1.05751
 20
-9.12479
 11
-0.803436
 21
-9.02727
  0
LINE
  8
0
 10
-0.803436
 20
-9.02727
 11
-0.540558
 21
-8.95682
  0
LINE
  8
0
 10
-0.540558
 20
-8.95682
 11
-0.271759
 21
-8.91425
  0
LINE
  8
0
 10
-0.271759
 20
-8.91425
 11
0
 21
-8.90001
  0
LINE
  8
0
 10
0
 20
-8.90001
 11
0.271759
 21
-8.91425
  0
LINE
  8
0
 10
0.271759
 20
-8.91425
 11
0.540558
 21
-8.95682
  0
LINE
  8
0
 10
0.540558
 20
-8.95682
 11
0.803436
 21
-9.02727
  0
LINE
  8
0
 10
0.803436
 20
-9.02727
 11
1.05751
 21
-9.12479
  0
LINE
  8
0
 10
1.05751
 20
-9.12479
 11
1.29999
 21
-9.24834
  0
LINE
  8
0
 10
1.29999
 20
-9.24834
 11
1.52823
 21
-9.39656
  0
LINE
  8
0
 10
1.52823
 20
-9.39656
 11
1.73973
 21
-9.56783
  0
LINE
  8
0
 10
1.73973
 20
-9.56783
 11
1.93217
 21
-9.76027
  0
LINE
  8
0
 10
1.93217
 20
-9.76027
 11
2.10344
 21
-9.97177
  0
LINE
  8
0
 10
2.10344
 20
-9.97177
 11
2.25166
 21
-10.2
  0
LINE
  8
0
 10
2.25166
 20
-10.2
 11
2.37521
 21
-10.4425
  0
LINE
  8
0
 10
2.37521
 20
-10.4425
 11
2.47273
 21
-10.6966
  0
LINE
  8
0
 10
2.47273
 20
-10.6966
 11
2.54318
 21
-10.9594
  0
LINE
  8
0
 10
2.54318
 20
-10.9594
 11
2.58575
 21
-11.2282
  0
LINE
  8
0
 10
2.58575
 20
-11.2282
 11
2.59999
 21
-11.5
  0
LINE
  8
0
 10
2.59999
 20
-11.5
 11
2.58575
 21
-11.7718
  0
LINE
  8
0
 10
2.58575
 20
-11.7718
 11
2.54318
 21
-12.0406
  0
LINE
  8
0
 10
2.54318
 20
-12.0406
 11
2.47273
 21
-12.3034
  0
LINE
  8
0
 10
2.47273
 20
-12.3034
 11
2.37521
 21
-12.5575
  0
LINE
  8
0
 10
2.37521
 20
-12.5575
 11
2.25166
 21
-12.8
  0
LINE
  8
0
 10
2.25166
 20
-12.8
 11
2.10344
 21
-13.0282
  0
LINE
  8
0
 10
2.10344
 20
-13.0282
 11
1.93217
 21
-13.2397
  0
LINE
  8
0
 10
1.93217
 20
-13.2397
 11
1.73973
 21
-13.4322
  0
LINE
  8
0
 10
1.73973
 20
-13.4322
 11
1.52823
 21
-13.6034
  0
LINE
  8
0
 10
1.52823
 20
-13.6034
 11
1.29999
 21
-13.7517
  0
LINE
  8
0
 10
1.29999
 20
-13.7517
 11
1.05751
 21
-13.8752
  0
LINE
  8
0
 10
1.05751
 20
-13.8752
 11
0.803436
 21
-13.9727
  0
LINE
  8
0
 10
0.803436
 20
-13.9727
 11
0.540558
 21
-14.0432
  0
LINE
  8
0
 10
0.540558
 20
-14.0432
 11
0.271759
 21
-14.0858
  0
LINE
  8
0
 10
0.271759
 20
-14.0858
 11
0
 21
-14.1
  0
LINE
  8
0
 10
0
 20
-14.1
 11
-0.271759
 21
-14.0858
  0
LINE
  8
0
 10
-62.2718
 20
-14.0858
 11
-62.5406
 21
-14.0432
  0
LINE
  8
0
 10
-62.5406
 20
-14.0432
 11
-62.8034
 21
-13.9727
  0
LINE
  8
0
 10
-62.8034
 20
-13.9727
 11
-63.0575
 21
-13.8752
  0
LINE
  8
0
 10
-63.0575
 20
-13.8752
 11
-63.3
 21
-13.7517
  0
LINE
  8
0
 10
-63.3
 20
-13.7517
 11
-63.5282
 21
-13.6034
  0
LINE
  8
0
 10
-63.5282
 20
-13.6034
 11
-63.7397
 21
-13.4322
  0
LINE
  8
0
 10
-63.7397
 20
-13.4322
 11
-63.9322
 21
-13.2397
  0
LINE
  8
0
 10
-63.9322
 20
-13.2397
 11
-64.1034
 21
-13.0282
  0
LINE
  8
0
 10
-64.1034
 20
-13.0282
 11
-64.2517
 21
-12.8
  0
LINE
  8
0
 10
-64.2517
 20
-12.8
 11
-64.3752
 21
-12.5575
  0
LINE
  8
0
 10
-64.3752
 20
-12.5575
 11
-64.4727
 21
-12.3034
  0
LINE
  8
0
 10
-64.4727
 20
-12.3034
 11
-64.5432
 21
-12.0406
  0
LINE
  8
0
 10
-64.5432
 20
-12.0406
 11
-64.5858
 21
-11.7718
  0
LINE
  8
0
 10
-64.5858
 20
-11.7718
 11
-64.6
 21
-11.5
  0
LINE
  8
0
 10
-64.6
 20
-11.5
 11
-64.5858
 21
-11.2282
  0
LINE
  8
0
 10
-64.5858
 20
-11.2282
 11
-64.5432
 21
-10.9594
  0
LINE
  8
0
 10
-64.5432
 20
-10.9594
 11
-64.4727
 21
-10.6966
  0
LINE
  8
0
 10
-64.4727
 20
-10.6966
 11
-64.3752
 21
-10.4425
  0
LINE
  8
0
 10
-64.3752
 20
-10.4425
 11
-64.2517
 21
-10.2
  0
LINE
  8
0
 10
-64.2517
 20
-10.2
 11
-64.1034
 21
-9.97177
  0
LINE
  8
0
 10
-64.1034
 20
-9.97177
 11
-63.9322
 21
-9.76027
  0
LINE
  8
0
 10
-63.9322
 20
-9.76027
 11
-63.7397
 21
-9.56783
  0
LINE
  8
0
 10
-63.7397
 20
-9.56783
 11
-63.5282
 21
-9.39656
  0
LINE
  8
0
 10
-63.5282
 20
-9.39656
 11
-63.3
 21
-9.24834
  0
LINE
  8
0
 10
-63.3
 20
-9.24834
 11
-63.0575
 21
-9.12479
  0
LINE
  8
0
 10
-63.0575
 20
-9.12479
 11
-62.8034
 21
-9.02727
  0
LINE
  8
0
 10
-62.8034
 20
-9.02727
 11
-62.5406
 21
-8.95682
  0
LINE
  8
0
 10
-62.5406
 20
-8.95682
 11
-62.2718
 21
-8.91425
  0
LINE
  8
0
 10
-62.2718
 20
-8.91425
 11
-62
 21
-8.90001
  0
LINE
  8
0
 10
-62
 20
-8.90001
 11
-61.7282
 21
-8.91425
  0
LINE
  8
0
 10
-61.7282
 20
-8.91425
 11
-61.4594
 21
-8.95682
  0
LINE
  8
0
 10
-61.4594
 20
-8.95682
 11
-61.1965
 21
-9.02727
  0
LINE
  8
0
 10
-61.1965
 20
-9.02727
 11
-60.9425
 21
-9.12479
  0
LINE
  8
0
 10
-60.9425
 20
-9.12479
 11
-60.7
 21
-9.24834
  0
LINE
  8
0
 10
-60.7
 20
-9.24834
 11
-60.4718
 21
-9.39656
  0
LINE
  8
0
 10
-60.4718
 20
-9.39656
 11
-60.2603
 21
-9.56783
  0
LINE
  8
0
 10
-60.2603
 20
-9.56783
 11
-60.0678
 21
-9.76027
  0
LINE
  8
0
 10
-60.0678
 20
-9.76027
 11
-59.8965
 21
-9.97177
  0
LINE
  8
0
 10
-59.8965
 20
-9.97177
 11
-59.7483
 21
-10.2
  0
LINE
  8
0
 10
-59.7483
 20
-10.2
 11
-59.6248
 21
-10.4425
  0
LINE
  8
0
 10
-59.6248
 20
-10.4425
 11
-59.5273
 21
-10.6966
  0
LINE
  8
0
 10
-59.5273
 20
-10.6966
 11
-59.4568
 21
-10.9594
  0
LINE
  8
0
 10
-59.4568
 20
-10.9594
 11
-59.4142
 21
-11.2282
  0
LINE
  8
0
 10
-59.4142
 20
-11.2282
 11
-59.4
 21
-11.5
  0
LINE
  8
0
 10
-59.4
 20
-11.5
 11
-59.4142
 21
-11.7718
  0
LINE
  8
0
 10
-59.4142
 20
-11.7718
 11
-59.4568
 21
-12.0406
  0
LINE
  8
0
 10
-59.4568
 20
-12.0406
 11
-59.5273
 21
-12.3034
  0
LINE
  8
0
 10
-59.5273
 20
-12.3034
 11
-59.6248
 21
-12.5575
  0
LINE
  8
0
 10
-59.6248
 20
-12.5575
 11
-59.7483
 21
-12.8
  0
LINE
  8
0
 10
-59.7483
 20
-12.8
 11
-59.8965
 21
-13.0282
  0
LINE
  8
0
 10
-59.8965
 20
-13.0282
 11
-60.0678
 21
-13.2397
  0
LINE
  8
0
 10
-60.0678
 20
-13.2397
 11
-60.2603
 21
-13.4322
  0
LINE
  8
0
 10
-60.2603
 20
-13.4322
 11
-60.4718
 21
-13.6034
  0
LINE
  8
0
 10
-60.4718
 20
-13.6034
 11
-60.7
 21
-13.7517
  0
LINE
  8
0
 10
-60.7
 20
-13.7517
 11
-60.9425
 21
-13.8752
  0
LINE
  8
0
 10
-60.9425
 20
-13.8752
 11
-61.1965
 21
-13.9727
  0
LINE
  8
0
 10
-61.1965
 20
-13.9727
 11
-61.4594
 21
-14.0432
  0
LINE
  8
0
 10
-61.4594
 20
-14.0432
 11
-61.7282
 21
-14.0858
  0
LINE
  8
0
 10
-61.7282
 20
-14.0858
 11
-62
 21
-14.1
  0
LINE
  8
0
 10
-62
 20
-14.1
 11
-62.2718
 21
-14.0858
  0
LINE
  8
0
 10
61.7282
 20
-14.0858
 11
61.4594
 21
-14.0432
  0
LINE
  8
0
 10
61.4594
 20
-14.0432
 11
61.1965
 21
-13.9727
  0
LINE
  8
0
 10
61.1965
 20
-13.9727
 11
60.9425
 21
-13.8752
  0
LINE
  8
0
 10
60.9425
 20
-13.8752
 11
60.7
 21
-13.7517
  0
LINE
  8
0
 10
60.7
 20
-13.7517
 11
60.4718
 21
-13.6034
  0
LINE
  8
0
 10
60.4718
 20
-13.6034
 11
60.2603
 21
-13.4322
  0
LINE
  8
0
 10
60.2603
 20
-13.4322
 11
60.0678
 21
-13.2397
  0
LINE
  8
0
 10
60.0678
 20
-13.2397
 11
59.8965
 21
-13.0282
  0
LINE
  8
0
 10
59.8965
 20
-13.0282
 11
59.7483
 21
-12.8
  0
LINE
  8
0
 10
59.7483
 20
-12.8
 11
59.6248
 21
-12.5575
  0
LINE
  8
0
 10
59.6248
 20
-12.5575
 11
59.5273
 21
-12.3034
  0
LINE
  8
0
 10
59.5273
 20
-12.3034
 11
59.4568
 21
-12.0406
  0
LINE
  8
0
 10
59.4568
 20
-12.0406
 11
59.4142
 21
-11.7718
  0
LINE
  8
0
 10
59.4142
 20
-11.7718
 11
59.4
 21
-11.5
  0
LINE
  8
0
 10
59.4
 20
-11.5
 11
59.4142
 21
-11.2282
  0
LINE
  8
0
 10
59.4142
 20
-11.2282
 11
59.4568
 21
-10.9594
  0
LINE
  8
0
 10
59.4568
 20
-10.9594
 11
59.5273
 21
-10.6966
  0
LINE
  8
0
 10
59.5273
 20
-10.6966
 11
59.6248
 21
-10.4425
  0
LINE
  8
0
 10
59.6248
 20
-10.4425
 11
59.7483
 21
-10.2
  0
LINE
  8
0
 10
59.7483
 20
-10.2
 11
59.8965
 21
-9.97177
  0
LINE
  8
0
 10
59.8965
 20
-9.97177
 11
60.0678
 21
-9.76027
  0
LINE
  8
0
 10
60.0678
 20
-9.76027
 11
60.2603
 21
-9.56783
  0
LINE
  8
0
 10
60.2603
 20
-9.56783
 11
60.4718
 21
-9.39656
  0
LINE
  8
0
 10
60.4718
 20
-9.39656
 11
60.7
 21
-9.24834
  0
LINE
  8
0
 10
60.7
 20
-9.24834
 11
60.9425
 21
-9.12479
  0
LINE
  8
0
 10
60.9425
 20
-9.12479
 11
61.1965
 21
-9.02727
  0
LINE
  8
0
 10
61.1965
 20
-9.02727
 11
61.4594
 21
-8.95682
  0
LINE
  8
0
 10
61.4594
 20
-8.95682
 11
61.7282
 21
-8.91425
  0
LINE
  8
0
 10
61.7282
 20
-8.91425
 11
62
 21
-8.90001
  0
LINE
  8
0
 10
62
 20
-8.90001
 11
62.2718
 21
-8.91425
  0
LINE
  8
0
 10
62.2718
 20
-8.91425
 11
62.5406
 21
-8.95682
  0
LINE
  8
0
 10
62.5406
 20
-8.95682
 11
62.8034
 21
-9.02727
  0
LINE
  8
0
 10
62.8034
 20
-9.02727
 11
63.0575
 21
-9.12479
  0
LINE
  8
0
 10
63.0575
 20
-9.12479
 11
63.3
 21
-9.24834
  0
LINE
  8
0
 10
63.3
 20
-9.24834
 11
63.5282
 21
-9.39656
  0
LINE
  8
0
 10
63.5282
 20
-9.39656
 11
63.7397
 21
-9.56783
  0
LINE
  8
0
 10
63.7397
 20
-9.56783
 11
63.9322
 21
-9.76027
  0
LINE
  8
0
 10
63.9322
 20
-9.76027
 11
64.1034
 21
-9.97177
  0
LINE
  8
0
 10
64.1034
 20
-9.97177
 11
64.2517
 21
-10.2
  0
LINE
  8
0
 10
64.2517
 20
-10.2
 11
64.3752
 21
-10.4425
  0
LINE
  8
0
 10
64.3752
 20
-10.4425
 11
64.4727
 21
-10.6966
  0
LINE
  8
0
 10
64.4727
 20
-10.6966
 11
64.5432
 21
-10.9594
  0
LINE
  8
0
 10
64.5432
 20
-10.9594
 11
64.5858
 21
-11.2282
  0
LINE
  8
0
 10
64.5858
 20
-11.2282
 11
64.6
 21
-11.5
  0
LINE
  8
0
 10
64.6
 20
-11.5
 11
64.5858
 21
-11.7718
  0
LINE
  8
0
 10
64.5858
 20
-11.7718
 11
64.5432
 21
-12.0406
  0
LINE
  8
0
 10
64.5432
 20
-12.0406
 11
64.4727
 21
-12.3034
  0
LINE
  8
0
 10
64.4727
 20
-12.3034
 11
64.3752
 21
-12.5575
  0
LINE
  8
0
 10
64.3752
 20
-12.5575
 11
64.2517
 21
-12.8
  0
LINE
  8
0
 10
64.2517
 20
-12.8
 11
64.1034
 21
-13.0282
  0
LINE
  8
0
 10
64.1034
 20
-13.0282
 11
63.9322
 21
-13.2397
  0
LINE
  8
0
 10
63.9322
 20
-13.2397
 11
63.7397
 21
-13.4322
  0
LINE
  8
0
 10
63.7397
 20
-13.4322
 11
63.5282
 21
-13.6034
  0
LINE
  8
0
 10
63.5282
 20
-13.6034
 11
63.3
 21
-13.7517
  0
LINE
  8
0
 10
63.3
 20
-13.7517
 11
63.0575
 21
-13.8752
  0
LINE
  8
0
 10
63.0575
 20
-13.8752
 11
62.8034
 21
-13.9727
  0
LINE
  8
0
 10
62.8034
 20
-13.9727
 11
62.5406
 21
-14.0432
  0
LINE
  8
0
 10
62.5406
 20
-14.0432
 11
62.2718
 21
-14.0858
  0
LINE
  8
0
 10
62.2718
 20
-14.0858
 11
62
 21
-14.1
  0
LINE
  8
0
 10
62
 20
-14.1
 11
61.7282
 21
-14.0858
  0
LINE
  8
0
 10
-46.6672
 20
-17.0912
 11
-46.8327
 21
-17.065
  0
LINE
  8
0
 10
-46.8327
 20
-17.065
 11
-46.9944
 21
-17.0217
  0
LINE
  8
0
 10
-46.9944
 20
-17.0217
 11
-47.1508
 21
-16.9617
  0
LINE
  8
0
 10
-47.1508
 20
-16.9617
 11
-47.3
 21
-16.8856
  0
LINE
  8
0
 10
-47.3
 20
-16.8856
 11
-47.4404
 21
-16.7944
  0
LINE
  8
0
 10
-47.4404
 20
-16.7944
 11
-47.5706
 21
-16.689
  0
LINE
  8
0
 10
-47.5706
 20
-16.689
 11
-47.689
 21
-16.5706
  0
LINE
  8
0
 10
-47.689
 20
-16.5706
 11
-47.7944
 21
-16.4404
  0
LINE
  8
0
 10
-47.7944
 20
-16.4404
 11
-47.8856
 21
-16.3
  0
LINE
  8
0
 10
-47.8856
 20
-16.3
 11
-47.9617
 21
-16.1508
  0
LINE
  8
0
 10
-47.9617
 20
-16.1508
 11
-48.0217
 21
-15.9944
  0
LINE
  8
0
 10
-48.0217
 20
-15.9944
 11
-48.065
 21
-15.8327
  0
LINE
  8
0
 10
-48.065
 20
-15.8327
 11
-48.0912
 21
-15.6672
  0
LINE
  8
0
 10
-48.0912
 20
-15.6672
 11
-48.1
 21
-15.5
  0
LINE
  8
0
 10
-48.1
 20
-15.5
 11
-48.0912
 21
-15.3327
  0
LINE
  8
0
 10
-48.0912
 20
-15.3327
 11
-48.065
 21
-15.1673
  0
LINE
  8
0
 10
-48.065
 20
-15.1673
 11
-48.0217
 21
-15.0056
  0
LINE
  8
0
 10
-48.0217
 20
-15.0056
 11
-47.9617
 21
-14.8492
  0
LINE
  8
0
 10
-47.9617
 20
-14.8492
 11
-47.8856
 21
-14.7
  0
LINE
  8
0
 10
-47.8856
 20
-14.7
 11
-47.7944
 21
-14.5595
  0
LINE
  8
0
 10
-47.7944
 20
-14.5595
 11
-47.689
 21
-14.4294
  0
LINE
  8
0
 10
-47.689
 20
-14.4294
 11
-47.5706
 21
-14.311
  0
LINE
  8
0
 10
-47.5706
 20
-14.311
 11
-47.4404
 21
-14.2056
  0
LINE
  8
0
 10
-47.4404
 20
-14.2056
 11
-47.3
 21
-14.1143
  0
LINE
  8
0
 10
-47.3
 20
-14.1143
 11
-47.1508
 21
-14.0383
  0
LINE
  8
0
 10
-47.1508
 20
-14.0383
 11
-46.9944
 21
-13.9783
  0
LINE
  8
0
 10
-46.9944
 20
-13.9783
 11
-46.8327
 21
-13.935
  0
LINE
  8
0
 10
-46.8327
 20
-13.935
 11
-46.6672
 21
-13.9088
  0
LINE
  8
0
 10
-46.6672
 20
-13.9088
 11
-46.5
 21
-13.9
  0
LINE
  8
0
 10
-46.5
 20
-13.9
 11
-46.3327
 21
-13.9088
  0
LINE
  8
0
 10
-46.3327
 20
-13.9088
 11
-46.1673
 21
-13.935
  0
LINE
  8
0
 10
-46.1673
 20
-13.935
 11
-46.0056
 21
-13.9783
  0
LINE
  8
0
 10
-46.0056
 20
-13.9783
 11
-45.8492
 21
-14.0383
  0
LINE
  8
0
 10
-45.8492
 20
-14.0383
 11
-45.7
 21
-14.1143
  0
LINE
  8
0
 10
-45.7
 20
-14.1143
 11
-45.5595
 21
-14.2056
  0
LINE
  8
0
 10
-45.5595
 20
-14.2056
 11
-45.4294
 21
-14.311
  0
LINE
  8
0
 10
-45.4294
 20
-14.311
 11
-45.311
 21
-14.4294
  0
LINE
  8
0
 10
-45.311
 20
-14.4294
 11
-45.2056
 21
-14.5595
  0
LINE
  8
0
 10
-45.2056
 20
-14.5595
 11
-45.1143
 21
-14.7
  0
LINE
  8
0
 10
-45.1143
 20
-14.7
 11
-45.0383
 21
-14.8492
  0
LINE
  8
0
 10
-45.0383
 20
-14.8492
 11
-44.9783
 21
-15.0056
  0
LINE
  8
0
 10
-44.9783
 20
-15.0056
 11
-44.935
 21
-15.1673
  0
LINE
  8
0
 10
-44.935
 20
-15.1673
 11
-44.9088
 21
-15.3327
  0
LINE
  8
0
 10
-44.9088
 20
-15.3327
 11
-44.9
 21
-15.5
  0
LINE
  8
0
 10
-44.9
 20
-15.5
 11
-44.9088
 21
-15.6672
  0
LINE
  8
0
 10
-44.9088
 20
-15.6672
 11
-44.935
 21
-15.8327
  0
LINE
  8
0
 10
-44.935
 20
-15.8327
 11
-44.9783
 21
-15.9944
  0
LINE
  8
0
 10
-44.9783
 20
-15.9944
 11
-45.0383
 21
-16.1508
  0
LINE
  8
0
 10
-45.0383
 20
-16.1508
 11
-45.1143
 21
-16.3
  0
LINE
  8
0
 10
-45.1143
 20
-16.3
 11
-45.2056
 21
-16.4404
  0
LINE
  8
0
 10
-45.2056
 20
-16.4404
 11
-45.311
 21
-16.5706
  0
LINE
  8
0
 10
-45.311
 20
-16.5706
 11
-45.4294
 21
-16.689
  0
LINE
  8
0
 10
-45.4294
 20
-16.689
 11
-45.5595
 21
-16.7944
  0
LINE
  8
0
 10
-45.5595
 20
-16.7944
 11
-45.7
 21
-16.8856
  0
LINE
  8
0
 10
-45.7
 20
-16.8856
 11
-45.8492
 21
-16.9617
  0
LINE
  8
0
 10
-45.8492
 20
-16.9617
 11
-46.0056
 21
-17.0217
  0
LINE
  8
0
 10
-46.0056
 20
-17.0217
 11
-46.1673
 21
-17.065
  0
LINE
  8
0
 10
-46.1673
 20
-17.065
 11
-46.3327
 21
-17.0912
  0
LINE
  8
0
 10
-46.3327
 20
-17.0912
 11
-46.5
 21
-17.1
  0
LINE
  8
0
 10
-46.5
 20
-17.1
 11
-46.6672
 21
-17.0912
  0
LINE
  8
0
 10
-15.6673
 20
-17.0912
 11
-15.8327
 21
-17.065
  0
LINE
  8
0
 10
-15.8327
 20
-17.065
 11
-15.9944
 21
-17.0217
  0
LINE
  8
0
 10
-15.9944
 20
-17.0217
 11
-16.1508
 21
-16.9617
  0
LINE
  8
0
 10
-16.1508
 20
-16.9617
 11
-16.3
 21
-16.8856
  0
LINE
  8
0
 10
-16.3
 20
-16.8856
 11
-16.4405
 21
-16.7944
  0
LINE
  8
0
 10
-16.4405
 20
-16.7944
 11
-16.5706
 21
-16.689
  0
LINE
  8
0
 10
-16.5706
 20
-16.689
 11
-16.689
 21
-16.5706
  0
LINE
  8
0
 10
-16.689
 20
-16.5706
 11
-16.7944
 21
-16.4404
  0
LINE
  8
0
 10
-16.7944
 20
-16.4404
 11
-16.8857
 21
-16.3
  0
LINE
  8
0
 10
-16.8857
 20
-16.3
 11
-16.9617
 21
-16.1508
  0
LINE
  8
0
 10
-16.9617
 20
-16.1508
 11
-17.0217
 21
-15.9944
  0
LINE
  8
0
 10
-17.0217
 20
-15.9944
 11
-17.065
 21
-15.8327
  0
LINE
  8
0
 10
-17.065
 20
-15.8327
 11
-17.0912
 21
-15.6672
  0
LINE
  8
0
 10
-17.0912
 20
-15.6672
 11
-17.1
 21
-15.5
  0
LINE
  8
0
 10
-17.1
 20
-15.5
 11
-17.0912
 21
-15.3327
  0
LINE
  8
0
 10
-17.0912
 20
-15.3327
 11
-17.065
 21
-15.1673
  0
LINE
  8
0
 10
-17.065
 20
-15.1673
 11
-17.0217
 21
-15.0056
  0
LINE
  8
0
 10
-17.0217
 20
-15.0056
 11
-16.9617
 21
-14.8492
  0
LINE
  8
0
 10
-16.9617
 20
-14.8492
 11
-16.8857
 21
-14.7
  0
LINE
  8
0
 10
-16.8857
 20
-14.7
 11
-16.7944
 21
-14.5595
  0
LINE
  8
0
 10
-16.7944
 20
-14.5595
 11
-16.689
 21
-14.4294
  0
LINE
  8
0
 10
-16.689
 20
-14.4294
 11
-16.5706
 21
-14.311
  0
LINE
  8
0
 10
-16.5706
 20
-14.311
 11
-16.4405
 21
-14.2056
  0
LINE
  8
0
 10
-16.4405
 20
-14.2056
 11
-16.3
 21
-14.1143
  0
LINE
  8
0
 10
-16.3
 20
-14.1143
 11
-16.1508
 21
-14.0383
  0
LINE
  8
0
 10
-16.1508
 20
-14.0383
 11
-15.9944
 21
-13.9783
  0
LINE
  8
0
 10
-15.9944
 20
-13.9783
 11
-15.8327
 21
-13.935
  0
LINE
  8
0
 10
-15.8327
 20
-13.935
 11
-15.6673
 21
-13.9088
  0
LINE
  8
0
 10
-15.6673
 20
-13.9088
 11
-15.5
 21
-13.9
  0
LINE
  8
0
 10
-15.5
 20
-13.9
 11
-15.3328
 21
-13.9088
  0
LINE
  8
0
 10
-15.3328
 20
-13.9088
 11
-15.1673
 21
-13.935
  0
LINE
  8
0
 10
-15.1673
 20
-13.935
 11
-15.0056
 21
-13.9783
  0
LINE
  8
0
 10
-15.0056
 20
-13.9783
 11
-14.8492
 21
-14.0383
  0
LINE
  8
0
 10
-14.8492
 20
-14.0383
 11
-14.7
 21
-14.1143
  0
LINE
  8
0
 10
-14.7
 20
-14.1143
 11
-14.5596
 21
-14.2056
  0
LINE
  8
0
 10
-14.5596
 20
-14.2056
 11
-14.4294
 21
-14.311
  0
LINE
  8
0
 10
-14.4294
 20
-14.311
 11
-14.311
 21
-14.4294
  0
LINE
  8
0
 10
-14.311
 20
-14.4294
 11
-14.2056
 21
-14.5595
  0
LINE
  8
0
 10
-14.2056
 20
-14.5595
 11
-14.1144
 21
-14.7
  0
LINE
  8
0
 10
-14.1144
 20
-14.7
 11
-14.0383
 21
-14.8492
  0
LINE
  8
0
 10
-14.0383
 20
-14.8492
 11
-13.9783
 21
-15.0056
  0
LINE
  8
0
 10
-13.9783
 20
-15.0056
 11
-13.935
 21
-15.1673
  0
LINE
  8
0
 10
-13.935
 20
-15.1673
 11
-13.9088
 21
-15.3327
  0
LINE
  8
0
 10
-13.9088
 20
-15.3327
 11
-13.9
 21
-15.5
  0
LINE
  8
0
 10
-13.9
 20
-15.5
 11
-13.9088
 21
-15.6672
  0
LINE
  8
0
 10
-13.9088
 20
-15.6672
 11
-13.935
 21
-15.8327
  0
LINE
  8
0
 10
-13.935
 20
-15.8327
 11
-13.9783
 21
-15.9944
  0
LINE
  8
0
 10
-13.9783
 20
-15.9944
 11
-14.0383
 21
-16.1508
  0
LINE
  8
0
 10
-14.0383
 20
-16.1508
 11
-14.1144
 21
-16.3
  0
LINE
  8
0
 10
-14.1144
 20
-16.3
 11
-14.2056
 21
-16.4404
  0
LINE
  8
0
 10
-14.2056
 20
-16.4404
 11
-14.311
 21
-16.5706
  0
LINE
  8
0
 10
-14.311
 20
-16.5706
 11
-14.4294
 21
-16.689
  0
LINE
  8
0
 10
-14.4294
 20
-16.689
 11
-14.5596
 21
-16.7944
  0
LINE
  8
0
 10
-14.5596
 20
-16.7944
 11
-14.7
 21
-16.8856
  0
LINE
  8
0
 10
-14.7
 20
-16.8856
 11
-14.8492
 21
-16.9617
  0
LINE
  8
0
 10
-14.8492
 20
-16.9617
 11
-15.0056
 21
-17.0217
  0
LINE
  8
0
 10
-15.0056
 20
-17.0217
 11
-15.1673
 21
-17.065
  0
LINE
  8
0
 10
-15.1673
 20
-17.065
 11
-15.3328
 21
-17.0912
  0
LINE
  8
0
 10
-15.3328
 20
-17.0912
 11
-15.5
 21
-17.1
  0
LINE
  8
0
 10
-15.5
 20
-17.1
 11
-15.6673
 21
-17.0912
  0
LINE
  8
0
 10
15.3328
 20
-17.0912
 11
15.1673
 21
-17.065
  0
LINE
  8
0
 10
15.1673
 20
-17.065
 11
15.0056
 21
-17.0217
  0
LINE
  8
0
 10
15.0056
 20
-17.0217
 11
14.8492
 21
-16.9617
  0
LINE
  8
0
 10
14.8492
 20
-16.9617
 11
14.7
 21
-16.8856
  0
LINE
  8
0
 10
14.7
 20
-16.8856
 11
14.5596
 21
-16.7944
  0
LINE
  8
0
 10
14.5596
 20
-16.7944
 11
14.4294
 21
-16.689
  0
LINE
  8
0
 10
14.4294
 20
-16.689
 11
14.311
 21
-16.5706
  0
LINE
  8
0
 10
14.311
 20
-16.5706
 11
14.2056
 21
-16.4404
  0
LINE
  8
0
 10
14.2056
 20
-16.4404
 11
14.1144
 21
-16.3
  0
LINE
  8
0
 10
14.1144
 20
-16.3
 11
14.0383
 21
-16.1508
  0
LINE
  8
0
 10
14.0383
 20
-16.1508
 11
13.9783
 21
-15.9944
  0
LINE
  8
0
 10
13.9783
 20
-15.9944
 11
13.935
 21
-15.8327
  0
LINE
  8
0
 10
13.935
 20
-15.8327
 11
13.9088
 21
-15.6672
  0
LINE
  8
0
 10
13.9088
 20
-15.6672
 11
13.9
 21
-15.5
  0
LINE
  8
0
 10
13.9
 20
-15.5
 11
13.9088
 21
-15.3327
  0
LINE
  8
0
 10
13.9088
 20
-15.3327
 11
13.935
 21
-15.1673
  0
LINE
  8
0
 10
13.935
 20
-15.1673
 11
13.9783
 21
-15.0056
  0
LINE
  8
0
 10
13.9783
 20
-15.0056
 11
14.0383
 21
-14.8492
  0
LINE
  8
0
 10
14.0383
 20
-14.8492
 11
14.1144
 21
-14.7
  0
LINE
  8
0
 10
14.1144
 20
-14.7
 11
14.2056
 21
-14.5595
  0
LINE
  8
0
 10
14.2056
 20
-14.5595
 11
14.311
 21
-14.4294
  0
LINE
  8
0
 10
14.311
 20
-14.4294
 11
14.4294
 21
-14.311
  0
LINE
  8
0
 10
14.4294
 20
-14.311
 11
14.5596
 21
-14.2056
  0
LINE
  8
0
 10
14.5596
 20
-14.2056
 11
14.7
 21
-14.1143
  0
LINE
  8
0
 10
14.7
 20
-14.1143
 11
14.8492
 21
-14.0383
  0
LINE
  8
0
 10
14.8492
 20
-14.0383
 11
15.0056
 21
-13.9783
  0
LINE
  8
0
 10
15.0056
 20
-13.9783
 11
15.1673
 21
-13.935
  0
LINE
  8
0
 10
15.1673
 20
-13.935
 11
15.3328
 21
-13.9088
  0
LINE
  8
0
 10
15.3328
 20
-13.9088
 11
15.5
 21
-13.9
  0
LINE
  8
0
 10
15.5
 20
-13.9
 11
15.6673
 21
-13.9088
  0
LINE
  8
0
 10
15.6673
 20
-13.9088
 11
15.8327
 21
-13.935
  0
LINE
  8
0
 10
15.8327
 20
-13.935
 11
15.9944
 21
-13.9783
  0
LINE
  8
0
 10
15.9944
 20
-13.9783
 11
16.1508
 21
-14.0383
  0
LINE
  8
0
 10
16.1508
 20
-14.0383
 11
16.3
 21
-14.1143
  0
LINE
  8
0
 10
16.3
 20
-14.1143
 11
16.4405
 21
-14.2056
  0
LINE
  8
0
 10
16.4405
 20
-14.2056
 11
16.5706
 21
-14.311
  0
LINE
  8
0
 10
16.5706
 20
-14.311
 11
16.689
 21
-14.4294
  0
LINE
  8
0
 10
16.689
 20
-14.4294
 11
16.7944
 21
-14.5595
  0
LINE
  8
0
 10
16.7944
 20
-14.5595
 11
16.8857
 21
-14.7
  0
LINE
  8
0
 10
16.8857
 20
-14.7
 11
16.9617
 21
-14.8492
  0
LINE
  8
0
 10
16.9617
 20
-14.8492
 11
17.0217
 21
-15.0056
  0
LINE
  8
0
 10
17.0217
 20
-15.0056
 11
17.065
 21
-15.1673
  0
LINE
  8
0
 10
17.065
 20
-15.1673
 11
17.0912
 21
-15.3327
  0
LINE
  8
0
 10
17.0912
 20
-15.3327
 11
17.1
 21
-15.5
  0
LINE
  8
0
 10
17.1
 20
-15.5
 11
17.0912
 21
-15.6672
  0
LINE
  8
0
 10
17.0912
 20
-15.6672
 11
17.065
 21
-15.8327
  0
LINE
  8
0
 10
17.065
 20
-15.8327
 11
17.0217
 21
-15.9944
  0
LINE
  8
0
 10
17.0217
 20
-15.9944
 11
16.9617
 21
-16.1508
  0
LINE
  8
0
 10
16.9617
 20
-16.1508
 11
16.8857
 21
-16.3
  0
LINE
  8
0
 10
16.8857
 20
-16.3
 11
16.7944
 21
-16.4404
  0
LINE
  8
0
 10
16.7944
 20
-16.4404
 11
16.689
 21
-16.5706
  0
LINE
  8
0
 10
16.689
 20
-16.5706
 11
16.5706
 21
-16.689
  0
LINE
  8
0
 10
16.5706
 20
-16.689
 11
16.4405
 21
-16.7944
  0
LINE
  8
0
 10
16.4405
 20
-16.7944
 11
16.3
 21
-16.8856
  0
LINE
  8
0
 10
16.3
 20
-16.8856
 11
16.1508
 21
-16.9617
  0
LINE
  8
0
 10
16.1508
 20
-16.9617
 11
15.9944
 21
-17.0217
  0
LINE
  8
0
 10
15.9944
 20
-17.0217
 11
15.8327
 21
-17.065
  0
LINE
  8
0
 10
15.8327
 20
-17.065
 11
15.6673
 21
-17.0912
  0
LINE
  8
0
 10
15.6673
 20
-17.0912
 11
15.5
 21
-17.1
  0
LINE
  8
0
 10
15.5
 20
-17.1
 11
15.3328
 21
-17.0912
  0
LINE
  8
0
 10
46.3327
 20
-17.0912
 11
46.1673
 21
-17.065
  0
LINE
  8
0
 10
46.1673
 20
-17.065
 11
46.0056
 21
-17.0217
  0
LINE
  8
0
 10
46.0056
 20
-17.0217
 11
45.8492
 21
-16.9617
  0
LINE
  8
0
 10
45.8492
 20
-16.9617
 11
45.7
 21
-16.8856
  0
LINE
  8
0
 10
45.7
 20
-16.8856
 11
45.5595
 21
-16.7944
  0
LINE
  8
0
 10
45.5595
 20
-16.7944
 11
45.4294
 21
-16.689
  0
LINE
  8
0
 10
45.4294
 20
-16.689
 11
45.311
 21
-16.5706
  0
LINE
  8
0
 10
45.311
 20
-16.5706
 11
45.2056
 21
-16.4404
  0
LINE
  8
0
 10
45.2056
 20
-16.4404
 11
45.1143
 21
-16.3
  0
LINE
  8
0
 10
45.1143
 20
-16.3
 11
45.0383
 21
-16.1508
  0
LINE
  8
0
 10
45.0383
 20
-16.1508
 11
44.9783
 21
-15.9944
  0
LINE
  8
0
 10
44.9783
 20
-15.9944
 11
44.935
 21
-15.8327
  0
LINE
  8
0
 10
44.935
 20
-15.8327
 11
44.9088
 21
-15.6672
  0
LINE
  8
0
 10
44.9088
 20
-15.6672
 11
44.9
 21
-15.5
  0
LINE
  8
0
 10
44.9
 20
-15.5
 11
44.9088
 21
-15.3327
  0
LINE
  8
0
 10
44.9088
 20
-15.3327
 11
44.935
 21
-15.1673
  0
LINE
  8
0
 10
44.935
 20
-15.1673
 11
44.9783
 21
-15.0056
  0
LINE
  8
0
 10
44.9783
 20
-15.0056
 11
45.0383
 21
-14.8492
  0
LINE
  8
0
 10
45.0383
 20
-14.8492
 11
45.1143
 21
-14.7
  0
LINE
  8
0
 10
45.1143
 20
-14.7
 11
45.2056
 21
-14.5595
  0
LINE
  8
0
 10
45.2056
 20
-14.5595
 11
45.311
 21
-14.4294
  0
LINE
  8
0
 10
45.311
 20
-14.4294
 11
45.4294
 21
-14.311
  0
LINE
  8
0
 10
45.4294
 20
-14.311
 11
45.5595
 21
-14.2056
  0
LINE
  8
0
 10
45.5595
 20
-14.2056
 11
45.7
 21
-14.1143
  0
LINE
  8
0
 10
45.7
 20
-14.1143
 11
45.8492
 21
-14.0383
  0
LINE
  8
0
 10
45.8492
 20
-14.0383
 11
46.0056
 21
-13.9783
  0
LINE
  8
0
 10
46.0056
 20
-13.9783
 11
46.1673
 21
-13.935
  0
LINE
  8
0
 10
46.1673
 20
-13.935
 11
46.3327
 21
-13.9088
  0
LINE
  8
0
 10
46.3327
 20
-13.9088
 11
46.5
 21
-13.9
  0
LINE
  8
0
 10
46.5
 20
-13.9
 11
46.6672
 21
-13.9088
  0
LINE
  8
0
 10
46.6672
 20
-13.9088
 11
46.8327
 21
-13.935
  0
LINE
  8
0
 10
46.8327
 20
-13.935
 11
46.9944
 21
-13.9783
  0
LINE
  8
0
 10
46.9944
 20
-13.9783
 11
47.1508
 21
-14.0383
  0
LINE
  8
0
 10
47.1508
 20
-14.0383
 11
47.3
 21
-14.1143
  0
LINE
  8
0
 10
47.3
 20
-14.1143
 11
47.4404
 21
-14.2056
  0
LINE
  8
0
 10
47.4404
 20
-14.2056
 11
47.5706
 21
-14.311
  0
LINE
  8
0
 10
47.5706
 20
-14.311
 11
47.689
 21
-14.4294
  0
LINE
  8
0
 10
47.689
 20
-14.4294
 11
47.7944
 21
-14.5595
  0
LINE
  8
0
 10
47.7944
 20
-14.5595
 11
47.8856
 21
-14.7
  0
LINE
  8
0
 10
47.8856
 20
-14.7
 11
47.9617
 21
-14.8492
  0
LINE
  8
0
 10
47.9617
 20
-14.8492
 11
48.0217
 21
-15.0056
  0
LINE
  8
0
 10
48.0217
 20
-15.0056
 11
48.065
 21
-15.1673
  0
LINE
  8
0
 10
48.065
 20
-15.1673
 11
48.0912
 21
-15.3327
  0
LINE
  8
0
 10
48.0912
 20
-15.3327
 11
48.1
 21
-15.5
  0
LINE
  8
0
 10
48.1
 20
-15.5
 11
48.0912
 21
-15.6672
  0
LINE
  8
0
 10
48.0912
 20
-15.6672
 11
48.065
 21
-15.8327
  0
LINE
  8
0
 10
48.065
 20
-15.8327
 11
48.0217
 21
-15.9944
  0
LINE
  8
0
 10
48.0217
 20
-15.9944
 11
47.9617
 21
-16.1508
  0
LINE
  8
0
 10
47.9617
 20
-16.1508
 11
47.8856
 21
-16.3
  0
LINE
  8
0
 10
47.8856
 20
-16.3
 11
47.7944
 21
-16.4404
  0
LINE
  8
0
 10
47.7944
 20
-16.4404
 11
47.689
 21
-16.5706
  0
LINE
  8
0
 10
47.689
 20
-16.5706
 11
47.5706
 21
-16.689
  0
LINE
  8
0
 10
47.5706
 20
-16.689
 11
47.4404
 21
-16.7944
  0
LINE
  8
0
 10
47.4404
 20
-16.7944
 11
47.3
 21
-16.8856
  0
LINE
  8
0
 10
47.3
 20
-16.8856
 11
47.1508
 21
-16.9617
  0
LINE
  8
0
 10
47.1508
 20
-16.9617
 11
46.9944
 21
-17.0217
  0
LINE
  8
0
 10
46.9944
 20
-17.0217
 11
46.8327
 21
-17.065
  0
LINE
  8
0
 10
46.8327
 20
-17.065
 11
46.6672
 21
-17.0912
  0
LINE
  8
0
 10
46.6672
 20
-17.0912
 11
46.5
 21
-17.1
  0
LINE
  8
0
 10
46.5
 20
-17.1
 11
46.3327
 21
-17.0912
  0
ENDSEC
  0
SECTION
  2
OBJECTS
  0
DICTIONARY
  0
ENDSEC
  0
EOF
